<?xml version="1.0" encoding="utf-8"?>
<!-- Generator: Adobe Illustrator 21.1.0, SVG Export Plug-In . SVG Version: 6.00 Build 0)  -->
<svg version="1.1" id="图层_1" xmlns="http://www.w3.org/2000/svg" xmlns:xlink="http://www.w3.org/1999/xlink" x="0px" y="0px"
	 viewBox="0 0 23 8.5" style="enable-background:new 0 0 23 8.5;" xml:space="preserve">
<style type="text/css">
	.st0{fill:#87BF2E;}
	.st1{fill:#FFFFFF;}
</style>
<g>
	<path class="st0" d="M18.8,8.5H4.2C1.9,8.5,0,6.6,0,4.2v0C0,1.9,1.9,0,4.2,0l14.6,0C21.1,0,23,1.9,23,4.2v0
		C23,6.6,21.1,8.5,18.8,8.5z"/>
	<g>
		<path class="st1" d="M9.5,6.9H8.7L8.1,5.4H5.9L5.4,6.9H4.6l2.1-5.4h0.7L9.5,6.9z M7.9,4.8L7.1,2.6c0-0.1-0.1-0.2-0.1-0.4h0
			C7,2.4,7,2.5,6.9,2.6L6.1,4.8H7.9z"/>
		<path class="st1" d="M13.8,6.7C13.4,6.9,12.9,7,12.3,7c-0.8,0-1.4-0.2-1.9-0.7s-0.7-1.1-0.7-2c0-0.9,0.3-1.6,0.8-2.1
			s1.2-0.8,2-0.8c0.5,0,0.9,0.1,1.3,0.2v0.7c-0.4-0.2-0.8-0.3-1.3-0.3c-0.6,0-1.1,0.2-1.5,0.6s-0.6,0.9-0.6,1.6
			c0,0.6,0.2,1.2,0.5,1.5c0.4,0.4,0.8,0.6,1.4,0.6c0.5,0,1-0.1,1.4-0.4V6.7z"/>
		<path class="st1" d="M18.4,6.7C18,6.9,17.5,7,16.9,7c-0.8,0-1.4-0.2-1.9-0.7c-0.5-0.5-0.7-1.1-0.7-2c0-0.9,0.3-1.6,0.8-2.1
			s1.2-0.8,2-0.8c0.5,0,0.9,0.1,1.3,0.2v0.7c-0.4-0.2-0.8-0.3-1.3-0.3c-0.6,0-1.1,0.2-1.5,0.6c-0.4,0.4-0.6,0.9-0.6,1.6
			c0,0.6,0.2,1.2,0.5,1.5C16,6.2,16.4,6.4,17,6.4c0.5,0,1-0.1,1.4-0.4V6.7z"/>
	</g>
</g>
</svg>
