<?xml version="1.0" encoding="utf-8"?>
<!-- Generator: Adobe Illustrator 21.1.0, SVG Export Plug-In . SVG Version: 6.00 Build 0)  -->
<svg version="1.1" id="图层_1" xmlns="http://www.w3.org/2000/svg" xmlns:xlink="http://www.w3.org/1999/xlink" x="0px" y="0px"
	 viewBox="0 0 14.5 14.5" style="enable-background:new 0 0 14.5 14.5;" xml:space="preserve">
<style type="text/css">
	.st0{fill:#E35850;}
	.st1{fill:#FFFFFF;}
</style>
<g>
	<circle class="st0" cx="7.2" cy="7.2" r="7.2"/>
	<g>
		<path class="st1" d="M7.8,7.2l2.4-2.4c0.2-0.2,0.2-0.4,0.1-0.6c-0.2-0.1-0.4-0.1-0.6,0L7.3,6.7L4.9,4.2c-0.2-0.1-0.4-0.1-0.6,0
			c-0.1,0.2-0.1,0.4,0,0.6l2.4,2.4L4.2,9.6c-0.1,0.2-0.1,0.4,0,0.6c0.1,0.1,0.2,0.1,0.4,0.1c0.1,0,0.2,0,0.3-0.1l2.4-2.4l2.4,2.4
			c0.1,0.1,0.2,0.1,0.3,0.1s0.2,0,0.3-0.1c0.2-0.2,0.2-0.4,0.1-0.6L7.8,7.2z"/>
	</g>
</g>
</svg>
