<?xml version="1.0" encoding="utf-8"?>
<!-- Generator: Adobe Illustrator 21.1.0, SVG Export Plug-In . SVG Version: 6.00 Build 0)  -->
<svg version="1.1" id="图层_1" xmlns="http://www.w3.org/2000/svg" xmlns:xlink="http://www.w3.org/1999/xlink" x="0px" y="0px"
	 viewBox="0 0 20 20" style="enable-background:new 0 0 20 20;" xml:space="preserve">
<style type="text/css">
	.st0{fill:#888A91;}
</style>
<g>
	<g>
		<path class="st0" d="M6.2,8.7c0.7,0,1.3-0.6,1.3-1.3c0-0.7-0.6-1.3-1.3-1.3C5.6,6.2,5,6.8,5,7.5C5,8.2,5.6,8.7,6.2,8.7z M13.8,8.7
			c0.7,0,1.3-0.6,1.3-1.3c0-0.7-0.6-1.3-1.3-1.3c-0.7,0-1.3,0.6-1.3,1.3C12.5,8.2,13.1,8.7,13.8,8.7z M10,0C4.5,0,0,4.5,0,10
			c0,5.5,4.5,10,10,10c5.5,0,10-4.5,10-10C20,4.5,15.5,0,10,0z M10,18.7c-4.8,0-8.7-3.9-8.7-8.7c0-4.8,3.9-8.7,8.7-8.7
			c4.8,0,8.7,3.9,8.7,8.7C18.7,14.8,14.8,18.7,10,18.7z M14.9,11c-0.3-0.1-0.6,0-0.8,0.4c-0.1,0.4-0.4,0.9-0.6,1.3
			c-0.8,1.1-2.1,1.8-3.5,1.8c-1.4,0-2.6-0.6-3.6-1.9c-0.2-0.4-0.5-0.8-0.6-1.3C5.6,11,5.4,10.8,5,10.9c-0.3,0.1-0.5,0.5-0.4,0.9
			c0.3,0.5,0.5,1.1,0.9,1.6c1,1.4,2.8,2.3,4.5,2.3c1.8,0,3.5-0.9,4.4-2.3c0.4-0.5,0.8-1,0.9-1.6C15.4,11.5,15.3,11.1,14.9,11z"/>
	</g>
</g>
</svg>
