<?xml version="1.0" encoding="utf-8"?>
<!-- Generator: Adobe Illustrator 21.1.0, SVG Export Plug-In . SVG Version: 6.00 Build 0)  -->
<svg version="1.1" id="图层_1" xmlns="http://www.w3.org/2000/svg" xmlns:xlink="http://www.w3.org/1999/xlink" x="0px" y="0px"
	 viewBox="0 0 26 26" style="enable-background:new 0 0 26 26;" xml:space="preserve">
<style type="text/css">
	.st0{fill-rule:evenodd;clip-rule:evenodd;fill:#EA825E;}
	.st1{fill:#F7E7E7;}
</style>
<g>
	<path class="st0" d="M13,0c7.2,0,13,5.8,13,13s-5.8,13-13,13C5.8,26,0,20.2,0,13S5.8,0,13,0z"/>
	<ellipse class="st1" cx="13" cy="11.5" rx="5" ry="4.9"/>
	<path class="st1" d="M13,26c3.5,0,6.6-1.3,8.9-3.5c-0.1-0.6-0.2-1.2-0.5-1.8c-0.6-1.7-2.1-2.8-3.9-3.2h-0.1l-0.3,0
		c-0.2,0-0.3,0.1-0.5,0.1c0,0-0.3,0.2-0.6,0.3c-1,0.4-2,0.6-3,0.6c-1,0-2.1-0.2-3-0.6c-0.3-0.1-0.6-0.3-0.6-0.3
		c-0.2-0.1-0.3-0.1-0.5-0.1H8.5c-1.8,0.3-3.2,1.5-3.9,3.1c-0.2,0.6-0.4,1.2-0.5,1.9C6.4,24.7,9.6,26,13,26z"/>
</g>
</svg>
