<?xml version="1.0" encoding="utf-8"?>
<!-- Generator: Adobe Illustrator 21.1.0, SVG Export Plug-In . SVG Version: 6.00 Build 0)  -->
<svg version="1.1" id="图层_1" xmlns="http://www.w3.org/2000/svg" xmlns:xlink="http://www.w3.org/1999/xlink" x="0px" y="0px"
	 viewBox="0 0 32 32" style="enable-background:new 0 0 32 32;" xml:space="preserve">
<style type="text/css">
	.st0{fill:#6DCFF6;}
</style>
<g>
	<path class="st0" d="M27.7,0H4.3C1.9,0,0,1.9,0,4.3v23.5C0,30.1,1.9,32,4.3,32h23.5c2.4,0,4.3-1.9,4.3-4.3V4.3
		C32,1.9,30.1,0,27.7,0L27.7,0z M30.2,27.7c0,1.2-1.3,2.4-2.4,2.4H4.3c-1.2,0-2.4-1.3-2.4-2.4V4.3c0-1.2,1.3-2.4,2.4-2.4h23.5
		c1.2,0,2.4,1.3,2.4,2.4V27.7L30.2,27.7z"/>
	<g>
		<path class="st0" d="M26,6c0.3,0.3,0.3,0.7,0,0.9l-6.5,6.5c-0.3,0.3-0.7,0.3-0.9,0c-0.3-0.3-0.3-0.7,0-0.9L25.1,6
			C25.4,5.7,25.8,5.7,26,6z"/>
		<path class="st0" d="M25.1,7l-4,0c-0.3,0-0.5-0.2-0.5-0.5V6.2c0-0.3,0.2-0.5,0.5-0.5l4.6,0c0,0,0,0,0,0l0.2,0c0.1,0,0.2,0,0.3,0.1
			c0.1,0.1,0.1,0.2,0.1,0.3l0,0.2c0,0,0,0,0,0l0,4.7c0,0.3-0.2,0.4-0.5,0.4h-0.3c-0.3,0-0.5-0.2-0.5-0.5L25.1,7z"/>
		<path class="st0" d="M6,26c-0.3-0.3-0.3-0.7,0-0.9l6.6-6.5c0.3-0.3,0.7-0.3,0.9,0c0.3,0.3,0.3,0.7,0,0.9L6.9,26
			C6.6,26.3,6.2,26.3,6,26z"/>
		<path class="st0" d="M7,25l4,0c0.3,0,0.5,0.2,0.5,0.5v0.3c0,0.3-0.2,0.5-0.5,0.5l-4.6,0c0,0,0,0,0,0l-0.2,0c-0.1,0-0.2,0-0.3-0.1
			c-0.1-0.1-0.1-0.2-0.1-0.3l0-0.2c0,0,0,0,0,0l0-4.7c0-0.3,0.2-0.4,0.5-0.4h0.4C6.8,20.5,7,20.7,7,21L7,25z"/>
		<path class="st0" d="M26,26c0.3-0.3,0.3-0.7,0-0.9l-6.5-6.5c-0.3-0.3-0.7-0.3-0.9,0c-0.3,0.3-0.3,0.7,0,0.9l6.5,6.5
			C25.4,26.3,25.8,26.3,26,26z"/>
		<path class="st0" d="M25.1,25l-4,0c-0.3,0-0.5,0.2-0.5,0.5v0.3c0,0.3,0.2,0.5,0.5,0.5l4.6,0c0,0,0,0,0,0l0.2,0
			c0.1,0,0.2,0,0.3-0.1c0.1-0.1,0.1-0.2,0.1-0.3l0-0.2c0,0,0,0,0,0l0-4.7c0-0.3-0.2-0.4-0.5-0.4h-0.3c-0.3,0-0.5,0.2-0.5,0.5
			L25.1,25z"/>
		<path class="st0" d="M6,6C5.7,6.2,5.7,6.7,6,6.9l6.6,6.5c0.3,0.3,0.7,0.3,0.9,0c0.3-0.3,0.3-0.7,0-0.9L6.9,6C6.6,5.7,6.2,5.7,6,6z
			"/>
		<path class="st0" d="M7,7l4,0c0.3,0,0.5-0.2,0.5-0.5V6.2c0-0.3-0.2-0.5-0.5-0.5l-4.6,0c0,0,0,0,0,0l-0.2,0c-0.1,0-0.2,0-0.3,0.1
			C5.7,5.9,5.7,6,5.7,6.2l0,0.2c0,0,0,0,0,0l0,4.7c0,0.3,0.2,0.4,0.5,0.4h0.4C6.8,11.5,7,11.3,7,11L7,7z"/>
	</g>
</g>
</svg>
