<?xml version="1.0" encoding="utf-8"?>
<!-- Generator: Adobe Illustrator 21.1.0, SVG Export Plug-In . SVG Version: 6.00 Build 0)  -->
<svg version="1.1" id="图层_1" xmlns="http://www.w3.org/2000/svg" xmlns:xlink="http://www.w3.org/1999/xlink" x="0px" y="0px"
	 viewBox="0 0 32 32" style="enable-background:new 0 0 32 32;" xml:space="preserve">
<style type="text/css">
	.st0{fill:#646464;}
</style>
<g>
	<path class="st0" d="M27.7,0H4.3C1.9,0,0,1.9,0,4.3v23.5C0,30.1,1.9,32,4.3,32h23.5c2.4,0,4.3-1.9,4.3-4.3V4.3
		C32,1.9,30.1,0,27.7,0L27.7,0z M30.2,27.7c0,1.2-1.3,2.4-2.4,2.4H4.3c-1.2,0-2.4-1.3-2.4-2.4V4.3c0-1.2,1.3-2.4,2.4-2.4h23.5
		c1.2,0,2.4,1.3,2.4,2.4L30.2,27.7L30.2,27.7z"/>
</g>
<g>
	<path class="st0" d="M20.1,7.3l4.6,4.5l-5.4,7l-0.8,1.1l1,1l0.2,0.2l-2.2,2.2l-8.7-8.6l2.2-2.2l0.2,0.2l1,1l1.1-0.8L20.1,7.3
		 M20.1,5.8c-0.3,0-0.7,0.1-0.9,0.3l-7,5.4L12,11.3c-0.6-0.6-1.6-0.6-2.2,0l-2.2,2.2c-0.6,0.6-0.6,1.6,0,2.2l8.7,8.7
		c0.6,0.5,1.5,0.5,2.1,0l2.2-2.2c0.6-0.6,0.6-1.6,0-2.2l-0.1-0.2l5.4-7c0.5-0.6,0.4-1.5-0.1-2l-4.6-4.6C20.9,5.9,20.5,5.8,20.1,5.8
		L20.1,5.8z M6.2,26L6,25.8c-0.3-0.3-0.3-0.7,0-0.9l0,0l4.9-4.9c0.3-0.3,0.7-0.3,0.9,0l0,0l0.2,0.2c0.3,0.3,0.3,0.7,0,0.9l0,0
		L7.1,26C6.9,26.3,6.5,26.3,6.2,26L6.2,26L6.2,26z"/>
	<path class="st0" d="M10.4,7.2l14.4,14.4c0.4,0.4,0.4,0.7,0,1.1l0,0c-0.4,0.4-0.7,0.4-1.1,0L9.3,8.4C8.9,8,8.9,7.7,9.3,7.3l0,0
		C9.7,6.9,10,6.9,10.4,7.2z"/>
</g>
</svg>
