<?xml version="1.0" encoding="utf-8"?>
<!-- Generator: Adobe Illustrator 21.1.0, SVG Export Plug-In . SVG Version: 6.00 Build 0)  -->
<svg version="1.1" id="图层_1" xmlns="http://www.w3.org/2000/svg" xmlns:xlink="http://www.w3.org/1999/xlink" x="0px" y="0px"
	 viewBox="0 0 32 32" style="enable-background:new 0 0 32 32;" xml:space="preserve">
<style type="text/css">
	.st0{fill:#6DCFF6;}
</style>
<g>
	<path class="st0" d="M27.7,0H4.3C1.9,0,0,1.9,0,4.3v23.5C0,30.1,1.9,32,4.3,32h23.5c2.4,0,4.3-1.9,4.3-4.3V4.3
		C32,1.9,30.1,0,27.7,0L27.7,0z M30.2,27.7c0,1.2-1.3,2.4-2.4,2.4H4.3c-1.2,0-2.4-1.3-2.4-2.4V4.3c0-1.2,1.3-2.4,2.4-2.4h23.5
		c1.2,0,2.4,1.3,2.4,2.4L30.2,27.7L30.2,27.7z"/>
</g>
<g>
	<path class="st0" d="M12.7,5.2l6.4-0.1l1.1,8.8l0.2,1.3h1.4h0.3v3.1L10,18.4v-3.1h0.3h1.4l0.2-1.3L12.7,5.2 M11.7,4.2
		c-0.2,0.2-0.4,0.6-0.4,0.8l-1.1,8.8H9.8c-0.8,0-1.6,0.7-1.6,1.6v3.1C8.3,19.3,9,20,9.8,20l12.3,0c0.8-0.1,1.4-0.7,1.5-1.5v-3.1
		c0-0.8-0.7-1.6-1.6-1.6l-0.2-0.1L20.7,5c-0.1-0.8-0.8-1.3-1.5-1.3l-6.5,0C12.3,3.7,11.9,3.9,11.7,4.2L11.7,4.2z M16,28.3l-0.3,0
		c-0.4,0-0.7-0.3-0.6-0.6l0,0l0-6.9c0-0.4,0.3-0.7,0.6-0.6l0,0H16c0.4,0,0.7,0.3,0.6,0.6l0,0v6.9C16.7,28,16.5,28.3,16,28.3L16,28.3
		L16,28.3z"/>
	<path class="st0" d="M5.8,12h20.4c0.6,0,0.8,0.2,0.8,0.8l0,0c0,0.6-0.2,0.8-0.8,0.8L5.9,13.6c-0.6,0-0.8-0.2-0.8-0.8l0,0
		C5.1,12.3,5.3,12.1,5.8,12z"/>
</g>
</svg>
