<?xml version="1.0" encoding="utf-8"?>
<!-- Generator: Adobe Illustrator 21.1.0, SVG Export Plug-In . SVG Version: 6.00 Build 0)  -->
<svg version="1.1" id="图层_1" xmlns="http://www.w3.org/2000/svg" xmlns:xlink="http://www.w3.org/1999/xlink" x="0px" y="0px"
	 viewBox="0 0 32 32" style="enable-background:new 0 0 32 32;" xml:space="preserve">
<style type="text/css">
	.st0{fill:#646464;}
</style>
<g>
	<g>
		<path class="st0" d="M27.7,0H4.3C1.9,0,0,1.9,0,4.3v23.5C0,30.1,1.9,32,4.3,32h23.5c2.4,0,4.3-1.9,4.3-4.3V4.3
			C32,1.9,30.1,0,27.7,0L27.7,0z M30.2,27.7c0,1.2-1.3,2.4-2.4,2.4H4.3c-1.2,0-2.4-1.3-2.4-2.4V4.3c0-1.2,1.3-2.4,2.4-2.4h23.5
			c1.2,0,2.4,1.3,2.4,2.4V27.7L30.2,27.7z"/>
	</g>
	<path class="st0" d="M19.3,17.6l-8.8,5.9c-0.6,0.4-1.3,0.4-1.9,0.1c-0.6-0.3-1-1-1-1.7V10.1c0-0.7,0.4-1.3,1-1.7
		c0.6-0.3,1.4-0.3,1.9,0.1l8.8,5.9c0.5,0.3,0.8,0.9,0.8,1.6S19.8,17.2,19.3,17.6z M23.5,8.5c0.2,0,0.5,0.1,0.7,0.3
		c0.2,0.2,0.3,0.4,0.3,0.7v13.1c0,0.5-0.4,0.9-0.9,0.9c-0.5,0-0.9-0.4-0.9-0.9V9.4c0-0.2,0.1-0.5,0.3-0.7C23,8.6,23.3,8.5,23.5,8.5
		L23.5,8.5z"/>
</g>
</svg>
