<?xml version="1.0" encoding="utf-8"?>
<!-- Generator: Adobe Illustrator 16.0.0, SVG Export Plug-In . SVG Version: 6.00 Build 0)  -->
<!DOCTYPE svg PUBLIC "-//W3C//DTD SVG 1.1//EN" "http://www.w3.org/Graphics/SVG/1.1/DTD/svg11.dtd">
<svg version="1.1" id="图层_1" xmlns="http://www.w3.org/2000/svg" xmlns:xlink="http://www.w3.org/1999/xlink" x="0px" y="0px"
	 width="28.498px" height="28.5px" viewBox="0 0 28.498 28.5" enable-background="new 0 0 28.498 28.5" xml:space="preserve">
<path fill="#646464" d="M24.7,0H3.8C1.702,0,0,1.702,0,3.8v20.899c0,2.1,1.702,3.801,3.8,3.801h20.9c2.1,0,3.798-1.701,3.798-3.801
	V3.8C28.498,1.702,26.8,0,24.7,0L24.7,0z M26.877,24.699c0,1.051-1.129,2.174-2.177,2.174H3.8c-1.049,0-2.177-1.123-2.177-2.174V3.8
	c0-1.048,1.128-2.177,2.177-2.177h20.9c1.048,0,2.177,1.129,2.177,2.177V24.699L26.877,24.699z"/>
<g enable-background="new    ">
	<path fill="#646464" d="M17.943,17.021H16.75v2.145h-1.872v-2.145h-4.323v-1.309l4.151-6.378h2.044v6.214h1.193V17.021z
		 M14.878,15.548v-3.225c0-0.275,0.008-0.591,0.025-0.946h-0.039c-0.033,0.081-0.076,0.187-0.126,0.318
		c-0.055,0.135-0.135,0.285-0.241,0.45l-2.209,3.403H14.878z"/>
</g>
</svg>
