<?xml version="1.0" encoding="utf-8"?>
<!-- Generator: Adobe Illustrator 16.0.0, SVG Export Plug-In . SVG Version: 6.00 Build 0)  -->
<!DOCTYPE svg PUBLIC "-//W3C//DTD SVG 1.1//EN" "http://www.w3.org/Graphics/SVG/1.1/DTD/svg11.dtd">
<svg version="1.1" id="图层_1" xmlns="http://www.w3.org/2000/svg" xmlns:xlink="http://www.w3.org/1999/xlink" x="0px" y="0px"
	 width="28.498px" height="28.5px" viewBox="0 0 28.498 28.5" enable-background="new 0 0 28.498 28.5" xml:space="preserve">
<path fill="#6DCFF6" d="M24.699,0h-20.9C1.701,0,0,1.702,0,3.8v20.899c0,2.1,1.701,3.801,3.799,3.801h20.9
	c2.1,0,3.799-1.701,3.799-3.801V3.8C28.498,1.702,26.799,0,24.699,0L24.699,0z M26.877,24.699c0,1.051-1.129,2.174-2.178,2.174
	h-20.9c-1.049,0-2.176-1.123-2.176-2.174V3.8c0-1.048,1.127-2.177,2.176-2.177h20.9c1.049,0,2.178,1.129,2.178,2.177V24.699
	L26.877,24.699z"/>
<g enable-background="new    ">
	<path fill="#6DCFF6" d="M11.386,17.252c0.525,0.338,1.143,0.508,1.854,0.508c1.588,0,2.398-1.033,2.432-3.097l-0.037-0.014
		c-0.432,0.665-1.1,0.997-2.001,0.997c-0.816,0-1.488-0.287-2.016-0.859c-0.526-0.574-0.79-1.296-0.79-2.168
		c0-1.023,0.317-1.855,0.952-2.494s1.462-0.959,2.482-0.959c1.062,0,1.896,0.404,2.501,1.213s0.908,1.936,0.908,3.383
		c0,1.719-0.365,3.078-1.096,4.076s-1.78,1.498-3.151,1.498c-0.774,0-1.454-0.125-2.038-0.375V17.252z M12.84,12.435
		c0,0.521,0.126,0.929,0.377,1.225c0.252,0.297,0.596,0.445,1.032,0.445c0.389,0,0.711-0.143,0.961-0.426
		c0.252-0.283,0.379-0.635,0.379-1.054c0-0.504-0.127-0.943-0.379-1.32c-0.25-0.377-0.589-0.565-1.012-0.565
		c-0.411,0-0.74,0.163-0.987,0.489C12.963,11.555,12.84,11.956,12.84,12.435z"/>
</g>
</svg>
