<?xml version="1.0" encoding="utf-8"?>
<!-- Generator: Adobe Illustrator 16.0.0, SVG Export Plug-In . SVG Version: 6.00 Build 0)  -->
<!DOCTYPE svg PUBLIC "-//W3C//DTD SVG 1.1//EN" "http://www.w3.org/Graphics/SVG/1.1/DTD/svg11.dtd">
<svg version="1.1" id="图层_1" xmlns="http://www.w3.org/2000/svg" xmlns:xlink="http://www.w3.org/1999/xlink" x="0px" y="0px"
	 width="28.498px" height="28.499px" viewBox="0 0 28.498 28.499" enable-background="new 0 0 28.498 28.499" xml:space="preserve">
<g>
	<path fill="#6DCFF6" d="M24.7,0H3.799C1.702,0,0,1.702,0,3.8v20.898c0,2.101,1.702,3.801,3.799,3.801H24.7
		c2.099,0,3.798-1.7,3.798-3.801V3.8C28.498,1.702,26.799,0,24.7,0L24.7,0z M26.877,24.698c0,1.051-1.129,2.175-2.177,2.175H3.799
		c-1.048,0-2.176-1.124-2.176-2.175V3.8c0-1.048,1.128-2.177,2.176-2.177H24.7c1.048,0,2.177,1.129,2.177,2.177V24.698
		L26.877,24.698z"/>
	<path fill="#6DCFF6" d="M20.717,7.101c-3.901-3.555-10.029-3.26-13.575,0.632c-3.6,3.951-3.313,10.089,0.578,13.635
		c3.951,3.599,10.089,3.313,13.688-0.638C24.953,16.838,24.668,10.7,20.717,7.101z M9.066,19.889L19.354,8.598
		c3.153,2.872,3.375,7.693,0.558,10.787C17.039,22.537,12.219,22.762,9.066,19.889z"/>
</g>
</svg>
