<?xml version="1.0" encoding="utf-8"?>
<!-- Generator: Adobe Illustrator 16.0.0, SVG Export Plug-In . SVG Version: 6.00 Build 0)  -->
<!DOCTYPE svg PUBLIC "-//W3C//DTD SVG 1.1//EN" "http://www.w3.org/Graphics/SVG/1.1/DTD/svg11.dtd">
<svg version="1.1" id="图层_1" xmlns="http://www.w3.org/2000/svg" xmlns:xlink="http://www.w3.org/1999/xlink" x="0px" y="0px"
	 width="28.498px" height="28.5px" viewBox="0 0 28.498 28.5" enable-background="new 0 0 28.498 28.5" xml:space="preserve">
<path fill="#6DCFF6" d="M24.7,0H3.8C1.702,0,0,1.702,0,3.8v20.899c0,2.1,1.702,3.801,3.8,3.801h20.9c2.1,0,3.798-1.701,3.798-3.801
	V3.8C28.498,1.702,26.8,0,24.7,0L24.7,0z M26.877,24.699c0,1.051-1.129,2.174-2.177,2.174H3.8c-1.049,0-2.177-1.123-2.177-2.174V3.8
	c0-1.048,1.128-2.177,2.177-2.177h20.9c1.048,0,2.177,1.129,2.177,2.177V24.699L26.877,24.699z"/>
<g enable-background="new    ">
	<path fill="#6DCFF6" d="M16.988,11.165c-0.5-0.283-1.043-0.426-1.631-0.426c-0.758,0-1.364,0.298-1.819,0.893
		s-0.683,1.363-0.683,2.307h0.038c0.47-0.719,1.166-1.078,2.089-1.078c0.825,0,1.48,0.282,1.965,0.847
		c0.484,0.565,0.727,1.3,0.727,2.206c0,0.99-0.315,1.809-0.945,2.453c-0.631,0.646-1.438,0.969-2.419,0.969
		c-1.126,0-1.988-0.406-2.587-1.219s-0.898-1.926-0.898-3.339c0-1.663,0.389-3.014,1.165-4.053s1.856-1.559,3.241-1.559
		c0.744,0,1.33,0.09,1.758,0.268V11.165z M12.926,15.932c0,0.508,0.127,0.939,0.381,1.295s0.588,0.533,1.003,0.533
		c0.419,0,0.749-0.162,0.99-0.488s0.362-0.734,0.362-1.227c0-1.103-0.455-1.656-1.365-1.656c-0.411,0-0.742,0.146-0.994,0.438
		C13.052,15.121,12.926,15.488,12.926,15.932z"/>
</g>
</svg>
