<?xml version="1.0" encoding="utf-8"?>
<!-- Generator: Adobe Illustrator 16.0.0, SVG Export Plug-In . SVG Version: 6.00 Build 0)  -->
<!DOCTYPE svg PUBLIC "-//W3C//DTD SVG 1.1//EN" "http://www.w3.org/Graphics/SVG/1.1/DTD/svg11.dtd">
<svg version="1.1" id="图层_1" xmlns="http://www.w3.org/2000/svg" xmlns:xlink="http://www.w3.org/1999/xlink" x="0px" y="0px"
	 width="28.498px" height="28.5px" viewBox="0 0 28.498 28.5" enable-background="new 0 0 28.498 28.5" xml:space="preserve">
<path fill="#646464" d="M24.699,0h-20.9C1.701,0,0,1.702,0,3.8v20.899c0,2.1,1.701,3.801,3.799,3.801h20.9
	c2.1,0,3.799-1.701,3.799-3.801V3.8C28.498,1.702,26.799,0,24.699,0L24.699,0z M26.876,24.699c0,1.051-1.129,2.174-2.177,2.174
	h-20.9c-1.049,0-2.176-1.123-2.176-2.174V3.8c0-1.048,1.127-2.177,2.176-2.177h20.9c1.048,0,2.177,1.129,2.177,2.177V24.699
	L26.876,24.699z"/>
<g enable-background="new    ">
	<path fill="#646464" d="M13.221,19.166H7.083v-1.631h2.05v-6.291l-2.107,0.477v-1.683l4.158-0.876v8.373h2.037V19.166z"/>
	<path fill="#646464" d="M14.427,14.412c0-1.701,0.313-3.001,0.94-3.898c0.626-0.896,1.531-1.346,2.717-1.346
		c2.26,0,3.389,1.672,3.389,5.016c0,1.646-0.307,2.916-0.92,3.812c-0.613,0.895-1.5,1.342-2.66,1.342
		C15.582,19.337,14.427,17.695,14.427,14.412z M16.503,14.361c0,2.267,0.484,3.402,1.454,3.402c0.951,0,1.428-1.168,1.428-3.503
		c0-2.345-0.463-3.518-1.391-3.518C17,10.742,16.503,11.949,16.503,14.361z"/>
</g>
</svg>
