<?xml version="1.0" encoding="utf-8"?>
<!-- Generator: Adobe Illustrator 16.0.0, SVG Export Plug-In . SVG Version: 6.00 Build 0)  -->
<!DOCTYPE svg PUBLIC "-//W3C//DTD SVG 1.1//EN" "http://www.w3.org/Graphics/SVG/1.1/DTD/svg11.dtd">
<svg version="1.1" id="图层_1" xmlns="http://www.w3.org/2000/svg" xmlns:xlink="http://www.w3.org/1999/xlink" x="0px" y="0px"
	 width="28.498px" height="28.499px" viewBox="0 0 28.498 28.499" enable-background="new 0 0 28.498 28.499" xml:space="preserve">
<g>
	<path fill="#646464" d="M24.699,0H3.798C1.701,0,0,1.702,0,3.8v20.898c0,2.101,1.701,3.801,3.799,3.801h20.901
		c2.1,0,3.799-1.7,3.799-3.801V3.8C28.498,1.702,26.799,0,24.699,0L24.699,0z M26.876,24.698c0,1.051-1.129,2.175-2.177,2.175H3.798
		c-1.049,0-2.176-1.124-2.176-2.175V3.8c0-1.048,1.127-2.177,2.176-2.177h20.901c1.048,0,2.177,1.129,2.177,2.177V24.698
		L26.876,24.698z"/>
	<rect x="8.048" y="1.072" fill="#646464" width="2.083" height="26.666"/>
	<rect x="9.465" y="18.572" fill="#646464" width="18.5" height="2"/>
</g>
</svg>
