<?xml version="1.0" standalone="no"?><!DOCTYPE svg PUBLIC "-//W3C//DTD SVG 1.1//EN" "http://www.w3.org/Graphics/SVG/1.1/DTD/svg11.dtd"><svg t="1525771220994" class="icon" style="" viewBox="0 0 1024 1024" version="1.1" xmlns="http://www.w3.org/2000/svg" p-id="3413" xmlns:xlink="http://www.w3.org/1999/xlink" width="200" height="200" ><defs><style type="text/css"></style></defs>
    <path d="M510.545882 63.815421c-246.710938 0-446.708971 199.999057-446.708971 446.708971S263.834944 957.234387 510.545882 957.234387 957.255877 757.23533 957.255877 510.525416 757.25682 63.815421 510.545882 63.815421zM754.661715 441.875896 400.205844 796.310278c-4.02364 4.02364-9.382695 6.109138-14.762215 6.109138-3.856841 0-7.756661-1.063215-11.197016-3.231601-8.257058-5.254677-11.738345-15.533788-8.402367-24.707728l73.226768-201.330378L281.192264 573.149708c-8.423857 0-16.034185-5.087878-19.265786-12.885472-3.231601-7.797593-1.438769-16.805758 4.52506-22.768563L579.205635 224.740554c6.547113-6.589069 16.638959-7.985882 24.77015-3.523243 8.132214 4.461615 12.322653 13.761422 10.321066 22.810518l-36.050054 162.319899 161.652703 0c8.423857 0 16.054651 5.045923 19.265786 12.82305C762.396887 426.968371 760.604054 435.913091 754.661715 441.875896z" p-id="3414" fill="#ffffff"></path></svg>