<?xml version="1.0" encoding="utf-8"?>
<!-- Generator: Adobe Illustrator 16.0.0, SVG Export Plug-In . SVG Version: 6.00 Build 0)  -->
<!DOCTYPE svg PUBLIC "-//W3C//DTD SVG 1.1//EN" "http://www.w3.org/Graphics/SVG/1.1/DTD/svg11.dtd">
<svg version="1.1" id="图层_1" xmlns="http://www.w3.org/2000/svg" xmlns:xlink="http://www.w3.org/1999/xlink" x="0px" y="0px"
	 width="228.5px" height="228.5px" viewBox="0 0 228.5 228.5" enable-background="new 0 0 228.5 228.5" xml:space="preserve">
<g>
	<g>
		<g>
			<path fill="#FFFFFF" d="M114.25,228.484C51.252,228.484,0,177.232,0,114.234C0,51.26,51.252,0.008,114.25,0.008
				S228.5,51.26,228.5,114.234C228.5,177.232,177.248,228.484,114.25,228.484z M114.25,4.008C53.458,4.008,4,53.466,4,114.234
				c0,60.793,49.458,110.25,110.25,110.25s110.25-49.457,110.25-110.25C224.5,53.466,175.042,4.008,114.25,4.008z"/>
		</g>
	</g>
	<path fill="#FFFFFF" d="M130.211,76.008H63.578c0,0-11.162,0-11.162,10.831v54.82c0,10.833,11.162,10.833,11.162,10.833h66.633
		c0,0,11.162,0,11.162-10.833V87.167C141.373,76.008,130.211,76.008,130.211,76.008z M175.84,81.586
		c-0.985-0.328-1.969-0.328-2.626,0.329l-21.993,17.07c-0.656,0.656-0.985,1.313-0.985,1.97V128.2c0,0.656,0.329,1.641,0.985,1.969
		l21.993,17.071c0.33,0.328,0.986,0.656,1.641,0.656c0.329,0,0.656,0,1.313-0.328c0.985-0.328,1.314-1.314,1.314-2.298V83.884
		C177.482,82.899,176.824,81.915,175.84,81.586L175.84,81.586z"/>
</g>
</svg>
