<?xml version="1.0" encoding="utf-8"?>
<!-- Generator: Adobe Illustrator 16.0.0, SVG Export Plug-In . SVG Version: 6.00 Build 0)  -->
<!DOCTYPE svg PUBLIC "-//W3C//DTD SVG 1.1//EN" "http://www.w3.org/Graphics/SVG/1.1/DTD/svg11.dtd">
<svg version="1.1" id="图层_1" xmlns="http://www.w3.org/2000/svg" xmlns:xlink="http://www.w3.org/1999/xlink" x="0px" y="0px"
	 width="228.5px" height="228.5px" viewBox="0 0 228.5 228.5" enable-background="new 0 0 228.5 228.5" xml:space="preserve">
<g>
	<g>
		<g>
			<path fill="#FFFFFF" d="M114.25,228.49C51.252,228.49,0,177.238,0,114.24C0,51.263,51.252,0.011,114.25,0.011
				S228.5,51.263,228.5,114.24C228.5,177.238,177.248,228.49,114.25,228.49z M114.25,4.011C53.458,4.011,4,53.469,4,114.24
				c0,60.793,49.458,110.25,110.25,110.25S224.5,175.033,224.5,114.24C224.5,53.469,175.042,4.011,114.25,4.011z"/>
		</g>
	</g>
	<path fill="#FFFFFF" d="M172.187,163.078l-14.348-13.239c8.712-10.421,13.469-23.579,13.438-37.161
		c0-32.06-25.972-58.045-58.045-58.045c-32.055,0-58.026,25.985-58.026,58.045c0,32.059,25.972,58.045,58.026,58.045
		c13.876,0,26.626-4.876,36.622-13.007c0.2,0.271,0.416,0.528,0.664,0.759l14.779,13.62c1.007,0.91,2.227,1.374,3.445,1.374
		c1.527,0,3.04-0.739,4.091-2.111C174.752,168.864,174.432,165.146,172.187,163.078L172.187,163.078z M98.296,142.443l0.193-56.786
		l49.083,28.56L98.296,142.443z"/>
</g>
</svg>
