<?xml version="1.0" encoding="utf-8"?>
<!-- Generator: Adobe Illustrator 21.1.0, SVG Export Plug-In . SVG Version: 6.00 Build 0)  -->
<svg version="1.1" id="图层_1" xmlns="http://www.w3.org/2000/svg" xmlns:xlink="http://www.w3.org/1999/xlink" x="0px" y="0px"
	 viewBox="0 0 32 32" style="enable-background:new 0 0 32 32;" xml:space="preserve">
<style type="text/css">
	.st0{fill:#646464;}
	.st1{fill:#626262;}
</style>
<g>
	<g>
		<path class="st0" d="M27.7,0H4.3C1.9,0,0,1.9,0,4.3v23.5C0,30.1,1.9,32,4.3,32h23.5c2.4,0,4.3-1.9,4.3-4.3V4.3
			C32,1.9,30.1,0,27.7,0L27.7,0z M30.2,27.7c0,1.2-1.3,2.4-2.4,2.4H4.3c-1.2,0-2.4-1.3-2.4-2.4V4.3c0-1.2,1.3-2.4,2.4-2.4h23.5
			c1.2,0,2.4,1.3,2.4,2.4V27.7L30.2,27.7z"/>
	</g>
	<g>
		<path class="st1" d="M9.4,7.2l10.6,10.6c0.4,0.4,0.4,0.8,0,1.1l0,0c-0.4,0.4-0.8,0.4-1.1,0L8.3,8.3c-0.4-0.4-0.4-0.8,0-1.1l0,0
			C8.7,6.8,9.1,6.8,9.4,7.2z"/>
		<path class="st1" d="M23.4,8.3L12.8,18.9c-0.4,0.4-0.8,0.4-1.1,0l0,0c-0.4-0.4-0.4-0.8,0-1.1L22.3,7.2c0.4-0.4,0.8-0.4,1.1,0l0,0
			C23.8,7.5,23.8,7.9,23.4,8.3z"/>
		<path class="st1" d="M9.9,25.1c-2.2,0-4-1.8-4-4s1.8-4,4-4s4,1.8,4,4C13.8,23.3,12.1,25.1,9.9,25.1z M9.9,18.7
			c-1.3,0-2.4,1.1-2.4,2.4s1.1,2.4,2.4,2.4s2.4-1.1,2.4-2.4S11.2,18.7,9.9,18.7z M22.1,24.9c-2.2,0-4-1.8-4-4s1.8-4,4-4s4,1.8,4,4
			C26.1,23.1,24.3,24.8,22.1,24.9z M22.1,18.5c-1.3,0-2.4,1.1-2.4,2.4s1.1,2.4,2.4,2.4c1.3,0,2.4-1.1,2.4-2.4S23.5,18.5,22.1,18.5z"
			/>
	</g>
</g>
</svg>
