<?xml version="1.0" encoding="utf-8"?>
<!-- Generator: Adobe Illustrator 21.1.0, SVG Export Plug-In . SVG Version: 6.00 Build 0)  -->
<svg version="1.1" id="图层_1" xmlns="http://www.w3.org/2000/svg" xmlns:xlink="http://www.w3.org/1999/xlink" x="0px" y="0px"
	 viewBox="0 0 32 32" style="enable-background:new 0 0 32 32;" xml:space="preserve">
<style type="text/css">
	.st0{fill:#646464;}
</style>
<g>
	<path class="st0" d="M27.7,0H4.3C1.9,0,0,1.9,0,4.3v23.5C0,30.1,1.9,32,4.3,32h23.5c2.4,0,4.3-1.9,4.3-4.3V4.3
		C32,1.9,30.1,0,27.7,0L27.7,0z M30.2,27.7c0,1.2-1.3,2.4-2.4,2.4H4.3c-1.2,0-2.4-1.3-2.4-2.4V4.3c0-1.2,1.3-2.4,2.4-2.4h23.5
		c1.2,0,2.4,1.3,2.4,2.4V27.7L30.2,27.7z"/>
	<path class="st0" d="M23.3,8C18.9,4,12,4.3,8,8.7C4,13.1,4.3,20,8.7,24c4.4,4,11.3,3.7,15.4-0.7C28,18.9,27.7,12,23.3,8z
		 M10.2,22.3L21.7,9.7c3.5,3.2,3.8,8.6,0.6,12.1C19.1,25.3,13.7,25.6,10.2,22.3z"/>
</g>
</svg>
