<?xml version="1.0" encoding="utf-8"?>
<!-- Generator: Adobe Illustrator 21.1.0, SVG Export Plug-In . SVG Version: 6.00 Build 0)  -->
<svg version="1.1" id="图层_4" xmlns="http://www.w3.org/2000/svg" xmlns:xlink="http://www.w3.org/1999/xlink" x="0px" y="0px"
	 viewBox="0 0 530 369.3" style="enable-background:new 0 0 530 369.3;" xml:space="preserve">
<style type="text/css">
	.st0{fill:#F9F9F9;}
	.st1{fill:#8F8F8F;}
</style>
<g>
	<circle class="st0" cx="265" cy="166.8" r="166.8"/>
	<g>
		<polygon class="st1" points="137.8,369.3 135.3,369.3 135.3,227.8 0,227.8 0,85 2.5,85 2.5,225.3 137.8,225.3 		"/>
		<polygon class="st1" points="136.5,195.5 29.8,195.5 29.8,56.5 32.3,56.5 32.3,193 134.1,193 134.1,55.2 136.5,55.2 		"/>
		<rect x="165.1" y="71.4" class="st1" width="2.5" height="281.8"/>
		<g>
			<path class="st1" d="M151.4,73.9c-1,0-1.9-0.8-1.9-1.9s0.8-1.9,1.9-1.9c1,0,1.9,0.8,1.9,1.8v0.1
				C153.3,73.1,152.5,73.9,151.4,73.9z"/>
			<path class="st1" d="M151.4,333.4c-1,0-1.9-0.8-1.9-1.9s0.8-1.9,1.9-1.9c1,0,1.9,0.8,1.9,1.8v0.1
				C153.3,332.6,152.5,333.4,151.4,333.4z M151.4,316.1c-1,0-1.9-0.8-1.9-1.9s0.8-1.9,1.9-1.9c1,0,1.9,0.8,1.9,1.8v0.1
				C153.3,315.3,152.5,316.1,151.4,316.1z M151.4,298.8c-1,0-1.9-0.8-1.9-1.9c0-1,0.8-1.9,1.9-1.9c1,0,1.9,0.8,1.9,1.8v0.1
				C153.3,298,152.5,298.8,151.4,298.8z M151.4,281.5c-1,0-1.9-0.8-1.9-1.9c0-1,0.8-1.9,1.9-1.9c1,0,1.9,0.8,1.9,1.8v0.1
				C153.3,280.7,152.5,281.5,151.4,281.5z M151.4,264.2c-1,0-1.9-0.8-1.9-1.9c0-1,0.8-1.9,1.9-1.9c1,0,1.9,0.8,1.9,1.8v0.1
				C153.3,263.4,152.5,264.2,151.4,264.2z M151.4,246.9c-1,0-1.9-0.8-1.9-1.9s0.8-1.9,1.9-1.9c1,0,1.9,0.8,1.9,1.8v0.1
				C153.3,246.1,152.5,246.9,151.4,246.9z M151.4,229.6c-1,0-1.9-0.8-1.9-1.9c0-1,0.8-1.9,1.9-1.9c1,0,1.9,0.8,1.9,1.8v0.1
				C153.3,228.8,152.5,229.6,151.4,229.6z M151.4,212.3c-1,0-1.9-0.8-1.9-1.9c0-1,0.8-1.9,1.9-1.9c1,0,1.9,0.8,1.9,1.8v0.1
				C153.3,211.5,152.5,212.3,151.4,212.3z M151.4,195c-1,0-1.9-0.8-1.9-1.9c0-1,0.8-1.9,1.9-1.9c1,0,1.9,0.8,1.9,1.8v0.1
				C153.3,194.2,152.5,195,151.4,195z M151.4,177.7c-1,0-1.9-0.8-1.9-1.9s0.8-1.9,1.9-1.9c1,0,1.9,0.8,1.9,1.8v0.1
				C153.3,176.9,152.5,177.7,151.4,177.7z M151.4,160.4c-1,0-1.9-0.8-1.9-1.9c0-1,0.8-1.9,1.9-1.9c1,0,1.9,0.8,1.9,1.8v0.1
				C153.3,159.6,152.5,160.4,151.4,160.4z M151.4,143.1c-1,0-1.9-0.8-1.9-1.9c0-1,0.8-1.9,1.9-1.9c1,0,1.9,0.8,1.9,1.8v0.1
				C153.3,142.3,152.5,143.1,151.4,143.1z M151.4,125.8c-1,0-1.9-0.8-1.9-1.9c0-1,0.8-1.9,1.9-1.9c1,0,1.9,0.8,1.9,1.8v0.1
				C153.3,125,152.5,125.8,151.4,125.8z M151.4,108.5c-1,0-1.9-0.8-1.9-1.9s0.8-1.9,1.9-1.9c1,0,1.9,0.8,1.9,1.8v0.1
				C153.3,107.7,152.5,108.5,151.4,108.5z M151.4,91.2c-1,0-1.9-0.8-1.9-1.9c0-1,0.8-1.9,1.9-1.9c1,0,1.9,0.8,1.9,1.8v0.1
				C153.3,90.4,152.5,91.2,151.4,91.2z"/>
			<path class="st1" d="M151.4,350.7c-1,0-1.9-0.8-1.9-1.9s0.8-1.9,1.9-1.9c1,0,1.9,0.8,1.9,1.8v0.1
				C153.3,349.8,152.5,350.7,151.4,350.7z"/>
		</g>
		<g>
			<path class="st1" d="M217.2,86.3c-1,0-1.9-0.8-1.9-1.9s0.8-1.9,1.9-1.9c1,0,1.9,0.8,1.9,1.8v0.1
				C219.1,85.5,218.2,86.3,217.2,86.3z"/>
			<path class="st1" d="M217.2,323.1c-1,0-1.9-0.8-1.9-1.9s0.8-1.9,1.9-1.9c1,0,1.9,0.8,1.9,1.8v0.1
				C219.1,322.2,218.2,323.1,217.2,323.1z M217.2,306.1c-1,0-1.9-0.8-1.9-1.9s0.8-1.9,1.9-1.9c1,0,1.9,0.8,1.9,1.8v0.1
				C219.1,305.3,218.2,306.1,217.2,306.1z M217.2,289.2c-1,0-1.9-0.8-1.9-1.9s0.8-1.9,1.9-1.9c1,0,1.9,0.8,1.9,1.8v0.1
				C219.1,288.4,218.2,289.2,217.2,289.2z M217.2,272.3c-1,0-1.9-0.8-1.9-1.9c0-1,0.8-1.9,1.9-1.9c1,0,1.9,0.8,1.9,1.8v0.1
				C219.1,271.5,218.2,272.3,217.2,272.3z M217.2,255.4c-1,0-1.9-0.8-1.9-1.9c0-1,0.8-1.9,1.9-1.9c1,0,1.9,0.8,1.9,1.8v0.1
				C219.1,254.6,218.2,255.4,217.2,255.4z M217.2,238.5c-1,0-1.9-0.8-1.9-1.9c0-1,0.8-1.9,1.9-1.9c1,0,1.9,0.8,1.9,1.8v0.1
				C219.1,237.7,218.2,238.5,217.2,238.5z M217.2,221.6c-1,0-1.9-0.8-1.9-1.9s0.8-1.9,1.9-1.9c1,0,1.9,0.8,1.9,1.8v0.1
				C219.1,220.8,218.2,221.6,217.2,221.6z M217.2,204.7c-1,0-1.9-0.8-1.9-1.9c0-1,0.8-1.9,1.9-1.9c1,0,1.9,0.8,1.9,1.8v0.1
				C219.1,203.9,218.2,204.7,217.2,204.7z M217.2,187.8c-1,0-1.9-0.8-1.9-1.9c0-1,0.8-1.9,1.9-1.9c1,0,1.9,0.8,1.9,1.8v0.1
				C219.1,187,218.2,187.8,217.2,187.8z M217.2,170.9c-1,0-1.9-0.8-1.9-1.9s0.8-1.9,1.9-1.9c1,0,1.9,0.8,1.9,1.8v0.1
				C219.1,170,218.2,170.9,217.2,170.9z M217.2,154c-1,0-1.9-0.8-1.9-1.9c0-1,0.8-1.9,1.9-1.9c1,0,1.9,0.8,1.9,1.8v0.1
				C219.1,153.1,218.2,154,217.2,154z M217.2,137.1c-1,0-1.9-0.8-1.9-1.9c0-1,0.8-1.9,1.9-1.9c1,0,1.9,0.8,1.9,1.8v0.1
				C219.1,136.2,218.2,137.1,217.2,137.1z M217.2,120.2c-1,0-1.9-0.8-1.9-1.9s0.8-1.9,1.9-1.9c1,0,1.9,0.8,1.9,1.8v0.1
				C219.1,119.3,218.2,120.2,217.2,120.2z M217.2,103.2c-1,0-1.9-0.8-1.9-1.9c0-1,0.8-1.9,1.9-1.9c1,0,1.9,0.8,1.9,1.8v0.1
				C219.1,102.4,218.2,103.2,217.2,103.2z"/>
			<path class="st1" d="M217.2,339.9c-1,0-1.9-0.8-1.9-1.9s0.8-1.9,1.9-1.9c1,0,1.9,0.8,1.9,1.8v0.1
				C219.1,339.1,218.2,339.9,217.2,339.9z"/>
		</g>
		<g>
			<path class="st1" d="M317.8,86.3c-1,0-1.9-0.8-1.9-1.9s0.8-1.9,1.9-1.9c1,0,1.9,0.8,1.9,1.8v0.1
				C319.6,85.5,318.8,86.3,317.8,86.3z"/>
			<path class="st1" d="M317.8,323.1c-1,0-1.9-0.8-1.9-1.9s0.8-1.9,1.9-1.9c1,0,1.9,0.8,1.9,1.8v0.1
				C319.6,322.2,318.8,323.1,317.8,323.1z M317.8,306.1c-1,0-1.9-0.8-1.9-1.9s0.8-1.9,1.9-1.9c1,0,1.9,0.8,1.9,1.8v0.1
				C319.6,305.3,318.8,306.1,317.8,306.1z M317.8,289.2c-1,0-1.9-0.8-1.9-1.9s0.8-1.9,1.9-1.9c1,0,1.9,0.8,1.9,1.8v0.1
				C319.6,288.4,318.8,289.2,317.8,289.2z M317.8,272.3c-1,0-1.9-0.8-1.9-1.9c0-1,0.8-1.9,1.9-1.9c1,0,1.9,0.8,1.9,1.8v0.1
				C319.6,271.5,318.8,272.3,317.8,272.3z M317.8,255.4c-1,0-1.9-0.8-1.9-1.9c0-1,0.8-1.9,1.9-1.9c1,0,1.9,0.8,1.9,1.8v0.1
				C319.6,254.6,318.8,255.4,317.8,255.4z M317.8,238.5c-1,0-1.9-0.8-1.9-1.9c0-1,0.8-1.9,1.9-1.9c1,0,1.9,0.8,1.9,1.8v0.1
				C319.6,237.7,318.8,238.5,317.8,238.5z M317.8,221.6c-1,0-1.9-0.8-1.9-1.9s0.8-1.9,1.9-1.9c1,0,1.9,0.8,1.9,1.8v0.1
				C319.6,220.8,318.8,221.6,317.8,221.6z M317.8,204.7c-1,0-1.9-0.8-1.9-1.9c0-1,0.8-1.9,1.9-1.9c1,0,1.9,0.8,1.9,1.8v0.1
				C319.6,203.9,318.8,204.7,317.8,204.7z M317.8,187.8c-1,0-1.9-0.8-1.9-1.9c0-1,0.8-1.9,1.9-1.9c1,0,1.9,0.8,1.9,1.8v0.1
				C319.6,187,318.8,187.8,317.8,187.8z M317.8,170.9c-1,0-1.9-0.8-1.9-1.9s0.8-1.9,1.9-1.9c1,0,1.9,0.8,1.9,1.8v0.1
				C319.6,170,318.8,170.9,317.8,170.9z M317.8,154c-1,0-1.9-0.8-1.9-1.9c0-1,0.8-1.9,1.9-1.9c1,0,1.9,0.8,1.9,1.8v0.1
				C319.6,153.1,318.8,154,317.8,154z M317.8,137.1c-1,0-1.9-0.8-1.9-1.9c0-1,0.8-1.9,1.9-1.9c1,0,1.9,0.8,1.9,1.8v0.1
				C319.6,136.2,318.8,137.1,317.8,137.1z M317.8,120.2c-1,0-1.9-0.8-1.9-1.9s0.8-1.9,1.9-1.9c1,0,1.9,0.8,1.9,1.8v0.1
				C319.6,119.3,318.8,120.2,317.8,120.2z M317.8,103.2c-1,0-1.9-0.8-1.9-1.9c0-1,0.8-1.9,1.9-1.9c1,0,1.9,0.8,1.9,1.8v0.1
				C319.6,102.4,318.8,103.2,317.8,103.2z"/>
			<path class="st1" d="M317.8,339.9c-1,0-1.9-0.8-1.9-1.9s0.8-1.9,1.9-1.9c1,0,1.9,0.8,1.9,1.8v0.1
				C319.6,339.1,318.8,339.9,317.8,339.9z"/>
		</g>
		<g>
			<path class="st1" d="M378.6,82.6c-1,0-1.9-0.8-1.9-1.9s0.8-1.9,1.9-1.9c1,0,1.9,0.8,1.9,1.8v0.1
				C380.4,81.8,379.6,82.6,378.6,82.6z"/>
			<path class="st1" d="M378.6,193.3c-1,0-1.9-0.8-1.9-1.9v-0.1c0-1,0.8-1.9,1.9-1.9c1,0,1.9,0.8,1.9,1.9v0.1
				C380.4,192.4,379.6,193.3,378.6,193.3z M378.6,174.8c-1,0-1.9-0.8-1.9-1.9v-0.1c0-1,0.8-1.9,1.9-1.9c1,0,1.9,0.8,1.9,1.9v0.1
				C380.4,174,379.6,174.8,378.6,174.8z M378.6,156.4c-1,0-1.9-0.8-1.9-1.9v-0.1c0-1,0.8-1.9,1.9-1.9c1,0,1.9,0.8,1.9,1.9v0.1
				C380.4,155.6,379.6,156.4,378.6,156.4z M378.6,137.9c-1,0-1.9-0.8-1.9-1.9V136c0-1,0.8-1.9,1.9-1.9c1,0,1.9,0.8,1.9,1.9v0.1
				C380.4,137.1,379.6,137.9,378.6,137.9z M378.6,119.5c-1,0-1.9-0.8-1.9-1.9v-0.1c0-1,0.8-1.9,1.9-1.9c1,0,1.9,0.8,1.9,1.9v0.1
				C380.4,118.7,379.6,119.5,378.6,119.5z M378.6,101.1c-1,0-1.9-0.8-1.9-1.9v-0.1c0-1,0.8-1.9,1.9-1.9c1,0,1.9,0.8,1.9,1.9v0.1
				C380.4,100.2,379.6,101.1,378.6,101.1z"/>
			<path class="st1" d="M378.6,211.6c-1,0-1.9-0.8-1.9-1.9s0.8-1.9,1.9-1.9c1,0,1.9,0.8,1.9,1.8v0.1
				C380.4,210.8,379.6,211.6,378.6,211.6z"/>
		</g>
		<g>
			<path class="st1" d="M513.3,81.4c-1,0-1.9-0.8-1.9-1.9s0.8-1.9,1.9-1.9s1.9,0.8,1.9,1.8v0.1C515.2,80.5,514.4,81.4,513.3,81.4z"
				/>
			<path class="st1" d="M513.3,273.7c-1,0-1.9-0.8-1.9-1.9c0-1,0.8-1.9,1.9-1.9s1.9,0.8,1.9,1.8v0.1
				C515.2,272.8,514.4,273.7,513.3,273.7z M513.3,256.2c-1,0-1.9-0.8-1.9-1.9v-0.1c0-1,0.8-1.9,1.9-1.9s1.9,0.8,1.9,1.9v0.1
				C515.2,255.3,514.4,256.2,513.3,256.2z M513.3,238.7c-1,0-1.9-0.8-1.9-1.9s0.8-1.9,1.9-1.9s1.9,0.8,1.9,1.8v0.1
				C515.2,237.9,514.4,238.7,513.3,238.7z M513.3,221.2c-1,0-1.9-0.8-1.9-1.9c0-1,0.8-1.9,1.9-1.9s1.9,0.8,1.9,1.8v0.1
				C515.2,220.4,514.4,221.2,513.3,221.2z M513.3,203.7c-1,0-1.9-0.8-1.9-1.9c0-1,0.8-1.9,1.9-1.9s1.9,0.8,1.9,1.8v0.1
				C515.2,202.9,514.4,203.7,513.3,203.7z M513.3,186.3c-1,0-1.9-0.8-1.9-1.9s0.8-1.9,1.9-1.9s1.9,0.8,1.9,1.8v0.1
				C515.2,185.4,514.4,186.3,513.3,186.3z M513.3,168.8c-1,0-1.9-0.8-1.9-1.9v-0.1c0-1,0.8-1.9,1.9-1.9s1.9,0.8,1.9,1.9v0.1
				C515.2,167.9,514.4,168.8,513.3,168.8z M513.3,151.3c-1,0-1.9-0.8-1.9-1.9c0-1,0.8-1.9,1.9-1.9s1.9,0.8,1.9,1.8v0.1
				C515.2,150.5,514.4,151.3,513.3,151.3z M513.3,133.8c-1,0-1.9-0.8-1.9-1.9s0.8-1.9,1.9-1.9s1.9,0.8,1.9,1.8v0.1
				C515.2,133,514.4,133.8,513.3,133.8z M513.3,116.3c-1,0-1.9-0.8-1.9-1.9v-0.1c0-1,0.8-1.9,1.9-1.9s1.9,0.8,1.9,1.9v0.1
				C515.2,115.5,514.4,116.3,513.3,116.3z M513.3,98.9c-1,0-1.9-0.8-1.9-1.9c0-1,0.8-1.9,1.9-1.9s1.9,0.8,1.9,1.8V97
				C515.2,98,514.4,98.9,513.3,98.9z"/>
			<path class="st1" d="M513.3,291.1c-1,0-1.9-0.8-1.9-1.9c0-1,0.8-1.9,1.9-1.9s1.9,0.8,1.9,1.8v0.1
				C515.2,290.2,514.4,291.1,513.3,291.1z"/>
		</g>
		<rect x="201.1" y="65.2" class="st1" width="2.5" height="271.8"/>
		<polygon class="st1" points="304.1,72.6 230.9,72.6 230.9,39.1 233.3,39.1 233.3,70.1 301.6,70.1 301.6,51.5 304.1,51.5 		"/>
		<rect x="331.4" y="65.2" class="st1" width="2.5" height="269.3"/>
		<path class="st1" d="M302.9,292.3h-73.2V95h73.2V292.3z M232.1,289.8h68.3V97.5h-68.3V289.8z"/>
		<polygon class="st1" points="304.1,342 301.6,342 301.6,318.4 232.1,318.4 232.1,333.3 229.6,333.3 229.6,315.9 304.1,315.9 		"/>
		<polygon class="st1" points="500.2,294.8 497.7,294.8 497.7,229 362.4,229 362.4,80.1 364.9,80.1 364.9,226.5 500.2,226.5 		"/>
		<polygon class="st1" points="497.7,195.5 391,195.5 391,57.7 393.5,57.7 393.5,193 495.2,193 495.2,57.7 497.7,57.7 		"/>
		<rect x="527.5" y="72.6" class="st1" width="2.5" height="220.9"/>
		<g>
			<path class="st1" d="M17.3,69.6c-1,0-1.9-0.8-1.9-1.9c0-1,0.8-1.9,1.9-1.9s1.9,0.8,1.9,1.8v0.1C19.2,68.8,18.3,69.6,17.3,69.6z"
				/>
			<path class="st1" d="M17.3,193.9c-1,0-1.9-0.8-1.9-1.9V192c0-1,0.8-1.9,1.9-1.9s1.9,0.8,1.9,1.9v0.1
				C19.2,193.1,18.3,193.9,17.3,193.9z M17.3,176.2c-1,0-1.9-0.8-1.9-1.9v-0.1c0-1,0.8-1.9,1.9-1.9s1.9,0.8,1.9,1.9v0.1
				C19.2,175.3,18.3,176.2,17.3,176.2z M17.3,158.4c-1,0-1.9-0.8-1.9-1.9v-0.1c0-1,0.8-1.9,1.9-1.9s1.9,0.8,1.9,1.9v0.1
				C19.2,157.6,18.3,158.4,17.3,158.4z M17.3,140.6c-1,0-1.9-0.8-1.9-1.9v-0.1c0-1,0.8-1.9,1.9-1.9s1.9,0.8,1.9,1.9v0.1
				C19.2,139.8,18.3,140.6,17.3,140.6z M17.3,122.9c-1,0-1.9-0.8-1.9-1.9v-0.1c0-1,0.8-1.9,1.9-1.9s1.9,0.8,1.9,1.9v0.1
				C19.2,122,18.3,122.9,17.3,122.9z M17.3,105.1c-1,0-1.9-0.8-1.9-1.9v-0.1c0-1,0.8-1.9,1.9-1.9s1.9,0.8,1.9,1.9v0.1
				C19.2,104.3,18.3,105.1,17.3,105.1z M17.3,87.4c-1,0-1.9-0.8-1.9-1.9v-0.1c0-1,0.8-1.9,1.9-1.9s1.9,0.8,1.9,1.9v0.1
				C19.2,86.5,18.3,87.4,17.3,87.4z"/>
			<path class="st1" d="M17.4,211.6c-1,0-1.9-0.8-1.9-1.9s0.8-1.9,1.9-1.9c0.8,0,1.4,0.4,1.7,1.1c0.1,0.2,0.2,0.5,0.2,0.8
				C19.2,210.8,18.4,211.6,17.4,211.6z"/>
			<path class="st1" d="M134.1,211.6c-1,0-1.9-0.8-1.9-1.9s0.8-1.9,1.8-1.9h0.1c1,0,1.9,0.8,1.9,1.9S135.1,211.6,134.1,211.6z
				 M117.4,211.6c-1,0-1.9-0.8-1.9-1.9s0.8-1.9,1.8-1.9h0.1c1,0,1.9,0.8,1.9,1.9S118.5,211.6,117.4,211.6z M100.7,211.6
				c-1,0-1.9-0.8-1.9-1.9s0.8-1.9,1.8-1.9h0.1c1,0,1.9,0.8,1.9,1.9S101.8,211.6,100.7,211.6z M84.1,211.6c-1,0-1.9-0.8-1.9-1.9
				s0.8-1.9,1.8-1.9h0.1c1,0,1.9,0.8,1.9,1.9S85.1,211.6,84.1,211.6z M67.4,211.6c-1,0-1.9-0.8-1.9-1.9s0.8-1.9,1.8-1.9h0.1
				c1,0,1.9,0.8,1.9,1.9S68.4,211.6,67.4,211.6z M50.7,211.6c-1,0-1.9-0.8-1.9-1.9s0.8-1.9,1.8-1.9h0.1c1,0,1.9,0.8,1.9,1.9
				S51.7,211.6,50.7,211.6z M34,211.6c-1,0-1.9-0.8-1.9-1.9s0.8-1.9,1.8-1.9H34c1,0,1.9,0.8,1.9,1.9S35.1,211.6,34,211.6z"/>
			<path class="st1" d="M150.7,211.6c-1,0-1.9-0.8-1.9-1.9s0.8-1.9,1.8-1.9h0.1c1,0,1.9,0.8,1.9,1.9S151.8,211.6,150.7,211.6z"/>
		</g>
		<g>
			<path class="st1" d="M217.9,85.7c-1,0-1.9-0.8-1.9-1.9c0-1,0.8-1.9,1.8-1.9h0.1c1,0,1.9,0.8,1.9,1.9
				C219.8,84.8,218.9,85.7,217.9,85.7z"/>
			<path class="st1" d="M302.4,85.7c-1,0-1.9-0.8-1.9-1.9c0-1,0.8-1.9,1.8-1.9h0.1c1,0,1.9,0.8,1.9,1.9
				C304.2,84.8,303.4,85.7,302.4,85.7z M285.5,85.7c-1,0-1.9-0.8-1.9-1.9c0-1,0.8-1.9,1.8-1.9h0.1c1,0,1.9,0.8,1.9,1.9
				C287.3,84.8,286.5,85.7,285.5,85.7z M268.6,85.7c-1,0-1.9-0.8-1.9-1.9c0-1,0.8-1.9,1.8-1.9h0.1c1,0,1.9,0.8,1.9,1.9
				C270.4,84.8,269.6,85.7,268.6,85.7z M251.7,85.7c-1,0-1.9-0.8-1.9-1.9c0-1,0.8-1.9,1.8-1.9h0.1c1,0,1.9,0.8,1.9,1.9
				C253.5,84.8,252.7,85.7,251.7,85.7z M234.8,85.7c-1,0-1.9-0.8-1.9-1.9c0-1,0.8-1.9,1.8-1.9h0.1c1,0,1.9,0.8,1.9,1.9
				C236.7,84.8,235.8,85.7,234.8,85.7z"/>
			<path class="st1" d="M319.2,85.7c-1,0-1.9-0.8-1.9-1.9c0-1,0.8-1.9,1.8-1.9h0.1c1,0,1.9,0.8,1.9,1.9
				C321.1,84.8,320.2,85.7,319.2,85.7z"/>
		</g>
		<g>
			<path class="st1" d="M382.4,212.9c-1,0-1.9-0.8-1.9-1.9c0-1,0.8-1.9,1.8-1.9h0.1c1,0,1.9,0.8,1.9,1.9
				C384.2,212.1,383.4,212.9,382.4,212.9z"/>
			<path class="st1" d="M486.4,212.9c-1,0-1.9-0.8-1.9-1.9c0-1,0.8-1.9,1.8-1.9h0.1c1,0,1.9,0.8,1.9,1.9
				C488.3,212.1,487.5,212.9,486.4,212.9z M469.1,212.9c-1,0-1.9-0.8-1.9-1.9c0-1,0.8-1.9,1.8-1.9h0.1c1,0,1.9,0.8,1.9,1.9
				C471,212.1,470.1,212.9,469.1,212.9z M451.7,212.9c-1,0-1.9-0.8-1.9-1.9c0-1,0.8-1.9,1.8-1.9h0.1c1,0,1.9,0.8,1.9,1.9
				C453.6,212.1,452.8,212.9,451.7,212.9z M434.4,212.9c-1,0-1.9-0.8-1.9-1.9c0-1,0.8-1.9,1.8-1.9h0.1c1,0,1.9,0.8,1.9,1.9
				C436.3,212.1,435.4,212.9,434.4,212.9z M417.1,212.9c-1,0-1.9-0.8-1.9-1.9c0-1,0.8-1.9,1.8-1.9h0.1c1,0,1.9,0.8,1.9,1.9
				C418.9,212.1,418.1,212.9,417.1,212.9z M399.7,212.9c-1,0-1.9-0.8-1.9-1.9c0-1,0.8-1.9,1.8-1.9h0.1c1,0,1.9,0.8,1.9,1.9
				C401.6,212.1,400.7,212.9,399.7,212.9z"/>
			<path class="st1" d="M503.7,212.9c-1,0-1.9-0.8-1.9-1.9c0-1,0.8-1.9,1.8-1.9h0.1c1,0,1.9,0.8,1.9,1.9
				C505.6,212.1,504.8,212.9,503.7,212.9z"/>
		</g>
		<g>
			<path class="st1" d="M217.9,306.6c-1,0-1.9-0.8-1.9-1.9c0-1,0.8-1.9,1.8-1.9h0.1c1,0,1.9,0.8,1.9,1.9
				C219.8,305.8,218.9,306.6,217.9,306.6z"/>
			<path class="st1" d="M302.4,306.6c-1,0-1.9-0.8-1.9-1.9c0-1,0.8-1.9,1.8-1.9h0.1c1,0,1.9,0.8,1.9,1.9
				C304.2,305.8,303.4,306.6,302.4,306.6z M285.5,306.6c-1,0-1.9-0.8-1.9-1.9c0-1,0.8-1.9,1.8-1.9h0.1c1,0,1.9,0.8,1.9,1.9
				C287.3,305.8,286.5,306.6,285.5,306.6z M268.6,306.6c-1,0-1.9-0.8-1.9-1.9c0-1,0.8-1.9,1.8-1.9h0.1c1,0,1.9,0.8,1.9,1.9
				C270.4,305.8,269.6,306.6,268.6,306.6z M251.7,306.6c-1,0-1.9-0.8-1.9-1.9c0-1,0.8-1.9,1.8-1.9h0.1c1,0,1.9,0.8,1.9,1.9
				C253.5,305.8,252.7,306.6,251.7,306.6z M234.8,306.6c-1,0-1.9-0.8-1.9-1.9c0-1,0.8-1.9,1.8-1.9h0.1c1,0,1.9,0.8,1.9,1.9
				C236.7,305.8,235.8,306.6,234.8,306.6z"/>
			<path class="st1" d="M319.2,306.6c-1,0-1.9-0.8-1.9-1.9c0-1,0.8-1.9,1.8-1.9h0.1c1,0,1.9,0.8,1.9,1.9
				C321.1,305.8,320.2,306.6,319.2,306.6z"/>
		</g>
		<circle class="st1" cx="16.7" cy="69.5" r="3.7"/>
		<circle class="st1" cx="217.8" cy="84" r="3.7"/>
		<circle class="st1" cx="317.8" cy="304.7" r="3.7"/>
		<circle class="st1" cx="380.7" cy="209.8" r="3.7"/>
		<circle class="st1" cx="16.7" cy="210.3" r="3.7"/>
		<circle class="st1" cx="150.4" cy="210.3" r="3.7"/>
	</g>
</g>
</svg>
