<?xml version="1.0" encoding="utf-8"?>
<!-- Generator: Adobe Illustrator 16.0.0, SVG Export Plug-In . SVG Version: 6.00 Build 0)  -->
<!DOCTYPE svg PUBLIC "-//W3C//DTD SVG 1.1//EN" "http://www.w3.org/Graphics/SVG/1.1/DTD/svg11.dtd">
<svg version="1.1" id="图层_1" xmlns="http://www.w3.org/2000/svg" xmlns:xlink="http://www.w3.org/1999/xlink" x="0px" y="0px"
	 width="200px" height="200px" viewBox="0 0 200 200" enable-background="new 0 0 200 200" xml:space="preserve">
<path fill="#515050" d="M143.75,43.75h-87.5C25.185,43.75,0,68.935,0,100s25.185,56.25,56.25,56.25h87.5
	c31.065,0,56.25-25.185,56.25-56.25S174.815,43.75,143.75,43.75z M143.75,146.875h-87.5c-25.888,0-46.875-20.987-46.875-46.875
	S30.362,53.125,56.25,53.125h87.5c25.888,0,46.875,20.987,46.875,46.875S169.638,146.875,143.75,146.875z"/>
<path fill="none" stroke="#515050" stroke-width="11" stroke-miterlimit="10" d="M27.994,99.904
	c0,15.952,12.932,28.882,28.883,28.882s28.881-12.931,28.881-28.882s-12.93-28.882-28.881-28.882S27.994,83.952,27.994,99.904z"/>
</svg>
