<?xml version="1.0" encoding="utf-8"?>
<!-- Generator: Adobe Illustrator 16.0.0, SVG Export Plug-In . SVG Version: 6.00 Build 0)  -->
<!DOCTYPE svg PUBLIC "-//W3C//DTD SVG 1.1//EN" "http://www.w3.org/Graphics/SVG/1.1/DTD/svg11.dtd">
<svg version="1.1" id="图层_1" xmlns="http://www.w3.org/2000/svg" xmlns:xlink="http://www.w3.org/1999/xlink" x="0px" y="0px"
	 width="200px" height="200px" viewBox="0 0 200 200" enable-background="new 0 0 200 200" xml:space="preserve">
<path fill="#515050" d="M0,100c0,31.064,25.185,56.25,56.25,56.25h87.5c31.064,0,56.25-25.186,56.25-56.25
	c0-31.065-25.186-56.25-56.25-56.25h-87.5C25.185,43.75,0,68.935,0,100z M9.375,100c0-25.888,20.987-46.875,46.875-46.875h87.5
	c25.889,0,46.875,20.987,46.875,46.875c0,25.889-20.986,46.875-46.875,46.875h-87.5C30.362,146.875,9.375,125.889,9.375,100z"/>
<path fill="#7ED61E" d="M142.902,65.625c-18.984,0-34.375,15.39-34.375,34.375c0,18.984,15.391,34.375,34.375,34.375
	s34.375-15.391,34.375-34.375C177.277,81.015,161.889,65.625,142.902,65.625z"/>
</svg>
