<?xml version="1.0" encoding="utf-8"?>
<!-- Generator: Adobe Illustrator 21.1.0, SVG Export Plug-In . SVG Version: 6.00 Build 0)  -->
<svg version="1.1" id="图层_1" xmlns="http://www.w3.org/2000/svg" xmlns:xlink="http://www.w3.org/1999/xlink" x="0px" y="0px"
	 viewBox="0 0 200 200" style="enable-background:new 0 0 200 200;" xml:space="preserve">
<style type="text/css">
	.st0{fill:#F84646;}
</style>
<path class="st0" d="M99.2,57.8c-27.6,0-50.1,22.4-50.1,50.1v61.5H150v-61.5c0-27.6-22.4-50.1-50.1-50.1L99.2,57.8z M41.1,87.8
	c0.9-4.4-2-8.7-6.4-9.6l-23.6-4.7c-4.4-0.9-8.7,2-9.6,6.4c-0.2,0.9-0.2,1.9-0.1,2.8c0.5,3.3,3,6.1,6.5,6.8l23.6,4.7
	C35.9,95,40.2,92.2,41.1,87.8z M35.7,33.1l15,18.8c2.8,3.5,7.9,4.1,11.5,1.3c3.5-2.8,4.1-7.9,1.3-11.5l-15-18.8
	c-2.8-3.5-7.9-4.1-11.5-1.3c-2.4,1.9-3.4,4.8-3,7.6C34.2,30.6,34.8,32,35.7,33.1L35.7,33.1z M100.6,40.2c4.5,0.1,8.2-3.5,8.3-8
	l-0.1-24.1c0.1-4.5-3.5-8.2-8-8.3c-4.5-0.1-8.2,3.5-8.3,8l0.1,24.1c0,0.5,0,1,0.1,1.4C93.3,37.1,96.6,40.1,100.6,40.2L100.6,40.2z
	 M138.3,54.9c3.4,3,8.5,2.6,11.5-0.7l15.9-18.1c3-3.4,2.6-8.5-0.7-11.5c-3.4-3-8.5-2.6-11.5,0.7l-15.9,18.1
	c-1.7,1.9-2.3,4.3-1.9,6.6C135.9,51.9,136.8,53.6,138.3,54.9L138.3,54.9z M197.7,84.4c-0.7-4.5-4.8-7.5-9.3-6.8l-23.8,3.6
	c-4.5,0.7-7.5,4.8-6.8,9.3c0.7,4.5,4.8,7.5,9.3,6.8l23.8-3.6C195.3,93,198.4,88.9,197.7,84.4L197.7,84.4z M167.8,188
	c0,6.4-5.2,11.6-11.6,11.6H40.4c-6.4,0-11.6-5.2-11.6-11.6s5.2-11.6,11.6-11.6h115.8C162.6,176.4,167.8,181.6,167.8,188L167.8,188z"
	/>
</svg>
