<?xml version="1.0" encoding="utf-8"?>
<!-- Generator: Adobe Illustrator 16.0.0, SVG Export Plug-In . SVG Version: 6.00 Build 0)  -->
<!DOCTYPE svg PUBLIC "-//W3C//DTD SVG 1.1//EN" "http://www.w3.org/Graphics/SVG/1.1/DTD/svg11.dtd">
<svg version="1.1" id="图层_1" xmlns="http://www.w3.org/2000/svg" xmlns:xlink="http://www.w3.org/1999/xlink" x="0px" y="0px"
	 width="13px" height="13px" viewBox="0 0 13 13" enable-background="new 0 0 13 13" xml:space="preserve">
<g>
	<path fill="#FFFFFF" d="M11.419,10.754c2.347-2.713,2.047-6.829-0.664-9.171c-2.713-2.347-6.83-2.049-9.174,0.664
		c-2.345,2.711-2.047,6.828,0.666,9.171C4.958,13.765,9.073,13.465,11.419,10.754 M2.899,10.662C0.604,8.679,0.353,5.197,2.335,2.9
		C4.321,0.606,7.805,0.354,10.1,2.337c2.295,1.984,2.547,5.468,0.563,7.761C8.677,12.396,5.193,12.646,2.899,10.662"/>
	<path fill="#FFFFFF" d="M3.847,6.361L3.847,6.361C3.827,6.208,3.93,6.069,4.083,6.046l4.754-0.03C8.988,5.995,9.13,6.1,9.15,6.251
		c0.021,0.15-0.082,0.293-0.233,0.314l-4.754,0.03C4.009,6.62,3.87,6.515,3.847,6.361"/>
	<path fill="#FFFFFF" d="M6.452,9.006L6.452,9.006C6.298,9.022,6.163,8.912,6.146,8.76l0.001-4.847
		C6.13,3.757,6.243,3.622,6.395,3.605C6.546,3.587,6.685,3.7,6.702,3.854L6.7,8.701C6.714,8.853,6.604,8.991,6.452,9.006"/>
</g>
</svg>
