<?xml version="1.0" standalone="no"?><!DOCTYPE svg PUBLIC "-//W3C//DTD SVG 1.1//EN" "http://www.w3.org/Graphics/SVG/1.1/DTD/svg11.dtd"><svg t="1506052100602" class="icon" style="" viewBox="0 0 1104 1024" version="1.1" xmlns="http://www.w3.org/2000/svg" p-id="3253" xmlns:xlink="http://www.w3.org/1999/xlink" width="215.625" height="200"><defs><style type="text/css"></style></defs><path d="M886.532414 993.24469H221.66069c-37.181793 0-67.328-30.146207-67.328-67.328 0-37.186207 30.146207-67.332414 67.328-67.332414h664.876138c37.181793 0 67.328 30.146207 67.328 67.332414-0.004414 37.181793-30.150621 67.328-67.332414 67.328z" p-id="3254" fill="#797979"></path><path d="M554.085517 269.298759c-171.268414 0-311.397517 140.129103-311.397517 311.397517v297.529379h622.795034v-297.529379c0-171.268414-140.129103-311.397517-311.397517-311.397517z" p-id="3255" fill="#797979"></path><path d="M554.085517 214.69131a30.896552 30.896552 0 0 1-30.896551-30.896551V61.647448a30.896552 30.896552 0 1 1 61.793103 0v122.147311a30.896552 30.896552 0 0 1-30.896552 30.896551zM272.225103 328.011034a30.803862 30.803862 0 0 1-21.843862-9.048275l-86.377931-86.369104a30.896552 30.896552 0 0 1 43.687724-43.696552l86.373518 86.369104a30.896552 30.896552 0 0 1-21.839449 52.744827zM153.048276 607.45269H30.896552a30.896552 30.896552 0 1 1 0-61.793104h122.151724a30.896552 30.896552 0 1 1 0 61.793104zM832.189793 328.011034a30.896552 30.896552 0 0 1-21.843862-52.744827l86.373517-86.369104a30.896552 30.896552 0 0 1 43.687724 43.696552l-86.373517 86.369104a30.786207 30.786207 0 0 1-21.843862 9.048275zM1073.518345 607.45269h-122.151724a30.896552 30.896552 0 1 1 0-61.793104h122.151724a30.896552 30.896552 0 1 1 0 61.793104z" p-id="3256" fill="#797979"></path></svg>