<?xml version="1.0" encoding="utf-8"?>
<!-- Generator: Adobe Illustrator 16.0.0, SVG Export Plug-In . SVG Version: 6.00 Build 0)  -->
<!DOCTYPE svg PUBLIC "-//W3C//DTD SVG 1.1//EN" "http://www.w3.org/Graphics/SVG/1.1/DTD/svg11.dtd">
<svg version="1.1" id="图层_1" xmlns="http://www.w3.org/2000/svg" xmlns:xlink="http://www.w3.org/1999/xlink" x="0px" y="0px"
	 width="13px" height="13px" viewBox="0 0 13 13" enable-background="new 0 0 13 13" xml:space="preserve">
<path fill="#FFFFFF" d="M6.5,0C2.91,0,0,2.91,0,6.5C0,10.088,2.91,13,6.5,13S13,10.088,13,6.5C13,2.91,10.09,0,6.5,0z M6.5,1.203
	c1.225,0,2.349,0.42,3.246,1.118L2.322,9.744C1.625,8.849,1.205,7.724,1.205,6.498C1.203,3.574,3.574,1.203,6.5,1.203z M6.5,11.795
	c-1.209,0-2.321-0.41-3.213-1.094l7.416-7.416c0.684,0.893,1.094,2.004,1.094,3.213C11.795,9.424,9.424,11.795,6.5,11.795z"/>
</svg>
