<?xml version="1.0" encoding="utf-8"?>
<!-- Generator: Adobe Illustrator 21.1.0, SVG Export Plug-In . SVG Version: 6.00 Build 0)  -->
<svg version="1.1" id="图层_1" xmlns="http://www.w3.org/2000/svg" xmlns:xlink="http://www.w3.org/1999/xlink" x="0px" y="0px"
	 viewBox="0 0 170 152.5" style="enable-background:new 0 0 170 152.5;" xml:space="preserve">
<style type="text/css">
	.st0{fill:#707070;}
</style>
<g>
	<path class="st0" d="M125,89.5v-13c0-4.5-4-8-8.5-8c-5,0-8.5,3.5-8.5,8v13c0,2-1.5,3.5-4,3.5H21c-2,0-4-1.5-4-3.5v-70
		c0-2,1.5-3.5,4-3.5h82.5c2,0,4,1.5,4,3.5V25c0,4.5,4,8,8.5,8c5,0,8.5-3.5,8.5-8v-6c0-10.5-9.5-19-21-19H21C9.5,0,0,8.5,0,19v70
		c0,10.5,9.5,19,21,19h82.5C115,108.5,125,100,125,89.5L125,89.5z"/>
	<path class="st0" d="M149,44.5H66.5c-11.5,0-21,8.5-21,19v13c0,4.5,4,8,8.5,8c5,0,8.5-3.5,8.5-8v-13c0-2,1.5-3.5,4-3.5H149
		c2,0,4,1.5,4,3.5v70c0,2-1.5,3.5-4,3.5H66.5c-2,0-4-1.5-4-3.5v-5c0-4.5-4-8-8.5-8c-5,0-8.5,3.5-8.5,8v5c0,10.5,9.5,19,21,19H149
		c11.5,0,21-8.5,21-19v-70C170,53,160.5,44.5,149,44.5z"/>
</g>
</svg>
