<?xml version="1.0" encoding="utf-8"?>
<!-- Generator: Adobe Illustrator 21.1.0, SVG Export Plug-In . SVG Version: 6.00 Build 0)  -->
<svg version="1.1" id="图层_1" xmlns="http://www.w3.org/2000/svg" xmlns:xlink="http://www.w3.org/1999/xlink" x="0px" y="0px"
	 viewBox="0 0 152.5 180.8" style="enable-background:new 0 0 152.5 180.8;" xml:space="preserve">
<style type="text/css">
	.st0{fill:#339eff;}
</style>
<g>
	<g>
		<path class="st0" d="M89.1,72.3l19.2-19.1c3.5-3.5,3.5-9.2,0-12.7c-3.5-3.5-9.3-3.5-12.8,0L76.3,59.5L57.1,40.4
			c-3.5-3.5-9.3-3.5-12.8,0c-3.5,3.5-3.5,9.2,0,12.7l19.2,19.1L44.3,91.4c-3.5,3.5-3.5,9.2,0,12.7c3.5,3.5,9.3,3.5,12.8,0L76.3,85
			l19.2,19.1c3.5,3.5,9.2,3.5,12.8,0c3.5-3.5,3.5-9.2,0-12.7L89.1,72.3z M127.1,0H25.4C11.4,0,0,11.3,0,25.3v145.8
			c0,1.6,0.4,3.2,1.2,4.6c2.5,4.7,8.4,6.5,13.2,4l61.9-33.1l61.9,33.1c1.4,0.8,3,1.2,4.6,1.2c5.4,0,9.7-4.3,9.7-9.7V25.3
			C152.5,11.3,141.2,0,127.1,0z M133.5,155.6l-52.7-28.1c-2.8-1.5-6.2-1.5-9,0l-52.7,28.1V25.3c0-3.5,2.8-6.3,6.4-6.3h101.7
			c3.5,0,6.4,2.8,6.4,6.3V155.6z"/>
	</g>
</g>
</svg>
