<?xml version="1.0" encoding="utf-8"?>
<!-- Generator: Adobe Illustrator 21.1.0, SVG Export Plug-In . SVG Version: 6.00 Build 0)  -->
<svg version="1.1" id="图层_1" xmlns="http://www.w3.org/2000/svg" xmlns:xlink="http://www.w3.org/1999/xlink" x="0px" y="0px"
	 viewBox="0 0 200.6 160" style="enable-background:new 0 0 200.6 160;" xml:space="preserve">
<style type="text/css">
	.st0{fill:#DDDDDD;}
</style>
<path class="st0" d="M78.8,1.6c14.2-2.1,28.7-2.1,42.9,0c10,2,20,3.6,29.4,6.2c7,1.8,12.6,7,14.8,13.9c4.1,11.5,8.3,22.8,12.8,34.1
	c0.8,1.9,3.2,4.7,4.6,4.5c7.9-1.3,15.5,3.9,17,11.8c0.5,2,0.5,4.2,0,6.2l-11.4,3.1c0.7,4,1.2,8,1.4,12v55.4
	c-0.1,3.3-1.3,6.6-3.4,9.2c-10.6,2-21.4,2.2-32,0.6c-7.4-4.7-2.8-12.6-5.2-19H52.5c-1.9,6.8-3,18.2-5.2,19
	c-10.9,1.9-21.9,1.9-32.8,0c-2.3-3.1-3.6-6.8-3.6-10.6c-0.6-8-0.6-15.6-0.6-23.4c0-14.5,0-29,0.6-43.6L0.3,78.2
	c-0.4-1.6-0.4-3.3,0-4.9c3-8,7-14.2,17.3-13.3c1.2,0,3.5-2.4,4.2-4.2c3.8-8.9,7.2-18,10-27.3c3.8-13.7,15.8-23.6,30-24.7
	c5.5-1,11.2-1.7,16.7-2.6L78.8,1.6z M34.6,63.4c43.1,9.1,87.7,9.1,130.8,0c-3.7-11.1-7.4-21-10-31c-1.6-7.9-8.6-13.5-16.6-13.3
	c-20.7-0.9-41.5-1.6-62.2-1.8c-6.8,0.3-13.5,1.3-20,3.1c-3,0.6-5.6,2.4-7.3,5C43.7,37.5,39.5,50,34.6,63.4z M43.1,110.6
	c3.6,0.2,7.2,0,10.7-0.6c2.8-0.6,5.1-2.4,6.5-4.9c0.5-1.5-1.8-5.2-3.8-6.1c-8.1-3.8-16.5-7.1-25-10c-4.2-1.4-9-1.1-10,4.8
	c-2,8.7,0,13.5,6.5,14.9c5.1,1,10,1.2,15.6,1.7L43.1,110.6z M158.4,110.6c5.3-0.4,10.5-1,15.7-2c7.5-1.7,5.9-7.8,5.7-13.1
	c-0.2-5.3-3-7.8-7.1-6.6c-10.3,3.1-20.3,6.9-30,11.4c-4.4,2.1-2.8,7.9,2.2,9c4.5,0.7,9,1.1,13.5,1.2L158.4,110.6z"/>
</svg>
