<?xml version="1.0" encoding="utf-8"?>
<!-- Generator: Adobe Illustrator 16.0.0, SVG Export Plug-In . SVG Version: 6.00 Build 0)  -->
<!DOCTYPE svg PUBLIC "-//W3C//DTD SVG 1.1//EN" "http://www.w3.org/Graphics/SVG/1.1/DTD/svg11.dtd">
<svg version="1.1" id="图层_1" xmlns="http://www.w3.org/2000/svg" xmlns:xlink="http://www.w3.org/1999/xlink" x="0px" y="0px"
	 width="104.354px" height="43.354px" viewBox="0 0 104.354 43.354" enable-background="new 0 0 104.354 43.354"
	 xml:space="preserve">
<g>
	<path fill="rgba(40,40,46,0.8)" d="M90.677,5.677h-77c-4.418,0-8,3.697-8,8.258v15.484c0,4.561,3.582,8.258,8,8.258h77
		c4.418,0,8-3.697,8-8.258V13.935C98.677,9.374,95.095,5.677,90.677,5.677z"/>
	<path fill="rgba(40,40,46,0.8)" d="M99.429,4.925c1.899,1.899,3.33,4.093,4.306,6.429c0.822-5.289,0.851-9.759-0.063-10.671
		C102.758-0.23,98.288-0.203,93,0.619C95.336,1.595,97.528,3.025,99.429,4.925z"/>
</g>
</svg>
