<?xml version="1.0" encoding="utf-8"?>
<!-- Generator: Adobe Illustrator 16.0.0, SVG Export Plug-In . SVG Version: 6.00 Build 0)  -->
<!DOCTYPE svg PUBLIC "-//W3C//DTD SVG 1.1//EN" "http://www.w3.org/Graphics/SVG/1.1/DTD/svg11.dtd">
<svg version="1.1" id="图层_1" xmlns="http://www.w3.org/2000/svg" xmlns:xlink="http://www.w3.org/1999/xlink" x="0px" y="0px"
	 width="104.354px" height="43.354px" viewBox="0 0 104.354 43.354" enable-background="new 0 0 104.354 43.354"
	 xml:space="preserve">
<g>
	<path fill="rgba(40,40,46,0.8)" d="M93,42.735c5.288,0.822,9.758,0.851,10.672-0.063c0.912-0.912,0.885-5.383,0.063-10.671
		c-0.976,2.336-2.405,4.527-4.306,6.429C97.528,40.328,95.336,41.759,93,42.735z"/>
	<path fill="rgba(40,40,46,0.8)" d="M90.677,5.677h-77c-4.418,0-8,3.697-8,8.258v15.485c0,4.561,3.582,8.258,8,8.258h77
		c4.418,0,8-3.697,8-8.258V13.934C98.677,9.374,95.095,5.677,90.677,5.677z"/>
</g>
</svg>
