<?xml version="1.0" encoding="utf-8"?>
<!-- Generator: Adobe Illustrator 21.1.0, SVG Export Plug-In . SVG Version: 6.00 Build 0)  -->
<svg version="1.1" id="图层_1" xmlns="http://www.w3.org/2000/svg" xmlns:xlink="http://www.w3.org/1999/xlink" x="0px" y="0px"
	 viewBox="0 0 200 200" style="enable-background:new 0 0 200 200;" xml:space="preserve">
<style type="text/css">
	.st0{fill:#DDDDDD;}
</style>
<path class="st0" d="M200,100C200,44.8,155.2,0,100,0S0,44.8,0,100s44.8,100,100,100S200,155.2,200,100z M36.4,100h-9.1
	c0.7-40.2,33.8-72.2,74-71.5c39.2,0.7,70.8,32.3,71.5,71.5h-9.1c0-35.1-28.5-63.6-63.6-63.6C64.9,36.4,36.4,64.8,36.4,100
	C36.4,100,36.4,100,36.4,100z M120.7,56.8l-3.4,70.1l-12.9,22.3l-4.5-25.4C99.9,123.8,120.7,56.8,120.7,56.8z"/>
</svg>
