<?xml version="1.0" encoding="utf-8"?>
<!-- Generator: Adobe Illustrator 21.1.0, SVG Export Plug-In . SVG Version: 6.00 Build 0)  -->
<svg version="1.1" id="图层_1" xmlns="http://www.w3.org/2000/svg" xmlns:xlink="http://www.w3.org/1999/xlink" x="0px" y="0px"
	 viewBox="0 0 66.2 28.2" style="enable-background:new 0 0 66.2 28.2;" xml:space="preserve">
<style type="text/css">
	.st0{fill:#CCCCCC;}
	.st1{fill:#FFFFFF;}
</style>
<g>
	<g>
		<path class="st0" d="M3.6,0.6h59c1.7,0,3,1.3,3,3v21c0,1.7-1.3,3-3,3h-59c-1.7,0-3-1.3-3-3v-21C0.6,1.9,1.9,0.6,3.6,0.6z"/>
	</g>
</g>
<g>
	<polygon class="st1" points="12.2,10.9 12.2,21.8 22.5,21.8 22.5,10.9 21.3,10.9 21.3,20.6 19.3,20.6 19.3,11.2 18.1,11.2 
		18.1,20.6 16.3,20.6 16.3,11.2 15.1,11.2 15.1,20.6 13.4,20.6 13.4,10.9 	"/>
	<rect x="11.2" y="8.4" class="st1" width="12.5" height="1.2"/>
	<rect x="15.3" y="6.4" class="st1" width="4.4" height="1.2"/>
</g>
<g>
	<path class="st1" d="M29.7,11.8l0.7-0.8c0.8,0.6,1.6,1.2,2.4,1.8c-0.3,0.4-0.6,0.7-0.8,0.9C31.2,13,30.4,12.3,29.7,11.8z
		 M30.2,20.3c0.5-1.7,1-3.5,1.4-5.3c0.4,0.2,0.8,0.3,1.1,0.4c-0.4,1.7-0.9,3.4-1.3,5.2L30.2,20.3z M30.3,8.3L31,7.5
		c0.6,0.5,1.4,1.1,2.4,1.9c-0.3,0.3-0.6,0.6-0.8,0.8C31.6,9.4,30.8,8.7,30.3,8.3z M33.3,12h4.5v-0.9h-3.6v-0.9h3.6V9.3h-4V8.5h4V7.2
		h1.1v1.2h4.3v0.9h-4.3v0.9h3.9v0.9h-3.9V12h4.5v0.9H33.3V12z M35.3,20.7h-1v-6.9h8.1v5.4c0,1-0.5,1.4-1.5,1.4h-2.3
		c0-0.3-0.1-0.6-0.2-1.1c0.8,0.1,1.5,0.1,2.1,0.1c0.6,0,0.8-0.2,0.8-0.7v-0.7h-6V20.7z M41.3,14.6h-6v0.9h6V14.6z M35.3,17.3h6v-0.9
		h-6V17.3z"/>
	<path class="st1" d="M48.8,10.8l0.8,0.8c-1.8,1.4-3.4,2.5-5,3.4c-0.3-0.4-0.6-0.7-0.8-0.9C45.6,13.1,47.2,12,48.8,10.8z M44.3,19
		H50v-3.6h-4.3v-1h9.7v1h-4.3V19h5.7v1H44.3V19z M44.4,9h5.9c-0.2-0.4-0.5-0.8-0.8-1.3l1-0.5c0.4,0.5,0.7,1.1,1,1.6L51,9h5.8v2.7
		h-1.1v-1.6H45.5v1.6h-1.1V9z M52.3,10.8c1.9,1.1,3.6,2.2,5,3.2l-0.8,0.9c-1.4-1.1-3-2.2-4.9-3.4L52.3,10.8z"/>
</g>
</svg>
