<?xml version="1.0" standalone="no"?><!DOCTYPE svg PUBLIC "-//W3C//DTD SVG 1.1//EN" "http://www.w3.org/Graphics/SVG/1.1/DTD/svg11.dtd"><svg t="1497497194022" class="icon" style="" viewBox="0 0 1024 1024" version="1.1" xmlns="http://www.w3.org/2000/svg" p-id="1206" xmlns:xlink="http://www.w3.org/1999/xlink" width="16" height="16"><defs><style type="text/css"></style></defs><path d="M 31.0303 15.5152 L 31.0303 15.5152 L 31.0303 15.5152 Z" fill="#2c9eff" p-id="1207"></path><path d="M 739.887 920.235 q -36.864 0 -123.159 30.0684 t -120.242 30.0684 q -37.8259 0 -124.121 -30.0684 t -117.326 -30.0684 q -18.432 0 -40.2463 5.8337 t -35.4056 11.1399 t -34.9091 15.0187 q -12.5983 5.8337 -18.432 8.25406 t -15.0187 5.33721 t -13.0948 2.91685 q -3.87879 -0.961939 -6.79564 -2.91685 q -3.87879 -1.95491 -4.37527 -8.25406 t 1.45842 -16.0116 t 5.8337 -24.2347 l 10.6744 -31.9922 q 5.8337 -17.4701 12.5983 -38.7879 q 14.5532 -41.7047 27.648 -79.5307 t 23.7692 -72.735 q 11.6364 -34.9091 18.432 -56.2579 l 7.75758 -20.3559 l 726.295 0 q 35.871 201.697 51.3862 304.5 q 1.95491 13.5913 1.95491 23.2727 q 0 4.84073 -0.496485 8.25406 t -0.961939 6.29915 t -2.42036 5.33721 t -3.87879 3.3823 q -5.8337 1.95491 -9.71249 2.91685 q -1.95491 0.961939 -5.33721 0.496485 t -8.25406 -1.95491 t -8.71951 -2.91685 t -7.75758 -2.42036 q -6.79564 -2.91685 -21.3488 -7.75758 q -28.1135 -11.6364 -46.5455 -17.4701 q -5.8337 -1.95491 -13.5913 -3.87879 t -17.4701 -3.87879 t -21.3488 -4.84073 q -4.84073 -0.961939 -9.71249 -1.45842 t -9.71249 -1.45842 t -9.71249 -0.961939 l -9.71249 -1.95491 l -9.216 0 t -9.216 -0.496485 t -9.71249 -0.496485 Z M 861.091 557.583 l -606.053 0 q -24.2347 0 -42.1702 -17.9355 t -17.9355 -43.1632 q 25.2276 -33.9472 81.4545 -121.204 q 45.5835 -61.0987 99.8865 -61.0987 l 90.1741 0 l 30.0684 -242.44 l 14.5532 -17.4701 q 8.71951 -9.71249 32.4887 -26.1896 t 44.1251 -16.4771 t 43.6286 14.5532 q 5.8337 3.87879 10.6744 7.75758 t 9.216 7.75758 t 8.25406 7.26109 t 6.79564 7.26109 l 12.5983 15.5152 l -30.0684 242.44 l 89.2121 0 q 25.2276 0 54.303 16.9736 t 49.4623 48.0039 q 56.2579 86.2953 79.5307 117.326 q 0 27.1515 -17.9355 44.1251 t -42.1702 16.9736 Z" fill="#2c9eff" p-id="1208"></path></svg>