<?xml version="1.0" encoding="utf-8"?>
<!-- Generator: Adobe Illustrator 21.1.0, SVG Export Plug-In . SVG Version: 6.00 Build 0)  -->
<svg version="1.1" id="图层_1" xmlns="http://www.w3.org/2000/svg" xmlns:xlink="http://www.w3.org/1999/xlink" x="0px" y="0px"
	 viewBox="0 0 167.6 187.5" style="enable-background:new 0 0 167.6 187.5;" xml:space="preserve">
<style type="text/css">
	.st0{fill:#66B100;}
	.st1{fill:#FFFFFF;}
</style>
<g>
	<path class="st0" d="M0,88.4C0,68,0,48.6,0,24.1C23.2,16.7,48.8,8,83.8,0c35.1,8,60.6,16.7,83.8,24.1c0,24.5,0,43.9,0,64.3
		c0,57.6-47,89.2-83.8,99.1C47,177.6,0,146,0,88.4L0,88.4z"/>
	<circle class="st1" cx="133.8" cy="153.6" r="33.9"/>
	<g>
		<path class="st0" d="M143.9,144.8c-0.3-1.5-1.6-2.5-3.1-2.5c-3.8-0.2-7.7-0.3-11.5-0.3c-1.2,0-2.5,0.2-3.7,0.6
			c-0.6,0.1-1,0.4-1.3,0.9c-1,2.2-1.8,4.5-2.7,7c8,1.7,16.2,1.7,24.2,0C145.1,148.5,144.4,146.7,143.9,144.8L143.9,144.8z
			 M125.7,157.1c-1.5-0.7-3-1.3-4.6-1.8c-0.8-0.3-1.7-0.2-1.8,0.9c-0.4,1.6,0,2.5,1.2,2.7c1,0.2,1.9,0.3,2.9,0.3l-0.1,0
			c0.7,0,1.3,0,2-0.1c0.5-0.1,0.9-0.4,1.2-0.9C126.5,158,126,157.3,125.7,157.1L125.7,157.1z"/>
		<path class="st0" d="M133.8,127.2c-14.6,0-26.5,11.8-26.5,26.5c0,14.6,11.8,26.5,26.5,26.5s26.5-11.8,26.5-26.5
			C160.2,139,148.4,127.2,133.8,127.2z M152.2,153.3l-2.1,0.6c0.1,0.7,0.2,1.5,0.2,2.2v10.2c0,0.6-0.2,1.2-0.6,1.7
			c-1.9,0.4-3.9,0.4-5.9,0.1c-1.4-0.9-0.5-2.3-1-3.5h-17.9c-0.4,1.3-0.6,3.4-1,3.5c-2,0.4-4.1,0.4-6.1,0c-0.4-0.6-0.7-1.3-0.7-2
			c-0.1-1.5-0.1-2.9-0.1-4.3c0-2.7,0-5.4,0.1-8l-2-0.5c-0.1-0.3-0.1-0.6,0-0.9c0.6-1.5,1.3-2.6,3.2-2.5c0.2,0,0.6-0.4,0.8-0.8
			c0.7-1.7,1.3-3.3,1.8-5.1c0.7-2.5,2.9-4.4,5.5-4.6c1-0.2,2.1-0.3,3.1-0.5c2.7-0.3,5.3-0.3,8,0.1c1.8,0.4,3.7,0.7,5.4,1.1
			c1.3,0.3,2.3,1.3,2.7,2.6c0.8,2.1,1.6,4.2,2.4,6.3c0.1,0.4,0.6,0.9,0.8,0.8c1.5-0.2,2.9,0.7,3.1,2.2
			C152.3,152.6,152.3,152.9,152.2,153.3z"/>
		<path class="st0" d="M147.1,155.3c-1.9,0.6-3.7,1.3-5.5,2.1c-0.8,0.4-0.5,1.5,0.4,1.7c0.8,0.1,1.7,0.2,2.5,0.2
			c1-0.1,1.9-0.2,2.9-0.4c1.4-0.3,1.1-1.4,1.1-2.4C148.4,155.5,147.9,155,147.1,155.3L147.1,155.3z"/>
	</g>
</g>
</svg>
