<?xml version="1.0" standalone="no"?><!DOCTYPE svg PUBLIC "-//W3C//DTD SVG 1.1//EN" "http://www.w3.org/Graphics/SVG/1.1/DTD/svg11.dtd"><svg t="1490946171187" class="icon" style="" viewBox="0 0 1025 1024" version="1.1" xmlns="http://www.w3.org/2000/svg" p-id="5487" xmlns:xlink="http://www.w3.org/1999/xlink" width="200.1953125" height="200"><defs><style type="text/css"></style></defs><path d="M906.656888 318.23452 705.850821 117.428452C692.452371 104.030003 669.32511 103.773981 656.097341 116.91641L116.91641 656.012001C103.432619 669.581132 103.6033 691.940328 117.428452 705.850821l200.720727 200.720727c6.827236 6.827236 15.873323 10.582215 25.431453 10.582215 9.216768 0 17.921493-3.584299 24.407367-10.070173l539.180932-539.095591C920.738062 354.418868 920.48204 332.059672 906.656888 318.23452zM242.708226 707.472289c8.448704-8.448704 8.363364-22.273856-0.256021-30.978582L200.635386 634.76223l15.787982-15.787982 89.607467 89.522127C314.308859 716.774398 328.816735 716.859738 336.924077 708.752396c4.096341-4.011001 6.315193-9.472789 6.315193-15.190599 0-5.973831-2.304192-11.52096-6.571214-15.702642L247.145929 588.251688l15.787982-15.787982L304.665389 614.195183C313.028752 622.558547 327.451288 622.643887 335.64397 614.451204 344.092674 606.087841 343.921993 592.177348 335.387949 583.557963L293.656471 541.826486l15.787982-15.787982 89.522127 89.522127c8.278023 8.278023 22.785899 8.534045 30.893241 0.256021 8.448704-8.448704 8.363364-22.359197-0.256021-30.978582L340.081673 495.315943 355.869656 479.527961l41.731478 41.731478c8.363364 8.363364 22.785899 8.448704 30.978582 0.256021C432.676056 517.419118 434.894908 512.04267 434.894908 506.23952c0-5.888491-2.389532-11.43562-6.571214-15.617301L386.592216 448.8054l15.873323-15.787982 89.522127 89.522127c8.278023 8.363364 22.700558 8.534045 30.893241 0.170681 8.448704-8.448704 8.278023-22.359197-0.256021-30.893241L433.102759 402.380198 448.890741 386.592216l41.816818 41.731478c8.363364 8.363364 22.700558 8.448704 30.893241 0.256021C529.964164 420.131011 529.878823 406.305859 521.259438 397.686474L479.527961 355.869656l15.873323-15.873323 89.522127 89.522127C593.286774 437.881823 607.623969 438.052504 615.816651 429.859822c8.448704-8.448704 8.278023-22.273856-0.256021-30.893241L526.038503 309.359113 541.826486 293.571131 583.557963 335.387949C591.921327 343.665972 606.343862 343.751313 614.451204 335.64397c4.096341-4.011001 6.315193-9.387449 6.315193-15.190599 0-5.888491-2.304192-11.52096-6.571214-15.787982L572.463705 262.933911l15.787982-15.787982 89.522127 89.436786c8.278023 8.448704 22.785899 8.534045 30.978582 0.256021 8.448704-8.448704 8.278023-22.359197-0.256021-30.893241L618.974248 216.423369l15.873323-15.787982 41.731478 41.816818C684.857071 250.730228 699.279607 250.815568 707.472289 242.708226c8.448704-8.448704 8.363364-22.359197-0.256021-30.978582L665.48479 169.998167l3.242937-3.328277c6.656555-6.741895 18.604217-6.571214 25.602134 0.512043l162.488207 162.488207c3.584299 3.584299 5.461788 8.192683 5.547129 13.057088 0 4.779065-1.792149 9.216768-5.120427 12.545045l-501.972498 501.887157c-6.741895 6.827236-18.689557 6.400533-25.602134-0.512043L167.267272 694.329861c-7.168597-7.253938-7.424619-18.774898-0.597383-25.687474l3.328277-3.328277 41.731478 41.731478C220.007667 715.494291 234.430203 715.664972 242.708226 707.472289z" p-id="5488" fill="#6dcff6"></path></svg>