<?xml version="1.0" encoding="utf-8"?>
<!-- Generator: Adobe Illustrator 21.1.0, SVG Export Plug-In . SVG Version: 6.00 Build 0)  -->
<svg version="1.1" id="图层_1" xmlns="http://www.w3.org/2000/svg" xmlns:xlink="http://www.w3.org/1999/xlink" x="0px" y="0px"
	 viewBox="0 0 46 46" style="enable-background:new 0 0 46 46;" xml:space="preserve">
<style type="text/css">
	.st0{fill:#040000;}
	.st1{fill-rule:evenodd;clip-rule:evenodd;fill:none;stroke:#6FC6EA;stroke-width:2;stroke-miterlimit:10;}
</style>
<g>
	<g>
		<path class="st0" d="M27.1,16.6h-8.3c-1.2,0-2.2,1-2.2,2.2v8.3c0,1.2,1,2.2,2.2,2.2h8.3c1.2,0,2.2-1,2.2-2.2v-8.3
			C29.4,17.6,28.4,16.6,27.1,16.6z M27.8,27.1c0,0.4-0.3,0.6-0.6,0.6h-8.3c-0.4,0-0.6-0.3-0.6-0.6v-8.3c0-0.4,0.3-0.6,0.6-0.6h8.3
			c0.4,0,0.6,0.3,0.6,0.6V27.1z"/>
		<path class="st0" d="M36.5,23.8c0.4,0,0.8-0.4,0.8-0.8s-0.4-0.8-0.8-0.8h-2.6V19h2.6c0.4,0,0.8-0.4,0.8-0.8s-0.4-0.8-0.8-0.8h-2.6
			v-3c0-1.2-1-2.2-2.2-2.2h-3V9.5c0-0.4-0.4-0.8-0.8-0.8S27,9.1,27,9.5v2.6h-3.2V9.5c0-0.4-0.4-0.8-0.8-0.8s-0.8,0.4-0.8,0.8v2.6H19
			V9.5c0-0.4-0.4-0.8-0.8-0.8s-0.8,0.4-0.8,0.8v2.6h-3c-1.2,0-2.2,1-2.2,2.2v3H9.5c-0.4,0-0.8,0.4-0.8,0.8S9.1,19,9.5,19h2.6v3.2
			H9.5c-0.4,0-0.8,0.4-0.8,0.8s0.4,0.8,0.8,0.8h2.6V27H9.5c-0.4,0-0.8,0.4-0.8,0.8s0.4,0.8,0.8,0.8h2.6v3c0,1.2,1,2.2,2.2,2.2h3v2.6
			c0,0.4,0.4,0.8,0.8,0.8s0.8-0.4,0.8-0.8v-2.6h3.2v2.6c0,0.4,0.4,0.8,0.8,0.8s0.8-0.4,0.8-0.8v-2.6H27v2.6c0,0.4,0.4,0.8,0.8,0.8
			s0.8-0.4,0.8-0.8v-2.6h3c1.2,0,2.2-1,2.2-2.2v-3h2.6c0.4,0,0.8-0.4,0.8-0.8S36.9,27,36.5,27h-2.6v-3.2H36.5z M32.3,31.6
			c0,0.4-0.3,0.6-0.6,0.6H14.4c-0.4,0-0.6-0.3-0.6-0.6V14.4c0-0.4,0.3-0.6,0.6-0.6h17.2c0.4,0,0.6,0.3,0.6,0.6V31.6z"/>
	</g>
	<path class="st1" d="M23,1c12.2,0,22,9.8,22,22s-9.8,22-22,22S1,35.2,1,23S10.8,1,23,1z"/>
</g>
</svg>
