<?xml version="1.0" encoding="utf-8"?>
<!-- Generator: Adobe Illustrator 21.1.0, SVG Export Plug-In . SVG Version: 6.00 Build 0)  -->
<svg version="1.1" id="图层_1" xmlns="http://www.w3.org/2000/svg" xmlns:xlink="http://www.w3.org/1999/xlink" x="0px" y="0px"
	 viewBox="0 0 46 46" style="enable-background:new 0 0 46 46;" xml:space="preserve">
<style type="text/css">
	.st0{fill-rule:evenodd;clip-rule:evenodd;fill:none;stroke:#6FC6EA;stroke-width:2;stroke-miterlimit:10;}
	.st1{fill:#040000;}
</style>
<g>
	<path class="st0" d="M23,1c12.2,0,22,9.8,22,22s-9.8,22-22,22S1,35.2,1,23S10.8,1,23,1z"/>
	<path class="st1" d="M34.2,30.8h-4.1c-0.6,0-1-0.4-1-1l0-1h-1.4v2h-2v-2h-1.4v2h-2.7v-2h-1.4v2h-2v-2h-1.4l0,1
		c0,0.3-0.1,0.5-0.3,0.7c-0.2,0.2-0.5,0.3-0.7,0.3h-4.1c-0.3,0-0.5-0.1-0.7-0.3c-0.2-0.2-0.3-0.4-0.3-0.7V16.1c0-0.5,0.5-1,1-1h22.4
		c0.3,0,0.5,0.1,0.7,0.3c0.2,0.2,0.3,0.4,0.3,0.7v13.7c0,0.3-0.1,0.5-0.3,0.7C34.7,30.7,34.5,30.8,34.2,30.8L34.2,30.8z M33.2,26.2
		h-1.1c-0.6,0-1-0.4-1-1c0-0.5,0.5-1,1-1h1.1v-7.1H12.8v7.1h1c0.6,0,1,0.4,1,1s-0.5,1-1,1h-1v2.7h2l0-1.3c0-0.5,0.1-0.7,0.7-0.7
		h14.9c0.6,0,0.7,0.1,0.7,0.7v1.3h2L33.2,26.2L33.2,26.2L33.2,26.2z M29.1,23h2v-4.6h-2V23L29.1,23z M24.4,23h2v-4.6h-2L24.4,23
		L24.4,23z M19.6,23h2v-4.6h-2V23L19.6,23z M14.9,18.4h2V23l-2,0L14.9,18.4L14.9,18.4z"/>
</g>
</svg>
