<?xml version="1.0" encoding="utf-8"?>
<!-- Generator: Adobe Illustrator 21.1.0, SVG Export Plug-In . SVG Version: 6.00 Build 0)  -->
<svg version="1.1" id="图层_1" xmlns="http://www.w3.org/2000/svg" xmlns:xlink="http://www.w3.org/1999/xlink" x="0px" y="0px"
	 viewBox="0 0 46 46" style="enable-background:new 0 0 46 46;" xml:space="preserve">
<style type="text/css">
	.st0{fill-rule:evenodd;clip-rule:evenodd;fill:none;stroke:#6FC6EA;stroke-width:2;stroke-miterlimit:10;}
	.st1{fill:#040000;}
</style>
<g>
	<path class="st0" d="M23,1c12.2,0,22,9.8,22,22s-9.8,22-22,22S1,35.2,1,23S10.8,1,23,1z"/>
	<path class="st1" d="M23,8.8C15.2,8.8,8.8,15.1,8.8,23S15.2,37.2,23,37.2c7.9,0,14.2-6.3,14.2-14.2S30.9,8.8,23,8.8z M19.2,10.7
		c-0.3,0.3-0.5,0.6-0.8,1c0,0.1-0.1,0.1-0.1,0.1c-0.5,0.7-1,1.5-1.4,2.5c0,0.1-0.1,0.1-0.1,0.1c0,0.1-0.1,0.1-0.1,0.2
		c-0.8-0.4-1.5-0.8-2.1-1.4C16,12,17.5,11.2,19.2,10.7z M13.7,14c0.8,0.6,1.6,1.2,2.6,1.7c0,0.1-0.1,0.1-0.1,0.1
		c-0.3,1-0.6,2.1-0.7,3.2c0,0.1-0.1,0.3-0.1,0.5c-0.1,0.5-0.1,0.8-0.1,1.3c0,0.2,0,0.3-0.1,0.5c0,0.4,0,0.7-0.1,1.1l-5.2,0
		C10.3,19.1,11.7,16.2,13.7,14z M10.1,23.6h5.2c0,0.4,0,0.8,0.1,1.1c0,0.2,0,0.3,0.1,0.5c0.1,0.5,0.1,0.8,0.1,1.3
		c0,0.1,0.1,0.3,0.1,0.5c0.2,1.1,0.5,2.2,0.7,3.2c0,0.1,0.1,0.1,0.1,0.1c-1,0.5-1.9,1-2.6,1.7C11.7,29.8,10.3,26.9,10.1,23.6z
		 M14.7,32.8c0.6-0.5,1.4-1,2.1-1.4c0,0.1,0.1,0.1,0.1,0.2s0.1,0.1,0.1,0.1c0.4,0.9,0.8,1.7,1.4,2.5c0,0.1,0.1,0.1,0.1,0.1
		c0.3,0.3,0.5,0.6,0.8,1C17.5,34.8,16,34,14.7,32.8z M22.4,35.8C20.5,35.4,19,33.6,18,31c1.4-0.5,2.8-0.8,4.4-0.8L22.4,35.8z
		 M22.4,28.8c-1.7,0.1-3.4,0.4-4.8,0.9c-0.6-1.8-0.9-3.9-1-6.1h5.8V28.8z M22.4,22.4h-5.8c0.1-2.3,0.4-4.3,1-6.1
		c1.5,0.5,3.1,0.8,4.8,0.9V22.4z M22.4,15.9c-1.6-0.1-3.1-0.4-4.4-0.8c1-2.7,2.6-4.5,4.4-4.8L22.4,15.9z M35.9,22.4h-5.2
		c0-0.4,0-0.8-0.1-1.1c0-0.2,0-0.3-0.1-0.5c-0.1-0.5-0.1-0.8-0.1-1.3c0-0.1-0.1-0.3-0.1-0.5c-0.2-1.1-0.5-2.2-0.7-3.2
		c0-0.1-0.1-0.1-0.1-0.1c1-0.5,1.9-1,2.6-1.7C34.3,16.2,35.7,19.1,35.9,22.4z M31.3,13.2c-0.6,0.5-1.4,1-2.1,1.4
		c0-0.1-0.1-0.1-0.1-0.2s-0.1-0.1-0.1-0.1c-0.4-0.9-0.8-1.7-1.4-2.5c0-0.1-0.1-0.1-0.1-0.1c-0.3-0.3-0.5-0.6-0.8-1
		C28.5,11.2,30,12,31.3,13.2z M23.6,10.2c1.8,0.4,3.4,2.2,4.4,4.8c-1.4,0.5-2.8,0.8-4.4,0.8V10.2z M23.6,17.2
		c1.7-0.1,3.4-0.4,4.8-0.9c0.6,1.8,0.9,3.9,1,6.1h-5.8V17.2z M23.6,23.6h5.8c-0.1,2.3-0.4,4.3-1,6.1c-1.5-0.5-3.1-0.8-4.8-0.9V23.6z
		 M23.6,35.8v-5.7c1.6,0.1,3.1,0.4,4.4,0.8C27,33.6,25.5,35.4,23.6,35.8z M26.8,35.3c0.3-0.3,0.5-0.6,0.8-1c0-0.1,0.1-0.1,0.1-0.1
		c0.5-0.7,1-1.5,1.4-2.5c0-0.1,0.1-0.1,0.1-0.1c0-0.1,0.1-0.1,0.1-0.2c0.8,0.4,1.5,0.8,2.1,1.4C30,34,28.5,34.8,26.8,35.3z M32.3,32
		c-0.8-0.6-1.6-1.2-2.6-1.7c0-0.1,0.1-0.1,0.1-0.1c0.3-1,0.6-2.1,0.7-3.2c0-0.1,0.1-0.3,0.1-0.5c0.1-0.5,0.1-0.8,0.1-1.3
		c0-0.2,0-0.3,0.1-0.5c0-0.4,0-0.7,0.1-1.1h5.2C35.7,26.9,34.3,29.8,32.3,32z"/>
</g>
</svg>
