<?xml version="1.0" encoding="utf-8"?>
<!-- Generator: Adobe Illustrator 21.1.0, SVG Export Plug-In . SVG Version: 6.00 Build 0)  -->
<svg version="1.1" id="图层_1" xmlns="http://www.w3.org/2000/svg" xmlns:xlink="http://www.w3.org/1999/xlink" x="0px" y="0px"
	 viewBox="0 0 117.4 155.7" style="enable-background:new 0 0 117.4 155.7;" xml:space="preserve">
<style type="text/css">
	.st0{opacity:0.8;}
	.st1{fill:#FFFFFF;}
	.st2{fill:#CBCBCB;}
</style>
<g class="st0">
	<g>
		<path class="st1" d="M70.2,71.7v56l18.6-23.9l28.6-4.1L70.2,71.7L70.2,71.7z M73.9,12.6C57-4.2,29.6-4.2,12.7,12.6
			s-16.9,44.1,0,61l30.6,42L63.4,88V59.7l14.9,8.5C90.5,51.3,89.1,27.8,73.9,12.6z M43.5,54.9c-10.2,0-18.6-8.2-18.6-18.3
			s8.3-18.3,18.6-18.3c10.2,0,18.5,8.2,18.5,18.3S53.7,54.9,43.5,54.9z"/>
	</g>
	<ellipse class="st2" cx="43.2" cy="143.2" rx="23.9" ry="12.5"/>
</g>
</svg>
