<?xml version="1.0" encoding="utf-8"?>
<!-- Generator: Adobe Illustrator 21.1.0, SVG Export Plug-In . SVG Version: 6.00 Build 0)  -->
<svg version="1.1" id="图层_1" xmlns="http://www.w3.org/2000/svg" xmlns:xlink="http://www.w3.org/1999/xlink" x="0px" y="0px"
	 viewBox="0 0 158.8 158.8" style="enable-background:new 0 0 158.8 158.8;" xml:space="preserve">
<style type="text/css">
	.st0{fill:#DDDDDD;}
</style>
<path class="st0" d="M0,143.9c0,3.1,0.9,6,2.7,8.5s4.2,4.3,7.3,5.5v0.9h138.8v-0.9c2.9-1.1,5.3-3,7.2-5.5c1.9-2.5,2.8-5.4,2.8-8.5
	c0-1.6-0.3-3.2-0.8-4.8c-0.6-1.6-1.3-3-2.2-4.2c-0.9-1.3-1.9-2.5-2.9-3.7c-1.1-1.2-2.1-2.2-3.2-3c-1.1-0.8-2-1.5-2.8-2.2
	c-0.8-0.6-1.5-1.1-2.2-1.3l-0.8-0.6L99.3,99.2V89c5.9-3.5,10.7-8.3,14.4-14.4s5.5-12.7,5.5-19.9V39.7c0-11-3.9-20.3-11.7-28
	C99.7,3.9,90.3,0,79.3,0c-11,0-20.3,3.9-28,11.6s-11.6,17.1-11.6,28v14.9c0,7.2,1.8,13.8,5.4,19.9c3.6,6.1,8.4,10.9,14.4,14.4v10.2
	l-44.6,24.9c-0.4,0.3-0.9,0.6-1.6,0.9c-0.7,0.4-1.9,1.3-3.6,2.6s-3.2,2.8-4.5,4.3c-1.3,1.5-2.5,3.3-3.6,5.5
	C0.5,139.6,0,141.8,0,143.9L0,143.9z"/>
</svg>
