<?xml version="1.0" standalone="no"?><!DOCTYPE svg PUBLIC "-//W3C//DTD SVG 1.1//EN" "http://www.w3.org/Graphics/SVG/1.1/DTD/svg11.dtd"><svg t="1485156793736" class="icon" style="" viewBox="0 0 1025 1024" version="1.1" xmlns="http://www.w3.org/2000/svg" p-id="2766" xmlns:xlink="http://www.w3.org/1999/xlink" width="16.015625" height="16"><defs><style type="text/css"></style></defs><path d="M512-0.001962C229.252414-0.001962 0.001962 229.24849 0.001962 512 0.001962 794.749548 229.252414 1024 512 1024 794.755433 1024 1024.003923 794.749548 1024.003923 512 1024.003923 229.24849 794.755433-0.001962 512-0.001962L512-0.001962ZM781.249226 690.748812C806.252874 715.748536 806.252874 756.249502 781.249226 781.249226 768.753287 793.749088 752.379096 800.000981 735.997057 800.000981 719.622866 800.000981 703.252598 793.749088 690.754697 781.249226L512 602.500414 333.253149 781.255111C320.753287 793.749088 304.379096 800.000981 288.002943 800.000981 271.628751 800.000981 255.252598 793.749088 242.752736 781.255111 217.753011 756.249502 217.753011 715.75246 242.752736 690.748812L421.499586 512 242.752736 333.251188C217.753011 308.251464 217.753011 267.750498 242.752736 242.750774 267.75246 217.75105 308.253425 217.75105 333.253149 242.750774L512 421.499586 690.754697 242.750774C715.746575 217.75105 756.249502 217.75105 781.249226 242.750774 806.252874 267.750498 806.252874 308.251464 781.249226 333.251188L602.500414 512 781.249226 690.748812 781.249226 690.748812Z" p-id="2767" fill="#8a8a8a"></path></svg>