<?xml version="1.0" standalone="no"?><!DOCTYPE svg PUBLIC "-//W3C//DTD SVG 1.1//EN" "http://www.w3.org/Graphics/SVG/1.1/DTD/svg11.dtd"><svg t="1499049636277" class="icon" style="" viewBox="0 0 1024 1024" version="1.1" xmlns="http://www.w3.org/2000/svg" p-id="1701" xmlns:xlink="http://www.w3.org/1999/xlink" width="200" height="200"><defs><style type="text/css"></style></defs><path d="M638.293333 960.853333c-22.186667 0-44.373333-10.24-59.733333-25.6-17.066667-18.773333-51.2-44.373333-69.973333-44.373333-20.48 0-54.613333 25.6-69.973334 44.373333-22.186667 23.893333-61.44 32.426667-90.453333 18.773334l-3.413333-1.706667-105.813334-61.44c-29.013333-20.48-40.96-61.44-25.6-93.866667 1.706667-6.826667 6.826667-20.48 6.826667-32.426666 0-47.786667-37.546667-87.04-85.333333-87.04h-5.12c-30.72 0-54.613333-23.893333-61.44-61.44 0-1.706667-8.533333-49.493333-8.533334-90.453334 0-39.253333 8.533333-87.04 8.533334-90.453333 6.826667-35.84 32.426667-59.733333 63.146666-59.733333h3.413334c47.786667 0 85.333333-39.253333 85.333333-87.04 0-11.946667-5.12-27.306667-6.826667-32.426667-13.653333-32.426667-3.413333-71.68 25.6-92.16l3.413334-1.706667 112.64-63.146666c32.426667-13.653333 68.266667-5.12 90.453333 18.773333 17.066667 17.066667 49.493333 42.666667 68.266667 42.666667s52.906667-23.893333 68.266666-40.96c22.186667-22.186667 59.733333-30.72 88.746667-18.773334l3.413333 1.706667 109.226667 61.44c29.013333 20.48 40.96 61.44 27.306667 93.866667-1.706667 5.12-6.826667 20.48-6.826667 32.426666 0 47.786667 37.546667 87.04 85.333333 87.04h3.413334c30.72 0 54.613333 23.893333 61.44 61.44 0 1.706667 8.533333 51.2 8.533333 90.453334s-8.533333 87.04-8.533333 90.453333c-6.826667 37.546667-32.426667 61.44-63.146667 61.44H887.466667c-47.786667 0-85.333333 39.253333-85.333334 87.04 0 11.946667 5.12 27.306667 6.826667 32.426667 13.653333 32.426667 3.413333 71.68-25.6 92.16l-3.413333 1.706666-110.933334 61.44c-8.533333 3.413333-18.773333 5.12-30.72 5.12z m-129.706666-121.173333c52.906667 0 105.813333 59.733333 109.226666 61.44 6.826667 8.533333 22.186667 11.946667 30.72 6.826667l105.813334-59.733334c10.24-6.826667 13.653333-20.48 8.533333-30.72-1.706667-3.413333-11.946667-29.013333-11.946667-52.906666 0-76.8 61.44-138.24 136.533334-138.24h3.413333c3.413333 0 10.24-6.826667 11.946667-18.773334 0 0 8.533333-46.08 8.533333-80.213333s-8.533333-80.213333-8.533333-80.213333c-1.706667-11.946667-8.533333-18.773333-11.946667-18.773334L887.466667 426.666667c-75.093333 0-136.533333-61.44-136.533334-138.24 0-27.306667 11.946667-54.613333 11.946667-54.613334 3.413333-8.533333 0-22.186667-8.533333-29.013333l-104.106667-59.733333c-11.946667-5.12-23.893333-1.706667-32.426667 6.826666-1.706667 1.706667-54.613333 56.32-105.813333 56.32s-104.106667-56.32-105.813333-58.026666c-6.826667-8.533333-22.186667-10.24-30.72-6.826667L267.946667 204.8c-10.24 6.826667-13.653333 20.48-8.533334 30.72 0 0 11.946667 27.306667 11.946667 52.906667 0 76.8-61.44 138.24-136.533333 138.24h-5.12c-5.12 0-10.24 6.826667-11.946667 18.773333 0 0-8.533333 46.08-8.533333 80.213333s8.533333 80.213333 8.533333 80.213334c3.413333 13.653333 8.533333 18.773333 11.946667 18.773333h5.12c75.093333 0 136.533333 61.44 136.533333 138.24 0 23.893333-10.24 47.786667-11.946667 52.906667-5.12 10.24-1.706667 23.893333 8.533334 30.72l102.4 58.026666c3.413333 1.706667 6.826667 1.706667 10.24 1.706667 8.533333 0 17.066667-3.413333 20.48-8.533333 0 1.706667 54.613333-58.026667 107.52-58.026667z" p-id="1702" fill="#666666"></path><path d="M508.586667 701.44c-95.573333 0-174.08-78.506667-174.08-175.786667 0-97.28 78.506667-175.786667 174.08-175.786666S682.666667 428.373333 682.666667 525.653333c0 97.28-78.506667 175.786667-174.08 175.786667z m0-300.373333c-66.56 0-122.88 56.32-122.88 124.586666s54.613333 124.586667 122.88 124.586667c66.56 0 122.88-56.32 122.88-124.586667s-54.613333-124.586667-122.88-124.586666z" p-id="1703" fill="#666666"></path></svg>