<?xml version="1.0" encoding="utf-8"?>
<!-- Generator: Adobe Illustrator 21.1.0, SVG Export Plug-In . SVG Version: 6.00 Build 0)  -->
<svg version="1.1" id="图层_1" xmlns="http://www.w3.org/2000/svg" xmlns:xlink="http://www.w3.org/1999/xlink" x="0px" y="0px"
	 viewBox="0 0 16 16" style="enable-background:new 0 0 16 16;" xml:space="preserve">
<style type="text/css">
	.st0{fill-rule:evenodd;clip-rule:evenodd;fill:#5D5E5E;}
	.st1{fill:#FFFFFF;}
</style>
<g>
	<path class="st0" d="M8,0c4.4,0,8,3.6,8,8s-3.6,8-8,8s-8-3.6-8-8S3.6,0,8,0z"/>
	<path class="st1" d="M12.8,7.3l-4.3,4.5C8.4,11.9,8.2,12,8,12s-0.4-0.1-0.5-0.2L3.2,7.3C3,7.1,2.9,6.8,3.1,6.5C3.2,6.2,3.4,6,3.7,6
		h8.6c0.3,0,0.6,0.2,0.7,0.5C13.1,6.8,13,7.1,12.8,7.3L12.8,7.3z M12.8,7.3"/>
</g>
</svg>
