<?xml version="1.0" encoding="utf-8"?>
<!-- Generator: Adobe Illustrator 21.1.0, SVG Export Plug-In . SVG Version: 6.00 Build 0)  -->
<svg version="1.1" id="图层_1" xmlns="http://www.w3.org/2000/svg" xmlns:xlink="http://www.w3.org/1999/xlink" x="0px" y="0px"
	 viewBox="0 0 187.5 150" style="enable-background:new 0 0 187.5 150;" xml:space="preserve">
<style type="text/css">
	.st0{fill:#5D5F63;}
</style>
<g>
	<path class="st0" d="M6.2,12.5h112.5c3.5,0,6.2-2.8,6.2-6.2S122.2,0,118.8,0H6.2C2.8,0,0,2.8,0,6.2S2.8,12.5,6.2,12.5z"/>
	<path class="st0" d="M56.2,112.5h-50c-3.5,0-6.2,2.8-6.2,6.2s2.8,6.2,6.2,6.2h50c3.5,0,6.2-2.8,6.2-6.2S59.7,112.5,56.2,112.5z"/>
	<path class="st0" d="M6.2,87.5h37.5c3.5,0,6.2-2.8,6.2-6.2S47.2,75,43.8,75H6.2C2.8,75,0,77.8,0,81.2S2.8,87.5,6.2,87.5z"/>
	<path class="st0" d="M185.7,139.7L185.7,139.7l-21.5-21.5c6.7-8.5,10.8-19.1,10.8-30.7c0-27.6-22.4-50-50-50s-50,22.4-50,50
		c0,27.6,22.4,50,50,50c11.7,0,22.2-4.1,30.7-10.8l21.5,21.5c2.4,2.3,6.1,2.3,8.5,0C188,145.9,188,142.1,185.7,139.7z M151.8,113.7
		L151.8,113.7c-0.1,0.1-0.3,0.1-0.4,0.2c-0.1,0.1-0.1,0.3-0.2,0.4c-6.8,6.6-16,10.7-26.2,10.7c-20.7,0-37.5-16.8-37.5-37.5
		C87.5,66.8,104.3,50,125,50c20.7,0,37.5,16.8,37.5,37.5C162.5,97.7,158.4,106.9,151.8,113.7z"/>
	<path class="st0" d="M56.2,37.5h-50c-3.5,0-6.2,2.8-6.2,6.2S2.8,50,6.2,50h50c3.5,0,6.2-2.8,6.2-6.2S59.7,37.5,56.2,37.5z"/>
</g>
</svg>
