<?xml version="1.0" encoding="utf-8"?>
<!-- Generator: Adobe Illustrator 16.0.0, SVG Export Plug-In . SVG Version: 6.00 Build 0)  -->
<!DOCTYPE svg PUBLIC "-//W3C//DTD SVG 1.1//EN" "http://www.w3.org/Graphics/SVG/1.1/DTD/svg11.dtd">
<svg version="1.1" id="图层_1" xmlns="http://www.w3.org/2000/svg" xmlns:xlink="http://www.w3.org/1999/xlink" x="0px" y="0px"
	 width="11px" height="11px" viewBox="0 0 11 11" enable-background="new 0 0 11 11" xml:space="preserve">
<g>
	<path fill="#FFFFFF" d="M0.471,10.998c0.043,0,0.086-0.006,0.129-0.019l3.472-0.984c0.106-0.03,0.188-0.106,0.248-0.194
		l6.543-6.543c0.184-0.185,0.184-0.483,0-0.668L8.407,0.135c-0.178-0.177-0.49-0.177-0.666,0L1.198,6.678
		c-0.09,0.062-0.166,0.143-0.195,0.25l-0.985,3.471c-0.046,0.165,0,0.341,0.121,0.462C0.228,10.949,0.348,10.998,0.471,10.998
		 M1.155,9.842l0.534-1.886L3.04,9.307L1.155,9.842z M8.073,1.135l1.789,1.789L3.968,8.817L2.18,7.029L8.073,1.135z"/>
</g>
</svg>
