<?xml version="1.0" encoding="utf-8"?>
<!-- Generator: Adobe Illustrator 16.0.0, SVG Export Plug-In . SVG Version: 6.00 Build 0)  -->
<!DOCTYPE svg PUBLIC "-//W3C//DTD SVG 1.1//EN" "http://www.w3.org/Graphics/SVG/1.1/DTD/svg11.dtd">
<svg version="1.1" id="图层_1" xmlns="http://www.w3.org/2000/svg" xmlns:xlink="http://www.w3.org/1999/xlink" x="0px" y="0px"
	 width="14px" height="14px" viewBox="0 0 14 14" enable-background="new 0 0 14 14" xml:space="preserve">
<path fill="#6CCFF7" d="M5.012,8.357H3.009V6.355h2.003V8.357L5.012,8.357z M8.035,6.355H6.033v2.002h2.002V6.355z M11.059,6.355h-2
	v2.002h2V6.355z M5.012,9.278H3.009v2.002h2.003V9.278L5.012,9.278z M8.035,9.278H6.033v2.002h2.002V9.278z M11.059,9.278h-2v2.002
	h2V9.278z M11.805,2.314c0,0.342-0.275,0.617-0.617,0.617S10.57,2.656,10.57,2.314V0.76c0-0.34,0.275-0.616,0.617-0.616
	s0.617,0.276,0.617,0.616V2.314z M3.462,0.758c0-0.342-0.276-0.617-0.618-0.617c-0.341,0-0.617,0.275-0.617,0.617v1.555
	c0,0.341,0.276,0.617,0.617,0.617c0.342,0,0.618-0.276,0.618-0.617V0.758z M12.551,1.66v0.633c0,0.752-0.611,1.363-1.363,1.363
	S9.824,3.045,9.824,2.293V1.66H4.209v0.629c0,0.752-0.611,1.364-1.363,1.364c-0.753,0-1.365-0.612-1.365-1.364V1.66H0v12.199h14
	V1.66H12.551L12.551,1.66z M12.641,12.5H1.359V4.938h11.281V12.5L12.641,12.5z"/>
</svg>
