<?xml version="1.0" encoding="utf-8"?>
<!-- Generator: Adobe Illustrator 16.0.0, SVG Export Plug-In . SVG Version: 6.00 Build 0)  -->
<!DOCTYPE svg PUBLIC "-//W3C//DTD SVG 1.1//EN" "http://www.w3.org/Graphics/SVG/1.1/DTD/svg11.dtd">
<svg version="1.1" id="图层_1" xmlns="http://www.w3.org/2000/svg" xmlns:xlink="http://www.w3.org/1999/xlink" x="0px" y="0px"
	 width="148.73px" height="149.908px" viewBox="0 0 148.73 149.908" enable-background="new 0 0 148.73 149.908"
	 xml:space="preserve">
<g>
	<path fill="#FFFFFF" d="M87.445,126.926l7.659-7.66l15.32,15.321l-7.66,7.66L87.445,126.926z"/>
	<path fill="#FFFFFF" d="M148.729,111.605l-38.301,38.303l-7.66-7.66l38.302-38.303L148.729,111.605z"/>
	<path fill="#FFFFFF" d="M74.954,0C50.805,0,31.231,19.575,31.231,43.723s19.574,43.725,43.723,43.725
		c24.146,0,43.723-19.576,43.723-43.725C118.677,19.575,99.1,0,74.954,0z M74.954,74.953c-17.249,0-31.231-13.982-31.231-31.231
		c0-17.248,13.982-31.229,31.231-31.229s31.23,13.982,31.23,31.229C106.184,60.971,92.202,74.953,74.954,74.953z"/>
	<path fill="#FFFFFF" d="M74.954,87.445c14.611,0,28.049,5.019,38.688,13.424l8.886-8.885
		c-12.942-10.642-29.512-17.031-47.574-17.031C33.557,74.953,0,108.511,0,149.906h12.492
		C12.492,115.411,40.457,87.445,74.954,87.445z"/>
</g>
</svg>
