<?xml version="1.0" encoding="utf-8"?>
<!-- Generator: Adobe Illustrator 21.1.0, SVG Export Plug-In . SVG Version: 6.00 Build 0)  -->
<svg version="1.1" id="图层_1" xmlns="http://www.w3.org/2000/svg" xmlns:xlink="http://www.w3.org/1999/xlink" x="0px" y="0px"
	 viewBox="0 0 174.9 125.4" style="enable-background:new 0 0 174.9 125.4;" xml:space="preserve">
<style type="text/css">
	.st0{fill:#9ECE69;}
</style>
<g>
	<path class="st0" d="M46.5,22.2H36.1v81h10.4v20.1H0v-20.1h10.3l0-81H0V2h46.5V22.2z"/>
	<path class="st0" d="M56.5,64.3c0-19,5.5-34.5,16.6-46.4C84.3,6,98.9,0,117.1,0c17.3,0,31.3,5.8,41.9,17.3
		c10.6,11.5,15.9,26.4,15.9,44.5c0,18.9-5.5,34.2-16.5,46c-11,11.8-25.4,17.7-43.2,17.7c-17.4,0-31.5-5.7-42.4-17.1
		C62,96.9,56.5,82.2,56.5,64.3z M83.7,62.9c0,11.8,2.8,21.4,8.5,28.9c5.7,7.5,13.5,11.2,23.4,11.2c10.1,0,18-3.6,23.6-10.8
		c5.6-7.2,8.5-16.8,8.5-28.9c0-12.6-2.7-22.6-8.2-30c-5.5-7.3-13.2-11-23.2-11c-10.1,0-18.1,3.8-23.9,11.3
		C86.6,41.2,83.7,50.9,83.7,62.9z"/>
</g>
</svg>
