<?xml version="1.0" encoding="utf-8"?>
<!-- Generator: Adobe Illustrator 16.0.0, SVG Export Plug-In . SVG Version: 6.00 Build 0)  -->
<!DOCTYPE svg PUBLIC "-//W3C//DTD SVG 1.1//EN" "http://www.w3.org/Graphics/SVG/1.1/DTD/svg11.dtd">
<svg version="1.1" id="图层_1" xmlns="http://www.w3.org/2000/svg" xmlns:xlink="http://www.w3.org/1999/xlink" x="0px" y="0px"
	 width="116.986px" height="93.988px" viewBox="0 0 116.986 93.988" enable-background="new 0 0 116.986 93.988"
	 xml:space="preserve">
<g>
	<g>
		<g>
			<path fill="#6CCFF7" d="M112.985,2c1.103,0,2,0.897,2,2v21.875c0,1.103-0.897,2-2,2H4c-1.103,0-2-0.897-2-2V4
				c0-1.103,0.897-2,2-2H112.985 M112.985,0H4C1.791,0,0,1.791,0,4v21.875c0,2.209,1.791,4,4,4h108.985c2.209,0,4-1.791,4-4V4
				C116.985,1.791,115.194,0,112.985,0L112.985,0z"/>
		</g>
	</g>
	
		<line fill="none" stroke="#6CCFF7" stroke-width="2" stroke-linecap="round" stroke-linejoin="round" stroke-miterlimit="10" x1="13" y1="19.945" x2="29.625" y2="19.945"/>
	
		<line fill="none" stroke="#6CCFF7" stroke-width="2" stroke-linecap="round" stroke-linejoin="round" stroke-miterlimit="10" x1="45.338" y1="19.95" x2="61.963" y2="19.95"/>
	
		<line fill="none" stroke="#6CCFF7" stroke-width="2" stroke-linecap="round" stroke-linejoin="round" stroke-miterlimit="10" x1="27.889" y1="7.522" x2="45.319" y2="19.943"/>
	
		<text transform="matrix(1 0 0 1 75.1396 19.5146)" fill="#6CCFF7" font-family="'MicrosoftYaHei'" font-size="14.0219" letter-spacing="1">断开</text>
	<path fill="none" stroke="#6CCFF7" stroke-width="1.7" stroke-linecap="round" stroke-linejoin="round" stroke-miterlimit="10" d="
		M23.873,19.717c0-1.661,1.347-3.008,3.008-3.008c1.662,0,3.009,1.347,3.009,3.008"/>
	<g>
		<g>
			<path fill="#CC4D4D" d="M112.985,34.057c1.103,0,2,0.897,2,2v21.875c0,1.103-0.897,2-2,2H4c-1.103,0-2-0.897-2-2V36.057
				c0-1.103,0.897-2,2-2H112.985 M112.985,32.057H4c-2.209,0-4,1.791-4,4v21.875c0,2.209,1.791,4,4,4h108.985c2.209,0,4-1.791,4-4
				V36.057C116.985,33.848,115.194,32.057,112.985,32.057L112.985,32.057z"/>
		</g>
	</g>
	
		<line fill="none" stroke="#CC4D4D" stroke-width="2" stroke-linecap="round" stroke-linejoin="round" stroke-miterlimit="10" x1="13" y1="52.002" x2="29.625" y2="52.002"/>
	
		<line fill="none" stroke="#CC4D4D" stroke-width="2" stroke-linecap="round" stroke-linejoin="round" stroke-miterlimit="10" x1="45.338" y1="52.007" x2="61.963" y2="52.007"/>
	
		<line fill="none" stroke="#CC4D4D" stroke-width="2" stroke-linecap="round" stroke-linejoin="round" stroke-miterlimit="10" x1="26.122" y1="46.585" x2="45.086" y2="51.997"/>
	
		<text transform="matrix(1 0 0 1 75.1396 51.5713)" fill="#CC4D4D" font-family="'MicrosoftYaHei'" font-size="14.0219" letter-spacing="1">闭合</text>
	<path fill="none" stroke="#CC4D4D" stroke-width="1.7" stroke-linecap="round" stroke-linejoin="round" stroke-miterlimit="10" d="
		M23.873,51.773c0-1.661,1.347-3.008,3.008-3.008c1.662,0,3.009,1.347,3.009,3.008"/>
</g>
</svg>
