<?xml version="1.0" encoding="utf-8"?>
<!-- Generator: Adobe Illustrator 16.0.0, SVG Export Plug-In . SVG Version: 6.00 Build 0)  -->
<!DOCTYPE svg PUBLIC "-//W3C//DTD SVG 1.1//EN" "http://www.w3.org/Graphics/SVG/1.1/DTD/svg11.dtd">
<svg version="1.1" id="图层_1" xmlns="http://www.w3.org/2000/svg" xmlns:xlink="http://www.w3.org/1999/xlink" x="0px" y="0px"
	 width="13px" height="13px" viewBox="0 0 13 13" enable-background="new 0 0 13 13" xml:space="preserve">
<g>
	<path fill="#FFFFFF" d="M13,6.5C13,2.916,10.084,0,6.5,0S0,2.916,0,6.5S2.916,13,6.5,13S13,10.084,13,6.5 M6.5,12
		C3.467,12,1,9.533,1,6.5C1,3.468,3.467,1,6.5,1C9.531,1,12,3.468,12,6.5C12,9.533,9.531,12,6.5,12"/>
	<path fill="#FFFFFF" d="M9.188,6.063L6.968,8.283V3.836c0-0.276-0.224-0.5-0.5-0.5s-0.5,0.224-0.5,0.5v4.58L3.746,6.195
		C3.552,6,3.236,6,3.039,6.195c-0.194,0.196-0.194,0.512,0,0.709L6.048,9.91c0.098,0.099,0.225,0.146,0.353,0.146
		c0.129,0,0.256-0.049,0.354-0.146l3.142-3.14c0.195-0.194,0.195-0.512,0-0.708C9.701,5.867,9.384,5.867,9.188,6.063"/>
</g>
</svg>
