<?xml version="1.0" encoding="utf-8"?>
<!-- Generator: Adobe Illustrator 21.1.0, SVG Export Plug-In . SVG Version: 6.00 Build 0)  -->
<svg version="1.1" id="图层_1" xmlns="http://www.w3.org/2000/svg" xmlns:xlink="http://www.w3.org/1999/xlink" x="0px" y="0px"
	 viewBox="0 0 162.3 190" style="enable-background:new 0 0 162.3 190;" xml:space="preserve">
<style type="text/css">
	.st0{fill:#AEAEAE;}
</style>
<g>
	<path class="st0" d="M81.1,0c22.9,0.5,42,8.1,57.3,22.8c15.3,14.7,23.2,33.1,23.9,55.3c0,6.3-0.8,12.5-2.4,18.6
		c-1.6,6.1-3.9,12-6.9,17.5c-8.9,14.1-22.5,30.3-41,48.4l-26.7,25.8c-2.3,2.2-6,2.2-8.3,0l-26.8-25.8C31.7,144.5,18,128.3,9.1,114
		c-5.9-11-9-23.4-9.1-35.9C0.6,56,8.6,37.5,23.9,22.8C39.1,8.1,58.2,0.5,81.1,0L81.1,0z M32.2,31.5C19.2,44,12.6,59.4,12,78
		c0.1,10.5,2.7,20.8,7.5,30c8.3,13.3,21.3,28.6,38.9,45.9l22.6,21.8l22.5-21.7c17.7-17.4,30.7-32.7,39-45.9
		c2.5-4.5,4.4-9.4,5.7-14.4c1.3-5.2,2-10.3,2-15.2c-0.5-19.1-7.2-34.5-20.2-47c-13-12.5-29.1-19-49-19.5
		C61.3,12.5,45.2,19,32.2,31.5L32.2,31.5z M45.1,78.1c0.3-10.2,3.8-18.6,10.5-25.5c6.8-6.8,15.3-10.4,25.5-10.6
		c10.2,0.3,18.8,3.8,25.5,10.6c6.8,6.8,10.3,15.3,10.5,25.5c-0.3,10.2-3.8,18.6-10.5,25.5c-6.8,6.8-15.3,10.4-25.5,10.6
		c-10.2-0.3-18.8-3.8-25.5-10.6C48.8,96.8,45.3,88.3,45.1,78.1z M64.1,95.1c4.5,4.5,9.9,6.8,17,7.1c7.1-0.2,12.5-2.5,17-7.1
		c4.6-4.6,6.9-10.2,7-16.7c-0.2-7.1-2.5-12.7-7-17.3c-4.5-4.5-9.9-6.8-17-7.1c-7.1,0.2-12.5,2.5-17,7.1c-4.5,4.5-6.8,10-7,17
		C57.3,85.1,59.6,90.6,64.1,95.1L64.1,95.1z"/>
</g>
</svg>
