<?xml version="1.0" encoding="utf-8"?>
<!-- Generator: Adobe Illustrator 21.1.0, SVG Export Plug-In . SVG Version: 6.00 Build 0)  -->
<svg version="1.1" id="图层_1" xmlns="http://www.w3.org/2000/svg" xmlns:xlink="http://www.w3.org/1999/xlink" x="0px" y="0px"
	 viewBox="0 0 125 125" style="enable-background:new 0 0 125 125;" xml:space="preserve">
<style type="text/css">
	.st0{fill:#FFFFFF;}
</style>
<path class="st0" d="M106.7,18.3L106.7,18.3c-1.4-1.4-2.9-2.8-4.4-4c0,0,0,0,0,0c-0.7-0.6-1.4-1.1-2.1-1.6c-0.1-0.1-0.2-0.2-0.3-0.2
	c-0.7-0.5-1.3-1-2-1.4c-0.2-0.1-0.3-0.2-0.5-0.3c-0.6-0.4-1.3-0.8-1.9-1.2C95.2,9.2,95,9.1,94.7,9c-0.6-0.4-1.2-0.7-1.8-1
	c-0.3-0.2-0.6-0.3-0.9-0.5c-0.5-0.3-1.1-0.6-1.6-0.8C90,6.4,89.6,6.2,89.2,6c-0.5-0.2-0.9-0.4-1.4-0.6c-0.5-0.2-1-0.4-1.5-0.7
	c-0.4-0.2-0.7-0.3-1.1-0.4c-0.6-0.2-1.2-0.5-1.8-0.7c-0.3-0.1-0.5-0.2-0.8-0.3c-0.7-0.2-1.4-0.5-2.2-0.7c-0.2-0.1-0.3-0.1-0.5-0.1
	c-0.8-0.2-1.6-0.5-2.5-0.7c-0.1,0-0.2,0-0.2-0.1C72.5,0.6,67.6,0,62.5,0C28,0,0,28,0,62.5c0,9.4,2.1,18.3,5.8,26.3c0,0,0,0,0,0
	c0.4,0.9,0.8,1.7,1.3,2.6c0,0.1,0.1,0.2,0.1,0.3c0.4,0.8,0.9,1.6,1.3,2.3c0.1,0.1,0.1,0.3,0.2,0.4c0.4,0.7,0.9,1.5,1.4,2.2
	c0.1,0.1,0.2,0.3,0.3,0.4c0.5,0.7,1,1.5,1.5,2.2c0.1,0.1,0.1,0.2,0.2,0.3c0.6,0.8,1.2,1.6,1.9,2.4c0,0,0,0,0,0
	c2.7,3.3,5.7,6.3,8.9,8.9c0.3,0.2,0.5,0.4,0.8,0.6c0.5,0.4,1.1,0.8,1.6,1.2c0.4,0.3,0.8,0.6,1.2,0.9c0.4,0.3,0.8,0.6,1.2,0.9
	c0.5,0.3,1,0.6,1.5,0.9c0.4,0.2,0.7,0.5,1.1,0.7c0.5,0.3,1.1,0.6,1.6,0.9c0.3,0.2,0.7,0.4,1,0.6c0.5,0.3,1.1,0.6,1.6,0.8
	c0.4,0.2,0.7,0.4,1.1,0.5c0.5,0.3,1.1,0.5,1.6,0.7c0.4,0.2,0.8,0.3,1.2,0.5c0.5,0.2,1.1,0.4,1.6,0.6c0.4,0.2,0.8,0.3,1.3,0.5
	c0.5,0.2,1.1,0.4,1.6,0.5c0.4,0.1,0.9,0.3,1.3,0.4c0.5,0.2,1.1,0.3,1.6,0.5c0.4,0.1,0.9,0.2,1.3,0.4c0.6,0.1,1.2,0.3,1.7,0.4
	c0.4,0.1,0.8,0.2,1.2,0.3c0.7,0.1,1.4,0.3,2.1,0.4c0.3,0,0.6,0.1,0.9,0.2c0.9,0.1,1.8,0.3,2.7,0.3c0.1,0,0.2,0,0.2,0
	c18,1.8,36.7-4.1,50.6-18c4.9-4.9,4.9-12.8,0-17.7L58.1,40.4c-0.1-0.1-0.1-0.1-0.2-0.2c-2.5-2.4-6.4-2.3-8.8,0.2
	c-2.4,2.5-2.3,6.4,0.2,8.8l48.6,48.6l0,0c0,0,0,0,0,0c-9.8,9.8-22.6,14.6-35.4,14.6v0c-2.6,0-5.1-0.2-7.6-0.6c0,0,0,0,0,0
	c-0.8-0.1-1.6-0.3-2.4-0.4c-0.1,0-0.2,0-0.3-0.1c-0.7-0.1-1.4-0.3-2.1-0.5c-0.1,0-0.2-0.1-0.4-0.1c-0.7-0.2-1.4-0.4-2-0.6
	c-0.1,0-0.2-0.1-0.3-0.1c-0.7-0.2-1.4-0.4-2-0.7c-0.1,0-0.2-0.1-0.2-0.1c-0.7-0.3-1.4-0.5-2.1-0.8c0,0-0.1,0-0.1,0
	c-8.9-3.8-16.5-10.1-21.9-18c0,0,0-0.1-0.1-0.1c-0.4-0.6-0.8-1.2-1.2-1.9c0-0.1-0.1-0.1-0.1-0.2c-0.4-0.6-0.7-1.2-1-1.8
	c-0.1-0.1-0.1-0.2-0.2-0.4c-0.3-0.5-0.6-1.1-0.9-1.7c-0.1-0.2-0.2-0.4-0.3-0.6c-0.2-0.5-0.5-1-0.7-1.5c-0.1-0.3-0.2-0.5-0.3-0.8
	c-0.2-0.4-0.4-0.9-0.5-1.3c-0.1-0.3-0.3-0.7-0.4-1c-0.1-0.4-0.3-0.8-0.4-1.2c-0.1-0.4-0.3-0.8-0.4-1.2c-0.1-0.3-0.2-0.7-0.3-1
	c-0.1-0.5-0.3-0.9-0.4-1.4c-0.1-0.3-0.1-0.6-0.2-0.9c-0.1-0.5-0.2-1-0.3-1.5c-0.1-0.3-0.1-0.6-0.2-0.9c-0.1-0.5-0.2-1-0.3-1.5
	c0-0.3-0.1-0.6-0.1-0.9c-0.1-0.5-0.1-1-0.2-1.5c0-0.3-0.1-0.7-0.1-1.1c0-0.5-0.1-0.9-0.1-1.4c0-0.5,0-0.9,0-1.4c0-0.9,0-1.7,0-2.6
	c0-0.3,0-0.6,0-0.9c0-0.6,0.1-1.3,0.1-1.9c0-0.2,0-0.4,0-0.5c0.1-0.7,0.1-1.3,0.2-2c0-0.1,0-0.2,0-0.4c0.1-0.7,0.2-1.4,0.4-2.1
	c0-0.1,0-0.2,0.1-0.3c0.1-0.7,0.3-1.4,0.5-2.1c0-0.1,0-0.2,0.1-0.3c0.2-0.7,0.4-1.4,0.5-2c0-0.1,0.1-0.2,0.1-0.3
	c0.2-0.6,0.4-1.3,0.6-1.9c0-0.1,0.1-0.3,0.1-0.4c0.2-0.6,0.4-1.2,0.7-1.8c0.1-0.2,0.1-0.3,0.2-0.5c0.2-0.6,0.5-1.1,0.7-1.7
	c0.1-0.2,0.2-0.4,0.3-0.6c0.2-0.5,0.5-1,0.8-1.5c0.1-0.2,0.2-0.4,0.3-0.7c0.3-0.5,0.5-1,0.8-1.5c0.1-0.2,0.2-0.4,0.4-0.7
	c0.3-0.5,0.6-1,0.9-1.5c0.1-0.2,0.2-0.4,0.4-0.6c0.4-0.5,0.7-1.1,1.1-1.6c0.1-0.1,0.2-0.2,0.3-0.4c1.5-2,3.1-3.9,4.9-5.7
	c1.8-1.8,3.8-3.5,5.8-5c0,0,0.1-0.1,0.1-0.1c0.6-0.5,1.3-0.9,1.9-1.3c0.1-0.1,0.2-0.1,0.3-0.2c0.6-0.4,1.2-0.8,1.8-1.1
	c0.1-0.1,0.2-0.1,0.3-0.2c0.6-0.4,1.2-0.7,1.8-1c0.1,0,0.2-0.1,0.3-0.1c0.7-0.3,1.3-0.7,2-1c0,0,0.1,0,0.1-0.1
	c12.5-5.8,27-6.1,39.7-0.9c0,0,0.1,0,0.1,0c0.7,0.3,1.4,0.6,2,0.9c0.1,0,0.2,0.1,0.3,0.1c0.6,0.3,1.2,0.6,1.8,0.9
	c0.1,0.1,0.3,0.1,0.4,0.2c0.6,0.3,1.1,0.6,1.7,0.9c0.2,0.1,0.3,0.2,0.5,0.3c0.6,0.3,1.1,0.7,1.6,1c0.1,0.1,0.3,0.2,0.4,0.3
	c0.6,0.4,1.1,0.8,1.7,1.2c0.1,0.1,0.2,0.2,0.3,0.2c0.7,0.5,1.3,1,1.9,1.5c0,0,0,0,0,0c1.3,1.1,2.6,2.2,3.8,3.4l0,0
	c9,9,14.6,21.5,14.6,35.3v6.2c0,3.5,2.8,6.2,6.2,6.2s6.2-2.8,6.2-6.2v-6.2C125,45.2,118,29.6,106.7,18.3z"/>
</svg>
