<?xml version="1.0" standalone="no"?><!DOCTYPE svg PUBLIC "-//W3C//DTD SVG 1.1//EN" "http://www.w3.org/Graphics/SVG/1.1/DTD/svg11.dtd"><svg t="1490946104106" class="icon" style="" viewBox="0 0 1024 1024" version="1.1" xmlns="http://www.w3.org/2000/svg" p-id="3474" xmlns:xlink="http://www.w3.org/1999/xlink" width="200" height="200"><defs><style type="text/css"></style></defs><path d="M674.803411 471.287763 552.696376 471.287763 552.696376 349.181751c0-22.487154-18.228153-40.681538-40.714284-40.681538-22.48613 0-40.712237 18.194384-40.712237 40.681538l0 122.106012L349.163843 471.287763c-22.452361 0-40.648792 18.194384-40.648792 40.712237 0 22.452361 18.195408 40.672328 40.648792 40.672328l122.106012 0 0 122.114199c0 22.445198 18.22713 40.712237 40.712237 40.712237 22.487154 0 40.714284-18.268062 40.714284-40.712237L552.696376 552.672328l122.106012 0c22.452361 0 40.679491-18.219967 40.679491-40.672328C715.481879 489.482147 697.255773 471.287763 674.803411 471.287763z" p-id="3475" fill="#6dcff6"></path><path d="M939.338297 796.908912c-11.226692 0-20.35663 9.089006-20.35663 20.323884l0 101.782128-101.750405 0c-11.258415 0-20.322861 9.06547-20.322861 20.323884 0 11.259438 9.064446 20.357654 20.322861 20.357654l122.106012 0c11.227716 0 20.357654-9.098215 20.357654-20.357654L959.694927 817.232796C959.69595 805.997917 950.566012 796.908912 939.338297 796.908912z" p-id="3476" fill="#6dcff6"></path><path d="M939.338297 552.688701c-11.226692 0-20.35663 9.104355-20.35663 20.363793l0 122.097826c0 11.234879 9.129938 20.363793 20.35663 20.363793 11.227716 0 20.357654-9.129938 20.357654-20.363793L959.69595 573.052494C959.69595 561.793056 950.566012 552.688701 939.338297 552.688701z" p-id="3477" fill="#6dcff6"></path><path d="M939.338297 308.515562c-11.226692 0-20.35663 9.098215-20.35663 20.35663l0 122.073266c0 11.260461 9.129938 20.358677 20.35663 20.358677 11.227716 0 20.357654-9.098215 20.357654-20.358677L959.69595 328.872193C959.69595 317.613778 950.566012 308.515562 939.338297 308.515562z" p-id="3478" fill="#6dcff6"></path><path d="M939.338297 64.303538 817.232285 64.303538c-11.258415 0-20.322861 9.097192-20.322861 20.35663 0 11.226692 9.064446 20.35663 20.322861 20.35663l101.750405 0 0 101.717659c0 11.258415 9.129938 20.35663 20.35663 20.35663 11.227716 0 20.357654-9.098215 20.357654-20.35663L959.696973 84.659145C959.69595 73.40073 950.566012 64.303538 939.338297 64.303538z" p-id="3479" fill="#6dcff6"></path><path d="M695.126272 919.014924 573.053006 919.014924c-11.259438 0-20.35663 9.06547-20.35663 20.323884 0 11.259438 9.097192 20.357654 20.35663 20.357654l122.073266 0c11.226692 0 20.35663-9.098215 20.35663-20.357654C715.481879 928.081417 706.352965 919.014924 695.126272 919.014924z" p-id="3480" fill="#6dcff6"></path><path d="M695.126272 64.303538 573.053006 64.303538c-11.259438 0-20.35663 9.097192-20.35663 20.35663 0 11.226692 9.097192 20.35663 20.35663 20.35663l122.073266 0c11.226692 0 20.35663-9.129938 20.35663-20.35663C715.481879 73.40073 706.352965 64.303538 695.126272 64.303538z" p-id="3481" fill="#6dcff6"></path><path d="M328.839959 105.015775l122.107035 0c11.226692 0 20.35663-9.129938 20.35663-20.35663 0-11.258415-9.129938-20.35663-20.35663-20.35663L328.839959 64.302515c-11.226692 0-20.35663 9.097192-20.35663 20.35663C308.483328 95.885837 317.613266 105.015775 328.839959 105.015775z" p-id="3482" fill="#6dcff6"></path><path d="M206.765669 919.014924l-101.782128 0 0-101.782128c0-11.234879-9.098215-20.323884-20.35663-20.323884-11.226692 0-20.323884 9.089006-20.323884 20.323884l0 122.106012c0 11.259438 9.098215 20.357654 20.323884 20.357654l122.137735 0c11.226692 0 20.323884-9.098215 20.323884-20.357654C227.089553 928.081417 217.991338 919.014924 206.765669 919.014924z" p-id="3483" fill="#6dcff6"></path><path d="M206.765669 64.303538 84.626911 64.303538c-11.226692 0-20.323884 9.097192-20.323884 20.35663l0 122.07429c0 11.258415 9.098215 20.35663 20.323884 20.35663 11.258415 0 20.35663-9.098215 20.35663-20.35663L104.983541 105.015775l101.782128 0c11.226692 0 20.323884-9.129938 20.323884-20.35663C227.089553 73.40073 217.991338 64.303538 206.765669 64.303538z" p-id="3484" fill="#6dcff6"></path><path d="M84.626911 471.304136c11.258415 0 20.35663-9.098215 20.35663-20.358677L104.983541 328.872193c0-11.258415-9.098215-20.35663-20.35663-20.35663-11.226692 0-20.323884 9.098215-20.323884 20.35663l0 122.073266C64.303027 462.20592 73.400219 471.304136 84.626911 471.304136z" p-id="3485" fill="#6dcff6"></path><path d="M84.626911 715.515137c11.258415 0 20.35663-9.129938 20.35663-20.363793L104.983541 573.052494c0-11.259438-9.098215-20.363793-20.35663-20.363793-11.226692 0-20.323884 9.104355-20.323884 20.363793l0 122.097826C64.303027 706.385199 73.400219 715.515137 84.626911 715.515137z" p-id="3486" fill="#6dcff6"></path><path d="M450.946994 919.014924 328.839959 919.014924c-11.226692 0-20.35663 9.06547-20.35663 20.323884 0 11.259438 9.129938 20.357654 20.35663 20.357654l122.107035 0c11.226692 0 20.35663-9.098215 20.35663-20.357654C471.302601 928.081417 462.172663 919.014924 450.946994 919.014924z" p-id="3487" fill="#6dcff6"></path></svg>