<?xml version="1.0" standalone="no"?><!DOCTYPE svg PUBLIC "-//W3C//DTD SVG 1.1//EN" "http://www.w3.org/Graphics/SVG/1.1/DTD/svg11.dtd"><svg t="1506417144926" class="icon" style="" viewBox="0 0 1024 1024" version="1.1" xmlns="http://www.w3.org/2000/svg" p-id="8746" xmlns:xlink="http://www.w3.org/1999/xlink" width="200" height="200"><defs><style type="text/css"></style></defs><path d="M581.6 391.104c52.992 0 96-42.976 96-96s-43.008-96-96-96c-53.024 0-96 42.976-96 96s42.976 96 96 96z m0-128c17.696 0 32 14.336 32 32s-14.304 32-32 32c-17.664 0-32-14.336-32-32s14.336-32 32-32z" p-id="8747" fill="#b2b2b2"></path><path d="M960 222.656c0-17.664-14.304-32-32-32h-64c-17.664 0-32 14.336-32 32s14.336 32 32 32h32v240.096l-150.464-57.92 15.712-23.136c0.672-0.992 0.8-2.144 1.376-3.2h0.736C786.464 375.328 800 333.28 800 288c0-123.712-100.288-224-224-224S352 164.288 352 288c0 38.656 10.336 74.72 27.616 106.464L258.656 336v-81.344h32c17.664 0 32-14.336 32-32s-14.336-32-32-32h-32V160c0-53.024-42.976-96-96-96s-96 42.976-96 96v704c0 53.024 42.976 96 96 96s96-42.976 96-96v-32H928c17.696 0 32-14.304 32-32V224c0-0.224-0.128-0.448-0.128-0.672 0-0.224 0.128-0.416 0.128-0.672z m-64 340.736V768H433.056l106.88-147.616 11.328 15.52c3.104 4.224 7.072 7.296 11.328 9.632 0.544 0.416 0.768 0.992 1.312 1.376 14.592 9.92 34.976 5.536 45.408-9.952l99.2-145.728L896 563.392zM576 128c88.384 0 160 71.648 160 160 0 30.304-8.672 58.368-23.424 82.368h0.096l-4 7.104c-0.064 0.096-0.224 0.16-0.288 0.288l-128.48 188.832L448.576 386.72l-9.248-16.32h0.096C424.672 346.368 416 318.304 416 288c0-88.352 71.616-160 160-160z m-413.344 0c17.664 0 32 14.336 32 32v613.888c-10.016-3.584-20.704-5.888-32-5.888s-21.952 2.304-32 5.888V160c0-17.664 14.336-32 32-32z m0 768c-17.664 0-32-14.304-32-32s14.336-32 32-32 32 14.304 32 32-14.304 32-32 32z m96-488.896l194.08 93.824 47.552 65.152L354.016 768h-95.36V407.104z" p-id="8748" fill="#b2b2b2"></path></svg>