<?xml version="1.0" encoding="utf-8"?>
<!-- Generator: Adobe Illustrator 21.1.0, SVG Export Plug-In . SVG Version: 6.00 Build 0)  -->
<svg version="1.1" id="图层_1" xmlns="http://www.w3.org/2000/svg" xmlns:xlink="http://www.w3.org/1999/xlink" x="0px" y="0px"
	 viewBox="0 0 215.7 215.7" style="enable-background:new 0 0 215.7 215.7;" xml:space="preserve">
<style type="text/css">
	.st0{fill:#8ED980;}
	.st1{fill:#FFD34A;}
	.st2{fill:#FFFFFF;}
	.st3{fill:#008DDA;}
	.st4{fill:#80C073;}
	.st5{fill:#FFA934;}
	.st6{fill:#FFB0BD;}
	.st7{fill:#C5C3BD;}
	.st8{fill:#EAC243;}
	.st9{fill:#EE9B30;}
	.st10{fill:#0078D3;}
	.st11{fill:#EEEAE5;}
	.st12{fill:#E7322C;}
	.st13{fill:#DFDCD6;}
	.st14{fill:#FFC9D1;}
	.st15{font-family:'FZLTTHK--GBK1-0';}
	.st16{font-size:24.6992px;}
</style>
<g>
	<path class="st0" d="M215.7,48.6V167c0,3.2-0.3,6.4-0.9,9.5l-0.4,1.6c-0.1,0.5-0.2,1-0.4,1.6c-3.5,13-12.3,23.9-23.9,30.1
		c-0.5,0.3-1,0.5-1.5,0.8c-0.5,0.3-1,0.5-1.6,0.8c-6.1,2.7-12.8,4.3-19.9,4.3H48.7c-2.6,0-5.3-0.2-7.8-0.6c-0.5-0.1-1-0.2-1.5-0.3
		s-1-0.2-1.5-0.4C16.2,209.5,0,190.2,0,167.1V48.6c0-6.4,1.3-12.5,3.5-18.1c0.2-0.5,0.4-1,0.7-1.4c0.2-0.5,0.4-1,0.6-1.5
		c6.3-13.2,18.4-23.1,33-26.5c0.5-0.1,1-0.2,1.5-0.3c0.5-0.1,1-0.2,1.5-0.3C43.3,0.2,45.8,0,48.4,0h118.7
		C193.9,0,215.7,21.8,215.7,48.6z"/>
	<path class="st1" d="M214.4,178.1c-0.1,0.5-0.2,1-0.4,1.6c-3.5,13-12.3,23.9-23.9,30.1c-0.5,0.3-1,0.5-1.5,0.8l-21-14.9l-6.6-4.7
		l-2.5-1.8l-2.9-2l-19.9-14.1l-2.7-1.9c0,0-0.1,0-0.1-0.1l-2.2-1.6l-4.9-3.4L91,141.5l-7.6-5.4l-3-2.2l-10-7.1l-10.8-7.7l-3.9-2.8
		l-7.3-5.2l-7.5-5.3l-3-2.2l-2.5-1.8L0,77V48.6c0-6.4,1.3-12.5,3.5-18.1c0.2-0.5,0.4-1,0.7-1.4L37.8,53l3,2.2l7.5,5.3l24.4,17.3
		l7.6,5.4l3,2.2l73.2,51.9l4.3,3l1.4,1l1.5,1l13.5,9.6l4.2,3l12.6,8.9l1.4,1l1.4,0.9v0.1l3.1,2.2L214.4,178.1L214.4,178.1z"/>
	<path class="st2" d="M81.9,0v215.6H48.7c-2.6,0-5.3-0.2-7.8-0.6c-0.5-0.1-1-0.2-1.5-0.3V0.9c0.5-0.1,1-0.2,1.5-0.3
		C43.3,0.2,45.8,0,48.4,0C48.4,0,81.9,0,81.9,0z"/>
	<path class="st3" d="M48.4,0h24.4v119.2H48.4L48.4,0z"/>
	<path class="st2" d="M144,0h-38.2c0.7,61.2,49.2,111.2,109.9,114V75.7C176.1,72.9,144.6,40.1,144,0z"/>
	<path class="st4" d="M145.5,0h-3c0.6,41,32.7,74.5,73.2,77.2v-3C176.9,71.5,146.1,39.4,145.5,0z M145.5,0h-3
		c0.6,41,32.7,74.5,73.2,77.2v-3C176.9,71.5,146.1,39.4,145.5,0z M145.5,0h-3c0.6,41,32.7,74.5,73.2,77.2v-3
		C176.9,71.5,146.1,39.4,145.5,0z M107.3,0h-3c0.6,62,49.8,112.7,111.4,115.4v-2.9C155.8,109.6,107.9,60.4,107.3,0z"/>
	<path class="st5" d="M90.3,142.8l36.2,25.6l5.3,3.8l2.7,1.9l0.1,0.1l3.8,2.7l12.7,9h0.1l3.9,2.8c0,0,0,0.1,0.1,0.1l2.8,2l7.1,5.2
		h0.2l21.8,15.5c0.5-0.2,1.1-0.5,1.6-0.8c0.5-0.2,1-0.5,1.5-0.8l-20.4-14.4l-6-4.2l-2.1-1.6c-0.1,0-0.1,0-0.1-0.1l-2.4-1.6
		l-16.2-11.5l-1-0.7l-7.8-5.5l-2.2-1.6l-2-1.4l-4.5-3.2l-33.8-23.9C91.2,141,90.8,141.9,90.3,142.8L90.3,142.8z M36.4,100.9L0,75.2
		v3.7l34.3,24.3C35,102.4,35.7,101.6,36.4,100.9z M4.8,27.7c-0.2,0.5-0.4,1-0.6,1.5c-0.2,0.4-0.5,0.9-0.7,1.4l34.3,24.3v-3.7
		L4.8,27.7z M200.4,166.4l-3.3-2.3l-1.3-1l-1.4-1l-10.2-7.3l-2.2-1.5l-2.1-1.5l-10.6-7.5v-0.1l-4.9-3.4c-0.1-0.1-0.1-0.1-0.2-0.1
		l-1.6-1.1l-4.1-2.9l-75-53.2v3.7l71.3,50.5l4.5,3.2l1.5,1.1l1.5,1l12.5,8.9l2.1,1.5l2.2,1.5l14.9,10.6l1.3,0.9l1.3,0.9l3.1,2.2
		l14.4,10.2c0.2-0.5,0.3-1,0.4-1.6l0.4-1.6L200.4,166.4L200.4,166.4z"/>
	<path class="st6" d="M37.8,214.4c0.5,0.2,1,0.2,1.5,0.4c0.5,0.1,1,0.2,1.5,0.3v-61.4c-1.1-0.7-2.1-1.5-3-2.4L37.8,214.4L37.8,214.4
		z"/>
	<path class="st7" d="M40.8,53.2V0.6c-0.5,0.1-1,0.2-1.5,0.3c-0.5,0.1-1,0.2-1.5,0.3v49.9l1.5,1L40.8,53.2z"/>
	<path class="st8" d="M40.8,56.9l-1.5-1l-1.5-1.1v44.8c1-0.8,2-1.6,3-2.4L40.8,56.9L40.8,56.9z"/>
	<path class="st4" d="M83.4,0h-3v81.3l3,2.2V0z"/>
	<path class="st7" d="M80.4,215.6h3v-64.5c-1,0.8-2,1.7-3,2.4V215.6z"/>
	<path class="st8" d="M80.4,85v12.3c1.1,0.8,2.1,1.5,3,2.4V87.1l-1.5-1C81.9,86.1,80.4,85,80.4,85z"/>
	<path class="st9" d="M80.4,81.3V85l1.5,1.1l1.5,1v-3.7L80.4,81.3z M40.8,56.9v-3.7l-1.5-1.1l-1.5-1v3.7l1.5,1.1L40.8,56.9z"/>
	<path class="st10" d="M91.7,140.1c2.1-4.5,3.3-9.4,3.3-14.7c0-10.2-4.5-19.4-11.6-25.7v34.5L91.7,140.1z M34.3,103.2
		c-5.1,6-8.2,13.8-8.2,22.3c0,10.3,4.6,19.5,11.7,25.8v-45.6L34.3,103.2z M40.8,97.2v6.9l7.5,5.3l7.8,5.5l5.9,4.2l7.5,5.3h0.1
		l10.8,7.7V97.3C74.8,93.4,68,91,60.6,91C53.2,91,46.4,93.3,40.8,97.2z M71.2,129.3l-14.3-10.2l-1.8-1.3l-6.7-4.8l-7.5-5.3v45.8
		c5.6,3.9,12.4,6.3,19.8,6.3c7.4,0,14.3-2.4,19.9-6.3v-17.7L71.2,129.3L71.2,129.3z M37.8,99.6c-0.5,0.4-1,0.8-1.4,1.3l1.4,1
		C37.8,102,37.8,99.6,37.8,99.6z M83.4,151.1c2.7-2.4,5-5.2,6.8-8.3l-6.8-4.9V151.1L83.4,151.1z"/>
	<path class="st10" d="M70.4,126.9l-10.8-7.7l-3.9-2.8l-7.3-5.2l-7.5-5.3v1.9l7.5,5.3l6.7,4.8l1.8,1.3l14.3,10.2l9.2,6.5V134
		L70.4,126.9z"/>
	<path class="st10" d="M69.5,124.5l-7.5-5.3l-5.9-4.2l-7.8-5.6l-7.5-5.3v1.8l7.5,5.3l7.3,5.2l3.9,2.8l10.8,7.7l10,7.1v-1.8
		L69.5,124.5L69.5,124.5z M37.8,101.9l-1.4-1c-0.7,0.7-1.4,1.5-2.1,2.2l3.5,2.5V101.9z M83.4,137.9l6.8,4.9c0.5-0.9,1-1.8,1.4-2.7
		l-8.3-5.8C83.4,134.3,83.4,137.9,83.4,137.9z M37.8,105.6v45.6c1,0.8,2,1.6,3,2.4v-45.8L37.8,105.6z M81.9,136.9l-1.5-1.1v17.7
		c1.1-0.8,2.1-1.5,3-2.4v-13.2L81.9,136.9z"/>
	<path class="st10" d="M80.4,132.2l1.5,1.1l1.5,1V99.7c-1-0.8-2-1.7-3-2.4L80.4,132.2L80.4,132.2z M40.8,104.1v-6.9
		c-1.1,0.7-2.1,1.5-3,2.4v2.3C37.8,102,40.8,104.1,40.8,104.1z"/>
	<path class="st10" d="M40.8,104.1l-3-2.2v3.7l3,2.2v-1.9V104.1z M80.4,135.8l1.5,1.1l1.5,1v-3.7l-1.5-1l-1.5-1.1v1.8V135.8z
		 M201.5,157.7c0,21.2-17.1,38.4-38.4,38.4c-21.2,0-38.4-17.1-38.4-38.4c0-8,2.5-15.5,6.7-21.7c4.5,1.9,9.3,2.8,14.4,2.8
		c6.6,0,12.7-1.6,18.1-4.6c5.4,2.9,11.5,4.6,18.1,4.6c4.6,0,9-0.8,13.1-2.3C199.2,142.5,201.5,149.8,201.5,157.7z"/>
	<path class="st10" d="M196.1,159.2c0,16.8-14.7,30.4-32.9,30.4s-32.9-13.6-32.9-30.4c0-6.4,2.1-12.3,5.7-17.2
		c3.8,1.5,7.9,2.2,12.3,2.2c5.6,0,10.9-1.3,15.5-3.6c4.6,2.3,9.9,3.6,15.5,3.6c4,0,7.7-0.7,11.3-1.9
		C194.1,147.2,196.1,153,196.1,159.2L196.1,159.2z"/>
	<path class="st11" d="M197.3,154.9l-0.4-1.8V153c-0.4-1.8-0.9-3.5-1.6-5.2c-0.1-0.1-0.1-0.2-0.1-0.2l-0.5-1.3
		c-0.8-1.7-1.8-3.2-2.8-4.8l-0.7-0.8l-1,0.4c-1.8,0.6-3.5,1-5.4,1.3c-1.8,0.2-3.6,0.4-5.5,0.4c-5.4,0-10.3-1.2-14.7-3.4l-0.7-0.4
		l-0.7,0.4c-0.2,0.1-0.4,0.2-0.6,0.3c-0.5,0.2-1.1,0.5-1.6,0.7c-0.5,0.3-1.1,0.5-1.7,0.7c-3.4,1.2-7.1,1.8-11,1.8
		c-4.1,0-8.1-0.7-11.8-2.1l-1-0.4l-0.7,0.9c-0.6,0.8-1.1,1.6-1.6,2.4c-0.3,0.5-0.6,1-0.8,1.5c-0.1,0.2-0.2,0.5-0.3,0.7
		c-0.4,0.6-0.7,1.3-0.9,1.9c-0.6,1.3-1.1,2.8-1.4,4.2c-0.2,0.5-0.2,0.9-0.4,1.4v0.2l-0.4,1.5v0.1c-0.2,1.5-0.3,2.9-0.3,4.3
		c0,2.8,0.4,5.5,1.2,8.1c0.2,0.8,0.4,1.6,0.8,2.3c0.3,0.9,0.7,1.8,1.1,2.6c4.7,9.7,14.4,16.8,26.1,18.5c1,0.2,2,0.3,3.1,0.3
		c0.7,0.1,1.5,0.1,2.3,0.1h0.5c15.8-0.2,29-10.3,32.8-23.9c0.2-0.5,0.3-1,0.4-1.5v-0.1c0.1-0.5,0.2-1.1,0.2-1.6
		c0.4-1.6,0.5-3.2,0.5-4.9C197.6,157.7,197.5,156.3,197.3,154.9L197.3,154.9z M194.1,163.7c0,0.6-0.1,1.2-0.3,1.7
		c-3.1,12.9-15.7,22.7-30.6,22.7c-1.5,0-2.8-0.1-4.2-0.2c-1.2-0.2-2.3-0.4-3.5-0.7c-1.6-0.3-3.1-0.8-4.5-1.4h-0.1
		c-5-1.9-9.3-5.1-12.7-9c-1-1.2-1.9-2.4-2.6-3.7c-0.6-0.9-1.1-1.9-1.6-2.9c-1.5-3.4-2.3-7.1-2.3-11c0-1.5,0.1-2.9,0.4-4.3
		c0.1-0.5,0.2-1,0.3-1.5c0.1-0.5,0.2-1,0.4-1.5c0.1-0.4,0.2-0.8,0.4-1.2c0.1-0.5,0.3-1,0.5-1.5c0.5-1.2,1-2.4,1.7-3.5
		c0.4-0.7,0.8-1.3,1.2-1.9c3.7,1.3,7.7,1.9,11.7,1.9c4.9,0,9.6-0.9,13.8-2.8c0.5-0.1,1.2-0.4,1.7-0.7c1.8,0.8,3.5,1.5,5.4,2v0.1
		c3.2,0.9,6.6,1.4,10,1.4c1,0,2-0.1,3-0.1c2.6-0.2,5.2-0.7,7.7-1.5c1.5,2.2,2.6,4.6,3.4,7.2c0.1,0.1,0.1,0.3,0.1,0.5
		c0.2,0.5,0.3,1,0.4,1.5c0.1,0.5,0.2,1,0.3,1.5c0.2,1.5,0.4,2.9,0.4,4.3c0,1-0.1,2-0.2,2.9C194.4,162.7,194.3,163.2,194.1,163.7
		L194.1,163.7z"/>
	<path class="st2" d="M195.5,153.3h-64.6c0.8-4.2,2.6-8,5.1-11.4c3.8,1.5,7.9,2.2,12.3,2.2c5.6,0,10.9-1.3,15.5-3.6
		c4.6,2.3,9.8,3.6,15.5,3.6c4,0,7.8-0.7,11.3-1.9C192.9,145.6,194.6,149.3,195.5,153.3z"/>
	<path class="st12" d="M195.5,153.3h-64.6c0.8-4.2,2.6-8,5.1-11.4c3.8,1.5,7.9,2.2,12.3,2.2c5.6,0,10.9-1.3,15.5-3.6
		c4.6,2.3,9.8,3.6,15.5,3.6c4,0,7.8-0.7,11.3-1.9C192.9,145.6,194.6,149.3,195.5,153.3z"/>
	<path class="st11" d="M196.9,153L196.9,153c-0.4-1.9-1-3.6-1.6-5.3c-0.1-0.1-0.1-0.2-0.1-0.2l-0.5-1.3c-0.8-1.7-1.8-3.2-2.8-4.8
		l-0.7-0.8v-0.1l-1.1,0.4c-1.8,0.6-3.5,1-5.3,1.4c-1.8,0.2-3.6,0.4-5.5,0.4c-5.4,0-10.3-1.2-14.7-3.4l-0.7-0.4l-0.7,0.4
		c-0.2,0.1-0.4,0.2-0.6,0.3c-0.5,0.2-1.1,0.5-1.6,0.7c-0.5,0.3-1.1,0.5-1.7,0.7c-3.4,1.2-7.1,1.8-11,1.8c-4.1,0-8.1-0.7-11.8-2.1
		l-1-0.4h-0.1l-0.7,0.9c-0.6,0.8-1.1,1.6-1.6,2.4c-0.3,0.5-0.6,1-0.8,1.5c-0.1,0.2-0.2,0.5-0.3,0.7c-0.4,0.6-0.7,1.3-0.9,1.9
		c-0.6,1.3-1.1,2.8-1.4,4.2c-0.2,0.5-0.2,0.9-0.4,1.4v0.2l-0.4,1.5v0.1h68.2L196.9,153L196.9,153z M132.8,151.9
		c0.1-0.4,0.2-0.8,0.4-1.2c0.1-0.5,0.3-1,0.5-1.5c0.4-1.2,1-2.4,1.7-3.5c0.4-0.7,0.8-1.3,1.2-1.9c3.7,1.3,7.7,1.9,11.7,1.9
		c4.9,0,9.6-0.9,13.8-2.8c0.5-0.1,1.2-0.4,1.7-0.7c1.8,0.8,3.5,1.5,5.4,2v0.1c3.2,0.9,6.6,1.4,10,1.4c1,0,2-0.1,3-0.1
		c2.6-0.2,5.2-0.7,7.7-1.5c1.5,2.2,2.6,4.6,3.4,7.2c0.1,0.2,0.1,0.3,0.2,0.5L132.8,151.9L132.8,151.9z"/>
	<path class="st2" d="M60.3,103.7l-14.2,39c-0.4,1.1,0.9,1.9,1.8,1.2l12.8-9.9c0.4-0.3,1.1-0.3,1.5,0l11.8,9.7
		c0.9,0.7,2.2-0.1,1.9-1.2l-13.3-38.8C62.1,102.7,60.6,102.7,60.3,103.7L60.3,103.7z"/>
	<path class="st13" d="M164.9,195.9c-0.6,0-1.2,0.1-1.8,0.1c-17.4,0-32.1-11.7-36.8-27.6l-36.1-25.6l0,0c-1.8,3.1-4.1,5.9-6.8,8.3
		v64.5H167c7.1,0,13.8-1.6,19.9-4.3l-21.8-15.5H164.9z M37.8,1.3c-14.6,3.3-26.7,13.2-33,26.5l33,23.5V1.3z"/>
	<path class="st14" d="M26.1,125.7c0-8.5,3.1-16.3,8.2-22.3L0,79.1v88.2c0,23.1,16.2,42.5,37.8,47.4v-63.1
		C30.7,145.2,26.1,136,26.1,125.7L26.1,125.7z"/>
</g>
<text transform="matrix(1.1408 0 0 1 143.5421 177.9548)" class="st2 st15 st16">F3</text>
</svg>
