<?xml version="1.0" encoding="utf-8"?>
<!-- Generator: Adobe Illustrator 21.1.0, SVG Export Plug-In . SVG Version: 6.00 Build 0)  -->
<svg version="1.1" id="图层_1" xmlns="http://www.w3.org/2000/svg" xmlns:xlink="http://www.w3.org/1999/xlink" x="0px" y="0px"
	 viewBox="0 0 100 60.4" style="enable-background:new 0 0 100 60.4;" xml:space="preserve">
<style type="text/css">
	.st0{fill:#6dcff6;}
</style>
<path class="st0" d="M80,18.7L91,6c1.3-1.5,3.5-2.1,5.6-1.5c2,0.6,3.4,2.2,3.4,4.1v43.1c0,1.9-1.4,3.5-3.4,4.1
	c-2.1,0.6-4.3,0-5.6-1.5L80,41.7v10.1c0,4.8-4.5,8.6-10,8.6H10c-5.5,0-10-3.9-10-8.6V8.6C0,3.9,4.5,0,10,0h60c5.5,0,10,3.9,10,8.6
	L80,18.7L80,18.7z"/>
</svg>
