<?xml version="1.0" encoding="utf-8"?>
<!-- Generator: Adobe Illustrator 16.0.0, SVG Export Plug-In . SVG Version: 6.00 Build 0)  -->
<!DOCTYPE svg PUBLIC "-//W3C//DTD SVG 1.1//EN" "http://www.w3.org/Graphics/SVG/1.1/DTD/svg11.dtd">
<svg version="1.1" id="图层_1" xmlns="http://www.w3.org/2000/svg" xmlns:xlink="http://www.w3.org/1999/xlink" x="0px" y="0px"
	 width="200px" height="200px" viewBox="0 0 200 200" enable-background="new 0 0 200 200" xml:space="preserve">
<rect fill="#56B5E3" width="200" height="200"/>
<path fill="#FFFFFF" d="M144.554,81.667c-9.771-22.759-25.488-40.071-33.439-36.842c-13.503,5.501,8.045,31.884-58.272,58.859
	c-5.73,2.34-7.18,11.658-4.781,17.238c2.394,5.57,10.227,11.12,15.958,8.793c0.993-0.408,4.633-1.581,4.633-1.581
	c4.089,5.502,8.37,2.242,9.894,5.729c1.826,4.198,5.792,13.324,7.143,16.424c1.351,3.101,4.411,5.971,6.631,5.125
	c2.214-0.847,9.76-3.717,12.646-4.811c2.887-1.099,3.572-3.679,2.69-5.705c-0.951-2.19-4.85-2.833-5.965-5.39
	c-1.111-2.545-4.745-10.731-5.787-13.312c-1.419-3.507,1.598-6.366,5.983-6.817c30.188-3.161,35.831,15.511,46.108,11.324
	C155.935,127.461,154.318,104.407,144.554,81.667L144.554,81.667L144.554,81.667L144.554,81.667z M141.154,118.565
	c-1.771,0.71-13.649-8.657-21.237-26.347c-7.594-17.677-6.636-33.835-4.873-34.557c1.765-0.71,13.355,10.602,20.941,28.278
	C143.579,103.616,142.919,117.843,141.154,118.565L141.154,118.565L141.154,118.565L141.154,118.565z"/>
</svg>
