<?xml version="1.0" encoding="utf-8"?>
<!-- Generator: Adobe Illustrator 21.1.0, SVG Export Plug-In . SVG Version: 6.00 Build 0)  -->
<svg version="1.1" id="图层_1" xmlns="http://www.w3.org/2000/svg" xmlns:xlink="http://www.w3.org/1999/xlink" x="0px" y="0px"
	 viewBox="0 0 296.7 200" style="enable-background:new 0 0 296.7 200;" xml:space="preserve">
<style type="text/css">
	.st0{fill:#CBCBCB;}
	.st1{fill:#FFFFFF;}
</style>
<g>
	<path class="st0" d="M173.5,0c1.4,0,2.7,0.3,4,0.8s2.4,1.3,3.3,2.3c0.9,1,1.6,2.2,2.2,3.4c0.6,1.2,0.9,2.6,0.9,4v149.1
		c0,1.4-0.3,2.7-0.9,4c-0.6,1.2-1.3,2.4-2.2,3.4s-2,1.8-3.3,2.3s-2.6,0.8-4,0.8h-46.8c-1.4-9.3-5.4-17-12.2-23.2
		c-6.7-6.2-14.7-9.2-23.8-9.2c-8.8-0.1-17.4,3.2-23.8,9.2c-6.7,6-11,14.2-12.2,23.1H10.1c-2.7,0-5.3-1.1-7.1-3.1c-2-2.1-3-4.5-3-7.4
		l0-149c0-2.8,1-5.4,3-7.4C5,1,7.4,0,10.1,0H173.5L173.5,0z M224.9,106.2h54.5c0-0.7-0.1-1.3-0.3-2c-0.2-0.8-0.5-1.6-0.9-2.3
		c-0.4-0.8-0.8-1.6-1.2-2.3c-0.4-0.7-0.9-1.5-1.5-2.3l-21.7-30.9l-0.6-0.6c-0.5-0.5-1-0.9-1.5-1.2c-0.5-0.4-1.1-0.6-1.8-0.6h-25
		V106.2L224.9,106.2z M288.9,84.9l0.3,0.6c0.5,0.6,0.9,1.2,1.2,1.8c0.4,0.8,0.9,1.7,1.5,2.8c0.6,1,1.2,2.1,1.8,3.4l1.2,4.3
		c0.6,1.2,1,2.6,1.3,4.2c0.3,1.5,0.5,2.9,0.5,4.2v53.4c0,2.8-1,5.4-3,7.4c-1.8,2-4.4,3.1-7.1,3.1h-10.4c-1-8.9-5.3-17.2-12.1-23.1
		c-6.8-6.2-14.8-9.3-23.9-9.3c-5.8,0-11.6,1.5-16.7,4.3c-5.1,2.9-9.5,6.9-12.8,11.7c-3.3,4.9-5.5,10.5-6.2,16.3
		c-2.8,0.1-5.5-1.1-7.4-3.1c-2-2-3-4.5-3-7.4V53.1c0-2.8,1.1-5.5,3.1-7.4c2.1-2.1,4.5-3.1,7.3-3.1h46.1c1.5,0,3,0.2,4.5,0.6
		c1.4,0.4,2.7,1.2,3.9,2.2c1.2,1,2.1,1.9,2.7,2.8l3.3,3.7c0.3,0.5,0.7,0.9,1.2,1.2L288.9,84.9L288.9,84.9z M263.9,175.3
		c0-4.3-1.1-8.4-3.1-12.2c-4.1-7.6-12.1-12.3-20.7-12.2c-6.3-0.1-12.4,2.5-16.7,7.1c-4.5,4.7-6.8,10.5-6.8,17.3c0,2.1,0.2,4,0.6,5.9
		c0.4,1.8,1,3.5,1.8,5.1s1.7,3,2.8,4.5c1.1,1.4,2.3,2.7,3.7,3.8s2.8,2.1,4.3,2.9c1.5,0.8,3.1,1.4,4.9,1.9c1.8,0.4,3.6,0.6,5.4,0.6
		c6.5,0,12.1-2.4,16.8-7.2C261.6,187.9,263.9,182.1,263.9,175.3L263.9,175.3z M114.5,175.3c0-6.8-2.3-12.5-7-17.3
		c-4.7-4.7-10.3-7.1-16.8-7.1c-3.2,0-6.3,0.6-9.2,1.9c-2.9,1.2-5.5,3-7.6,5.2c-2.1,2.3-3.8,5-5.1,7.9c-1.3,3-1.9,6.1-1.9,9.4
		c0,6.8,2.3,12.6,7,17.4c4.7,4.8,10.3,7.2,16.8,7.2c6.5,0,12.1-2.4,16.8-7.2C112.1,187.9,114.5,182.1,114.5,175.3L114.5,175.3z"/>
</g>
<path class="st1" d="M126,58H50c-6.6,0-12-5.4-12-12v-5c0-6.6,5.4-12,12-12h76c6.6,0,12,5.4,12,12v5C138,52.6,132.6,58,126,58z"/>
<path class="st1" d="M126,106.5H50c-6.6,0-12-5.4-12-12v-5c0-6.6,5.4-12,12-12h76c6.6,0,12,5.4,12,12v5
	C138,101.1,132.6,106.5,126,106.5z"/>
</svg>
