<?xml version="1.0" encoding="utf-8"?>
<!-- Generator: Adobe Illustrator 16.0.0, SVG Export Plug-In . SVG Version: 6.00 Build 0)  -->
<!DOCTYPE svg PUBLIC "-//W3C//DTD SVG 1.1//EN" "http://www.w3.org/Graphics/SVG/1.1/DTD/svg11.dtd">
<svg version="1.1" id="图层_1" xmlns="http://www.w3.org/2000/svg" xmlns:xlink="http://www.w3.org/1999/xlink" x="0px" y="0px"
	 width="152.938px" height="133.672px" viewBox="0 0 152.938 133.672" enable-background="new 0 0 152.938 133.672"
	 xml:space="preserve">
<path fill="#FFFFFF" d="M147.627,0H5.334C2.378,0,0.001,2.378,0.001,5.333V96.85c0,2.955,2.378,5.332,5.333,5.332h20.125
	c1.622,0,3.133-0.732,4.156-1.977l29.844-37l13.622,11.245c2.178,1.801,5.377,1.578,7.311-0.488l25.353-27.441
	c0,0,4.35-3.843,1.869-7.385c-2.655-3.792-7.688,0.346-7.688,0.346L75.992,65.28l-13.89-11.465
	c-1.089-0.912-2.511-1.334-3.933-1.201c-1.422,0.135-2.711,0.846-3.623,1.957L22.925,93.793H8.391v-85.4h136.155v85.398H72.129
	c-2.956,0-5.333,2.379-5.333,5.334v26.154H34.325c-2.956,0-5.333,1.24-5.333,4.197c0,2.955,2.378,4.195,5.333,4.195h71.711
	c2.955,0,5.333-1.24,5.333-4.195c0-2.957-2.378-4.197-5.333-4.197H75.185v-23.098h72.418c2.955,0,5.333-2.377,5.333-5.332V5.334
	C152.96,2.378,150.559,0.001,147.627,0L147.627,0z"/>
</svg>
