<?xml version="1.0" encoding="utf-8"?>
<!-- Generator: Adobe Illustrator 16.0.0, SVG Export Plug-In . SVG Version: 6.00 Build 0)  -->
<!DOCTYPE svg PUBLIC "-//W3C//DTD SVG 1.1//EN" "http://www.w3.org/Graphics/SVG/1.1/DTD/svg11.dtd">
<svg version="1.1" id="图层_1" xmlns="http://www.w3.org/2000/svg" xmlns:xlink="http://www.w3.org/1999/xlink" x="0px" y="0px"
	 width="116.985px" height="61.992px" viewBox="0 0 116.985 61.992" enable-background="new 0 0 116.985 61.992"
	 xml:space="preserve">
<g>
	<g>
		<path fill="#ABABAB" d="M112.985,2c1.103,0,2,0.897,2,2v21.875c0,1.103-0.897,2-2,2H4c-1.103,0-2-0.897-2-2V4c0-1.103,0.897-2,2-2
			H112.985 M112.985,0H4C1.791,0,0,1.791,0,4v21.875c0,2.209,1.791,4,4,4h108.985c2.209,0,4-1.791,4-4V4
			C116.985,1.791,115.194,0,112.985,0L112.985,0z"/>
	</g>
	
		<line fill="none" stroke="#ABABAB" stroke-width="2" stroke-linecap="round" stroke-linejoin="round" stroke-miterlimit="10" x1="13" y1="19.945" x2="29.625" y2="19.945"/>
	
		<line fill="none" stroke="#ABABAB" stroke-width="2" stroke-linecap="round" stroke-linejoin="round" stroke-miterlimit="10" x1="45.338" y1="19.95" x2="61.963" y2="19.95"/>
	
		<line fill="none" stroke="#ABABAB" stroke-width="2" stroke-linecap="round" stroke-linejoin="round" stroke-miterlimit="10" x1="29.851" y1="8.92" x2="45.319" y2="19.943"/>
	
		<text transform="matrix(1 0 0 1 75.1396 19.5146)" fill="#ABABAB" font-family="'MicrosoftYaHei'" font-size="14.0219" letter-spacing="1">常开</text>
	<g>
		<path fill="#ABABAB" d="M112.985,34.117c1.103,0,2,0.897,2,2v21.875c0,1.103-0.897,2-2,2H4c-1.103,0-2-0.897-2-2V36.117
			c0-1.103,0.897-2,2-2H112.985 M112.985,32.117H4c-2.209,0-4,1.791-4,4v21.875c0,2.209,1.791,4,4,4h108.985c2.209,0,4-1.791,4-4
			V36.117C116.985,33.908,115.194,32.117,112.985,32.117L112.985,32.117z"/>
	</g>
	
		<line fill="none" stroke="#ABABAB" stroke-width="2" stroke-linecap="round" stroke-linejoin="round" stroke-miterlimit="10" x1="13" y1="52.063" x2="29.625" y2="52.063"/>
	
		<line fill="none" stroke="#ABABAB" stroke-width="2" stroke-linecap="round" stroke-linejoin="round" stroke-miterlimit="10" x1="45.338" y1="52.067" x2="61.963" y2="52.067"/>
	
		<line fill="none" stroke="#ABABAB" stroke-width="2" stroke-linecap="round" stroke-linejoin="round" stroke-miterlimit="10" x1="29.851" y1="41.037" x2="45.319" y2="52.061"/>
	
		<text transform="matrix(1 0 0 1 75.1396 51.6318)" fill="#ABABAB" font-family="'MicrosoftYaHei'" font-size="14.0219" letter-spacing="1">常闭</text>
	
		<line fill="none" stroke="#ABABAB" stroke-width="1.5" stroke-linecap="round" stroke-linejoin="round" stroke-miterlimit="10" x1="29.713" y1="52.178" x2="29.713" y2="40.74"/>
</g>
</svg>
