<?xml version="1.0" encoding="utf-8"?>
<!-- Generator: Adobe Illustrator 16.0.0, SVG Export Plug-In . SVG Version: 6.00 Build 0)  -->
<!DOCTYPE svg PUBLIC "-//W3C//DTD SVG 1.1//EN" "http://www.w3.org/Graphics/SVG/1.1/DTD/svg11.dtd">
<svg version="1.1" id="图层_1" xmlns="http://www.w3.org/2000/svg" xmlns:xlink="http://www.w3.org/1999/xlink" x="0px" y="0px"
	 width="39.5px" height="39.5px" viewBox="0 0 39.5 39.5" enable-background="new 0 0 39.5 39.5" xml:space="preserve">
<g>
	<path fill="#BFBFBF" d="M19.75,18.834c2.752,0,4.982-2.23,4.982-4.983c0-2.751-2.23-4.981-4.982-4.981
		c-2.751,0-4.982,2.23-4.982,4.981C14.768,16.604,16.999,18.834,19.75,18.834z M19.75,30.631c5.101-0.012,8.546-0.012,8.691-3.07
		c0.144-3.057-1.879-5.674-3.436-6.949c-1.557-1.276-2.695-1.218-2.695-1.218l-2.56-0.008h0l-2.56,0.008
		c0,0-1.139-0.058-2.696,1.218c-1.557,1.275-3.58,3.893-3.436,6.949C11.204,30.619,14.648,30.619,19.75,30.631L19.75,30.631z"/>
	<g>
		<path fill="#BFBFBF" d="M19.75,39.5C8.86,39.5,0,30.641,0,19.75S8.86,0,19.75,0C30.641,0,39.5,8.859,39.5,19.75
			S30.641,39.5,19.75,39.5z M19.75,2C9.962,2,2,9.963,2,19.75S9.962,37.5,19.75,37.5c9.787,0,17.75-7.963,17.75-17.75
			S29.537,2,19.75,2z"/>
	</g>
</g>
</svg>
