<?xml version="1.0" encoding="utf-8"?>
<!-- Generator: Adobe Illustrator 21.1.0, SVG Export Plug-In . SVG Version: 6.00 Build 0)  -->
<svg version="1.1" id="图层_1" xmlns="http://www.w3.org/2000/svg" xmlns:xlink="http://www.w3.org/1999/xlink" x="0px" y="0px"
	 viewBox="0 0 154.5 154.5" style="enable-background:new 0 0 154.5 154.5;" xml:space="preserve">
<style type="text/css">
	.st0{fill:#648DC8;}
</style>
<g>
	<path class="st0" d="M110.5,68.1c0,3.3,2.2,5.4,5.4,5.4s5.4-2.2,5.4-5.4c-0.1-18-14.6-32.5-32.6-32.6c-3.3,0-5.4,2.2-5.4,5.4
		c0,3.3,2.2,5.4,5.4,5.4C100.7,46.4,110.5,56.1,110.5,68.1z M132.2,68.1c0,3.3,2.2,5.4,5.4,5.4s5.4-2.2,5.4-5.4
		c0-29.9-24.5-54.3-54.3-54.3c-3.3,0-5.4,2.2-5.4,5.4s2.2,5.4,5.4,5.4C112.7,24.6,132.2,44.2,132.2,68.1L132.2,68.1z M58.9,49.1
		c6-6,6.5-15.2,1.1-21.7L43.1,6.2C37.7-0.9,27.4-2,20.3,3.4C19.8,4,19.2,4,19.2,4.5L4.5,19.2c-14.1,14.1,6,52.2,42.4,88.6
		c36.4,36.4,73.9,56,88,42.4l14.7-14.7c6.5-6.5,6.5-16.8,0-22.8l-1.1-1.1l-21.2-16.8c-6.5-5.4-15.7-4.9-21.7,1.1l-9.2,9.2
		c-9.8-6-18.5-12.5-26.1-20.1c-7.6-7.6-14.1-16.3-20.1-26.1L58.9,49.1L58.9,49.1z M51.3,34.4c1.6,2.2,1.6,5.4-0.5,7.1L38.8,54
		c-1.7,1.7-2.1,4.3-1.1,6.5C44.1,72.3,52.1,83,61.6,92.5c9.5,9.5,20.3,17.5,32.1,23.9c2.2,1,4.8,0.6,6.5-1.1l12.5-12.5
		c2.2-2.2,4.9-2.2,7.1-0.5l21.2,17.4c0,0,0.5,0,0.5,0.5c2.1,2,2.2,5.3,0.2,7.4c-0.1,0.1-0.1,0.1-0.2,0.2l-14.7,14.7
		c-7.1,7.1-40.7-10.9-72.8-42.4C21.9,68.6,4.6,34.4,11.6,27.3l15.2-15.2c2.2-1.6,6-1.6,7.6,1.1L51.3,34.4L51.3,34.4z"/>
</g>
</svg>
