<?xml version="1.0" encoding="utf-8"?>
<!-- Generator: Adobe Illustrator 21.1.0, SVG Export Plug-In . SVG Version: 6.00 Build 0)  -->
<svg version="1.1" id="图层_1" xmlns="http://www.w3.org/2000/svg" xmlns:xlink="http://www.w3.org/1999/xlink" x="0px" y="0px"
	 viewBox="0 0 175.1 175.1" style="enable-background:new 0 0 175.1 175.1;" xml:space="preserve">
<style type="text/css">
	.st0{fill:#79AE2A;}
	.st1{fill:#52C41A;}
</style>
<g>
	<path class="st0" d="M65.1,169.5"/>
	<path class="st0" d="M109.6,169.7"/>
	<path class="st1" d="M168.2,53.5c-4.4-10.4-10.7-19.8-18.8-27.8S132,11.3,121.6,6.9C110.8,2.3,99.4,0,87.5,0
		C75.7,0,64.3,2.3,53.5,6.9C43,11.3,33.7,17.6,25.6,25.6S11.3,43,6.9,53.5C2.3,64.3,0,75.7,0,87.5s2.3,23.3,6.9,34.1
		c4.4,10.4,10.7,19.8,18.8,27.8c8,8,17.4,14.3,27.8,18.8c10.8,4.6,22.3,6.9,34.1,6.9c11.8,0,23.3-2.3,34.1-6.9
		c10.4-4.4,19.8-10.7,27.8-18.8c8-8,14.3-17.4,18.8-27.8c4.6-10.8,6.9-22.3,6.9-34.1C175.1,75.7,172.8,64.3,168.2,53.5z M143.5,61.9
		L79.4,126c-2.4,2.4-5.6,3.8-9.1,3.8c0,0-0.1,0-0.1,0c-3.4,0-6.7-1.4-9.2-3.8L27.6,92.6c-3.5-3.5-3.5-9.2,0-12.7
		c3.5-3.5,9.2-3.5,12.7,0l29.9,29.9l60.6-60.6c3.5-3.5,9.2-3.5,12.7,0C147,52.7,147,58.4,143.5,61.9z"/>
</g>
</svg>
