<?xml version="1.0" encoding="utf-8"?>
<!-- Generator: Adobe Illustrator 21.1.0, SVG Export Plug-In . SVG Version: 6.00 Build 0)  -->
<svg version="1.1" id="图层_1" xmlns="http://www.w3.org/2000/svg" xmlns:xlink="http://www.w3.org/1999/xlink" x="0px" y="0px"
	 viewBox="0 0 116.4 116.4" style="enable-background:new 0 0 116.4 116.4;" xml:space="preserve">
<style type="text/css">
	.st0{fill:#FF532C;}
</style>
<g>
	<path class="st0" d="M58.2,0C26.1,0,0,26.1,0,58.2s26.1,58.2,58.2,58.2s58.2-26.1,58.2-58.2S90.4,0,58.2,0z M88.6,79.2
		c6.3,6.3-3.1,15.7-9.4,9.4c-7-7-14-14-21-21l-21,21c-6.3,6.3-15.7-3.1-9.4-9.4c7-7,14-14,21-21c-7-7-14-14-21-21
		c-6.3-6.3,3.1-15.7,9.4-9.4c7,7,14,14,21,21c7-7,14-14,21-21c6.3-6.3,15.7,3.1,9.4,9.4c-7,7-14,14-21,21
		C74.6,65.2,81.6,72.2,88.6,79.2L88.6,79.2z"/>
</g>
</svg>
