<?xml version="1.0" encoding="utf-8"?>
<!-- Generator: Adobe Illustrator 16.0.0, SVG Export Plug-In . SVG Version: 6.00 Build 0)  -->
<!DOCTYPE svg PUBLIC "-//W3C//DTD SVG 1.1//EN" "http://www.w3.org/Graphics/SVG/1.1/DTD/svg11.dtd">
<svg version="1.1" id="图层_1" xmlns="http://www.w3.org/2000/svg" xmlns:xlink="http://www.w3.org/1999/xlink" x="0px" y="0px"
	 width="179.859px" height="177.06px" viewBox="0 0 179.859 177.06" enable-background="new 0 0 179.859 177.06"
	 xml:space="preserve">
<g>
	<path fill="#999999" d="M128.738,131.217c-0.531-7.119-5.125-13.405-11.707-16.34l-5.91-27.795
		c-2.165-10.165-12.375-18.433-22.766-18.433H41.774c-10.393,0-20.605,8.268-22.766,18.433l-5.915,27.795
		c-6.582,2.936-11.172,9.221-11.704,16.34l-1.338,17.831c-0.575,7.661,3.783,14.569,10.622,17.364
		c1.573,6.156,7.125,10.647,13.7,10.647c6.109,0,11.31-3.813,13.289-9.316h54.806c1.979,5.503,7.179,9.316,13.285,9.316
		c6.576,0,12.135-4.491,13.707-10.647c6.838-2.795,11.193-9.7,10.617-17.364L128.738,131.217z M115.012,159.502
		c-1.73,0.402-2.984,1.901-3.074,3.678c-0.162,3.32-2.879,5.924-6.186,5.924c-3.222,0-5.87-2.444-6.158-5.688
		c-0.178-2.053-1.9-3.624-3.961-3.624H34.492c-2.062,0-3.78,1.571-3.962,3.624c-0.287,3.243-2.932,5.688-6.157,5.688
		c-3.303,0-6.02-2.6-6.184-5.924c-0.087-1.777-1.342-3.275-3.07-3.678c-4.561-1.059-7.492-5.112-7.137-9.857l1.338-17.83
		c0.347-4.632,3.841-8.836,8.5-10.221c1.518-0.455,2.624-1.764,2.814-3.342c0.024-0.228,0.042-0.458,0.06-0.681
		c0.01-0.117,0.01-0.237,0.031-0.345l6.061-28.49c1.399-6.578,8.262-12.13,14.986-12.13h46.581c6.722,0,13.583,5.553,14.985,12.13
		l6.059,28.488c0.023,0.117,0.023,0.234,0.031,0.351c0.016,0.224,0.035,0.443,0.061,0.667c0.187,1.578,1.293,2.896,2.819,3.352
		c4.656,1.385,8.151,5.589,8.497,10.221l1.336,17.83C122.502,154.389,119.566,158.443,115.012,159.502z M34.422,118.632h61.282
		c1.477,0,2.747-0.548,3.527-1.488c0.842-0.972,1.183-2.302,0.961-3.744c-0.018-0.097-0.035-0.193-0.056-0.288l-4.815-20.923
		c-0.604-3.298-3.868-6.054-7.228-6.054H42.037c-3.36,0-6.629,2.755-7.233,6.054l-4.813,20.923
		c-0.022,0.095-0.041,0.191-0.056,0.288c-0.224,1.442,0.118,2.772,0.912,3.688C31.678,118.084,32.945,118.632,34.422,118.632z
		 M42.529,94.092h45.069l3.814,16.584H38.713L42.529,94.092z M29.63,132.259c-4.964,0-8.99,4.024-8.99,8.989
		c0,4.967,4.027,8.991,8.99,8.991c4.965,0,8.987-4.024,8.987-8.991C38.617,136.283,34.595,132.259,29.63,132.259z M100.498,132.259
		c-4.965,0-8.99,4.024-8.99,8.989c0,4.967,4.025,8.991,8.99,8.991c4.967,0,8.99-4.024,8.99-8.991
		C109.488,136.283,105.466,132.259,100.498,132.259z M163.576,95.278c1.178,0.265,2.07,0.931,2.697,1.937
		c4.32,6.921,8.648,13.84,12.937,20.781c1.267,2.051,0.613,4.647-1.367,5.904c-1.986,1.262-4.632,0.752-5.914-1.283
		c-4.38-6.955-8.724-13.936-13.038-20.931c-0.99-1.603-0.871-3.28,0.251-4.792C160.242,95.409,161.77,94.914,163.576,95.278z"/>
	<g>
		<path fill="#999999" d="M90.626,62.606c0,0-1.548-5.646-1.904-8.646c-2.789-23.503,14.002-44.816,37.505-47.605
			c23.501-2.789,44.816,14.002,47.605,37.505c2.788,23.498-14.003,44.816-37.505,47.605c-6.647,0.789-13.107-0.012-19.029-2.078
			c-0.281-0.098-0.148,4.289,0.137,4.378c6.096,1.904,12.667,2.604,19.427,1.803c25.953-3.081,44.495-26.616,41.415-52.569
			S151.661-1.496,125.708,1.584C99.754,4.666,81.212,28.2,84.292,54.153c0.393,3.307,2.166,9.518,2.166,9.518L90.626,62.606z"/>
		<path fill="#999999" d="M131.344,97.145c-4.835,0-9.64-0.734-14.282-2.186c-1.715-0.535-1.107-5.476-1.1-5.525
			c0.188-1.236,1.139-1.298,1.327-1.298h0.211l0.208,0.071c5.93,2.069,12.229,2.759,18.472,2.018
			c22.78-2.704,39.114-23.436,36.411-46.217c-2.483-20.925-20.222-36.705-41.261-36.705c-1.645,0-3.312,0.099-4.956,0.294
			c-11.035,1.31-20.9,6.838-27.777,15.567s-9.943,19.614-8.634,30.649c0.342,2.874,1.854,8.407,1.868,8.462l0.337,1.227l-6.578,1.68
			l-0.334-1.168c-0.073-0.258-1.806-6.346-2.205-9.713c-3.156-26.595,15.914-50.8,42.51-53.957C127.479,0.116,129.425,0,131.344,0
			c24.564,0,45.274,18.422,48.174,42.852c3.156,26.596-15.913,50.8-42.509,53.957C135.13,97.031,133.225,97.145,131.344,97.145z
			 M118.48,92.777c5.911,1.748,12.108,2.275,18.233,1.549c25.228-2.994,43.315-25.953,40.321-51.179
			C174.285,19.975,154.643,2.5,131.344,2.5c-1.82,0-3.667,0.11-5.488,0.326C100.628,5.82,82.539,28.78,85.533,54.005
			c0.275,2.321,1.279,6.212,1.804,8.15l1.757-0.449c-0.48-1.856-1.35-5.38-1.613-7.599c-1.389-11.699,1.862-23.238,9.152-32.491
			c7.29-9.254,17.748-15.115,29.446-16.503c1.742-0.207,3.509-0.312,5.251-0.312c22.306,0,41.111,16.728,43.743,38.91
			c2.865,24.15-14.45,46.128-38.599,48.995c-6.091,0.723-12.244,0.16-18.081-1.644C118.403,91.656,118.436,92.317,118.48,92.777z"/>
	</g>
</g>
</svg>
