<?xml version="1.0" encoding="utf-8"?>
<!-- Generator: Adobe Illustrator 16.0.0, SVG Export Plug-In . SVG Version: 6.00 Build 0)  -->
<!DOCTYPE svg PUBLIC "-//W3C//DTD SVG 1.1//EN" "http://www.w3.org/Graphics/SVG/1.1/DTD/svg11.dtd">
<svg version="1.1" id="图层_1" xmlns="http://www.w3.org/2000/svg" xmlns:xlink="http://www.w3.org/1999/xlink" x="0px" y="0px"
	 width="168.844px" height="135.972px" viewBox="0 0 168.844 135.972" enable-background="new 0 0 168.844 135.972"
	 xml:space="preserve">
<g>
	<path fill="#999999" d="M149.211,0.004c-21.525-0.009-43.05-0.002-64.576-0.002c-21.525,0-43.05-0.005-64.575,0.001
		C8.269,0.006,0.125,7.718,0.085,19.418c-0.111,32.391-0.119,64.782,0.006,97.174c0.044,11.478,8.315,19.361,19.816,19.366
		c43.05,0.019,86.101,0.015,129.151,0.001c11.637-0.004,19.773-8.109,19.778-19.678c0.01-32.186,0.009-64.37,0-96.554
		C168.835,8.013,160.869,0.011,149.211,0.004z M158.779,116.799c0,4.222-4.853,9.107-9.156,9.108
		c-46.146,0.008-84.968,0.008-131.115-0.001c-4.27-0.001-8.403-3.843-8.404-8.097c-0.01-35.282-0.01-63.66,0-98.943
		c0.001-4.207,5.525-8.888,9.82-8.888c23.074-0.004,41.465-0.002,64.539-0.002c23.075,0,42.693-0.002,65.767,0.002
		c4.264,0.001,8.549,5.455,8.551,9.697C158.79,54.959,158.791,81.516,158.779,116.799z"/>
	<path fill="#999999" d="M114.545,64.198c-7.85-5.736-15.727-11.434-23.59-17.151c-7.11-5.17-21.374-15.451-21.374-15.451
		s-6.688-1.955-6.688,4.309c0,6.265,0.016,57.169,0.016,63.955c0,6.788,7.186,4.11,7.186,4.11S99.72,82.446,114.52,71.664
		C118.191,68.989,118.205,66.875,114.545,64.198z M103.9,70.645c-0.025,0.02-0.033,0.033-0.06,0.053
		c-9.605,7.008-28.875,20.938-28.875,20.938l-0.322,0.18l-5.036,3.646V40.158l38.21,27.651L103.9,70.645z"/>
</g>
</svg>
