<?xml version="1.0" encoding="utf-8"?>
<!-- Generator: Adobe Illustrator 16.0.0, SVG Export Plug-In . SVG Version: 6.00 Build 0)  -->
<!DOCTYPE svg PUBLIC "-//W3C//DTD SVG 1.1//EN" "http://www.w3.org/Graphics/SVG/1.1/DTD/svg11.dtd">
<svg version="1.1" id="图层_1" xmlns="http://www.w3.org/2000/svg" xmlns:xlink="http://www.w3.org/1999/xlink" x="0px" y="0px"
	 width="200px" height="200px" viewBox="0 0 200 200" enable-background="new 0 0 200 200" xml:space="preserve">
<rect fill="#3CC150" width="200" height="200"/>
<g>
	<path fill="#FFFFFF" d="M95.453,120.24c4.753,4.59,4.885,12.162,0.295,16.916c-4.589,4.752-12.163,4.884-16.916,0.295
		l-32.873-31.745c-4.753-4.59-4.885-12.164-0.295-16.916c4.589-4.753,12.163-4.885,16.916-0.295L95.453,120.24z"/>
	<path fill="#FFFFFF" d="M137.271,62.695c4.671-4.672,12.246-4.672,16.918,0c4.672,4.671,4.672,12.246,0,16.918l-57.692,57.692
		c-4.672,4.673-12.246,4.673-16.918,0c-4.671-4.671-4.671-12.246,0-16.918L137.271,62.695z"/>
</g>
</svg>
