<?xml version="1.0" encoding="utf-8"?>
<!-- Generator: Adobe Illustrator 21.1.0, SVG Export Plug-In . SVG Version: 6.00 Build 0)  -->
<svg version="1.1" id="图层_1" xmlns="http://www.w3.org/2000/svg" xmlns:xlink="http://www.w3.org/1999/xlink" x="0px" y="0px"
	 viewBox="0 0 166.4 162.1" style="enable-background:new 0 0 166.4 162.1;" xml:space="preserve">
<style type="text/css">
	.st0{fill:#616161;}
	.st1{fill:#8EE035;}
</style>
<g>
	<path class="st0" d="M148.5,24.6L126.3,2.3c-3.1-3.1-8-3.1-10.9,0L83.1,34.6c-3.1,3.1-3.1,8,0,10.9l8.8,8.8l-4.4,4.4l-2.8-2.8
		c-3.9-3.9-9.2-6-14.8-5.9c-7-5.7-16-6.5-21.2-1.3S44.3,62.9,50,69.9c0,5.4,1.8,10.6,5.9,14.8l2.8,2.8l-4.4,4.4l-8.8-8.8
		c-3.1-3.1-8-3.1-10.9,0L2.3,115.4c-3.1,3.1-3.1,8,0,10.9l22.2,22.2c3.1,3.1,8,3.1,10.9,0l32.3-32.3c3.1-3.1,3.1-8,0-10.9l-7.5-7.5
		l4.4-4.4l9.8,9.8c2.6-5.9,6.7-11.9,11.9-17.1c5.2-5.2,11.1-9.3,17.1-11.9l-9.8-9.8L98,60l7.5,7.5c3.1,3.1,8,3.1,10.9,0l32.3-32.3
		C151.6,32.3,151.5,27.6,148.5,24.6C148.6,24.6,148.6,24.6,148.5,24.6L148.5,24.6z"/>
	<path class="st0" d="M141,80.4c-0.5-0.5-1.1-0.9-1.8-1.3c0,0-0.3,0-0.3-0.3c-0.5-0.3-0.8-0.5-1.3-0.8h-0.2
		c-12.7-7-32.3-2.1-46.8,12.4c-14.8,14.7-19.4,34.2-12.4,46.8c0.2,0.5,0.5,0.8,0.8,1.3c0,0,0,0.2,0.2,0.2c0.5,0.8,1,1.3,1.3,1.8
		c5.4,3.6,17.6-1,30.5-11.4l-6.5-5.2c-7.8,6.2-14,9.6-15.8,8c-2.3-2.3,5.4-14,17.3-25.9s23.5-19.7,25.9-17.3c1.6,1.6-1.3,7-6.7,14
		l5.2,6.5C140.2,97,144.6,85.6,141,80.4L141,80.4z"/>
	<path class="st0" d="M110,115.1c-2.1-1.5-2.1-4.4-0.3-6.2l0.8-0.8c1.7-1.6,4.3-1.6,6,0c0.1,0.1,0.2,0.2,0.2,0.3l7,8.5
		c1.5,2.1,1.5,5.2-0.2,7l2.3-2.3c-1.9,1.9-4.9,2-7,0.3L110,115.1L110,115.1z"/>
	<path class="st0" d="M126.7,118.6c-3.3,0.1-6,2.6-6.2,5.9c0,3.3,2.6,5.9,6.2,5.9c3.3,0,6.2-2.6,6.2-5.9
		C132.8,121.1,130,118.5,126.7,118.6"/>
	<path class="st1" d="M142.1,118.6c0,5.5-2.2,10.6-6.4,14.4c-4,4-9.3,6-15.2,6v8.4c16.8,0,30.2-13,30.4-28.9h-8.8"/>
	<path class="st1" d="M157.6,118.4c0,19.4-16.7,35.3-37.1,35.3v8.4c25.3,0,45.9-19.6,45.9-43.7H157.6"/>
</g>
</svg>
