<?xml version="1.0" encoding="utf-8"?>
<!-- Generator: Adobe Illustrator 16.0.0, SVG Export Plug-In . SVG Version: 6.00 Build 0)  -->
<!DOCTYPE svg PUBLIC "-//W3C//DTD SVG 1.1//EN" "http://www.w3.org/Graphics/SVG/1.1/DTD/svg11.dtd">
<svg version="1.1" id="图层_1" xmlns="http://www.w3.org/2000/svg" xmlns:xlink="http://www.w3.org/1999/xlink" x="0px" y="0px"
	 width="13px" height="13px" viewBox="0 0 13 13" enable-background="new 0 0 13 13" xml:space="preserve">
<g>
	<path fill="#FFFFFF" d="M6.498,8.881c1.339,0,2.427-1.067,2.427-2.383c0-1.312-1.088-2.379-2.427-2.379
		c-1.337,0-2.424,1.067-2.424,2.379C4.074,7.813,5.161,8.881,6.498,8.881 M6.498,5.119c0.786,0,1.427,0.618,1.427,1.379
		c0,0.764-0.641,1.383-1.427,1.383c-0.784,0-1.424-0.619-1.424-1.383C5.074,5.737,5.714,5.119,6.498,5.119"/>
	<path fill="#FFFFFF" d="M1.772,8.244l0.133,0.316c-0.711,1.613-0.711,1.753-0.448,2.012l0.94,0.922l0.16,0.141h0.199
		c0.102,0,0.27,0,1.65-0.625l0.338,0.136c0.68,1.673,0.777,1.728,1.123,1.728h1.316c0.369,0,0.477-0.109,1.084-1.732l0.338-0.139
		c1.404,0.593,1.576,0.593,1.67,0.593l0.219-0.005l1.085-1.055c0.267-0.265,0.263-0.419-0.483-1.988l0.135-0.317
		c1.666-0.647,1.77-0.744,1.77-1.11V5.828c0-0.375-0.104-0.473-1.775-1.072l-0.135-0.316c0.711-1.613,0.713-1.753,0.447-2.016
		l-0.931-0.907l-0.162-0.147h-0.207c-0.103,0-0.271,0-1.649,0.622L8.251,1.854c-0.68-1.678-0.77-1.728-1.121-1.728H5.812
		c-0.37,0-0.477,0.111-1.081,1.735L4.392,1.998c-1.406-0.59-1.58-0.59-1.674-0.59L2.497,1.412L1.408,2.478
		C1.152,2.742,1.157,2.883,1.901,4.457L1.767,4.774C0.101,5.418-0.001,5.517-0.001,5.883v1.291
		C-0.001,7.549,0.101,7.646,1.772,8.244 M0.999,6.17c0.295-0.133,0.848-0.358,1.326-0.541l0.198-0.077L2.996,4.43L2.9,4.228
		C2.69,3.785,2.454,3.265,2.335,2.969l0.516-0.508c0.305,0.108,0.867,0.336,1.343,0.537l0.19,0.08l1.131-0.457l0.076-0.207
		c0.172-0.461,0.383-1,0.51-1.289h0.746c0.138,0.287,0.369,0.832,0.557,1.297l0.08,0.197l1.13,0.456L8.81,2.987
		c0.459-0.21,1.002-0.444,1.301-0.56l0.521,0.506c-0.113,0.301-0.341,0.84-0.541,1.296l-0.088,0.198l0.473,1.121l0.207,0.074
		c0.471,0.168,1.02,0.375,1.316,0.5v0.705c-0.296,0.133-0.849,0.359-1.326,0.541l-0.197,0.077l-0.475,1.122l0.098,0.203
		c0.211,0.439,0.447,0.961,0.565,1.257l-0.521,0.507C9.841,10.428,9.281,10.201,8.808,10L8.616,9.918l-1.131,0.459l-0.077,0.207
		c-0.171,0.461-0.383,0.998-0.511,1.289H6.15c-0.138-0.289-0.368-0.832-0.558-1.299l-0.078-0.195L4.384,9.918l-0.195,0.09
		c-0.459,0.212-1.004,0.447-1.303,0.563l-0.519-0.51C2.48,9.763,2.706,9.225,2.909,8.769L2.997,8.57L2.524,7.451L2.317,7.377
		c-0.473-0.168-1.021-0.375-1.316-0.5V6.17H0.999z"/>
</g>
</svg>
