<?xml version="1.0" encoding="utf-8"?>
<!-- Generator: Adobe Illustrator 16.0.0, SVG Export Plug-In . SVG Version: 6.00 Build 0)  -->
<!DOCTYPE svg PUBLIC "-//W3C//DTD SVG 1.1//EN" "http://www.w3.org/Graphics/SVG/1.1/DTD/svg11.dtd">
<svg version="1.1" id="图层_1" xmlns="http://www.w3.org/2000/svg" xmlns:xlink="http://www.w3.org/1999/xlink" x="0px" y="0px"
	 width="249px" height="249px" viewBox="0 0 249 249" enable-background="new 0 0 249 249" xml:space="preserve">
<g>
	<g id="图层_2">
		<circle fill="#FFAB2D" cx="124.5" cy="124.5" r="124.5"/>
	</g>
	<g id="图层_1_1_">
		<g>
			<path fill="#FFFFFF" d="M124.5,24.503c-55.229,0-99.997,44.773-99.997,99.997c0,55.225,44.768,99.998,99.997,99.998
				c55.229,0,99.997-44.773,99.997-99.998C224.497,69.276,179.723,24.503,124.5,24.503z"/>
			<g>
				<path fill="#FFAB2D" d="M113.449,50.338c0-6.101,4.943-11.052,11.052-11.052c6.108,0,11.052,4.952,11.052,11.052v94.619
					c0,6.102-4.943,11.052-11.052,11.052c-6.108,0-11.052-4.952-11.052-11.052V50.338z"/>
				<path fill="#FFAB2D" d="M124.5,209.714c-9.836,0-17.809-7.972-17.809-17.81c0-9.828,7.973-17.809,17.809-17.809
					s17.809,7.973,17.809,17.809C142.302,201.75,134.337,209.714,124.5,209.714z"/>
			</g>
		</g>
	</g>
</g>
</svg>
