<?xml version="1.0" standalone="no"?><!DOCTYPE svg PUBLIC "-//W3C//DTD SVG 1.1//EN" "http://www.w3.org/Graphics/SVG/1.1/DTD/svg11.dtd"><svg t="1490946122314" class="icon" style="" viewBox="0 0 1024 1024" version="1.1" xmlns="http://www.w3.org/2000/svg" p-id="4761" xmlns:xlink="http://www.w3.org/1999/xlink" width="200" height="200"><defs><style type="text/css"></style></defs><path d="M206.766692 64.303538 84.659657 64.303538c-11.259438 0-20.357654 9.097192-20.357654 20.35663l0 122.07429c0 11.258415 9.098215 20.35663 20.357654 20.35663 11.227716 0 20.324908-9.097192 20.324908-20.35663L104.984564 105.016799l101.781104 0c11.226692 0 20.323884-9.129938 20.323884-20.35663C227.090577 73.40073 217.992361 64.303538 206.766692 64.303538z" p-id="4762" fill="#6dcff6"></path><path d="M328.842005 105.016799l122.104989 0c11.227716 0 20.357654-9.129938 20.357654-20.35663 0-11.259438-9.129938-20.35663-20.357654-20.35663L328.842005 64.303538c-11.227716 0-20.357654 9.097192-20.357654 20.35663C308.484352 95.886861 317.61429 105.016799 328.842005 105.016799z" p-id="4763" fill="#6dcff6"></path><path d="M573.053006 105.016799l122.107035 0c11.225669 0 20.322861-9.129938 20.322861-20.35663 0-11.259438-9.098215-20.35663-20.322861-20.35663L573.053006 64.303538c-11.259438 0-20.355607 9.097192-20.355607 20.35663C552.697399 95.886861 561.793568 105.016799 573.053006 105.016799z" p-id="4764" fill="#6dcff6"></path><path d="M939.33932 64.303538 817.233308 64.303538c-11.226692 0-20.323884 9.097192-20.323884 20.35663 0 11.226692 9.098215 20.35663 20.323884 20.35663l101.751429 0 0 101.717659c0 11.258415 9.129938 20.35663 20.355607 20.35663 11.226692 0 20.35663-9.097192 20.35663-20.35663L959.696973 84.660168C959.69595 73.40073 950.566012 64.303538 939.33932 64.303538z" p-id="4765" fill="#6dcff6"></path><path d="M939.33932 308.516586c-11.225669 0-20.355607 9.098215-20.355607 20.357654l0 122.073266c0 11.259438 9.129938 20.357654 20.355607 20.357654 11.226692 0 20.35663-9.098215 20.35663-20.357654L959.69595 328.874239C959.69595 317.614801 950.566012 308.516586 939.33932 308.516586z" p-id="4766" fill="#6dcff6"></path><path d="M939.33932 552.687678c-11.225669 0-20.355607 9.107425-20.355607 20.36584l0 122.096802c0 11.235902 9.129938 20.363793 20.355607 20.363793 11.226692 0 20.35663-9.127891 20.35663-20.363793L959.69595 573.053518C959.69595 561.795103 950.566012 552.687678 939.33932 552.687678z" p-id="4767" fill="#6dcff6"></path><path d="M939.33932 796.909935c-11.225669 0-20.355607 9.090029-20.355607 20.323884l0 101.783151-101.751429 0c-11.226692 0-20.323884 9.063423-20.323884 20.321838 0 11.260461 9.098215 20.35663 20.323884 20.35663l122.106012 0c11.226692 0 20.35663-9.096169 20.35663-20.35663L959.694927 817.233819C959.69595 805.999964 950.566012 796.909935 939.33932 796.909935z" p-id="4768" fill="#6dcff6"></path><path d="M695.160041 919.01697 573.053006 919.01697c-11.259438 0-20.355607 9.063423-20.355607 20.321838 0 11.260461 9.096169 20.35663 20.355607 20.35663l122.107035 0c11.225669 0 20.322861-9.096169 20.322861-20.35663C715.482903 928.081417 706.38571 919.01697 695.160041 919.01697z" p-id="4769" fill="#6dcff6"></path><path d="M450.946994 919.01697 328.842005 919.01697c-11.227716 0-20.357654 9.063423-20.357654 20.321838 0 11.260461 9.129938 20.35663 20.357654 20.35663l122.104989 0c11.227716 0 20.357654-9.096169 20.357654-20.35663C471.303624 928.081417 462.173686 919.01697 450.946994 919.01697z" p-id="4770" fill="#6dcff6"></path><path d="M206.766692 919.01697l-101.781104 0 0-101.783151c0-11.234879-9.098215-20.323884-20.324908-20.323884-11.259438 0-20.357654 9.090029-20.357654 20.323884l0 122.104989c0 11.260461 9.098215 20.35663 20.357654 20.35663l122.106012 0c11.226692 0 20.323884-9.096169 20.323884-20.35663C227.090577 928.081417 217.992361 919.01697 206.766692 919.01697z" p-id="4771" fill="#6dcff6"></path><path d="M84.659657 715.515137c11.227716 0 20.324908-9.127891 20.324908-20.363793L104.984564 573.053518c0-11.258415-9.098215-20.36584-20.324908-20.36584-11.259438 0-20.357654 9.107425-20.357654 20.36584l0 122.096802C64.303027 706.387245 73.400219 715.515137 84.659657 715.515137z" p-id="4772" fill="#6dcff6"></path><path d="M84.659657 471.304136c11.227716 0 20.324908-9.098215 20.324908-20.357654L104.984564 328.874239c0-11.259438-9.098215-20.357654-20.324908-20.357654-11.259438 0-20.357654 9.098215-20.357654 20.357654l0 122.073266C64.303027 462.20592 73.400219 471.304136 84.659657 471.304136z" p-id="4773" fill="#6dcff6"></path><path d="M674.802388 471.307206 349.196589 471.307206c-22.485107 0-40.680515 18.194384-40.680515 40.71326 0 22.453385 18.195408 40.671305 40.680515 40.671305L674.802388 552.691771c22.488177 0 40.682561-18.21792 40.682561-40.671305C715.483926 489.50159 697.289542 471.307206 674.802388 471.307206z" p-id="4774" fill="#6dcff6"></path></svg>