<?xml version="1.0" encoding="utf-8"?>
<!-- Generator: Adobe Illustrator 16.0.0, SVG Export Plug-In . SVG Version: 6.00 Build 0)  -->
<!DOCTYPE svg PUBLIC "-//W3C//DTD SVG 1.1//EN" "http://www.w3.org/Graphics/SVG/1.1/DTD/svg11.dtd">
<svg version="1.1" id="图层_1" xmlns="http://www.w3.org/2000/svg" xmlns:xlink="http://www.w3.org/1999/xlink" x="0px" y="0px"
	 width="200px" height="200px" viewBox="0 0 200 200" enable-background="new 0 0 200 200" xml:space="preserve">
<g>
	<path opacity="0.8" fill="#FFFFFF" enable-background="new    " d="M23.199,5.079c0,2.684,2.176,4.856,4.858,4.856
		c2.681,0,4.855-2.174,4.855-4.856c0-2.682-2.174-4.856-4.855-4.856C25.373,0.223,23.199,2.397,23.199,5.079z M35.776,15.318
		c-0.077-0.241-0.189-0.478-0.333-0.708c-0.37-0.728-0.714-1.257-1.362-1.928c-1.494-1.542-3.648-2.446-5.969-2.458
		c-3.203,0.018-6.035,1.827-7.394,4.491c-0.144,0.229-0.193,0.489-0.267,0.729c-0.171,0.545-0.193,1.28,0.013,1.773
		c0.2,0.485,0.574,0.887,1.065,1.153c0.481,0.259,1.094,0.391,1.771,0.399c0,0.003,0.001,0.005,0.001,0.008h4.811h4.812
		c0-0.003,0-0.005,0-0.008c0.678-0.008,1.29-0.12,1.772-0.379c0.491-0.264,0.844-0.562,1.044-1.047
		c0.1-0.243,0.193-0.604,0.197-0.97C35.945,15.986,35.86,15.597,35.776,15.318z"/>
	<path opacity="0.8" fill="#FFFFFF" enable-background="new    " d="M13.71,19H3.188C1.9,19,0.85,17.892,0.85,16.527V9.12
		c0-1.362,1.049-2.469,2.339-2.469h0.607C3.734,6.342,3.701,6.024,3.701,5.7V4.75C3.701,2.127,5.828,0,8.451,0
		c2.621,0,4.75,2.127,4.75,4.75V5.7c0,0.325-0.034,0.643-0.094,0.951h0.607c1.288,0,2.338,1.107,2.338,2.469v7.408
		C16.05,17.892,15.001,19,13.71,19L13.71,19z M7.5,13.039V15.2c0,0.523,0.425,0.951,0.95,0.951c0.524,0,0.95-0.427,0.95-0.951
		v-2.161c0.578-0.326,0.967-0.933,0.967-1.639c0-1.049-0.859-1.9-1.917-1.9c-1.061,0-1.919,0.851-1.919,1.9
		C6.531,12.104,6.924,12.715,7.5,13.039L7.5,13.039z M11.3,4.75c0-1.574-1.277-2.85-2.85-2.85C6.876,1.9,5.6,3.176,5.6,4.75v1.9h5.7
		V4.75L11.3,4.75z"/>
	<rect y="20.042" fill="#323232" width="41" height="3"/>
	<rect x="19" y="27.042" fill="#323232" width="22" height="3"/>
	<g>
		<g>
			<path fill="#FFFFFF" stroke="#FFFFFF" stroke-linecap="round" stroke-linejoin="round" stroke-miterlimit="10" d="M35.105,52.238
				l-9.588-9.589l-9.59,9.589l-0.191-0.191l9.781-9.782l9.781,9.782L35.105,52.238z"/>
			<path fill="#FFFFFF" stroke="#FFFFFF" stroke-linecap="round" stroke-linejoin="round" stroke-miterlimit="10" d="M25.517,60.047
				l-0.096-0.096l-5.856-5.858l0.095-0.097l5.857-5.854l5.951,5.953l-0.096,0.096L25.517,60.047z M19.948,54.095l5.569,5.569
				l5.568-5.569l-5.568-5.569L19.948,54.095z"/>
		</g>
		<g>
			<path fill="#FFFFFF" d="M11.786,67.029v0.984h3.497v8.922h1.124v-8.922h3.498v-0.984H11.786z M25.469,66.834
				c-1.499,0-2.665,0.5-3.525,1.499c-0.818,0.942-1.221,2.165-1.221,3.664c0,1.483,0.402,2.706,1.221,3.649
				c0.861,0.984,2.026,1.484,3.511,1.484s2.665-0.5,3.524-1.484c0.805-0.944,1.221-2.151,1.221-3.649
				c0-1.513-0.416-2.733-1.221-3.679C28.119,67.32,26.939,66.834,25.469,66.834L25.469,66.834z M25.469,67.848
				c1.138,0,2.025,0.375,2.664,1.139c0.611,0.75,0.93,1.748,0.93,3.012c0,1.249-0.319,2.234-0.93,2.982
				c-0.639,0.75-1.541,1.139-2.678,1.139c-1.137,0-2.04-0.389-2.679-1.166c-0.61-0.75-0.916-1.734-0.916-2.956
				c0-1.235,0.305-2.222,0.916-2.97C23.429,68.236,24.331,67.848,25.469,67.848L25.469,67.848z M31.783,67.029v9.906h1.138v-4.051
				h2.9c2.276,0,3.428-0.986,3.428-2.941c0-1.943-1.138-2.914-3.414-2.914H31.783z M32.92,68.014h2.845
				c0.792,0,1.374,0.153,1.763,0.486c0.389,0.292,0.583,0.777,0.583,1.443s-0.194,1.152-0.569,1.471
				c-0.388,0.32-0.971,0.486-1.776,0.486H32.92V68.014z"/>
		</g>
	</g>
	<g>
		<g>
			<path fill="#999999" stroke="#999999" stroke-linecap="round" stroke-linejoin="round" stroke-miterlimit="10" d="M35.105,98.259
				l-9.588-9.59l-9.59,9.59l-0.191-0.19l9.781-9.783l9.781,9.783L35.105,98.259z"/>
			<path fill="#999999" stroke="#999999" stroke-linecap="round" stroke-linejoin="round" stroke-miterlimit="10" d="
				M25.517,106.068l-0.096-0.096l-5.856-5.861l0.095-0.096l5.857-5.854l5.951,5.953l-0.096,0.096L25.517,106.068z M19.948,100.115
				l5.569,5.568l5.568-5.568l-5.568-5.569L19.948,100.115z"/>
		</g>
		<g>
			<path fill="#999999" d="M11.786,113.051v0.984h3.497v8.922h1.124v-8.922h3.498v-0.984H11.786z M25.469,112.855
				c-1.499,0-2.665,0.5-3.525,1.498c-0.818,0.941-1.221,2.166-1.221,3.664c0,1.482,0.402,2.705,1.221,3.648
				c0.861,0.982,2.026,1.482,3.511,1.482s2.665-0.5,3.524-1.482c0.805-0.943,1.221-2.15,1.221-3.648c0-1.516-0.416-2.734-1.221-3.68
				C28.119,113.342,26.939,112.855,25.469,112.855L25.469,112.855z M25.469,113.869c1.138,0,2.025,0.373,2.664,1.137
				c0.611,0.75,0.93,1.75,0.93,3.012c0,1.248-0.319,2.234-0.93,2.984c-0.639,0.748-1.541,1.137-2.678,1.137
				c-1.137,0-2.04-0.389-2.679-1.166c-0.61-0.748-0.916-1.732-0.916-2.955c0-1.232,0.305-2.221,0.916-2.971
				C23.429,114.258,24.331,113.869,25.469,113.869L25.469,113.869z M31.783,113.051v9.906h1.138v-4.051h2.9
				c2.276,0,3.428-0.986,3.428-2.943c0-1.941-1.138-2.912-3.414-2.912H31.783z M32.92,114.035h2.845
				c0.792,0,1.374,0.152,1.763,0.486c0.389,0.291,0.583,0.773,0.583,1.439c0,0.668-0.194,1.152-0.569,1.473
				c-0.388,0.318-0.971,0.484-1.776,0.484H32.92V114.035z"/>
		</g>
		<polyline fill="#999999" points="25.517,94.922 20.172,100.115 25.438,105.109 30.797,100.115 25.578,94.922 		"/>
	</g>
	<path fill="#7F7F7F" d="M76.416,106.586c0.042,4.178,3.843,5.564,3.889,5.585c-0.033,0.097-0.609,1.981-2.007,3.931
		c-1.208,1.684-2.457,3.356-4.43,3.394c-1.943,0.032-2.563-1.099-4.783-1.099c-2.215,0-2.908,1.063-4.745,1.131
		c-1.901,0.07-3.353-1.815-4.57-3.492c-2.49-3.43-4.389-9.693-1.836-13.92c1.269-2.1,3.535-3.43,5.994-3.465
		c1.871-0.03,3.635,1.203,4.775,1.203c1.146,0,3.29-1.483,5.547-1.267c0.941,0.035,3.593,0.361,5.298,2.735
		C79.411,101.404,76.382,103.085,76.416,106.586z M68.477,98.271c-0.22-1.588,0.602-3.238,1.537-4.276
		c1.045-1.166,2.811-2.035,4.268-2.091c0.186,1.617-0.5,3.242-1.508,4.412C71.759,97.482,70.1,98.393,68.477,98.271z"/>
	<path fill="#7F7F7F" d="M57.408,54.284c-1.049,0-1.897,0.846-1.897,1.892v7.926c0,1.045,0.851,1.894,1.897,1.894
		c1.048,0,1.895-0.849,1.895-1.894v-7.926C59.303,55.13,58.457,54.284,57.408,54.284z M60.037,66.924
		c0,1.117,0.906,2.021,2.024,2.021h1.38v4.191c0,1.045,0.849,1.893,1.895,1.893c1.048,0,1.895-0.848,1.895-1.893v-4.191h2.562v4.191
		c0,1.045,0.853,1.893,1.896,1.893c1.049,0,1.896-0.848,1.896-1.893v-4.191h1.381c1.117,0,2.022-0.904,2.022-2.021V54.64H60.037
		V66.924L60.037,66.924z M72.702,47.163l1.321-2.408c0.072-0.126,0.023-0.287-0.104-0.357c-0.128-0.069-0.287-0.024-0.355,0.105
		l-1.34,2.432c-1.123-0.497-2.381-0.775-3.709-0.775c-1.33,0-2.589,0.278-3.709,0.773l-1.342-2.429
		c-0.066-0.129-0.229-0.174-0.354-0.105c-0.13,0.07-0.177,0.231-0.104,0.357l1.323,2.408c-2.599,1.341-4.359,3.892-4.359,6.818
		h17.085C77.059,51.052,75.3,48.503,72.702,47.163z M64.628,50.894c-0.397,0-0.716-0.321-0.716-0.717
		c0-0.395,0.318-0.715,0.716-0.715c0.396,0,0.714,0.321,0.714,0.715C65.339,50.573,65.02,50.894,64.628,50.894z M72.404,50.894
		c-0.396,0-0.717-0.321-0.717-0.717c0-0.395,0.321-0.715,0.717-0.715c0.395,0,0.717,0.321,0.717,0.715
		C73.116,50.573,72.796,50.894,72.404,50.894z M79.622,54.284c-1.049,0-1.897,0.846-1.897,1.892v7.926
		c0,1.045,0.852,1.894,1.897,1.894c1.049,0,1.896-0.849,1.896-1.894v-7.926C81.518,55.13,80.671,54.284,79.622,54.284z"/>
	<path fill="#FFFFFF" d="M120.904,106.586c0.043,4.178,3.844,5.564,3.89,5.585c-0.034,0.097-0.608,1.981-2.007,3.931
		c-1.208,1.684-2.457,3.356-4.43,3.394c-1.943,0.032-2.564-1.099-4.782-1.099c-2.216,0-2.908,1.063-4.745,1.131
		c-1.9,0.07-3.354-1.815-4.57-3.492c-2.488-3.43-4.389-9.693-1.837-13.92c1.271-2.1,3.535-3.43,5.994-3.465
		c1.871-0.03,3.636,1.203,4.774,1.203c1.146,0,3.291-1.483,5.547-1.267c0.943,0.035,3.594,0.361,5.299,2.735
		C123.9,101.404,120.871,103.085,120.904,106.586z M112.965,98.271c-0.22-1.588,0.604-3.238,1.538-4.276
		c1.044-1.166,2.81-2.035,4.267-2.091c0.187,1.617-0.5,3.242-1.506,4.412C116.248,97.482,114.589,98.393,112.965,98.271z"/>
	<path fill="#FFFFFF" d="M101.896,54.284c-1.049,0-1.896,0.846-1.896,1.892v7.926c0,1.045,0.852,1.894,1.896,1.894
		c1.049,0,1.896-0.849,1.896-1.894v-7.926C103.792,55.13,102.945,54.284,101.896,54.284z M104.525,66.924
		c0,1.117,0.906,2.021,2.024,2.021h1.38v4.191c0,1.045,0.85,1.893,1.896,1.893c1.048,0,1.896-0.848,1.896-1.893v-4.191h2.561v4.191
		c0,1.045,0.852,1.893,1.896,1.893c1.047,0,1.895-0.848,1.895-1.893v-4.191h1.381c1.117,0,2.023-0.904,2.023-2.021V54.64h-16.951
		v12.284H104.525z M117.191,47.163l1.322-2.408c0.071-0.126,0.022-0.287-0.104-0.357c-0.128-0.069-0.287-0.024-0.356,0.105
		l-1.339,2.432c-1.124-0.497-2.381-0.775-3.709-0.775c-1.332,0-2.59,0.278-3.711,0.773l-1.34-2.429
		c-0.067-0.129-0.229-0.174-0.354-0.105c-0.129,0.07-0.178,0.231-0.104,0.357l1.321,2.408c-2.599,1.341-4.358,3.892-4.358,6.818
		h17.087C121.547,51.052,119.789,48.503,117.191,47.163z M109.117,50.894c-0.396,0-0.717-0.321-0.717-0.717
		c0-0.395,0.318-0.715,0.717-0.715c0.395,0,0.714,0.321,0.714,0.715C109.829,50.573,109.509,50.894,109.117,50.894z M116.895,50.894
		c-0.396,0-0.717-0.321-0.717-0.717c0-0.395,0.321-0.715,0.717-0.715c0.395,0,0.717,0.321,0.717,0.715
		C117.605,50.573,117.285,50.894,116.895,50.894z M124.111,54.284c-1.049,0-1.897,0.846-1.897,1.892v7.926
		c0,1.045,0.851,1.894,1.897,1.894c1.049,0,1.895-0.849,1.895-1.894v-7.926C126.006,55.13,125.16,54.284,124.111,54.284z"/>
</g>
</svg>
