<?xml version="1.0" encoding="utf-8"?>
<!-- Generator: Adobe Illustrator 16.0.0, SVG Export Plug-In . SVG Version: 6.00 Build 0)  -->
<!DOCTYPE svg PUBLIC "-//W3C//DTD SVG 1.1//EN" "http://www.w3.org/Graphics/SVG/1.1/DTD/svg11.dtd">
<svg version="1.1" id="图层_1" xmlns="http://www.w3.org/2000/svg" xmlns:xlink="http://www.w3.org/1999/xlink" x="0px" y="0px"
	 width="18.564px" height="18.685px" viewBox="0 0 18.564 18.685" enable-background="new 0 0 18.564 18.685" xml:space="preserve">
<g>
	<g opacity="0.5">
		<path fill="#D6D6D6" d="M7.283,15.814l-1.657,2.871h-3.98L6.4,10.449h6.43c4.648,0,6.471,0.868,5.468,2.605
			c-0.487,0.844-1.579,1.52-3.276,2.029c-1.697,0.508-3.593,0.751-5.688,0.73H7.283z M9.596,11.81l-1.535,2.658h1.725
			c2.34,0,3.77-0.448,4.287-1.345c0.506-0.875-0.4-1.313-2.717-1.313H9.596z"/>
	</g>
	<g>
		<path fill="#D81E06" d="M3.98,12.171v6.514H0V0h6.429c4.648,0,6.972,1.971,6.972,5.911c0,1.913-0.702,3.447-2.105,4.602
			c-1.403,1.154-3.158,1.708-5.265,1.659H3.98z M3.98,3.088v6.031h1.725c2.34,0,3.51-1.017,3.51-3.052
			c0-1.986-1.158-2.979-3.474-2.979H3.98z"/>
	</g>
</g>
</svg>
