<?xml version="1.0" encoding="utf-8"?>
<!-- Generator: Adobe Illustrator 21.1.0, SVG Export Plug-In . SVG Version: 6.00 Build 0)  -->
<svg version="1.1" id="图层_1" xmlns="http://www.w3.org/2000/svg" xmlns:xlink="http://www.w3.org/1999/xlink" x="0px" y="0px"
	 viewBox="0 0 66.2 28.2" style="enable-background:new 0 0 66.2 28.2;" xml:space="preserve">
<style type="text/css">
	.st0{enable-background:new    ;}
	.st1{fill:#BDC3C7;}
</style>
<g class="st0">
	<path class="st1" d="M29.6,15.3c1-1.7,1.8-3.6,2.3-5.7H30V8.7h4.9v0.9h-2.1c-0.2,1-0.5,1.9-0.8,2.8h2.3v6.3H32v1h-0.9v-5.3
		c-0.3,0.5-0.5,1.1-0.8,1.6C30.1,15.8,29.9,15.6,29.6,15.3z M33.4,17.8v-4.5H32v4.5H33.4z M34,11.4c1.3-1.3,2.3-2.7,3-4.2l1,0.2
		c-0.2,0.4-0.4,0.8-0.7,1.2h4v0.9L40.2,11h2.5v8.1c0,1-0.4,1.5-1.3,1.5c-0.5,0-0.9,0-1.2,0c-0.1-0.3-0.1-0.6-0.2-1
		c0.5,0,0.9,0.1,1.1,0.1c0.4,0,0.6-0.2,0.6-0.7v-1.6h-2.3v3h-1v-3h-2.3c-0.2,1.5-0.7,2.6-1.5,3.5c-0.2-0.3-0.5-0.5-0.8-0.8
		c1-1.2,1.5-2.9,1.5-5.1v-3.6c-0.2,0.3-0.5,0.5-0.7,0.8C34.6,11.9,34.3,11.7,34,11.4z M40.2,9.5h-3.3c-0.3,0.5-0.7,1-1.1,1.4h3.3
		L40.2,9.5z M36.4,16.5h2.1v-1.9h-2.1C36.5,14.9,36.5,15.5,36.4,16.5z M36.5,13.8h2.1v-1.9h-2.1V13.8z M41.8,11.9h-2.3v1.9h2.3V11.9
		z M39.5,16.5h2.3v-1.9h-2.3V16.5z"/>
	<path class="st1" d="M43.7,19.8c1.5-1.3,2.4-3.2,2.6-5.7l1.1,0.2c-0.1,0.8-0.3,1.6-0.5,2.4c0.7,1.5,1.8,2.4,3.3,2.6v-6H44v-1h13v1
		h-5.6v2.2h4.8v1h-4.8v2.9c1.8,0,3.8,0,5.9,0c-0.2,0.4-0.3,0.7-0.4,1.1c-2.2,0-4.2,0-5.9,0c-2.1,0-3.6-0.8-4.5-2.5
		c-0.5,1.2-1.2,2.2-2.1,3.1C44.2,20.5,44,20.2,43.7,19.8z M44.5,9h5.8c-0.3-0.4-0.6-0.8-0.9-1.1l1-0.6c0.4,0.4,0.7,0.9,1.2,1.4L51,9
		h5.5v2.6h-1.1V10h-9.9v1.6h-1.1L44.5,9L44.5,9z"/>
</g>
<g>
	<g>
		<path class="st1" d="M17.2,21.8c-2.1,0-4-0.8-5.4-2.3s-2.3-3.4-2.3-5.4c0-2.1,0.8-4,2.3-5.4s3.4-2.3,5.4-2.3s4,0.8,5.4,2.3
			c3,3,3,7.9,0,10.9C21.2,21,19.3,21.8,17.2,21.8z M17.2,7.8c-1.7,0-3.3,0.7-4.5,1.8c-1.2,1.2-1.9,2.8-1.9,4.5
			c0,1.7,0.7,3.3,1.9,4.5c1.2,1.2,2.8,1.8,4.5,1.8c1.7,0,3.3-0.7,4.5-1.8c2.5-2.5,2.5-6.5,0-8.9C20.5,8.4,18.9,7.8,17.2,7.8z"/>
	</g>
	<path class="st1" d="M20.7,11.7c-0.1-0.1-0.3-0.2-0.5-0.2c-0.2,0-0.4,0.1-0.5,0.2L16.5,15l-1.8-1.8c-0.1-0.1-0.3-0.2-0.5-0.2
		c-0.2,0-0.3,0.1-0.5,0.2c-0.1,0.1-0.2,0.3-0.2,0.5c0,0.2,0.1,0.4,0.2,0.5l2.3,2.3c0.1,0.1,0.3,0.2,0.5,0.2s0.4-0.1,0.5-0.2l3.7-3.7
		c0.1-0.1,0.2-0.3,0.2-0.5C20.9,12,20.9,11.9,20.7,11.7z"/>
</g>
<g>
	<path class="st1" d="M62.6,1.8c1,0,1.8,0.8,1.8,1.8v21c0,1-0.8,1.8-1.8,1.8h-59c-1,0-1.8-0.8-1.8-1.8v-21c0-1,0.8-1.8,1.8-1.8
		L62.6,1.8 M62.6,0.6h-59c-1.7,0-3,1.3-3,3v21c0,1.7,1.3,3,3,3h59c1.7,0,3-1.3,3-3v-21C65.6,1.9,64.3,0.6,62.6,0.6L62.6,0.6z"/>
</g>
</svg>
