<?xml version="1.0" encoding="utf-8"?>
<!-- Generator: Adobe Illustrator 16.0.0, SVG Export Plug-In . SVG Version: 6.00 Build 0)  -->
<!DOCTYPE svg PUBLIC "-//W3C//DTD SVG 1.1//EN" "http://www.w3.org/Graphics/SVG/1.1/DTD/svg11.dtd">
<svg version="1.1" id="图层_1" xmlns="http://www.w3.org/2000/svg" xmlns:xlink="http://www.w3.org/1999/xlink" x="0px" y="0px"
	 width="14px" height="14px" viewBox="0 0 14 14" enable-background="new 0 0 14 14" xml:space="preserve">
<path fill="#FFFFFF" d="M13.783,12.742l-3.232-3.231c0.775-0.998,1.238-2.252,1.238-3.615C11.789,2.641,9.15,0,5.893,0
	C2.638,0,0,2.641,0,5.896c0,3.256,2.639,5.896,5.894,5.896c1.363,0,2.617-0.463,3.615-1.239l3.232,3.233
	C12.885,13.929,13.072,14,13.262,14s0.379-0.071,0.521-0.215C14.072,13.496,14.072,13.031,13.783,12.742z M1.474,5.895
	c0-2.438,1.982-4.42,4.419-4.42c2.439,0,4.421,1.982,4.421,4.42s-1.98,4.421-4.421,4.421C3.456,10.315,1.474,8.334,1.474,5.895z"/>
</svg>
