<?xml version="1.0" encoding="utf-8"?>
<!-- Generator: Adobe Illustrator 16.0.0, SVG Export Plug-In . SVG Version: 6.00 Build 0)  -->
<!DOCTYPE svg PUBLIC "-//W3C//DTD SVG 1.1//EN" "http://www.w3.org/Graphics/SVG/1.1/DTD/svg11.dtd">
<svg version="1.1" id="图层_1" xmlns="http://www.w3.org/2000/svg" xmlns:xlink="http://www.w3.org/1999/xlink" x="0px" y="0px"
	 width="39.5px" height="39.5px" viewBox="0 0 39.5 39.5" enable-background="new 0 0 39.5 39.5" xml:space="preserve">
<g>
	<g>
		<path fill="#BFBFBF" d="M19.75,39.5C8.86,39.5,0,30.641,0,19.75C0,8.859,8.86,0,19.75,0C30.641,0,39.5,8.859,39.5,19.75
			C39.5,30.641,30.641,39.5,19.75,39.5z M19.75,2C9.962,2,2,9.963,2,19.75S9.962,37.5,19.75,37.5c9.787,0,17.75-7.963,17.75-17.75
			S29.537,2,19.75,2z"/>
	</g>
	<path fill="#BFBFBF" d="M20.208,20.131l-0.033,9.38l9.339-4.732v-9.381L20.208,20.131z M19.752,9.989l-9.277,4.677l9.277,4.704
		l9.275-4.704L19.752,9.989z M9.987,24.778l9.21,4.649l0.031-9.353l-9.241-4.678V24.778z"/>
</g>
</svg>
