<?xml version="1.0" encoding="utf-8"?>
<!-- Generator: Adobe Illustrator 16.0.0, SVG Export Plug-In . SVG Version: 6.00 Build 0)  -->
<!DOCTYPE svg PUBLIC "-//W3C//DTD SVG 1.1//EN" "http://www.w3.org/Graphics/SVG/1.1/DTD/svg11.dtd">
<svg version="1.1" id="图层_1" xmlns="http://www.w3.org/2000/svg" xmlns:xlink="http://www.w3.org/1999/xlink" x="0px" y="0px"
	 width="66.199px" height="28.2px" viewBox="81.297 100.15 66.199 28.2" enable-background="new 81.297 100.15 66.199 28.2"
	 xml:space="preserve">
<g>
	<g>
		<g>
			<path fill-rule="evenodd" clip-rule="evenodd" fill="#6CCFF7" d="M84.626,100.65h59c1.658,0,3,1.342,3,3v21c0,1.656-1.342,3-3,3
				h-59c-1.657,0-3-1.344-3-3v-21C81.626,101.992,82.969,100.65,84.626,100.65z"/>
		</g>
	</g>
	<text transform="matrix(1 0 0 1 110.5293 118.3643)" fill="#FFFFFF" font-family="'MicrosoftYaHei'" font-size="14">时间</text>
	<g>
		<path fill="#FFFFFF" d="M98.232,121.842c-2.054,0-3.986-0.801-5.438-2.254s-2.253-3.385-2.253-5.438
			c0-2.055,0.8-3.986,2.253-5.439s3.384-2.252,5.438-2.252s3.986,0.799,5.438,2.252c3,3,3,7.879,0,10.877
			C102.218,121.041,100.287,121.842,98.232,121.842z M98.232,107.838c-1.686,0-3.271,0.656-4.463,1.85
			c-1.192,1.191-1.849,2.775-1.849,4.463c0,1.686,0.657,3.27,1.849,4.463c1.192,1.191,2.777,1.848,4.463,1.848
			c1.686,0,3.271-0.656,4.463-1.848c2.461-2.461,2.461-6.465,0-8.926C101.503,108.494,99.918,107.838,98.232,107.838z"/>
		<path fill="#FFFFFF" d="M98.241,115.141c-0.381,0-0.69-0.309-0.69-0.689v-3.842c0-0.381,0.309-0.689,0.69-0.689
			c0.381,0,0.69,0.309,0.69,0.689v3.842C98.931,114.832,98.622,115.141,98.241,115.141z"/>
		<path fill="#FFFFFF" d="M96.195,117.336c-0.177,0-0.353-0.066-0.488-0.201c-0.27-0.27-0.27-0.707,0-0.977l2.046-2.045
			c0.269-0.27,0.706-0.27,0.976,0s0.27,0.705,0,0.975l-2.046,2.047C96.548,117.27,96.371,117.336,96.195,117.336z"/>
	</g>
</g>
</svg>
