<?xml version="1.0" encoding="utf-8"?>
<!-- Generator: Adobe Illustrator 21.1.0, SVG Export Plug-In . SVG Version: 6.00 Build 0)  -->
<svg version="1.1" id="图层_1" xmlns="http://www.w3.org/2000/svg" xmlns:xlink="http://www.w3.org/1999/xlink" x="0px" y="0px"
	 viewBox="0 0 109 109" style="enable-background:new 0 0 109 109;" xml:space="preserve">
<style type="text/css">
	.st0{fill:#F1A963;}
</style>
<path class="st0" d="M71.5,106.3c-7.2,2.4-14.4,3.2-21.6,2.4c-7.2-0.8-14-2.4-20-5.6c-6.4-3.2-11.6-7.2-16.4-12.8
	C8.7,85.1,5.1,78.7,2.7,71.5c-2.4-7.2-3.2-14.4-2.4-21.6c0.8-7.2,2.4-14,5.6-20c3.2-6.4,7.2-11.6,12.8-16.4
	c5.6-4.8,11.6-8.4,18.8-10.8c7.2-2.4,14.4-3.2,21.6-2.4c7.2,0.8,14,2.4,20,5.6c6.4,3.2,11.6,7.6,16.4,12.8
	c4.8,5.2,8.4,11.6,10.8,18.8c2.4,7.2,3.2,14.4,2.4,21.6c-0.8,7.2-2.4,14-5.6,20c-3.2,6.4-7.2,11.6-12.8,16.4
	C85.1,100.7,78.7,103.9,71.5,106.3L71.5,106.3z M96.7,40.7c-2-5.6-4.8-10.8-8.8-15.2c-4-4.4-8.4-8-13.2-10.4
	c-5.2-2.4-10.4-4-16.4-4.4c-6-0.4-11.6,0-17.2,2s-10.8,4.8-15.2,8.8s-8,8.4-10.4,13.2c-2.4,5.2-4,10.4-4.8,16.4
	c-0.4,6,0,11.6,2,17.2s4.8,10.8,8.8,15.2c4,4.4,8.4,8,13.2,10.4c5.2,2.4,10.4,4,16.4,4.4c6,0.4,11.6,0,17.2-2s10.8-4.8,15.2-8.8
	c4.4-4,8-8.4,10.4-13.2c2.4-5.2,4-10.4,4.4-16.4C99.1,52.3,98.3,46.7,96.7,40.7L96.7,40.7z M67.1,92.3c-5.2,1.6-10.4,2.4-15.6,2
	c-5.2-0.4-10-2-14.8-4c-4.4-2.4-8.4-5.2-12-9.2c-3.6-4-6-8.4-7.6-13.6s-2.4-10.4-2-15.6c0.4-5.2,2-10,4-14.8c2.4-4.4,5.6-8.4,9.2-12
	c4-3.6,8.4-6,13.6-7.6s10.4-2.4,15.6-2s10,2,14.8,4c4.4,2.4,8.4,5.2,12,9.2c3.6,4,6,8.4,7.6,13.6c1.6,5.2,2.4,10.4,2,15.6
	c-0.4,5.2-2,10-4,14.8c-2.4,4.4-5.6,8.4-9.2,12C76.7,88.3,72.3,90.7,67.1,92.3z M54.7,47.5c-2,0-4,0.8-5.2,2c-1.6,1.6-2,3.2-2,5.2
	c0,2,0.8,4,2,5.2c1.6,1.6,3.2,2,5.2,2c2,0,4-0.8,5.2-2c1.6-1.6,2-3.2,2-5.2s-0.8-4-2-5.2C58.7,47.9,56.7,47.5,54.7,47.5z M26.7,35.5
	l17.2,10c0.4-0.4,0.8-0.4,1.2-0.8s0.8-0.4,1.2-0.8s0.8-0.8,1.2-0.8c0.8-0.4,1.6-0.8,2.8-1.2c0.4,0,0.8-0.4,1.6-0.4V21.9
	c-1.2,0-2.8,0.4-4.4,0.8s-2.8,0.8-4.4,1.2c-1.6,0.4-3.2,1.2-5.2,2.4c-2,1.2-4,2.4-5.2,3.6c-1.2,0.8-2.4,2-3.6,3.2
	C28.3,33.1,27.5,34.3,26.7,35.5z M23.9,68.7l17.2-10c0-0.4-0.4-0.8-0.4-1.6v-1.2v-1.6c0-1.2,0-2,0.4-3.2c0-0.4,0.4-0.8,0.4-1.6
	l-16.8-10c-0.8,1.2-1.2,2.4-1.6,4c-0.4,1.2-0.8,2.8-1.2,4.4c-0.4,2-0.4,3.6-0.4,5.6c0,2.4,0,4.4,0.4,6.4c0.4,2,0.8,3.2,1.2,4.4
	C22.7,66.7,23.1,67.9,23.9,68.7L23.9,68.7z M51.5,88.3v-20c-0.4,0-0.8-0.4-1.6-0.4l-2.4-1.2c-0.4-0.4-0.8-0.4-1.2-0.8
	c-0.4-0.4-0.8-0.8-1.2-0.8c-0.4-0.4-0.8-0.8-1.2-0.8l-16.8,9.6c0.8,1.2,1.6,2.4,2.4,3.2l3.2,3.2c1.2,1.2,2.8,2.4,4.8,3.2
	c2,1.2,4,2,5.6,2.8c1.6,0.8,3.2,1.2,4.4,1.6C49.1,87.9,50.3,88.3,51.5,88.3L51.5,88.3z M82.3,74.3l-17.2-10
	c-0.4,0.4-0.8,0.8-1.2,0.8c-0.4,0.4-0.8,0.4-1.2,0.8c-0.4,0.4-0.8,0.4-1.2,0.8c-0.4,0.4-0.8,0.4-1.6,0.8c-0.4,0-0.8,0.4-1.2,0.4
	c-0.4,0-0.8,0.4-1.2,0.4v19.6c1.2,0,2.8-0.4,4-0.8c1.2-0.4,2.8-0.8,4.4-1.2s3.2-1.2,5.2-2.4c2-1.2,4-2.4,5.2-3.6l3.2-3.2
	C81.1,76.3,81.9,75.5,82.3,74.3L82.3,74.3z M85.5,40.7l-17.2,10l0.4,1.6v4c0,0.4,0,0.8-0.4,1.6c0,0.4-0.4,0.8-0.4,1.6l16.8,9.6
	c0.4-1.2,1.2-2.4,1.6-4c0.4-1.2,0.8-2.8,1.2-4.4s0.4-3.6,0.4-5.6c0-2.4,0-4.4-0.4-6.4c-0.4-2-0.8-3.2-1.2-4.4
	C86.7,42.7,85.9,41.5,85.5,40.7L85.5,40.7z M57.9,21.1v20l1.6,0.4c0.4,0,0.8,0.4,1.2,0.4c0.4,0.4,0.8,0.4,1.2,0.8s0.8,0.8,1.2,0.8
	c0.4,0.4,0.8,0.4,1.2,0.8l1.2,1.2l16.8-10c-0.8-1.2-1.6-2.4-2.4-3.2l-3.2-3.2c-1.2-1.2-2.8-2.4-4.8-3.6c-2-1.2-4-2-5.6-2.8
	c-1.6-0.4-2.8-0.8-4.4-1.2C60.7,21.5,59.1,21.1,57.9,21.1L57.9,21.1z"/>
</svg>
