<?xml version="1.0" encoding="utf-8"?>
<!-- Generator: Adobe Illustrator 16.0.0, SVG Export Plug-In . SVG Version: 6.00 Build 0)  -->
<!DOCTYPE svg PUBLIC "-//W3C//DTD SVG 1.1//EN" "http://www.w3.org/Graphics/SVG/1.1/DTD/svg11.dtd">
<svg version="1.1" id="图层_1" xmlns="http://www.w3.org/2000/svg" xmlns:xlink="http://www.w3.org/1999/xlink" x="0px" y="0px"
	 width="198.33px" height="173.602px" viewBox="-2.249 0 198.33 173.602" enable-background="new -2.249 0 198.33 173.602"
	 xml:space="preserve">
<path fill="#B0B0B0" d="M112.615,173.313v-51.645H81.406v51.789c-0.975,0.035-50.379,0.152-55.238,0.145
	c-0.108-20.422-0.073-55.535,0.036-75.955c0-1.082,0.83-2.455,1.66-3.176C41.213,82.673,54.599,70.983,68.02,59.257
	c8.912-7.793,17.824-15.623,26.735-23.416c0.686-0.614,1.408-1.19,2.274-1.913c5.303,4.655,10.608,9.272,15.911,13.891
	c17.428,15.262,34.854,30.561,52.352,45.749c1.877,1.623,2.67,3.283,2.67,5.918c-0.107,19.41-0.071,54.74-0.035,74.115
	c-3.975,0-38.678,0-54.336,0C113.265,173.565,113.048,173.457,112.615,173.313L112.615,173.313L112.615,173.313L112.615,173.313z
	 M136.104,29.815V6.507c0-4.833,1.082-5.988,5.628-5.988h21.144c3.645,0,4.906,1.371,4.906,5.448
	c0,16.164,0.072,32.364-0.035,48.564c0,2.49,0.648,4.112,2.489,5.701c7.722,6.603,15.298,13.385,22.911,20.131
	c3.752,3.32,3.824,4.907,0.686,8.84c-1.912,2.381-3.752,4.835-5.701,7.216c-2.346,2.958-4.293,3.138-7.144,0.612
	c-27.024-23.956-54.085-47.95-81.108-71.906c-0.938-0.83-1.913-1.624-2.995-2.597c-6.097,5.376-12.123,10.715-18.148,16.055
	c-21.901,19.448-43.874,38.894-65.81,58.342c-2.959,2.633-4.835,2.489-7.325-0.614l-6.169-7.793
	c-2.381-3.03-2.273-5.015,0.577-7.576c12.231-10.896,24.535-21.72,36.802-32.581C53.155,33.892,69.535,19.424,85.88,4.92
	c7.433-6.566,14.649-6.566,22.081,0.036c8.803,7.83,17.606,15.623,26.41,23.416C134.805,28.77,135.237,29.094,136.104,29.815
	L136.104,29.815L136.104,29.815L136.104,29.815z"/>
<path fill="#B0B0B0" d="M170.883,64.152"/>
</svg>
