<?xml version="1.0" encoding="utf-8"?>
<!-- Generator: Adobe Illustrator 21.1.0, SVG Export Plug-In . SVG Version: 6.00 Build 0)  -->
<svg version="1.1" id="图层_1" xmlns="http://www.w3.org/2000/svg" xmlns:xlink="http://www.w3.org/1999/xlink" x="0px" y="0px"
	 viewBox="0 0 144.3 156" style="enable-background:new 0 0 144.3 156;" xml:space="preserve">
<style type="text/css">
	.st0{fill:#339eff;}
</style>
<g>
	<path class="st0" d="M125,156c10.5,0,19.3-8.1,19.3-18.3s-8.8-18.3-19.3-18.3H19.3c-4,0-7-2.8-7-6c0-3.2,3-6,7-6h21.9
		c3.4,0,6.2-2.8,6.2-6.2c-0.1-3.5-2.8-6.2-6.2-6.2H19.3C8.8,95.1,0,103.1,0,113.4s8.8,18.3,19.3,18.3H125c4,0,7,2.8,7,6
		c0,3.2-3,6-7,6H36.8c-3.3-0.1-6.1,2.7-6.2,6.2c0,3.4,2.8,6.2,6.2,6.2H125z M77.9,0C55.6-0.1,37.5,18,37.5,40.4
		c0,16.6,22.4,47.6,33.9,62.4c3.2,3.6,8.8,4,12.4,0.8l0.8-0.8c11.5-14.8,33.9-45.7,33.9-62.4C118.4,18,100.3,0,77.9,0z M77.9,63.1
		c-6,0-11.8-2.4-16-6.6s-6.6-10-6.6-16s2.4-11.8,6.6-16c4.3-4.2,10-6.6,16-6.6c12.3,0.2,22.2,10.3,22.2,22.7
		C100.2,52.9,90.3,62.9,77.9,63.1z"/>
</g>
</svg>
