<?xml version="1.0" encoding="utf-8"?>
<!-- Generator: Adobe Illustrator 21.1.0, SVG Export Plug-In . SVG Version: 6.00 Build 0)  -->
<svg version="1.1" id="图层_1" xmlns="http://www.w3.org/2000/svg" xmlns:xlink="http://www.w3.org/1999/xlink" x="0px" y="0px"
	 viewBox="0 0 156.9 176.8" style="enable-background:new 0 0 156.9 176.8;" xml:space="preserve">
<style type="text/css">
	.st0{fill:#6DCFF6;}
</style>
<path class="st0" d="M156.9,68.7h-29.4V49.1c16.3,0,29.4-13.2,29.4-29.5l0,0h-29.4c0-10.8-8.8-19.6-19.6-19.6l0,0H49
	C38.2,0,29.4,8.8,29.4,19.6l0,0H0C0,35.9,13.1,49,29.4,49.1l0,0v19.6H0C0,85,13.1,98.2,29.4,98.2l0,0v19.6H0
	c0,16.3,13.1,29.4,29.4,29.5l0,0v9.8c0,10.8,8.8,19.6,19.6,19.6h58.8c10.8,0,19.6-8.8,19.6-19.6l0,0v-9.8
	c16.3,0,29.4-13.2,29.4-29.5l0,0h-29.4V98.2C143.7,98.2,156.9,85,156.9,68.7C156.9,68.8,156.9,68.8,156.9,68.7z M78.4,157.2
	c-10.8,0-19.6-8.8-19.6-19.6l0,0c0-10.8,8.8-19.6,19.6-19.6S98,126.7,98,137.5C98.1,148.3,89.3,157.1,78.4,157.2L78.4,157.2z
	 M78.4,108c-10.8,0-19.6-8.8-19.6-19.6l0,0c0-10.9,8.8-19.6,19.6-19.6S98,77.5,98,88.4C98.1,99.2,89.3,108,78.4,108L78.4,108z
	 M78.4,58.9c-10.8,0-19.6-8.8-19.6-19.6l0,0c0-10.8,8.8-19.6,19.6-19.6S98,28.5,98,39.3C98.1,50.1,89.3,58.9,78.4,58.9
	C78.4,59,78.4,59,78.4,58.9L78.4,58.9z"/>
</svg>
