<?xml version="1.0" encoding="utf-8"?>
<!-- Generator: Adobe Illustrator 16.0.0, SVG Export Plug-In . SVG Version: 6.00 Build 0)  -->
<!DOCTYPE svg PUBLIC "-//W3C//DTD SVG 1.1//EN" "http://www.w3.org/Graphics/SVG/1.1/DTD/svg11.dtd">
<svg version="1.1" id="图层_1" xmlns="http://www.w3.org/2000/svg" xmlns:xlink="http://www.w3.org/1999/xlink" x="0px" y="0px"
	 width="13px" height="8.186px" viewBox="0 0 13 8.186" enable-background="new 0 0 13 8.186" xml:space="preserve">
<path fill="#FB8C96" d="M4.756,8.185c-0.228,0-0.425-0.103-0.472-0.325l-0.639-3.06L3.224,5.527C3.138,5.674,2.98,5.778,2.81,5.778
	H0.482C0.215,5.778,0,5.562,0,5.298C0,5.03,0.216,4.816,0.482,4.816h2.053l0.916-1.547c-0.055-0.261,0.111-0.517,0.373-0.57
	c0.261-0.054,0.516,0.113,0.57,0.373c0.024,0.118,0.004,0.24-0.058,0.344l0.388,1.871L5.605,0.39C5.648,0.161,5.849-0.003,6.08,0
	h0.002c0.234,0,0.434,0.162,0.472,0.394l0.943,5.496l0.303-0.769c0.072-0.184,0.25-0.307,0.447-0.307h4.271
	C12.785,4.814,13,5.03,13,5.295c0,0.268-0.217,0.481-0.482,0.481H8.572L7.758,7.837C7.66,8.084,7.381,8.205,7.135,8.108
	C6.978,8.045,6.865,7.907,6.836,7.74L6.068,3.249L5.23,7.847C5.189,8.075,4.993,8.185,4.761,8.185H4.756L4.756,8.185z"/>
</svg>
