<?xml version="1.0" encoding="utf-8"?>
<!-- Generator: Adobe Illustrator 16.0.0, SVG Export Plug-In . SVG Version: 6.00 Build 0)  -->
<!DOCTYPE svg PUBLIC "-//W3C//DTD SVG 1.1//EN" "http://www.w3.org/Graphics/SVG/1.1/DTD/svg11.dtd">
<svg version="1.1" id="图层_1" xmlns="http://www.w3.org/2000/svg" xmlns:xlink="http://www.w3.org/1999/xlink" x="0px" y="0px"
	 width="142.545px" height="113.041px" viewBox="30.192 43.479 142.545 113.041"
	 enable-background="new 30.192 43.479 142.545 113.041" xml:space="preserve">
<path fill="#515050" d="M143.849,77.668c-4.258-19.68-22.021-34.188-42.385-34.188S63.341,57.988,59.079,77.668
	c-7.451,0.554-14.379,3.709-19.713,9.076c-5.92,5.921-9.174,13.761-9.174,22.12c0,17.273,14.053,31.326,31.326,31.326h9.498
	c1.855,0,3.352-1.498,3.352-3.35c0-1.824-1.496-3.318-3.352-3.318h-9.498c-13.598,0-24.623-11.063-24.623-24.658
	c0-6.572,2.568-12.751,7.188-17.404c4.652-4.651,10.863-7.22,17.436-7.22h3.252l0.424-2.831c2.635-17.825,18.25-31.229,36.27-31.229
	c18.023,0,33.637,13.403,36.27,31.229l0.424,2.831h3.252c13.598,0,24.627,11.059,24.627,24.624c0,6.604-2.539,12.785-7.189,17.436
	c-4.652,4.652-10.834,7.223-17.438,7.223h-9.498c-1.822,0-3.318,1.494-3.318,3.318c0,1.852,1.496,3.35,3.318,3.35h9.498
	c8.393,0,16.266-3.254,22.152-9.174c5.922-5.92,9.176-13.793,9.176-22.152C172.737,92.438,159.985,78.904,143.849,77.668z
	 M123.323,108.019c-1.301,1.301-3.414,1.301-4.715,0l-13.791-13.792v58.976c0,1.82-1.498,3.318-3.354,3.318
	c-1.854,0-3.35-1.498-3.35-3.318V95.071l-13.762,13.793c-0.682,0.65-1.527,0.977-2.373,0.977s-1.725-0.326-2.375-0.977
	c-1.301-1.301-1.301-3.416,0-4.719l22.283-22.281l21.436,21.438C124.626,104.603,124.626,106.718,123.323,108.019z"/>
</svg>
