<?xml version="1.0" encoding="utf-8"?>
<!-- Generator: Adobe Illustrator 16.0.0, SVG Export Plug-In . SVG Version: 6.00 Build 0)  -->
<!DOCTYPE svg PUBLIC "-//W3C//DTD SVG 1.1//EN" "http://www.w3.org/Graphics/SVG/1.1/DTD/svg11.dtd">
<svg version="1.1" id="图层_1" xmlns="http://www.w3.org/2000/svg" xmlns:xlink="http://www.w3.org/1999/xlink" x="0px" y="0px"
	 width="115.001px" height="112.357px" viewBox="42.5 42.155 115.001 112.357" enable-background="new 42.5 42.155 115.001 112.357"
	 xml:space="preserve">
<path fill="#515050" d="M142.586,145.146H53.079l-0.905-0.86c-7.198-6.883-10.404-13.717-9.535-20.308
	c1.209-9.107,9.83-13.913,10.196-14.113l0.7-0.382h88.122c6.518-4.314,9.74-8.609,9.594-12.778
	c-0.196-5.483-6.407-10.333-9.496-12.191H65.209l-0.769-0.492c-9.269-5.919-13.712-12.139-13.189-18.481
	c0.792-9.713,13.116-15.104,13.639-15.332l1.232-0.251h70.221V56.2H66.802c-2.92,1.401-8.963,5.223-9.331,9.861
	c-0.293,3.662,3.016,7.875,9.572,12.21h76.33l0.691,0.373c0.533,0.287,13.024,7.126,13.427,17.814
	c0.249,6.697-4.201,13.012-13.227,18.774l-0.769,0.494H55.219c-1.588,1.059-5.776,4.281-6.395,9.113
	c-0.546,4.255,1.732,8.985,6.78,14.068h86.981V145.146L142.586,145.146z M96.551,60.882c0,3.015-2.443,5.46-5.462,5.46
	c-3.017,0-5.461-2.445-5.461-5.46V47.617c0-3.017,2.444-5.462,5.461-5.462c3.018,0,5.462,2.444,5.462,5.462V60.882L96.551,60.882z
	 M124.64,120.961c0,3.018-2.442,5.463-5.462,5.463s-5.46-2.445-5.46-5.463v-13.265c0-3.017,2.44-5.46,5.46-5.46
	s5.462,2.443,5.462,5.46V120.961z M91.09,149.049c0,3.019-2.445,5.463-5.462,5.463c-3.019,0-5.464-2.444-5.464-5.463v-13.262
	c0-3.019,2.444-5.463,5.464-5.463c3.017,0,5.462,2.444,5.462,5.463V149.049z"/>
</svg>
