<?xml version="1.0" encoding="utf-8"?>
<!-- Generator: Adobe Illustrator 21.1.0, SVG Export Plug-In . SVG Version: 6.00 Build 0)  -->
<svg version="1.1" id="图层_1" xmlns="http://www.w3.org/2000/svg" xmlns:xlink="http://www.w3.org/1999/xlink" x="0px" y="0px"
	 viewBox="0 0 200 200" style="enable-background:new 0 0 200 200;" xml:space="preserve">
<style type="text/css">
	.st0{fill:#AEAEAE;}
</style>
<g>
	<path class="st0" d="M75.7,63.5l60.2,34.9l-60.2,35.2V63.5z M75.3,49.3c-1.4-0.8-2.9-1-4.3-0.6c-0.4-0.1-0.9-0.2-1.3-0.2
		c-3.3,0-6,2.7-6,6v88c0,3.3,2.7,6,6,6c0.5,0,1-0.1,1.5-0.2c1.5,0.4,3.1,0.2,4.5-0.6l72.5-42.4c2.2-1.3,2.8-2.4,2.9-6.1
		c0.1-3.6,0-5.9-2.6-7.5L75.3,49.3z"/>
	<path class="st0" d="M103,187.6h-6.1C23.2,187.2,12,163.4,12,98.1C12,34.7,26,12.3,96.9,12.3h6.1c71,0,84.9,22.4,84.9,85.8
		C187.9,163.4,176.8,187.2,103,187.6 M96.9,0C17.9,0,0,27.5,0,98.1C0,168.7,13.8,199.5,97.3,200h5.3c83.5-0.5,97.3-31.3,97.3-101.9
		C200,27.5,182,0,103,0H96.9z"/>
</g>
</svg>
