<?xml version="1.0" standalone="no"?><!DOCTYPE svg PUBLIC "-//W3C//DTD SVG 1.1//EN" "http://www.w3.org/Graphics/SVG/1.1/DTD/svg11.dtd"><svg t="1504229759799" class="icon" style="" viewBox="0 0 1024 1024" version="1.1" xmlns="http://www.w3.org/2000/svg" p-id="2691" xmlns:xlink="http://www.w3.org/1999/xlink" width="16" height="16"><defs><style type="text/css"></style></defs><path d="M853.52 898.036 173.227 898.036c-39.545 0-71.61-32.058-71.61-71.607L101.617 146.173c0-39.541 32.064-71.607 71.61-71.607L853.52 74.566c39.546 0 71.607 32.067 71.607 71.607l0 680.256C925.127 865.979 893.057 898.036 853.52 898.036L853.52 898.036zM212.377 114.5l-35.41 0c-19.557 0-35.416 15.855-35.416 35.411l0 97.178 70.825 0L212.377 114.5 212.377 114.5zM212.377 291.548l-70.826 0 0 168.004 70.825 0L212.377 291.548 212.377 291.548zM212.377 504.011l-70.826 0 0 177.04 70.825 0L212.377 504.011 212.377 504.011zM212.377 725.518l-70.826 0 0 97.174c0 19.566 15.859 35.42 35.416 35.42l35.41 0L212.377 716.47 212.377 725.518 212.377 725.518zM771.647 504.011 771.647 114.5 255.092 114.5l0 743.61 516.556 0L771.648 716.47 771.648 504.011 771.647 504.011zM885.192 149.911c0-19.555-15.853-35.41-35.41-35.41l-35.419 0 0 132.588 70.829 0L885.192 149.911 885.192 149.911zM885.192 291.548l-70.82 0 0 168.004 70.82 0L885.192 291.548 885.192 291.548zM885.192 504.011l-70.82 0 0 177.04 70.82 0L885.192 504.011 885.192 504.011zM885.192 725.518l-70.82 0 0 132.594 35.41 0c19.558 0 35.41-15.854 35.41-35.42L885.192 716.47 885.192 725.518 885.192 725.518zM402.039 640.257c-6.92 6.914-18.107 6.914-25.005 0-3.423-3.429-5.117-7.917-5.151-12.404l-0.154 0.087L371.729 345.217l0.45 0c-0.243-4.826 1.313-9.717 4.998-13.407 6.915-6.927 18.102-6.927 25 0l247.824 141.059c3.323 3.332 5.189 7.83 5.189 12.532 0 4.711-1.866 9.217-5.189 12.54L402.039 640.257 402.039 640.257zM415.157 391.898l0 190.159L581.46 486.61 415.157 391.898z" p-id="2692" fill="#ffffff"></path></svg>