<?xml version="1.0" encoding="utf-8"?>
<!-- Generator: Adobe Illustrator 21.1.0, SVG Export Plug-In . SVG Version: 6.00 Build 0)  -->
<svg version="1.1" id="图层_1" xmlns="http://www.w3.org/2000/svg" xmlns:xlink="http://www.w3.org/1999/xlink" x="0px" y="0px"
	 viewBox="0 0 27 18.7" style="enable-background:new 0 0 27 18.7;" xml:space="preserve">
<style type="text/css">
	.st0{fill:#616060;}
</style>
<path class="st0" d="M26.5,1.1h-1c-0.3,0-0.5,0.2-0.5,0.5V1.5L19.7,7V2.2C19.7,1,18.8,0,17.7,0H2.1C0.9,0,0,1,0,2.2v14.3
	c0,1.2,0.9,2.2,2.1,2.2h15.6c1.1,0,2.1-1,2.1-2.2v-4.8l5.2,5.5V17c0,0.3,0.2,0.5,0.5,0.5h1c0.3,0,0.5-0.2,0.5-0.5V1.7
	C27,1.3,26.8,1.1,26.5,1.1L26.5,1.1z M18.1,16.9H1.7V1.8h16.4 M25.5,15.3L20,9.3l5.5-5.8V15.3z"/>
</svg>
