<?xml version="1.0" encoding="utf-8"?>
<!-- Generator: Adobe Illustrator 16.0.0, SVG Export Plug-In . SVG Version: 6.00 Build 0)  -->
<!DOCTYPE svg PUBLIC "-//W3C//DTD SVG 1.1//EN" "http://www.w3.org/Graphics/SVG/1.1/DTD/svg11.dtd">
<svg version="1.1" id="图层_1" xmlns="http://www.w3.org/2000/svg" xmlns:xlink="http://www.w3.org/1999/xlink" x="0px" y="0px"
	 width="113.032px" height="113.032px" viewBox="43.906 44.282 113.032 113.032"
	 enable-background="new 43.906 44.282 113.032 113.032" xml:space="preserve">
<path fill="#515050" d="M100.42,84.65c-8.915,0-16.147,7.229-16.147,16.148c0,8.914,7.232,16.145,16.147,16.145
	c8.918,0,16.148-7.23,16.148-16.145C116.568,91.879,109.338,84.65,100.42,84.65z M100.42,108.869c-4.448,0-8.072-3.621-8.072-8.07
	c0-4.453,3.624-8.074,8.072-8.074c4.451,0,8.074,3.621,8.074,8.074C108.494,105.248,104.871,108.869,100.42,108.869z M148.66,96.761
	c-1.945-23.523-20.678-42.259-44.199-44.202v-8.277h-8.078v8.277c-23.521,1.943-42.251,20.678-44.199,44.202h-8.278v8.073h8.278
	c1.948,23.521,20.679,42.258,44.199,44.203v8.275h8.078v-8.275c23.521-1.945,42.254-20.682,44.199-44.203h8.277v-8.073H148.66z
	 M140.584,104.834c-1.898,19.041-17.084,34.227-36.123,36.127v-7.869h-8.078v7.869c-19.04-1.9-34.226-17.086-36.124-36.127h7.868
	V96.76h-7.868c1.898-19.039,17.084-34.227,36.124-36.127v7.87h8.078v-7.87c19.039,1.9,34.225,17.089,36.123,36.127h-7.867v8.074
	H140.584z"/>
</svg>
