<?xml version="1.0" encoding="utf-8"?>
<!-- Generator: Adobe Illustrator 16.0.0, SVG Export Plug-In . SVG Version: 6.00 Build 0)  -->
<!DOCTYPE svg PUBLIC "-//W3C//DTD SVG 1.1//EN" "http://www.w3.org/Graphics/SVG/1.1/DTD/svg11.dtd">
<svg version="1.1" id="图层_1" xmlns="http://www.w3.org/2000/svg" xmlns:xlink="http://www.w3.org/1999/xlink" x="0px" y="0px"
	 width="22px" height="21.99px" viewBox="103.649 151.479 22 21.99" enable-background="new 103.649 151.479 22 21.99"
	 xml:space="preserve">
<g>
	<path fill="#FFFFFF" d="M125.297,171.546l-2.655-2.45c1.612-1.928,2.492-4.363,2.486-6.876c0-5.933-4.806-10.741-10.741-10.741
		c-5.932,0-10.737,4.809-10.737,10.741c0,5.932,4.806,10.741,10.737,10.741c2.568,0,4.928-0.902,6.777-2.407
		c0.037,0.05,0.077,0.098,0.123,0.141l2.734,2.521c0.187,0.168,0.412,0.254,0.638,0.254c0.282,0,0.563-0.137,0.757-0.391
		C125.771,172.616,125.712,171.929,125.297,171.546L125.297,171.546z M111.623,167.728l0.036-10.509l9.083,5.285L111.623,167.728z"
		/>
</g>
</svg>
