<?xml version="1.0" encoding="utf-8"?>
<!-- Generator: Adobe Illustrator 21.1.0, SVG Export Plug-In . SVG Version: 6.00 Build 0)  -->
<svg version="1.1" id="图层_1" xmlns="http://www.w3.org/2000/svg" xmlns:xlink="http://www.w3.org/1999/xlink" x="0px" y="0px"
	 viewBox="0 0 51 48" style="enable-background:new 0 0 51 48;" xml:space="preserve">
<style type="text/css">
	.st0{fill:#D2D2D2;}
</style>
<g>
	<path class="st0" d="M16.4,27.6c-0.7-0.4-1.5-0.3-2,0.4L2.6,45.8c-0.4,0.7-0.3,1.5,0.4,2C3.2,47.9,3.5,48,3.8,48
		c0.5,0,0.9-0.2,1.2-0.6l11.8-17.8C17.2,28.9,17,28,16.4,27.6L16.4,27.6z M7.6,24.8c0-1.6-1-2.9-2.4-3.5V1.4C5.2,0.6,4.6,0,3.8,0
		S2.4,0.6,2.4,1.4v19.8C1,21.8,0,23.2,0,24.8c0,2.1,1.7,3.8,3.8,3.8S7.6,26.9,7.6,24.8z M2.9,24.8c0-0.5,0.4-0.9,0.9-0.9
		s0.9,0.4,0.9,0.9c0,0.5-0.4,0.9-0.9,0.9S2.9,25.3,2.9,24.8z M33.2,27.6c-0.7-0.4-1.5-0.3-2,0.4L19.4,45.8c-0.4,0.7-0.3,1.5,0.4,2
		c0.2,0.2,0.5,0.2,0.8,0.2c0.5,0,0.9-0.2,1.2-0.6l11.8-17.8C34,28.9,33.8,28,33.2,27.6z M24.3,24.8c0-1.6-1-2.9-2.4-3.5V1.4
		C22,0.6,21.3,0,20.6,0c-0.8,0-1.4,0.6-1.4,1.4v19.8c-1.4,0.6-2.4,1.9-2.4,3.5c0,2.1,1.7,3.8,3.8,3.8S24.3,26.9,24.3,24.8z
		 M19.6,24.8c0-0.5,0.4-0.9,0.9-0.9c0.5,0,0.9,0.4,0.9,0.9c0,0.5-0.4,0.9-0.9,0.9C20,25.7,19.6,25.3,19.6,24.8z M50.4,27.6
		c-0.7-0.4-1.5-0.3-2,0.4L36.6,45.8c-0.4,0.7-0.3,1.5,0.4,2c0.2,0.2,0.5,0.2,0.8,0.2c0.5,0,0.9-0.2,1.2-0.6l11.8-17.8
		C51.2,28.9,51,28,50.4,27.6L50.4,27.6z M41.5,24.8c0-1.6-1-2.9-2.4-3.5V1.4c0-0.8-0.6-1.4-1.4-1.4s-1.4,0.6-1.4,1.4v19.8
		C35,21.8,34,23.2,34,24.8c0,2.1,1.7,3.8,3.8,3.8S41.5,26.9,41.5,24.8z M36.8,24.8c0-0.5,0.4-0.9,0.9-0.9c0.5,0,0.9,0.4,0.9,0.9
		c0,0.5-0.4,0.9-0.9,0.9C37.3,25.7,36.8,25.3,36.8,24.8z"/>
</g>
</svg>
