<?xml version="1.0" encoding="utf-8"?>
<!-- Generator: Adobe Illustrator 21.1.0, SVG Export Plug-In . SVG Version: 6.00 Build 0)  -->
<svg version="1.1" id="图层_1" xmlns="http://www.w3.org/2000/svg" xmlns:xlink="http://www.w3.org/1999/xlink" x="0px" y="0px"
	 viewBox="0 0 56 56" style="enable-background:new 0 0 56 56;" xml:space="preserve">
<style type="text/css">
	.st0{fill:#D2D2D2;}
</style>
<path class="st0" d="M28,0c-1.3,0-2.4,1.1-2.4,2.4v4.5c0,1.3,1.1,2.4,2.4,2.4c1.3,0,2.4-1.1,2.4-2.4v-2C42.1,6.1,51.2,16,51.2,28
	c0,6.8-2.9,12.9-7.5,17.1c0.3-0.3,0.5-0.7,0.5-1.1c0-0.9-0.7-1.6-1.6-1.6h-8.3c0-0.1,0-0.3,0-0.4v-5.6h6.5c0.7,0,1.3-0.6,1.3-1.3
	v-6.9c0.7,0,1.3-0.6,1.3-1.3v-5.2c0-0.7-0.6-1.3-1.3-1.3v-2.1c0-0.7-0.6-1.3-1.3-1.3h-3.9c-0.7,0-1.3,0.6-1.3,1.3
	c0,0.7,0.6,1.3,1.3,1.3h2.6v0.8c-0.7,0-1.3,0.6-1.3,1.3v5.2c0,0.7,0.6,1.3,1.3,1.3v5.6h-5.2V16.2c0-1.8-1.4-3.2-3.2-3.2H18.1
	c-1.8,0-3.2,1.4-3.2,3.2V42c0,0.1,0,0.3,0,0.4h-1.4c-0.9,0-1.6,0.7-1.6,1.6c0,0.4,0.2,0.8,0.4,1.1C7.7,40.8,4.8,34.8,4.8,28
	c0-6.4,2.6-12.2,6.8-16.4l0,0c0.4-0.4,0.7-1,0.7-1.7c0-1.3-1.1-2.4-2.4-2.4c-0.7,0-1.3,0.3-1.8,0.8C3.1,13.4,0,20.3,0,28
	c0,15.5,12.5,28,28,28s28-12.5,28-28S43.5,0,28,0z M19.4,29.6c0-1.1,0.9-1.9,1.9-1.9h6.5c1.1,0,1.9,0.9,1.9,1.9
	c0,1.1-0.9,1.9-1.9,1.9h-6.5C20.3,31.5,19.4,30.7,19.4,29.6z M18.1,18.1c0-1.1,0.9-1.9,1.9-1.9h9c1.1,0,1.9,0.9,1.9,1.9v4.5
	c0,1.1-0.9,1.9-1.9,1.9h-9c-1.1,0-1.9-0.9-1.9-1.9V18.1z M12.5,45.3c0.3,0.2,0.6,0.3,1,0.3h29c0.4,0,0.7-0.1,1-0.4
	c-4.1,3.7-9.6,6-15.5,6C22,51.2,16.6,49,12.5,45.3z"/>
</svg>
