<?xml version="1.0" encoding="utf-8"?>
<!-- Generator: Adobe Illustrator 21.1.0, SVG Export Plug-In . SVG Version: 6.00 Build 0)  -->
<svg version="1.1" id="图层_1" xmlns="http://www.w3.org/2000/svg" xmlns:xlink="http://www.w3.org/1999/xlink" x="0px" y="0px"
	 viewBox="0 0 52.9 53" style="enable-background:new 0 0 52.9 53;" xml:space="preserve">
<style type="text/css">
	.st0{fill:#F58379;}
</style>
<g>
	<path class="st0" d="M7.8,19.8c2.7-7.7,10.1-13.2,18.7-13.2c3.8,0,7.3,1.1,10.3,2.9l-3.7,6.4l19.8,10C52.6,11.6,40.9,0,26.5,0
		C14.9,0,5.2,7.4,1.5,17.6C2.4,22.5,6.8,21.4,7.8,19.8z"/>
	<path class="st0" d="M45,33.6c-2.9,7.5-10.1,12.7-18.5,12.7c-3.9,0-7.5-1.1-10.5-3l3.2-5.2L0,27.2C0.4,41.5,12.1,53,26.5,53
		c11.6,0,21.4-7.5,25-17.8C52.6,32,47.3,27.7,45,33.6z"/>
</g>
</svg>
