<?xml version="1.0" encoding="utf-8"?>
<!-- Generator: Adobe Illustrator 21.1.0, SVG Export Plug-In . SVG Version: 6.00 Build 0)  -->
<svg version="1.1" id="图层_1" xmlns="http://www.w3.org/2000/svg" xmlns:xlink="http://www.w3.org/1999/xlink" x="0px" y="0px"
	 viewBox="0 0 63 50.5" style="enable-background:new 0 0 63 50.5;" xml:space="preserve">
<style type="text/css">
	.st0{fill:#D2D2D2;}
</style>
<g>
	<g>
		<path class="st0" d="M27,17.1H6.6c-0.6,0-0.6-0.7-0.6-0.7s3.6-11.2,4-12c0.4-0.8,1.4-0.7,1.4-0.7h29.9c0,0,1-0.1,1.4,0.7
			c0.2,0.4,0.9,2.6,1.7,5c1.5,0.1,3,0.3,4.4,0.7c-1.6-4-3.1-7.8-3.5-8.6C44.5-0.3,41.8,0,41.8,0H11c0,0-2.7-0.3-3.6,1.5
			C6.4,3.3,0,20.1,0,20.1v24.3c0,0,0.9,2.7,4.4,2.7c3.5,0,4.3-2.7,4.3-2.7v-3.7h15.8c-1.5-3-2.4-6.3-2.4-9.9
			C22.1,25.6,24,20.8,27,17.1z M10.6,32.3c-2.5,0-4.5-2-4.5-4.6c0-2.5,2-4.6,4.5-4.6c2.5,0,4.5,2,4.5,4.6
			C15.1,30.3,13.1,32.3,10.6,32.3z M43.4,11.1c-10.8,0-19.6,8.8-19.6,19.7c0,10.9,8.8,19.7,19.6,19.7c10.8,0,19.6-8.8,19.6-19.7
			C63,19.9,54.2,11.1,43.4,11.1z M43.4,47.9c-9.4,0-17-7.7-17-17.1c0-9.4,7.6-17.1,17-17.1s17,7.7,17,17.1
			C60.4,40.2,52.8,47.9,43.4,47.9z M46.5,18C46.5,18,46.5,18,46.5,18c-0.2,0-0.4,0-0.6,0h-9.5v26.3H40v-12h5.9c0.2,0,0.4,0,0.6,0
			c3.9,0,7.1-3.2,7.1-7.1C53.6,21.2,50.4,18,46.5,18z M45.9,28.6H40v-6.9h5.9c1.8,0.2,3.2,1.6,3.3,3.4
			C49.1,26.9,47.7,28.4,45.9,28.6z"/>
	</g>
</g>
</svg>
