<?xml version="1.0" encoding="utf-8"?>
<!-- Generator: Adobe Illustrator 21.1.0, SVG Export Plug-In . SVG Version: 6.00 Build 0)  -->
<svg version="1.1" id="图层_1" xmlns="http://www.w3.org/2000/svg" xmlns:xlink="http://www.w3.org/1999/xlink" x="0px" y="0px"
	 viewBox="0 0 200 189.4" style="enable-background:new 0 0 200 189.4;" xml:space="preserve">
<style type="text/css">
	.st0{fill:#5A5A5A;}
</style>
<path class="st0" d="M168.1,63.3h-31.3V25c0-13.8-11.2-25-25-25H88.2c-13.8,0-25,11.2-25,25v38.3H31.8L0,189.4h200L168.1,63.3z
	 M80.6,31.2c0-8.3,6.7-15,15-15h8.7c8.3,0,15,6.7,15,15v32.1H80.6V31.2z M126.4,113.4h-20.2v37.1c0,4.5,0.9,7.7,2.7,9.6
	c1.8,1.9,4.8,2.9,9,2.9c3.2,0,6-0.8,8.4-2.3v10c-3.1,1.4-7.4,2.1-12.7,2.1c-14.5,0-21.8-6.7-21.8-20.2v-39.2H73.6v-9.9h18.3V83.3
	h14.3v20.1h20.2L126.4,113.4L126.4,113.4z"/>
</svg>
