<?xml version="1.0" encoding="utf-8"?>
<!-- Generator: Adobe Illustrator 21.1.0, SVG Export Plug-In . SVG Version: 6.00 Build 0)  -->
<svg version="1.1" id="图层_1" xmlns="http://www.w3.org/2000/svg" xmlns:xlink="http://www.w3.org/1999/xlink" x="0px" y="0px"
	 viewBox="0 0 20 20" style="enable-background:new 0 0 20 20;" xml:space="preserve">
<style type="text/css">
	.st0{fill:#6DCFF6;}
</style>
<path class="st0" d="M10,0C4.5,0,0,4.5,0,10s4.5,10,10,10s10-4.5,10-10S15.5,0,10,0z M13.8,6.1c0.7,0,1.3,0.6,1.3,1.3
	c0,0.7-0.6,1.3-1.3,1.3s-1.3-0.5-1.3-1.3C12.5,6.7,13.1,6.1,13.8,6.1z M6.2,6.1c0.7,0,1.3,0.6,1.3,1.3c0,0.7-0.6,1.3-1.3,1.3
	S4.9,8.2,4.9,7.4C4.9,6.7,5.5,6.1,6.2,6.1z M15.3,11.8c-0.1,0.6-0.5,1.1-0.9,1.6c-0.9,1.4-2.6,2.3-4.4,2.3c-1.7,0-3.5-0.9-4.5-2.3
	c-0.4-0.5-0.6-1.1-0.9-1.6C4.5,11.4,4.7,11,5,10.9c0.4-0.1,0.6,0.1,0.8,0.4c0.1,0.5,0.4,0.9,0.6,1.3c1,1.3,2.2,1.9,3.6,1.9
	s2.7-0.7,3.5-1.8c0.2-0.4,0.5-0.9,0.6-1.3c0.2-0.4,0.5-0.5,0.8-0.4C15.3,11.1,15.4,11.5,15.3,11.8z"/>
</svg>
