<?xml version="1.0" encoding="utf-8"?>
<!-- Generator: Adobe Illustrator 21.1.0, SVG Export Plug-In . SVG Version: 6.00 Build 0)  -->
<svg version="1.1" id="图层_1" xmlns="http://www.w3.org/2000/svg" xmlns:xlink="http://www.w3.org/1999/xlink" x="0px" y="0px"
	 viewBox="0 0 20 19.5" style="enable-background:new 0 0 20 19.5;" xml:space="preserve">
<style type="text/css">
	.st0{fill:#F7C94B;}
</style>
<g>
	<path class="st0" d="M15,19.5c-0.3,0-0.6-0.1-0.9-0.2L10,17l-4.2,2.2c-0.9,0.5-2,0.1-2.5-0.9c-0.2-0.3-0.2-0.7-0.2-1.1l0.8-4.7
		L0.5,9.2c-0.7-0.8-0.7-2,0-2.7c0.3-0.3,0.6-0.4,1-0.5l4.7-0.7L8.4,1c0.5-0.9,1.6-1.3,2.5-0.8c0.3,0.2,0.6,0.5,0.8,0.8l2.1,4.3
		L18.4,6c1,0.2,1.7,1.2,1.5,2.2c-0.1,0.4-0.2,0.7-0.5,1l-3.4,3.4l0.8,4.7c0.2,1-0.5,2-1.6,2.2C15.2,19.5,15.2,19.5,15,19.5L15,19.5z
		"/>
</g>
</svg>
