<?xml version="1.0" encoding="utf-8"?>
<!-- Generator: Adobe Illustrator 21.1.0, SVG Export Plug-In . SVG Version: 6.00 Build 0)  -->
<svg version="1.1" id="图层_1" xmlns="http://www.w3.org/2000/svg" xmlns:xlink="http://www.w3.org/1999/xlink" x="0px" y="0px"
	 viewBox="0 0 20 20" style="enable-background:new 0 0 20 20;" xml:space="preserve">
<style type="text/css">
	.st0{fill:#6DCFF6;}
</style>
<g>
	<g>
		<path class="st0" d="M10,0C4.5,0,0,4.5,0,10c0,5.5,4.5,10,10,10c5.5,0,10-4.5,10-10C20,4.5,15.5,0,10,0z M17.9,13.3
			c-1.8,4.3-6.8,6.4-11.2,4.5C2.4,16,0.3,11,2.2,6.7C4,2.3,9,0.3,13.4,2.1c3.8,1.6,5.9,5.6,5,9.6C18.3,12.3,18.1,12.8,17.9,13.3z
			 M10.7,9.7V4.3c0-0.4-0.3-0.7-0.7-0.7c-0.4,0-0.7,0.3-0.7,0.7v6l4.5,4.5c0.3,0.3,0.7,0.3,1,0s0.3-0.7,0-1L10.7,9.7z"/>
	</g>
</g>
</svg>
