<?xml version="1.0" encoding="utf-8"?>
<!-- Generator: Adobe Illustrator 21.1.0, SVG Export Plug-In . SVG Version: 6.00 Build 0)  -->
<svg version="1.1" id="图层_1" xmlns="http://www.w3.org/2000/svg" xmlns:xlink="http://www.w3.org/1999/xlink" x="0px" y="0px"
	 viewBox="0 0 20 20" style="enable-background:new 0 0 20 20;" xml:space="preserve">
<style type="text/css">
	.st0{fill:#A6A6A6;}
	.st1{fill:#E3E3E3;}
</style>
<g>
	<path class="st0" d="M10,0c5.5,0,10,4.5,10,10s-4.5,10-10,10S0,15.5,0,10S4.5,0,10,0z"/>
	<ellipse class="st1" cx="10" cy="8.8" rx="3.8" ry="3.8"/>
	<path class="st1" d="M10,20c2.7,0,5.1-1,6.8-2.7c-0.1-0.5-0.2-0.9-0.4-1.4c-0.5-1.3-1.6-2.2-3-2.5h-0.1h-0.2
		c-0.2,0-0.2,0.1-0.4,0.1c0,0-0.2,0.2-0.5,0.2c-0.8,0.3-1.5,0.5-2.3,0.5s-1.6-0.2-2.3-0.5c-0.2-0.1-0.5-0.2-0.5-0.2
		c-0.2-0.1-0.2-0.1-0.4-0.1H6.5c-1.4,0.2-2.5,1.2-3,2.4c-0.2,0.5-0.3,0.9-0.4,1.5C4.9,19,7.4,20,10,20z"/>
</g>
</svg>
