<?xml version="1.0" encoding="utf-8"?>
<!-- Generator: Adobe Illustrator 21.1.0, SVG Export Plug-In . SVG Version: 6.00 Build 0)  -->
<svg version="1.1" id="图层_1" xmlns="http://www.w3.org/2000/svg" xmlns:xlink="http://www.w3.org/1999/xlink" x="0px" y="0px"
	 viewBox="0 0 40 40" style="enable-background:new 0 0 40 40;" xml:space="preserve">
<style type="text/css">
	.st0{fill-rule:evenodd;clip-rule:evenodd;fill:#6DCFF6;}
	.st1{fill:#D1EFFF;}
</style>
<g>
	<circle class="st0" cx="20" cy="20" r="20"/>
	<g>
		<path class="st1" d="M8.8,36.6C12,38.7,15.9,40,20,40c4.1,0,7.9-1.2,11.1-3.4c-0.1-5.3-3.9-9.8-8.9-10.8c2.3-0.9,3.9-3.1,3.9-5.7
			c0-3.4-2.8-6.2-6.2-6.2c-3.4,0-6.2,2.8-6.2,6.2c0,2.6,1.6,4.8,3.9,5.7C12.7,26.9,8.9,31.3,8.8,36.6z"/>
		<path class="st1" d="M15.8,13.5c-1.1-0.9-2.5-1.4-3.9-1.4c-3.4,0-6.2,2.8-6.2,6.2c0,2.6,1.6,4.8,3.9,5.7c-3.1,0.6-5.8,2.6-7.3,5.3
			c1.3,2.5,3.1,4.6,5.2,6.3c0.4-4.6,3.2-8.5,7.3-10.3c-1.5-1.4-2.4-3.3-2.4-5.4C12.4,17.2,13.8,14.9,15.8,13.5L15.8,13.5
			C15.8,13.6,15.8,13.6,15.8,13.5C15.8,13.5,15.8,13.5,15.8,13.5z"/>
		<path class="st1" d="M30.4,24c2.3-0.9,3.9-3.1,3.9-5.7c0-3.4-2.8-6.2-6.2-6.2c-1.4,0-2.8,0.5-3.9,1.4L24,13.7
			c2.1,1.4,3.3,3.7,3.3,6.2c0,2.2-0.9,4.1-2.4,5.4c4.1,1.8,7,5.8,7.3,10.5c2.3-1.8,4.1-4,5.5-6.5C36.1,26.6,33.5,24.7,30.4,24z"/>
	</g>
</g>
</svg>
