<?xml version="1.0" encoding="utf-8"?>
<!-- Generator: Adobe Illustrator 16.0.0, SVG Export Plug-In . SVG Version: 6.00 Build 0)  -->
<!DOCTYPE svg PUBLIC "-//W3C//DTD SVG 1.1//EN" "http://www.w3.org/Graphics/SVG/1.1/DTD/svg11.dtd">
<svg version="1.1" id="图层_1" xmlns="http://www.w3.org/2000/svg" xmlns:xlink="http://www.w3.org/1999/xlink" x="0px" y="0px"
	 width="13.987px" height="11.996px" viewBox="0 0 13.987 11.996" enable-background="new 0 0 13.987 11.996" xml:space="preserve">
<g>
	<linearGradient id="SVGID_1_" gradientUnits="userSpaceOnUse" x1="6.9932" y1="10.9922" x2="6.9932" y2="1.0039">
		<stop  offset="0" style="stop-color:#98DBF0"/>
		<stop  offset="0.2365" style="stop-color:#A2DDF4"/>
		<stop  offset="0.5008" style="stop-color:#ADE0F7"/>
		<stop  offset="0.7763" style="stop-color:#C5E7FC"/>
		<stop  offset="1" style="stop-color:#CCEAFD"/>
	</linearGradient>
	<polygon fill="url(#SVGID_1_)" points="7.998,3.011 7.002,1.003 1.003,1.003 1.003,3.011 1.003,10.992 12.983,10.992 12.983,3.011 
			"/>
	<linearGradient id="SVGID_2_" gradientUnits="userSpaceOnUse" x1="6.9937" y1="11.9961" x2="6.9937" y2="4.882813e-004">
		<stop  offset="0" style="stop-color:#84CDDC"/>
		<stop  offset="0.3441" style="stop-color:#92D5E4"/>
		<stop  offset="0.828" style="stop-color:#A9E0EF"/>
		<stop  offset="1" style="stop-color:#B4E8F2"/>
	</linearGradient>
	<path fill="url(#SVGID_2_)" d="M7.002,1.003l0.995,2.007h4.985v7.981H1.003V3.011V1.003H7.002 M7.625,0H7.002H1.003H0v1.003v2.007
		v7.981v1.004h1.003h11.979h1.004v-1.004V3.011V2.007h-1.004H8.621l-0.719-1.45L7.625,0L7.625,0z"/>
</g>
</svg>
