<?xml version="1.0" encoding="utf-8"?>
<!-- Generator: Adobe Illustrator 16.0.0, SVG Export Plug-In . SVG Version: 6.00 Build 0)  -->
<!DOCTYPE svg PUBLIC "-//W3C//DTD SVG 1.1//EN" "http://www.w3.org/Graphics/SVG/1.1/DTD/svg11.dtd">
<svg version="1.1" id="图层_1" xmlns="http://www.w3.org/2000/svg" xmlns:xlink="http://www.w3.org/1999/xlink" x="0px" y="0px"
	 width="28.498px" height="28.499px" viewBox="0 0 28.498 28.499" enable-background="new 0 0 28.498 28.499" xml:space="preserve">
<g>
	<path fill="#646464" d="M24.699,0h-20.9C1.701,0,0,1.703,0,3.8v20.898c0,2.1,1.701,3.801,3.799,3.801h20.9
		c2.1,0,3.799-1.701,3.799-3.801V3.8C28.498,1.703,26.799,0,24.699,0L24.699,0z M26.876,24.698c0,1.051-1.129,2.174-2.177,2.174
		h-20.9c-1.049,0-2.176-1.123-2.176-2.174V3.8c0-1.049,1.127-2.178,2.176-2.178h20.9c1.048,0,2.177,1.129,2.177,2.178V24.698
		L26.876,24.698z"/>
	<g>
		<path fill="#646464" d="M23.196,5.335c0.224,0.224,0.224,0.588,0,0.812l-5.825,5.789c-0.225,0.225-0.588,0.225-0.813,0
			c-0.225-0.224-0.225-0.588,0-0.812l5.824-5.789C22.607,5.111,22.972,5.111,23.196,5.335z"/>
		<path fill="#646464" d="M22.318,6.232l-3.551-0.01c-0.232,0.005-0.447-0.155-0.482-0.429V5.499c0.006-0.232,0.198-0.425,0.43-0.43
			l4.121,0.018c0.004,0,0.007-0.002,0.012-0.002l0.21-0.005c0.115-0.003,0.221,0.043,0.294,0.118
			c0.075,0.074,0.104,0.178,0.101,0.295L23.43,5.704c0,0.003,0.015,0.007,0.015,0.011l-0.012,4.147
			c-0.005,0.232-0.197,0.371-0.43,0.376h-0.294c-0.232,0.005-0.417-0.197-0.411-0.428L22.318,6.232z"/>
		<path fill="#646464" d="M5.301,23.163c-0.224-0.225-0.224-0.588,0-0.813l5.843-5.789c0.225-0.223,0.589-0.223,0.813,0
			c0.225,0.227,0.225,0.59,0,0.814l-5.824,5.787C5.908,23.388,5.525,23.388,5.301,23.163z"/>
		<path fill="#646464" d="M6.197,22.267l3.551,0.01c0.231-0.004,0.447,0.156,0.481,0.43v0.295c-0.006,0.232-0.197,0.424-0.43,0.43
			l-4.138-0.02c-0.006,0-0.009,0.004-0.013,0.004l-0.21,0.004c-0.116,0.004-0.221-0.043-0.294-0.117
			c-0.076-0.074-0.104-0.18-0.101-0.295l0.022-0.211c0-0.004-0.016-0.008-0.016-0.012l0.013-4.146
			c0.004-0.232,0.197-0.371,0.429-0.377h0.313c0.232-0.006,0.416,0.197,0.411,0.43L6.197,22.267z"/>
		<path fill="#646464" d="M23.196,23.163c0.224-0.225,0.224-0.588,0-0.813l-5.825-5.789c-0.225-0.223-0.588-0.223-0.813,0
			c-0.225,0.227-0.225,0.59,0,0.814l5.824,5.787C22.607,23.388,22.972,23.388,23.196,23.163z"/>
		<path fill="#646464" d="M22.318,22.267l-3.551,0.01c-0.232-0.004-0.447,0.156-0.482,0.43v0.295c0.006,0.232,0.198,0.424,0.43,0.43
			l4.121-0.02c0.004,0.002,0.007,0.004,0.012,0.004l0.21,0.004c0.115,0.004,0.221-0.043,0.294-0.117
			c0.075-0.074,0.104-0.18,0.101-0.295l-0.022-0.211c0-0.004,0.015-0.008,0.015-0.012l-0.012-4.146
			c-0.005-0.232-0.197-0.371-0.43-0.377h-0.294c-0.232-0.006-0.417,0.197-0.411,0.43L22.318,22.267z"/>
		<path fill="#646464" d="M5.301,5.335c-0.224,0.224-0.224,0.588,0,0.812l5.843,5.789c0.225,0.225,0.589,0.225,0.813,0
			c0.225-0.224,0.225-0.588,0-0.812L6.132,5.335C5.908,5.111,5.525,5.111,5.301,5.335z"/>
		<path fill="#646464" d="M6.197,6.232l3.551-0.01c0.231,0.005,0.447-0.155,0.481-0.429V5.499c-0.006-0.232-0.197-0.425-0.43-0.43
			L5.662,5.086c-0.006,0-0.009-0.002-0.013-0.002l-0.21-0.004C5.323,5.077,5.219,5.123,5.145,5.198
			c-0.075,0.074-0.103,0.178-0.1,0.295l0.022,0.211c0,0.003-0.016,0.007-0.016,0.011l0.013,4.147
			c0.004,0.232,0.197,0.371,0.429,0.376h0.313c0.232,0.005,0.416-0.197,0.411-0.428L6.197,6.232z"/>
	</g>
</g>
</svg>
