<?xml version="1.0" encoding="utf-8"?>
<!-- Generator: Adobe Illustrator 16.0.0, SVG Export Plug-In . SVG Version: 6.00 Build 0)  -->
<!DOCTYPE svg PUBLIC "-//W3C//DTD SVG 1.1//EN" "http://www.w3.org/Graphics/SVG/1.1/DTD/svg11.dtd">
<svg version="1.1" id="图层_1" xmlns="http://www.w3.org/2000/svg" xmlns:xlink="http://www.w3.org/1999/xlink" x="0px" y="0px"
	 width="200px" height="200px" viewBox="0 0 200 200" enable-background="new 0 0 200 200" xml:space="preserve">
<image display="none" overflow="visible" width="324" height="157" xlink:href="DFD3574.jpg"  transform="matrix(0.9999 0 0 0.9999 1.979 10.7974)">
</image>
<g>
	<g>
		<linearGradient id="SVGID_1_" gradientUnits="userSpaceOnUse" x1="99.9214" y1="18.1484" x2="99.9214" y2="48.1445">
			<stop  offset="0" style="stop-color:#FDFDFD"/>
			<stop  offset="0.2808" style="stop-color:#FAFAFA"/>
			<stop  offset="1" style="stop-color:#E8E8E8"/>
		</linearGradient>
		<path fill-rule="evenodd" clip-rule="evenodd" fill="url(#SVGID_1_)" d="M99.921,18.148c8.284,0,14.999,6.715,14.999,14.998
			s-6.715,14.998-14.999,14.998c-8.283,0-14.998-6.715-14.998-14.998S91.638,18.148,99.921,18.148z"/>
		<linearGradient id="SVGID_2_" gradientUnits="userSpaceOnUse" x1="99.9219" y1="49.1445" x2="99.9219" y2="17.1484">
			<stop  offset="0" style="stop-color:#000000;stop-opacity:0.25"/>
			<stop  offset="1" style="stop-color:#ECECEC;stop-opacity:0.5"/>
		</linearGradient>
		<path fill="url(#SVGID_2_)" d="M99.921,18.148c8.284,0,14.999,6.715,14.999,14.998s-6.715,14.998-14.999,14.998
			c-8.283,0-14.998-6.715-14.998-14.998S91.638,18.148,99.921,18.148 M99.921,17.148c-8.821,0-15.998,7.177-15.998,15.998
			S91.1,49.145,99.921,49.145c8.822,0,15.999-7.177,15.999-15.998S108.743,17.148,99.921,17.148L99.921,17.148z"/>
	</g>
	<linearGradient id="SVGID_3_" gradientUnits="userSpaceOnUse" x1="99.2788" y1="30.0122" x2="101.4967" y2="38.2896">
		<stop  offset="0" style="stop-color:#404040"/>
		<stop  offset="0.2611" style="stop-color:#616161"/>
		<stop  offset="1" style="stop-color:#616161"/>
	</linearGradient>
	<path fill-rule="evenodd" clip-rule="evenodd" fill="url(#SVGID_3_)" d="M94.731,31.231l9.187-2.169l-2.207,9.17l-6.998-6.997
		L94.731,31.231z"/>
</g>
<g>
	<g>
		
			<linearGradient id="SVGID_4_" gradientUnits="userSpaceOnUse" x1="238.9287" y1="18.1484" x2="238.9287" y2="48.1445" gradientTransform="matrix(-1 0 0 1 263.0078 0)">
			<stop  offset="0" style="stop-color:#FDFDFD"/>
			<stop  offset="0.2808" style="stop-color:#FAFAFA"/>
			<stop  offset="1" style="stop-color:#E8E8E8"/>
		</linearGradient>
		<path fill-rule="evenodd" clip-rule="evenodd" fill="url(#SVGID_4_)" d="M39.077,33.147c0,8.283-6.715,14.998-14.998,14.998
			S9.081,41.43,9.081,33.147s6.715-14.999,14.998-14.999S39.077,24.864,39.077,33.147z"/>
		<linearGradient id="SVGID_5_" gradientUnits="userSpaceOnUse" x1="24.0791" y1="49.1445" x2="24.0791" y2="17.1484">
			<stop  offset="0" style="stop-color:#000000;stop-opacity:0.25"/>
			<stop  offset="1" style="stop-color:#ECECEC;stop-opacity:0.5"/>
		</linearGradient>
		<path fill="url(#SVGID_5_)" d="M24.079,18.148c8.283,0,14.998,6.715,14.998,14.999s-6.715,14.998-14.998,14.998
			S9.081,41.43,9.081,33.147S15.796,18.148,24.079,18.148 M24.079,17.148c-8.821,0-15.998,7.177-15.998,15.999
			c0,8.821,7.177,15.998,15.998,15.998s15.998-7.176,15.998-15.998C40.077,24.325,32.9,17.148,24.079,17.148L24.079,17.148z"/>
	</g>
	
		<linearGradient id="SVGID_6_" gradientUnits="userSpaceOnUse" x1="238.2852" y1="30.0122" x2="240.5033" y2="38.2905" gradientTransform="matrix(-1 0 0 1 263.0078 0)">
		<stop  offset="0" style="stop-color:#404040"/>
		<stop  offset="0.2611" style="stop-color:#616161"/>
		<stop  offset="1" style="stop-color:#616161"/>
	</linearGradient>
	<path fill-rule="evenodd" clip-rule="evenodd" fill="url(#SVGID_6_)" d="M29.288,31.236l-6.999,6.997l-2.207-9.17l9.187,2.169
		L29.288,31.236z"/>
</g>
<g>
	<g>
		
			<linearGradient id="SVGID_7_" gradientUnits="userSpaceOnUse" x1="238.9297" y1="87.5361" x2="238.9297" y2="57.5391" gradientTransform="matrix(-1 0 0 -1 263.0078 181.5391)">
			<stop  offset="0" style="stop-color:#FDFDFD"/>
			<stop  offset="0.2808" style="stop-color:#FAFAFA"/>
			<stop  offset="1" style="stop-color:#E8E8E8"/>
		</linearGradient>
		<path fill-rule="evenodd" clip-rule="evenodd" fill="url(#SVGID_7_)" d="M24.079,124c-8.283,0-14.998-6.715-14.998-14.998
			c0-8.285,6.715-14.999,14.998-14.999s14.998,6.714,14.998,14.999C39.077,117.285,32.362,124,24.079,124z"/>
		<linearGradient id="SVGID_8_" gradientUnits="userSpaceOnUse" x1="24.0786" y1="125" x2="24.0786" y2="93.0034">
			<stop  offset="0" style="stop-color:#000000;stop-opacity:0.25"/>
			<stop  offset="1" style="stop-color:#ECECEC;stop-opacity:0.5"/>
		</linearGradient>
		<path fill="url(#SVGID_8_)" d="M24.079,94.003c8.283,0,14.998,6.714,14.998,14.999c0,8.283-6.715,14.998-14.998,14.998
			s-14.998-6.715-14.998-14.998C9.081,100.717,15.795,94.003,24.079,94.003 M24.079,93.003c-8.821,0-15.998,7.177-15.998,15.999
			c0,8.821,7.177,15.998,15.998,15.998s15.998-7.177,15.998-15.998C40.077,100.18,32.9,93.003,24.079,93.003L24.079,93.003z"/>
	</g>
	
		<linearGradient id="SVGID_9_" gradientUnits="userSpaceOnUse" x1="237.2197" y1="74.127" x2="242.9097" y2="68.437" gradientTransform="matrix(-1 0 0 -1 263.0078 181.5391)">
		<stop  offset="0" style="stop-color:#404040"/>
		<stop  offset="0.2611" style="stop-color:#616161"/>
		<stop  offset="1" style="stop-color:#616161"/>
	</linearGradient>
	<path fill-rule="evenodd" clip-rule="evenodd" fill="url(#SVGID_9_)" d="M29.268,110.918l-9.187,2.168l2.207-9.17l6.999,6.996
		L29.268,110.918z"/>
</g>
<g>
	<g>
		
			<linearGradient id="SVGID_10_" gradientUnits="userSpaceOnUse" x1="141.6074" y1="87.5361" x2="141.6074" y2="57.5391" gradientTransform="matrix(1 0 0 -1 -41.6855 181.5391)">
			<stop  offset="0" style="stop-color:#FDFDFD"/>
			<stop  offset="0.2808" style="stop-color:#FAFAFA"/>
			<stop  offset="1" style="stop-color:#E8E8E8"/>
		</linearGradient>
		<path fill-rule="evenodd" clip-rule="evenodd" fill="url(#SVGID_10_)" d="M84.923,109.002c0-8.285,6.715-14.999,14.998-14.999
			c8.284,0,14.999,6.714,14.999,14.999c0,8.283-6.715,14.998-14.999,14.998C91.638,124,84.923,117.285,84.923,109.002z"/>
		<linearGradient id="SVGID_11_" gradientUnits="userSpaceOnUse" x1="99.9219" y1="125" x2="99.9219" y2="93.0034">
			<stop  offset="0" style="stop-color:#000000;stop-opacity:0.25"/>
			<stop  offset="1" style="stop-color:#ECECEC;stop-opacity:0.5"/>
		</linearGradient>
		<path fill="url(#SVGID_11_)" d="M99.921,94.003c8.284,0,14.999,6.714,14.999,14.999c0,8.283-6.715,14.998-14.999,14.998
			c-8.283,0-14.998-6.715-14.998-14.998C84.923,100.717,91.638,94.003,99.921,94.003 M99.921,93.003
			c-8.821,0-15.998,7.177-15.998,15.999c0,8.821,7.177,15.998,15.998,15.998c8.822,0,15.999-7.177,15.999-15.998
			C115.92,100.18,108.743,93.003,99.921,93.003L99.921,93.003z"/>
	</g>
	
		<linearGradient id="SVGID_12_" gradientUnits="userSpaceOnUse" x1="139.8965" y1="74.125" x2="145.5862" y2="68.4353" gradientTransform="matrix(1 0 0 -1 -41.6855 181.5391)">
		<stop  offset="0" style="stop-color:#404040"/>
		<stop  offset="0.2611" style="stop-color:#616161"/>
		<stop  offset="1" style="stop-color:#616161"/>
	</linearGradient>
	<path fill-rule="evenodd" clip-rule="evenodd" fill="url(#SVGID_12_)" d="M94.712,110.912l6.999-6.996l2.207,9.17l-9.186-2.168
		L94.712,110.912z"/>
</g>
<g>
	<linearGradient id="SVGID_13_" gradientUnits="userSpaceOnUse" x1="24.0786" y1="57.0117" x2="24.0786" y2="85.0117">
		<stop  offset="0" style="stop-color:#FDFDFD"/>
		<stop  offset="0.2808" style="stop-color:#FAFAFA"/>
		<stop  offset="1" style="stop-color:#E8E8E8"/>
	</linearGradient>
	<linearGradient id="SVGID_14_" gradientUnits="userSpaceOnUse" x1="24.0786" y1="85.5117" x2="24.0786" y2="56.5117">
		<stop  offset="0" style="stop-color:#000000;stop-opacity:0.25"/>
		<stop  offset="1" style="stop-color:#ECECEC;stop-opacity:0.5"/>
	</linearGradient>
	<path fill-rule="evenodd" clip-rule="evenodd" fill="url(#SVGID_13_)" stroke="url(#SVGID_14_)" stroke-miterlimit="10" d="
		M38.079,60.012v22c0,1.657-1.344,3-3,3h-22c-1.657,0-3-1.343-3-3v-22c0-1.657,1.343-3,3-3h22
		C36.735,57.012,38.079,58.354,38.079,60.012z"/>
	<linearGradient id="SVGID_15_" gradientUnits="userSpaceOnUse" x1="22.6172" y1="68.4268" x2="26.8936" y2="75.8336">
		<stop  offset="0" style="stop-color:#404040"/>
		<stop  offset="0.2611" style="stop-color:#616161"/>
		<stop  offset="1" style="stop-color:#616161"/>
	</linearGradient>
	<path fill-rule="evenodd" clip-rule="evenodd" fill="url(#SVGID_15_)" d="M26.674,75.94l-8.012-4.951l8.029-4.915v9.876
		L26.674,75.94z"/>
</g>
<g>
	
		<linearGradient id="SVGID_16_" gradientUnits="userSpaceOnUse" x1="101.0869" y1="57.0117" x2="101.0869" y2="85.0117" gradientTransform="matrix(-1 0 0 1 201.0078 0)">
		<stop  offset="0" style="stop-color:#FDFDFD"/>
		<stop  offset="0.2808" style="stop-color:#FAFAFA"/>
		<stop  offset="1" style="stop-color:#E8E8E8"/>
	</linearGradient>
	
		<linearGradient id="SVGID_17_" gradientUnits="userSpaceOnUse" x1="101.0859" y1="85.5117" x2="101.0859" y2="56.5117" gradientTransform="matrix(-1 0 0 1 201.0078 0)">
		<stop  offset="0" style="stop-color:#000000;stop-opacity:0.25"/>
		<stop  offset="1" style="stop-color:#ECECEC;stop-opacity:0.5"/>
	</linearGradient>
	<path fill-rule="evenodd" clip-rule="evenodd" fill="url(#SVGID_16_)" stroke="url(#SVGID_17_)" stroke-miterlimit="10" d="
		M88.921,57.012h22c1.656,0,3,1.343,3,3v22c0,1.657-1.344,3-3,3h-22c-1.656,0-3-1.343-3-3v-22
		C85.921,58.354,87.265,57.012,88.921,57.012z"/>
	
		<linearGradient id="SVGID_18_" gradientUnits="userSpaceOnUse" x1="99.6245" y1="68.4272" x2="103.9009" y2="75.8341" gradientTransform="matrix(-1 0 0 1 201.0078 0)">
		<stop  offset="0" style="stop-color:#404040"/>
		<stop  offset="0.2611" style="stop-color:#616161"/>
		<stop  offset="1" style="stop-color:#616161"/>
	</linearGradient>
	<path fill-rule="evenodd" clip-rule="evenodd" fill="url(#SVGID_18_)" d="M97.308,75.95v-9.876l8.03,4.915l-8.012,4.951
		L97.308,75.95z"/>
</g>
<linearGradient id="SVGID_19_" gradientUnits="userSpaceOnUse" x1="62.8931" y1="56.0137" x2="62.8931" y2="86.0098">
	<stop  offset="0" style="stop-color:#FDFDFD"/>
	<stop  offset="0.2808" style="stop-color:#FAFAFA"/>
	<stop  offset="1" style="stop-color:#E8E8E8"/>
</linearGradient>
<linearGradient id="SVGID_20_" gradientUnits="userSpaceOnUse" x1="62.8931" y1="86.5098" x2="62.8931" y2="55.5137">
	<stop  offset="0" style="stop-color:#000000;stop-opacity:0.25"/>
	<stop  offset="1" style="stop-color:#ECECEC;stop-opacity:0.5"/>
</linearGradient>
<path fill-rule="evenodd" clip-rule="evenodd" fill="url(#SVGID_19_)" stroke="url(#SVGID_20_)" stroke-miterlimit="10" d="
	M62.894,56.014c8.283,0,14.998,6.715,14.998,14.998S71.177,86.01,62.894,86.01s-14.999-6.715-14.999-14.998
	S54.61,56.014,62.894,56.014z"/>
<g>
	
		<linearGradient id="SVGID_21_" gradientUnits="userSpaceOnUse" x1="103.2158" y1="39.9458" x2="75.2153" y2="39.9458" gradientTransform="matrix(4.489659e-011 -1 1 4.489659e-011 22.9473 198.2168)">
		<stop  offset="0" style="stop-color:#FDFDFD"/>
		<stop  offset="0.2808" style="stop-color:#FAFAFA"/>
		<stop  offset="1" style="stop-color:#E8E8E8"/>
	</linearGradient>
	
		<linearGradient id="SVGID_22_" gradientUnits="userSpaceOnUse" x1="74.7148" y1="39.9458" x2="103.7153" y2="39.9458" gradientTransform="matrix(4.489659e-011 -1 1 4.489659e-011 22.9473 198.2168)">
		<stop  offset="0" style="stop-color:#000000;stop-opacity:0.25"/>
		<stop  offset="1" style="stop-color:#ECECEC;stop-opacity:0.5"/>
	</linearGradient>
	<path fill-rule="evenodd" clip-rule="evenodd" fill="url(#SVGID_21_)" stroke="url(#SVGID_22_)" stroke-miterlimit="10" d="
		M51.893,95.001h22c1.657,0,3,1.344,3,3v22c0,1.656-1.343,3-3,3h-22c-1.657,0-3-1.344-3-3v-22
		C48.893,96.345,50.236,95.001,51.893,95.001z"/>
	
		<linearGradient id="SVGID_23_" gradientUnits="userSpaceOnUse" x1="91.8281" y1="39.9463" x2="83.7988" y2="39.9463" gradientTransform="matrix(4.489659e-011 -1 1 4.489659e-011 22.9473 198.2168)">
		<stop  offset="0" style="stop-color:#404040"/>
		<stop  offset="0.2611" style="stop-color:#616161"/>
		<stop  offset="1" style="stop-color:#616161"/>
	</linearGradient>
	<path fill-rule="evenodd" clip-rule="evenodd" fill="url(#SVGID_23_)" d="M67.822,106.406l-4.951,8.012l-4.915-8.029h9.876
		L67.822,106.406z"/>
</g>
<g>
	
		<linearGradient id="SVGID_24_" gradientUnits="userSpaceOnUse" x1="21.9375" y1="39.9458" x2="49.9375" y2="39.9458" gradientTransform="matrix(-8.979319e-011 1 1 8.979319e-011 22.9473 -2.791)">
		<stop  offset="0" style="stop-color:#FDFDFD"/>
		<stop  offset="0.2808" style="stop-color:#FAFAFA"/>
		<stop  offset="1" style="stop-color:#E8E8E8"/>
	</linearGradient>
	
		<linearGradient id="SVGID_25_" gradientUnits="userSpaceOnUse" x1="50.4375" y1="39.9458" x2="21.4375" y2="39.9458" gradientTransform="matrix(-8.979319e-011 1 1 8.979319e-011 22.9473 -2.791)">
		<stop  offset="0" style="stop-color:#000000;stop-opacity:0.25"/>
		<stop  offset="1" style="stop-color:#ECECEC;stop-opacity:0.5"/>
	</linearGradient>
	<path fill-rule="evenodd" clip-rule="evenodd" fill="url(#SVGID_24_)" stroke="url(#SVGID_25_)" stroke-miterlimit="10" d="
		M48.893,44.146v-22c0-1.657,1.343-3,3-3h22c1.657,0,3,1.343,3,3v22c0,1.656-1.343,3-3,3h-22
		C50.236,47.146,48.893,45.803,48.893,44.146z"/>
	
		<linearGradient id="SVGID_26_" gradientUnits="userSpaceOnUse" x1="30.5215" y1="39.9463" x2="38.5508" y2="39.9463" gradientTransform="matrix(-8.979319e-011 1 1 8.979319e-011 22.9473 -2.791)">
		<stop  offset="0" style="stop-color:#404040"/>
		<stop  offset="0.2611" style="stop-color:#616161"/>
		<stop  offset="1" style="stop-color:#616161"/>
	</linearGradient>
	<path fill-rule="evenodd" clip-rule="evenodd" fill="url(#SVGID_26_)" d="M67.832,35.76h-9.876l4.915-8.029l4.951,8.012
		L67.832,35.76z"/>
</g>
<linearGradient id="SVGID_27_" gradientUnits="userSpaceOnUse" x1="152.001" y1="26.2695" x2="152.001" y2="38.2578">
	<stop  offset="0" style="stop-color:#303030"/>
	<stop  offset="0.1232" style="stop-color:#606060"/>
	<stop  offset="1" style="stop-color:#616161"/>
</linearGradient>
<path fill-rule="evenodd" clip-rule="evenodd" fill="url(#SVGID_27_)" d="M146.023,31.206v2.843h4.229v4.209h3.564v-4.187H158
	v-3.548h-4.205V26.27h-3.543v4.231h-4.25L146.023,31.206z"/>
<linearGradient id="SVGID_28_" gradientUnits="userSpaceOnUse" x1="152.001" y1="45.4297" x2="152.001" y2="49">
	<stop  offset="0" style="stop-color:#303030"/>
	<stop  offset="0.2709" style="stop-color:#606060"/>
	<stop  offset="1" style="stop-color:#616161"/>
</linearGradient>
<path fill-rule="evenodd" clip-rule="evenodd" fill="url(#SVGID_28_)" d="M153.795,45.451H158V49l-11.977-0.022v-2.843l-0.021-0.705
	h4.25L153.795,45.451z"/>
<path fill="#646464" d="M144.3,99h9.965l5.436,5.5l-5.436,5.5H144.3V99z"/>
<g>
	<path fill="#646464" d="M158.742,62.155c-0.074-0.395-0.311-0.646-0.598-0.64h-0.059c-0.988,0-1.791-0.804-1.791-1.79
		c0-0.325,0.154-0.682,0.156-0.685c0.152-0.343,0.033-0.764-0.273-0.979l-0.016-0.012l-1.723-0.956l-0.018-0.008
		c-0.102-0.045-0.213-0.066-0.332-0.066c-0.246,0-0.486,0.097-0.643,0.261c-0.211,0.217-0.873,0.78-1.408,0.78
		c-0.539,0-1.207-0.575-1.418-0.796c-0.158-0.166-0.4-0.266-0.648-0.266c-0.115,0-0.225,0.021-0.326,0.064l-0.021,0.007
		l-1.781,0.978l-0.018,0.013c-0.309,0.215-0.428,0.636-0.273,0.979c0,0.003,0.154,0.36,0.154,0.685c0,0.986-0.803,1.791-1.789,1.791
		h-0.061c-0.287-0.008-0.523,0.245-0.598,0.639c-0.006,0.032-0.145,0.77-0.145,1.35c0,0.582,0.139,1.319,0.145,1.351
		c0.074,0.388,0.305,0.64,0.586,0.64c0.006,0,0.008,0,0.012,0h0.061c0.986,0,1.789,0.803,1.789,1.79
		c0,0.326-0.154,0.683-0.154,0.685c-0.154,0.343-0.037,0.764,0.271,0.979l0.016,0.012l1.689,0.944l0.018,0.008
		c0.102,0.046,0.211,0.067,0.332,0.067c0.246,0,0.488-0.102,0.646-0.271c0.197-0.216,0.887-0.829,1.438-0.829
		c0.557,0,1.234,0.61,1.449,0.845c0.158,0.174,0.4,0.277,0.652,0.277l0,0l0,0c0.115,0,0.225-0.022,0.324-0.064l0.02-0.009
		l1.75-0.968l0.018-0.013c0.307-0.215,0.426-0.636,0.271-0.978c0-0.003-0.154-0.36-0.154-0.686c0-0.986,0.803-1.79,1.791-1.79h0.059
		c0.289,0.006,0.523-0.246,0.598-0.639c0.006-0.031,0.145-0.77,0.145-1.351C158.885,62.924,158.748,62.187,158.742,62.155
		L158.742,62.155z M151.971,65.88c-1.314,0-2.385-1.069-2.385-2.384c0-1.315,1.07-2.385,2.385-2.385s2.385,1.069,2.385,2.385
		C154.354,64.811,153.285,65.88,151.971,65.88L151.971,65.88z"/>
	<path fill="#646464" d="M151.971,61.922L151.971,61.922c-0.867,0-1.574,0.706-1.574,1.574c0,0.867,0.705,1.573,1.574,1.573
		c0.867,0,1.574-0.705,1.574-1.573S152.838,61.922,151.971,61.922L151.971,61.922z"/>
</g>
<path fill="#646464" d="M152,77c-3.597,0-6.5,2.903-6.5,6.5c0,3.598,2.903,6.5,6.5,6.5c3.598,0,6.5-2.902,6.5-6.5
	C158.5,79.903,155.598,77,152,77 M154.729,86.229c-0.173,0.173-0.476,0.173-0.65,0L152,84.151l-2.079,2.078
	c-0.175,0.173-0.478,0.173-0.65,0s-0.173-0.476,0-0.65l2.079-2.079l-2.079-2.079c-0.173-0.175-0.173-0.478,0-0.65
	s0.476-0.173,0.65,0L152,82.85l2.079-2.079c0.175-0.173,0.478-0.173,0.65,0c0.174,0.173,0.174,0.476,0,0.65l-2.078,2.079
	l2.078,2.079C154.946,85.754,154.946,86.057,154.729,86.229z"/>
</svg>
