<?xml version="1.0" encoding="utf-8"?>
<!-- Generator: Adobe Illustrator 16.0.0, SVG Export Plug-In . SVG Version: 6.00 Build 0)  -->
<!DOCTYPE svg PUBLIC "-//W3C//DTD SVG 1.1//EN" "http://www.w3.org/Graphics/SVG/1.1/DTD/svg11.dtd">
<svg version="1.1" id="图层_1" xmlns="http://www.w3.org/2000/svg" xmlns:xlink="http://www.w3.org/1999/xlink" x="0px" y="0px"
	 width="28.498px" height="28.5px" viewBox="0 0 28.498 28.5" enable-background="new 0 0 28.498 28.5" xml:space="preserve">
<path fill="#646464" d="M24.699,0h-20.9C1.701,0,0,1.702,0,3.8v20.899c0,2.1,1.701,3.801,3.799,3.801h20.9
	c2.1,0,3.799-1.701,3.799-3.801V3.8C28.498,1.702,26.799,0,24.699,0L24.699,0z M26.876,24.699c0,1.051-1.129,2.174-2.177,2.174
	h-20.9c-1.049,0-2.176-1.123-2.176-2.174V3.8c0-1.048,1.127-2.177,2.176-2.177h20.9c1.048,0,2.177,1.129,2.177,2.177V24.699
	L26.876,24.699z"/>
<g enable-background="new    ">
	<path fill="#646464" d="M13.218,19.166H7.079v-1.631H9.13v-6.291l-2.107,0.477v-1.683l4.157-0.876v8.373h2.038V19.166z"/>
	<path fill="#646464" d="M20.79,11.168c-0.499-0.283-1.043-0.426-1.632-0.426c-0.757,0-1.363,0.298-1.818,0.893
		s-0.682,1.363-0.682,2.307h0.037c0.471-0.719,1.166-1.078,2.089-1.078c0.825,0,1.479,0.282,1.965,0.847
		c0.484,0.565,0.727,1.301,0.727,2.206c0,0.99-0.315,1.809-0.946,2.453c-0.63,0.646-1.436,0.969-2.418,0.969
		c-1.125,0-1.988-0.406-2.587-1.219s-0.897-1.926-0.897-3.34c0-1.662,0.388-3.013,1.164-4.052c0.777-1.039,1.857-1.559,3.24-1.559
		c0.745,0,1.332,0.09,1.759,0.268V11.168z M16.728,15.935c0,0.508,0.127,0.939,0.381,1.295s0.589,0.533,1.003,0.533
		c0.419,0,0.749-0.162,0.99-0.488s0.361-0.734,0.361-1.227c0-1.104-0.455-1.656-1.364-1.656c-0.411,0-0.741,0.146-0.993,0.437
		C16.854,15.123,16.728,15.49,16.728,15.935z"/>
</g>
</svg>
