<?xml version="1.0" encoding="utf-8"?>
<!-- Generator: Adobe Illustrator 16.0.0, SVG Export Plug-In . SVG Version: 6.00 Build 0)  -->
<!DOCTYPE svg PUBLIC "-//W3C//DTD SVG 1.1//EN" "http://www.w3.org/Graphics/SVG/1.1/DTD/svg11.dtd">
<svg version="1.1" id="图层_1" xmlns="http://www.w3.org/2000/svg" xmlns:xlink="http://www.w3.org/1999/xlink" x="0px" y="0px"
	 width="72px" height="72.076px" viewBox="0 0 72 72.076" enable-background="new 0 0 72 72.076" xml:space="preserve">
<path fill="#6DCFF6" d="M36,0.036c-19.883,0-36.003,16.121-36.003,36.002c0,19.884,16.12,36.002,36.003,36.002
	c19.883,0,36.004-16.118,36.004-36.002C72.004,16.157,55.883,0.036,36,0.036L36,0.036z M36,65.29
	c-16.156,0-29.252-13.096-29.252-29.252c0-16.153,13.096-29.25,29.252-29.25c16.157,0,29.252,13.097,29.252,29.25
	C65.252,52.196,52.156,65.29,36,65.29L36,65.29z"/>
<rect x="22.618" y="22.538" fill="#6DCFF6" width="26.765" height="27"/>
</svg>
