<?xml version="1.0" encoding="utf-8"?>
<!-- Generator: Adobe Illustrator 16.0.0, SVG Export Plug-In . SVG Version: 6.00 Build 0)  -->
<!DOCTYPE svg PUBLIC "-//W3C//DTD SVG 1.1//EN" "http://www.w3.org/Graphics/SVG/1.1/DTD/svg11.dtd">
<svg version="1.1" id="图层_1" xmlns="http://www.w3.org/2000/svg" xmlns:xlink="http://www.w3.org/1999/xlink" x="0px" y="0px"
	 width="72px" height="72.076px" viewBox="0 0 72 72.076" enable-background="new 0 0 72 72.076" xml:space="preserve">
<path fill="#6DCFF6" d="M36,0.036c-19.883,0-36.003,16.121-36.003,36.002c0,19.884,16.12,36.002,36.003,36.002
	c19.883,0,36.004-16.118,36.004-36.002C72.004,16.157,55.883,0.036,36,0.036L36,0.036z M36,65.29
	c-16.156,0-29.252-13.096-29.252-29.252c0-16.153,13.096-29.25,29.252-29.25c16.157,0,29.252,13.097,29.252,29.25
	C65.252,52.196,52.156,65.29,36,65.29L36,65.29z"/>
<g>
	<g>
		<path fill="#6DCFF6" d="M49.078,34.298c0.57,0.455,0.855,1.035,0.855,1.739c0,0.707-0.285,1.285-0.855,1.74L27.455,50.334
			c-0.263,0.139-0.555,0.217-0.853,0.227c-0.41,0.002-0.802-0.16-1.089-0.453c-0.298-0.271-0.467-0.654-0.467-1.059V23.027
			c0-0.402,0.156-0.755,0.467-1.059c0.287-0.292,0.679-0.455,1.089-0.453c0.311,0,0.598,0.076,0.854,0.227L49.078,34.298z"/>
	</g>
</g>
</svg>
