<?xml version="1.0" encoding="utf-8"?>
<!-- Generator: Adobe Illustrator 16.0.0, SVG Export Plug-In . SVG Version: 6.00 Build 0)  -->
<!DOCTYPE svg PUBLIC "-//W3C//DTD SVG 1.1//EN" "http://www.w3.org/Graphics/SVG/1.1/DTD/svg11.dtd">
<svg version="1.1" id="图层_1" xmlns="http://www.w3.org/2000/svg" xmlns:xlink="http://www.w3.org/1999/xlink" x="0px" y="0px"
	 width="28.498px" height="28.499px" viewBox="0 0 28.498 28.499" enable-background="new 0 0 28.498 28.499" xml:space="preserve">
<g>
	<path fill="#646464" d="M24.7,0H3.799C1.702,0,0,1.702,0,3.8v20.898c0,2.101,1.702,3.801,3.799,3.801H24.7
		c2.099,0,3.798-1.7,3.798-3.801V3.8C28.498,1.702,26.799,0,24.7,0L24.7,0z M26.877,24.698c0,1.051-1.129,2.175-2.177,2.175H3.799
		c-1.048,0-2.176-1.124-2.176-2.175V3.8c0-1.048,1.128-2.177,2.176-2.177H24.7c1.048,0,2.177,1.129,2.177,2.177V24.698
		L26.877,24.698z"/>
	<g>
		<path fill="#646464" d="M18.348,19.122h-8.203c-1.841,0-3.336-1.496-3.336-3.336c0-1.841,1.496-3.336,3.336-3.336
			c0.122,0,0.244,0.007,0.366,0.021c0.166-1.971,1.826-3.523,3.839-3.523c2.006,0,3.659,1.547,3.831,3.509
			c0.059,0,0.116-0.007,0.174-0.007c1.84,0,3.336,1.495,3.336,3.336C21.684,17.626,20.188,19.122,18.348,19.122z M10.145,13.607
			c-1.201,0-2.179,0.978-2.179,2.179c0,1.2,0.978,2.178,2.179,2.178h8.203c1.201,0,2.179-0.978,2.179-2.178
			c0-1.201-0.978-2.179-2.179-2.179c-0.193,0-0.396,0.029-0.596,0.086c-0.188,0.051-0.383,0.008-0.533-0.114
			c-0.143-0.122-0.223-0.31-0.201-0.504c0.008-0.094,0.016-0.188,0.016-0.28c0-1.488-1.209-2.695-2.697-2.695
			c-1.489,0-2.696,1.207-2.696,2.695c0,0.101,0.007,0.202,0.022,0.331c0.021,0.201-0.058,0.396-0.216,0.524
			c-0.159,0.122-0.367,0.158-0.562,0.087C10.648,13.657,10.396,13.607,10.145,13.607z"/>
		<g>
			<path fill="#646464" d="M12.681,5.284l1.355-2.43c0.093-0.168,0.328-0.168,0.421,0l1.355,2.43
				c0.094,0.168-0.023,0.379-0.211,0.379h-2.709C12.705,5.663,12.587,5.452,12.681,5.284z"/>
			<path fill="#646464" d="M12.681,23.217l1.355,2.429c0.093,0.167,0.328,0.167,0.421,0l1.355-2.429
				c0.094-0.169-0.023-0.381-0.211-0.381h-2.709C12.705,22.836,12.587,23.048,12.681,23.217z"/>
			<path fill="#646464" d="M5.279,15.814l-2.428-1.355c-0.168-0.093-0.168-0.326,0-0.42l2.428-1.354
				c0.169-0.095,0.38,0.023,0.38,0.21v2.71C5.659,15.792,5.448,15.909,5.279,15.814z"/>
			<path fill="#646464" d="M23.219,15.814l2.428-1.355c0.168-0.093,0.168-0.326,0-0.42l-2.428-1.354
				c-0.17-0.095-0.381,0.023-0.381,0.21v2.71C22.838,15.792,23.049,15.909,23.219,15.814z"/>
		</g>
	</g>
</g>
</svg>
