<?xml version="1.0" encoding="utf-8"?>
<!-- Generator: Adobe Illustrator 16.0.0, SVG Export Plug-In . SVG Version: 6.00 Build 0)  -->
<!DOCTYPE svg PUBLIC "-//W3C//DTD SVG 1.1//EN" "http://www.w3.org/Graphics/SVG/1.1/DTD/svg11.dtd">
<svg version="1.1" id="图层_1" xmlns="http://www.w3.org/2000/svg" xmlns:xlink="http://www.w3.org/1999/xlink" x="0px" y="0px"
	 width="15.334px" height="15px" viewBox="0 0 15.334 15" enable-background="new 0 0 15.334 15" xml:space="preserve">
<path fill="#3EAAD5" d="M13.414,4.637l-0.186-0.099H3.66C2.975,4.063,2.744,3.683,2.761,3.477c0.021-0.262,0.429-0.617,0.838-0.833
	H5.42v0.148c0,0.621,0.505,1.127,1.126,1.127c0.621,0,1.126-0.506,1.126-1.127V2.644h5.001V0.981h-5.01C7.592,0.428,7.119,0,6.547,0
	C5.976,0,5.501,0.428,5.43,0.981H3.365l-0.244,0.05L3.078,1.049C2.889,1.131,1.219,1.899,1.102,3.342
	C1.021,4.313,1.647,5.231,2.96,6.07l0.205,0.132h9.622c0.379,0.252,0.867,0.708,0.881,1.107c0.012,0.331-0.307,0.737-0.9,1.151
	h-1.584c-0.102-0.519-0.559-0.911-1.105-0.911c-0.549,0-1.006,0.393-1.107,0.911H1.715L1.527,8.563
	c-0.135,0.074-1.328,0.765-1.505,2.102c-0.129,0.975,0.319,1.961,1.332,2.929l0.241,0.229h3.14v0.051C4.734,14.494,5.239,15,5.86,15
	c0.622,0,1.126-0.506,1.126-1.127v-0.051h6.474l-0.002-1.664H6.986c-0.025-0.599-0.521-1.079-1.125-1.079
	c-0.605,0-1.1,0.48-1.125,1.079h-2.46c-0.332-0.36-0.66-0.837-0.604-1.272c0.045-0.351,0.332-0.624,0.509-0.761h6.771v0.218
	c0,0.621,0.505,1.127,1.127,1.127c0.62,0,1.125-0.506,1.125-1.127v-0.218h2.059l0.205-0.132c1.275-0.813,1.902-1.738,1.865-2.746
	C15.273,5.683,13.604,4.74,13.414,4.637z"/>
</svg>
