<?xml version="1.0" encoding="utf-8"?>
<!-- Generator: Adobe Illustrator 21.1.0, SVG Export Plug-In . SVG Version: 6.00 Build 0)  -->
<svg version="1.1" id="图层_1" xmlns="http://www.w3.org/2000/svg" xmlns:xlink="http://www.w3.org/1999/xlink" x="0px" y="0px"
	 viewBox="0 0 45 54.6" style="enable-background:new 0 0 45 54.6;" xml:space="preserve">
<style type="text/css">
	.st0{fill:#D2D2D2;}
</style>
<path class="st0" d="M23.8,25c-3.5-3.8-6.9-7.4-6.9-14.2c0-0.8-0.7-1.5-1.5-1.5c-0.8,0-1.5,0.7-1.5,1.5c0,6.7-3.3,10.4-6.9,14.2
	s-7,7.5-7,14.2c0,8.5,6.9,15.4,15.4,15.4c4.1,0,8-1.6,10.8-4.5c2.9-2.9,4.5-6.8,4.5-10.9C30.8,32.5,27.2,28.8,23.8,25L23.8,25z
	 M24.3,42.3c-0.2,0.5-0.8,0.9-1.3,0.9c-0.2,0-0.4,0-0.6-0.1c-0.7-0.3-1.1-1.2-0.8-1.9l0,0c0.3-0.6,0.4-1.2,0.4-1.9
	c0-0.8-0.1-1.5-0.5-2.2c-0.5-0.7-0.3-1.6,0.4-2c0.7-0.5,1.6-0.3,2,0.4c0.1,0.2,0.2,0.4,0.2,0.6C25.1,38,25.2,40.3,24.3,42.3
	L24.3,42.3z M40.5,8.1c-2.6-1.7-4.3-4.4-4.7-7.4c0-0.4-0.5-0.8-0.9-0.7c-0.4,0-0.8,0.5-0.7,0.9l0,0c0.2,3-0.9,6-3,8.2
	c-2.1,2.2-3.2,5.2-3,8.2c1,4.6,5.5,7.5,10.1,6.6c3.9-0.8,6.8-4.3,6.8-8.3C44.6,12.5,43,9.9,40.5,8.1z M41.8,17.6
	c-0.1,0.3-0.4,0.6-0.7,0.6c-0.1,0-0.2,0-0.3,0c-0.4-0.1-0.7-0.6-0.5-1c0,0,0,0,0,0c0.1-0.3,0.1-0.7,0-1.1c0-0.4-0.2-0.8-0.4-1.2
	c-0.2-0.4-0.1-0.9,0.3-1.1c0.4-0.2,0.9-0.1,1.1,0.3l0,0C41.9,15.1,42,16.4,41.8,17.6L41.8,17.6z"/>
</svg>
