<?xml version="1.0" encoding="utf-8"?>
<!-- Generator: Adobe Illustrator 21.1.0, SVG Export Plug-In . SVG Version: 6.00 Build 0)  -->
<svg version="1.1" id="图层_1" xmlns="http://www.w3.org/2000/svg" xmlns:xlink="http://www.w3.org/1999/xlink" x="0px" y="0px"
	 viewBox="0 0 57 48.2" style="enable-background:new 0 0 57 48.2;" xml:space="preserve">
<style type="text/css">
	.st0{fill:#D2D2D2;}
</style>
<path class="st0" d="M55,32.1c-1-2.3-0.7-4.7-0.3-6.9c0.5-3.5,1.2-7.9-4.4-10.4c0.4-1.4,0.4-2.9-0.8-3.5l-6.7-3.2
	c-1.5-0.7-5.3-0.6-5.7,0.4s-1.7,2.9,1.5,3.6c3.1,0.7,6,4.4,6,4.4c1,1,2.2,1.6,3.2,1.6c3.8,1.3,3.6,2.9,3,6.5
	c-0.4,2.6-0.9,5.8,0.6,9.2c2,4.5,2.1,7.2,0.4,8.9c-2.1,2.1-5.1,1.4-6.9,0.2c-2.5-1.6-2.5-4.7-2.3-9.5c0.1-2.7,0.3-5.5-0.5-7.9
	c-1.8-5.3-7.3-5.4-7.5-5.4l-2.4,0V2c0-1.1-0.9-2-2-2H6C4.9,0,4,0.9,4,2v42.2H2c0,0-2,0-2,2v2h36.1v-2c0,0,0-2-2-2h-2V24.1h2.4
	c0.3,0,2.9,0.1,3.7,2.7c0.6,1.7,0.5,4,0.3,6.5c-0.2,4.7-0.5,10,4.1,13c1.8,1.2,3.8,1.8,5.7,1.8c2.3,0,4.5-0.8,6.2-2.5
	C59.1,41.1,56.1,34.6,55,32.1L55,32.1z M45.9,15.4c-0.6,0-1-0.5-1-1s0.4-1,1-1s1,0.4,1,1S46.4,15.4,45.9,15.4z M8,6c0-1.1,0.9-2,2-2
	h16.1c1.1,0,2,0.9,2,2v12c0,1.1-0.9,2-2,2H10c-1.1,0-2-0.9-2-2V6z"/>
</svg>
