<?xml version="1.0" encoding="utf-8"?>
<!-- Generator: Adobe Illustrator 21.1.0, SVG Export Plug-In . SVG Version: 6.00 Build 0)  -->
<svg version="1.1" id="图层_1" xmlns="http://www.w3.org/2000/svg" xmlns:xlink="http://www.w3.org/1999/xlink" x="0px" y="0px"
	 viewBox="0 0 200 40" style="enable-background:new 0 0 200 40;" xml:space="preserve">
<style type="text/css">
	.st0{fill:#87CDF2;}
</style>
<g>
	<path class="st0" d="M0,20c0,11,9,20,20,20c11,0,20-9,20-20c0,0,0,0,0,0C40,9,31,0,20,0C9,0,0,9,0,20C0,20,0,20,0,20z"/>
	<path class="st0" d="M80,20c0,11,9,20,20,20s20-9,20-20c0-11-8.9-20-20-20C89,0,80,8.9,80,20C80,20,80,20,80,20z"/>
	<path class="st0" d="M160,20c0,11,8.9,20,20,20c11,0,20-8.9,20-20c0,0,0,0,0,0c0-11-8.9-20-20-20C169,0,160,8.9,160,20
		C160,20,160,20,160,20z"/>
</g>
</svg>
