<?xml version="1.0" encoding="utf-8"?>
<!-- Generator: Adobe Illustrator 21.1.0, SVG Export Plug-In . SVG Version: 6.00 Build 0)  -->
<svg version="1.1" id="图层_1" xmlns="http://www.w3.org/2000/svg" xmlns:xlink="http://www.w3.org/1999/xlink" x="0px" y="0px"
	 viewBox="0 0 104.2 113.3" style="enable-background:new 0 0 104.2 113.3;" xml:space="preserve">
<style type="text/css">
	.st0{fill:#87CDF2;}
</style>
<path class="st0" d="M5.2,0.7C2.3,0.7,0,3,0,5.9l0,101.5c0,2.9,2.3,5.2,5.2,5.2h6.1c2.9,0,5.2-2.3,5.2-5.2v-44
	c0.6,0.5,1.2,0.9,1.8,1.3l71.5,46.2c8,5.1,14.5,1.6,14.5-7.9V10.4c0-9.5-6.6-13.2-14.7-8.2L18.4,46.3c-0.7,0.4-1.3,0.9-2,1.4V5.9
	c0-2.9-2.3-5.2-5.2-5.2H5.2L5.2,0.7z"/>
</svg>
