<?xml version="1.0" encoding="utf-8"?>
<!-- Generator: Adobe Illustrator 21.1.0, SVG Export Plug-In . SVG Version: 6.00 Build 0)  -->
<svg version="1.1" id="图层_1" xmlns="http://www.w3.org/2000/svg" xmlns:xlink="http://www.w3.org/1999/xlink" x="0px" y="0px"
	 viewBox="0 0 104.2 113.3" style="enable-background:new 0 0 104.2 113.3;" xml:space="preserve">
<style type="text/css">
	.st0{fill:#87CDF2;}
</style>
<path class="st0" d="M99,0.7h-6.1c-2.9,0-5.2,2.3-5.2,5.2v41.8c-0.6-0.5-1.3-1-2-1.4L14.7,2.2C6.6-2.8,0,0.9,0,10.4V103
	c0,9.5,6.5,13,14.5,7.9L86,64.7c0.6-0.4,1.2-0.8,1.8-1.3v44c0,2.9,2.3,5.2,5.2,5.2H99c2.9,0,5.2-2.3,5.2-5.2V5.9
	C104.2,3,101.8,0.7,99,0.7L99,0.7z"/>
</svg>
