<?xml version="1.0" encoding="utf-8"?>
<!-- Generator: Adobe Illustrator 21.1.0, SVG Export Plug-In . SVG Version: 6.00 Build 0)  -->
<svg version="1.1" id="图层_1" xmlns="http://www.w3.org/2000/svg" xmlns:xlink="http://www.w3.org/1999/xlink" x="0px" y="0px"
	 viewBox="0 0 56 56" style="enable-background:new 0 0 56 56;" xml:space="preserve">
<style type="text/css">
	.st0{fill:#D2D2D2;}
</style>
<path class="st0" d="M28,0C12.5,0,0,12.5,0,28c0,15.5,12.5,28,28,28c15.5,0,28-12.5,28-28C56,12.5,43.5,0,28,0 M26.7,5.3h3.6v7h-3.6
	V5.3z M16,18.4l-4.9-4.9l2.5-2.5l4.9,4.9L16,18.4z M17.8,7.9L21,6.4l3,6.3l-3.2,1.5C20.7,14.2,17.8,7.9,17.8,7.9z M28.5,48.4
	c-3.1,0-5.6-2.5-5.6-5.6c0-2.4,1.5-4.5,3.7-5.3v-16h3.6v15.9c2.3,0.7,4,2.8,4,5.4C34.1,45.9,31.6,48.4,28.5,48.4 M32.7,12.7l3-6.3
	l3.2,1.5l-3,6.3L32.7,12.7L32.7,12.7z M40.5,18.4L38,15.9l4.9-4.9l2.5,2.5L40.5,18.4z"/>
</svg>
