<?xml version="1.0" encoding="utf-8"?>
<!-- Generator: Adobe Illustrator 21.1.0, SVG Export Plug-In . SVG Version: 6.00 Build 0)  -->
<svg version="1.1" id="图层_1" xmlns="http://www.w3.org/2000/svg" xmlns:xlink="http://www.w3.org/1999/xlink" x="0px" y="0px"
	 viewBox="0 0 200 158.9" style="enable-background:new 0 0 200 158.9;" xml:space="preserve">
<style type="text/css">
	.st0{fill:#88D0AD;}
</style>
<path class="st0" d="M93.9,4.3c0.5,1.8,3.7,2.7,5,1.4c4.8,1.5,9.4,3.4,13.7,5.8c0,1.8,2.9,3.6,4.5,2.6c4.2,2.7,8.2,5.8,11.8,9.3
	c-0.4,1.8,1.9,4.2,3.6,3.7c3.4,3.7,6.4,7.8,9.1,12.1c-0.9,1.6,0.8,4.6,2.6,4.6c2.3,4.5,4.3,9.2,5.7,14c-1.3,1.3-0.4,4.6,1.3,5.1
	c1.1,4.9,1.8,9.9,1.9,15.1c-1.5,0.9-1.5,4.3,0,5.3c-0.2,5.2-0.8,10.2-1.9,15.1c-1.7,0.5-2.6,3.8-1.3,5.1c-1.4,4.9-3.4,9.6-5.7,14
	c-1.1,0-2.1,1.1-2.5,2.1c-4.8-3.1-10.4-7.4-14.7-11c4.4-8.3,6.9-17.8,6.9-28C134,48.3,108.3,22,76.6,22S19.2,48.3,19.2,80.7
	c0,32.4,25.7,58.6,57.4,58.6c18.4,0,34.7-8.8,45.2-22.6c-0.7-0.5-1.2-1-1.5-1.3c-2.4-2.5,2.2-7.9,4.9-5.1c1.4,1.4,10.8,8.3,12.4,9.5
	c21.7,16.3,47.5,0.9,40.3-21.9c-5.5-17.4-10.4-14.4-8-36.6h-7.1V52c-9.4-4.2-16-13.7-16-24.9c0-15,11.9-27.1,26.5-27.1
	C188.1,0,200,12.1,200,27.1c0,11.1-6.6,20.7-16,24.9v9.4h-7c-2.8,20.3,2.6,18.5,7.6,34.4c8.7,27.4-21.2,48.9-47.2,32.5
	c-1.5,2-3.2,4-4.9,5.9c-1.7-0.5-4.1,1.9-3.6,3.7c-3.6,3.5-7.6,6.6-11.8,9.3c-1.6-0.9-4.5,0.8-4.5,2.6c-4.4,2.4-9,4.3-13.7,5.8
	c-1.3-1.3-4.5-0.4-5,1.4c-4.8,1.1-9.7,1.8-14.8,2c-0.9-1.6-4.2-1.6-5.1,0c-5.1-0.2-10-0.8-14.8-2c-0.5-1.8-3.7-2.7-5-1.4
	c-4.8-1.5-9.4-3.4-13.7-5.8c0-1.8-2.9-3.6-4.5-2.6c-4.2-2.7-8.2-5.8-11.8-9.3c0.4-1.8-1.9-4.2-3.6-3.7c-3.4-3.7-6.4-7.8-9.1-12.1
	c0.9-1.6-0.8-4.6-2.6-4.6c-2.3-4.5-4.3-9.2-5.7-14c1.3-1.3,0.4-4.6-1.3-5.1C0.8,93.5,0.2,88.4,0,83.3C1.5,82.3,1.5,79,0,78
	c0.2-5.2,0.8-10.2,1.9-15.1c1.7-0.5,2.6-3.8,1.3-5.1c1.4-4.9,3.4-9.6,5.7-14c1.8,0,3.5-3,2.6-4.6c2.6-4.3,5.7-8.3,9.1-12.1
	c1.7,0.5,4.1-1.9,3.6-3.7c3.6-3.5,7.6-6.6,11.8-9.3c1.6,0.9,4.5-0.8,4.5-2.6c4.4-2.4,9-4.3,13.7-5.8c1.3,1.3,4.5,0.4,5-1.4
	C64,3.2,69,2.5,74,2.4c0.9,1.6,4.2,1.6,5.1,0C84.2,2.5,89.1,3.2,93.9,4.3L93.9,4.3z M156.5,27.1c0,9.6,7.6,17.4,17,17.4
	c9.4,0,17-7.8,17-17.4c0-9.6-7.6-17.4-17-17.4C164.1,9.7,156.5,17.5,156.5,27.1z M177.3,19.7l9.3-2.5l1.4,2.2l-6.2,7.4
	c0.1,3.7-2.2,7.2-5.8,8.4c-4.4,1.4-9-1.1-10.4-5.6c-1.4-4.5,1.1-9.2,5.5-10.6C173.2,18.4,175.5,18.6,177.3,19.7z M171.4,23.7
	c-1.8,1.2-2.4,3.6-1.2,5.5c1.1,1.9,3.6,2.4,5.4,1.3c1.8-1.2,2.4-3.6,1.2-5.5C175.6,23.1,173.2,22.6,171.4,23.7L171.4,23.7z
	 M25.4,80.6c0-28.8,23-52.3,51.1-52.3c28.2,0,51.1,23.5,51.1,52.3c0,28.8-23,52.3-51.1,52.3C48.4,132.9,25.4,109.4,25.4,80.6z
	 M117,72c-0.6-0.9-1.8-1.1-3-0.7c-5.8,2.3-11.6,5.6-17.5,8.7c-1.5,0.8-3.2,1.3-4.2,2.4c-0.8,0.9-1.2,2.1-1.1,3.3
	c0.2,1.5,1.2,2.9,2,4.5c3,6,5.7,12.1,9.2,17.5c0.7,1,1.8,1.6,2.8,1.2C116.1,105.2,123.6,81.5,117,72L117,72z M82,38.6
	c-1,0.3-1.6,1.4-1.6,2.7c0.3,6.4,1.7,13,2.7,19.7c0.3,1.7,0.2,3.5,1,4.9c0.6,1.1,1.6,1.8,2.8,2.1c1.4,0.3,3.1-0.3,4.8-0.6
	c6.5-1.1,13.1-1.8,19.1-3.5c1.2-0.3,2-1.2,2-2.3C112.6,49.7,92.9,35.1,82,38.6L82,38.6z M71.2,38.6c-11-3.5-30.6,11.1-30.8,22.8
	c0,1.1,0.8,2,2,2.3c6,1.7,12.6,2.4,19.1,3.5c1.7,0.3,3.4,0.9,4.8,0.6c1.2-0.2,2.2-1,2.8-2.1c0.7-1.3,0.7-3.1,1-4.9
	c1-6.7,2.3-13.3,2.7-19.7C72.8,40,72.2,38.9,71.2,38.6L71.2,38.6z M36.2,72c-6.6,9.5,0.9,33.2,11.7,37c1,0.3,2.1-0.2,2.8-1.2
	c3.4-5.4,6.1-11.5,9.2-17.5c0.8-1.6,1.8-3,2-4.5c0.2-1.2-0.2-2.5-1.1-3.3c-1-1.1-2.7-1.6-4.2-2.4c-5.9-3-11.6-6.4-17.5-8.7
	C38,70.8,36.8,71.1,36.2,72z M57.6,117.7c6.8,9.4,31.2,9.4,38,0c0.6-0.9,0.5-2.1-0.3-3.1c-3.9-5-8.8-9.5-13.5-14.3
	c-1.2-1.3-2.2-2.7-3.6-3.4c-1.1-0.5-2.4-0.5-3.4,0c-1.3,0.6-2.4,2.1-3.6,3.4c-4.6,4.8-9.5,9.3-13.5,14.3
	C57.1,115.6,56.9,116.8,57.6,117.7z"/>
</svg>
