<?xml version="1.0" encoding="utf-8"?>
<!-- Generator: Adobe Illustrator 21.1.0, SVG Export Plug-In . SVG Version: 6.00 Build 0)  -->
<svg version="1.1" id="图层_1" xmlns="http://www.w3.org/2000/svg" xmlns:xlink="http://www.w3.org/1999/xlink" x="0px" y="0px"
	 viewBox="0 0 46 49.3" style="enable-background:new 0 0 46 49.3;" xml:space="preserve">
<style type="text/css">
	.st0{fill:#D2D2D2;}
</style>
<path class="st0" d="M39.4,3.3h-3.3V1.6c0-0.9-0.7-1.6-1.6-1.6c-0.9,0-1.6,0.7-1.6,1.6v1.6H13.1V1.6c0-0.9-0.7-1.6-1.6-1.6
	S9.9,0.7,9.9,1.6v1.6H6.6C2.9,3.3,0,6.2,0,9.9v32.9c0,3.6,2.9,6.6,6.6,6.6h32.9c3.6,0,6.6-2.9,6.6-6.6V9.9C46,6.2,43.1,3.3,39.4,3.3
	L39.4,3.3z M42.7,42.7c0,1.8-1.5,3.3-3.3,3.3H6.6c-1.8,0-3.3-1.5-3.3-3.3V9.9c0-1.8,1.5-3.3,3.3-3.3h3.3v1.6c0,0.9,0.7,1.6,1.6,1.6
	c0.9,0,1.6-0.7,1.6-1.6V6.6h19.7v1.6c0,0.9,0.7,1.6,1.6,1.6c0.9,0,1.6-0.7,1.6-1.6V6.6h3.3c1.8,0,3.3,1.5,3.3,3.3V42.7z"/>
<path class="st0" d="M36.5,14.7c-0.6-0.2-1.3,0-1.7,0.5L25.1,25c0,0,0,0.1-0.1,0.1c-0.6-0.3-1.3-0.5-2-0.5c-1.1,0-2.2,0.4-3,1
	l-6.1-5.3c-0.7-0.5-1.6-0.5-2.2,0.2c-0.6,0.6-0.5,1.6,0.1,2.2l6.4,5.6c-0.1,0.4-0.2,0.8-0.2,1.3c0,2.7,2.2,4.9,4.9,4.9
	s4.9-2.2,4.9-4.9c0-0.7-0.2-1.4-0.5-2.1c0,0,0.1,0,0.1-0.1l9.7-9.7c0.5-0.4,0.7-1.1,0.5-1.7C37.6,15.4,37.1,14.9,36.5,14.7
	L36.5,14.7z M23,31.2c-0.9,0-1.6-0.7-1.6-1.6c0-0.9,0.7-1.6,1.6-1.6c0.9,0,1.6,0.7,1.6,1.6C24.6,30.5,23.9,31.2,23,31.2z"/>
</svg>
