<?xml version="1.0" encoding="utf-8"?>
<!-- Generator: Adobe Illustrator 16.0.0, SVG Export Plug-In . SVG Version: 6.00 Build 0)  -->
<!DOCTYPE svg PUBLIC "-//W3C//DTD SVG 1.1//EN" "http://www.w3.org/Graphics/SVG/1.1/DTD/svg11.dtd">
<svg version="1.1" id="图层_1" xmlns="http://www.w3.org/2000/svg" xmlns:xlink="http://www.w3.org/1999/xlink" x="0px" y="0px"
	 width="20.998px" height="20.999px" viewBox="0 0 20.998 20.999" enable-background="new 0 0 20.998 20.999" xml:space="preserve">
<g>
	<path fill="#646464" d="M18.199,0h-15.4C1.254,0,0,1.254,0,2.8v15.398c0,1.548,1.254,2.801,2.799,2.801h15.4
		c1.547,0,2.799-1.253,2.799-2.801V2.8C20.998,1.254,19.746,0,18.199,0L18.199,0z M19.803,18.198c0,0.774-0.831,1.603-1.604,1.603
		h-15.4c-0.772,0-1.604-0.828-1.604-1.603V2.8c0-0.772,0.831-1.604,1.604-1.604h15.4c0.772,0,1.604,0.832,1.604,1.604V18.198
		L19.803,18.198z"/>
	<g>
		<path fill-rule="evenodd" clip-rule="evenodd" fill="#646464" d="M15.201,6.492c0-0.2-0.141-0.379-0.357-0.456
			c-0.214-0.076-0.461-0.034-0.628,0.107l-4.698,4.008c-0.107,0.091-0.169,0.218-0.169,0.347c0,0.13,0.062,0.257,0.169,0.348
			l4.698,4.009C14.327,14.95,14.475,15,14.624,15c0.075,0,0.149-0.012,0.22-0.037c0.217-0.076,0.357-0.254,0.357-0.454"/>
		<path fill-rule="evenodd" clip-rule="evenodd" fill="#646464" d="M10.647,6.492c0-0.2-0.141-0.379-0.357-0.456
			c-0.214-0.076-0.461-0.034-0.628,0.107l-4.698,4.008c-0.107,0.091-0.168,0.218-0.168,0.347c0,0.13,0.061,0.257,0.168,0.348
			l4.698,4.009C9.773,14.95,9.921,15,10.07,15c0.075,0,0.149-0.012,0.22-0.037c0.217-0.076,0.357-0.254,0.357-0.454"/>
	</g>
</g>
</svg>
