<?xml version="1.0" encoding="utf-8"?>
<!-- Generator: Adobe Illustrator 16.0.0, SVG Export Plug-In . SVG Version: 6.00 Build 0)  -->
<!DOCTYPE svg PUBLIC "-//W3C//DTD SVG 1.1//EN" "http://www.w3.org/Graphics/SVG/1.1/DTD/svg11.dtd">
<svg version="1.1" id="图层_1" xmlns="http://www.w3.org/2000/svg" xmlns:xlink="http://www.w3.org/1999/xlink" x="0px" y="0px"
	 width="20.998px" height="20.999px" viewBox="0 0 20.998 20.999" enable-background="new 0 0 20.998 20.999" xml:space="preserve">
<g>
	<path fill="#646464" d="M18.199,0h-15.4C1.254,0,0,1.254,0,2.8v15.398c0,1.548,1.254,2.801,2.799,2.801h15.4
		c1.547,0,2.799-1.253,2.799-2.801V2.8C20.998,1.254,19.746,0,18.199,0L18.199,0z M19.803,18.198c0,0.774-0.831,1.603-1.604,1.603
		h-15.4c-0.771,0-1.604-0.828-1.604-1.603V2.8c0-0.772,0.832-1.604,1.604-1.604h15.4c0.772,0,1.604,0.831,1.604,1.604V18.198
		L19.803,18.198z"/>
	<g>
		<path fill-rule="evenodd" clip-rule="evenodd" fill="#646464" d="M8.885,14.509c0,0.2,0.142,0.378,0.357,0.454
			C9.313,14.988,9.387,15,9.462,15c0.149,0,0.298-0.05,0.408-0.144l4.698-4.009c0.107-0.092,0.169-0.218,0.169-0.349
			c0-0.129-0.062-0.256-0.169-0.347L9.87,6.145C9.703,6.003,9.457,5.961,9.242,6.037C9.026,6.113,8.885,6.293,8.885,6.492"/>
		<path fill-rule="evenodd" clip-rule="evenodd" fill="#646464" d="M7.937,14.162C7.937,14.625,7.562,15,7.099,15l0,0
			c-0.463,0-0.838-0.375-0.838-0.838V6.838C6.261,6.375,6.636,6,7.099,6l0,0c0.463,0,0.838,0.375,0.838,0.838V14.162z"/>
	</g>
</g>
</svg>
