<?xml version="1.0" encoding="utf-8"?>
<!-- Generator: Adobe Illustrator 16.0.0, SVG Export Plug-In . SVG Version: 6.00 Build 0)  -->
<!DOCTYPE svg PUBLIC "-//W3C//DTD SVG 1.1//EN" "http://www.w3.org/Graphics/SVG/1.1/DTD/svg11.dtd">
<svg version="1.1" id="图层_1" xmlns="http://www.w3.org/2000/svg" xmlns:xlink="http://www.w3.org/1999/xlink" x="0px" y="0px"
	 width="20.998px" height="21px" viewBox="0 0 20.998 21" enable-background="new 0 0 20.998 21" xml:space="preserve">
<g>
	<path fill="#6DCFF6" d="M18.199,0h-15.4C1.254,0,0,1.254,0,2.8v15.399C0,19.746,1.254,21,2.799,21h15.4
		c1.547,0,2.799-1.254,2.799-2.801V2.8C20.998,1.254,19.746,0,18.199,0L18.199,0z M19.804,18.199c0,0.773-0.832,1.602-1.604,1.602
		h-15.4c-0.771,0-1.604-0.827-1.604-1.602V2.8c0-0.772,0.832-1.604,1.604-1.604h15.4c0.772,0,1.604,0.831,1.604,1.604V18.199
		L19.804,18.199z"/>
	<g>
		<path fill="#6DCFF6" d="M8.885,14.509c0,0.199,0.142,0.378,0.357,0.453C9.313,14.988,9.387,15,9.462,15
			c0.149,0,0.298-0.049,0.408-0.144l4.697-4.009c0.107-0.092,0.17-0.218,0.17-0.349c0-0.129-0.063-0.256-0.17-0.347L9.87,6.145
			C9.703,6.003,9.457,5.961,9.242,6.037C9.026,6.113,8.885,6.293,8.885,6.492"/>
		<path fill="#6DCFF6" d="M7.937,14.162C7.937,14.625,7.562,15,7.099,15l0,0c-0.463,0-0.838-0.375-0.838-0.838V6.838
			C6.261,6.375,6.636,6,7.099,6l0,0c0.463,0,0.838,0.375,0.838,0.838V14.162z"/>
	</g>
</g>
</svg>
