<?xml version="1.0" encoding="utf-8"?>
<!-- Generator: Adobe Illustrator 16.0.0, SVG Export Plug-In . SVG Version: 6.00 Build 0)  -->
<!DOCTYPE svg PUBLIC "-//W3C//DTD SVG 1.1//EN" "http://www.w3.org/Graphics/SVG/1.1/DTD/svg11.dtd">
<svg version="1.1" id="图层_1" xmlns="http://www.w3.org/2000/svg" xmlns:xlink="http://www.w3.org/1999/xlink" x="0px" y="0px"
	 width="20.998px" height="20.999px" viewBox="0 0 20.998 20.999" enable-background="new 0 0 20.998 20.999" xml:space="preserve">
<g>
	<path fill="#646464" d="M18.2,0H2.799C1.254,0,0,1.254,0,2.8v15.398c0,1.548,1.254,2.801,2.799,2.801H18.2
		c1.547,0,2.798-1.253,2.798-2.801V2.8C20.998,1.254,19.747,0,18.2,0L18.2,0z M19.804,18.198c0,0.774-0.832,1.603-1.604,1.603H2.799
		c-0.772,0-1.604-0.828-1.604-1.603V2.8c0-0.772,0.831-1.604,1.604-1.604H18.2c0.771,0,1.604,0.832,1.604,1.604V18.198
		L19.804,18.198z"/>
	<path fill-rule="evenodd" clip-rule="evenodd" fill="#646464" d="M7.248,14.952c0,0.224,0.157,0.421,0.397,0.505
		c0.078,0.028,0.16,0.042,0.244,0.042c0.166,0,0.33-0.057,0.453-0.159l5.22-4.454c0.12-0.101,0.188-0.241,0.188-0.387
		c0-0.144-0.067-0.284-0.188-0.386L8.343,5.66C8.157,5.504,7.884,5.457,7.646,5.541c-0.24,0.085-0.397,0.284-0.397,0.506"/>
</g>
</svg>
