<?xml version="1.0" encoding="utf-8"?>
<!-- Generator: Adobe Illustrator 16.0.0, SVG Export Plug-In . SVG Version: 6.00 Build 0)  -->
<!DOCTYPE svg PUBLIC "-//W3C//DTD SVG 1.1//EN" "http://www.w3.org/Graphics/SVG/1.1/DTD/svg11.dtd">
<svg version="1.1" id="图层_1" xmlns="http://www.w3.org/2000/svg" xmlns:xlink="http://www.w3.org/1999/xlink" x="0px" y="0px"
	 width="20.998px" height="20.999px" viewBox="0 0 20.998 20.999" enable-background="new 0 0 20.998 20.999" xml:space="preserve">
<g>
	<path fill="#6DCFF6" d="M18.202,0h-15.4C1.257,0,0.003,1.254,0.003,2.8v15.398c0,1.548,1.254,2.801,2.799,2.801h15.4
		c1.547,0,2.799-1.253,2.799-2.801V2.8C21.001,1.254,19.749,0,18.202,0L18.202,0z M19.806,18.198c0,0.774-0.832,1.603-1.604,1.603
		h-15.4c-0.771,0-1.604-0.828-1.604-1.603V2.8c0-0.772,0.832-1.604,1.604-1.604h15.4c0.771,0,1.604,0.831,1.604,1.604V18.198
		L19.806,18.198z"/>
	<g>
		<path fill-rule="evenodd" clip-rule="evenodd" fill="#6DCFF6" d="M5.797,14.509c0,0.2,0.141,0.378,0.357,0.454
			C6.225,14.988,6.299,15,6.374,15c0.149,0,0.297-0.05,0.408-0.144l4.698-4.009c0.107-0.092,0.169-0.218,0.169-0.349
			c0-0.129-0.062-0.256-0.169-0.347L6.782,6.145C6.615,6.003,6.368,5.961,6.154,6.037C5.938,6.113,5.797,6.293,5.797,6.492"/>
		<path fill-rule="evenodd" clip-rule="evenodd" fill="#6DCFF6" d="M10.351,14.509c0,0.2,0.141,0.378,0.357,0.454
			c0.07,0.025,0.145,0.037,0.22,0.037c0.149,0,0.297-0.05,0.408-0.144l4.698-4.009c0.107-0.092,0.168-0.218,0.168-0.349
			c0-0.129-0.061-0.256-0.168-0.347l-4.698-4.008c-0.167-0.142-0.414-0.184-0.628-0.107c-0.217,0.076-0.357,0.256-0.357,0.455"/>
	</g>
</g>
</svg>
