<?xml version="1.0" encoding="utf-8"?>
<!-- Generator: Adobe Illustrator 16.0.0, SVG Export Plug-In . SVG Version: 6.00 Build 0)  -->
<!DOCTYPE svg PUBLIC "-//W3C//DTD SVG 1.1//EN" "http://www.w3.org/Graphics/SVG/1.1/DTD/svg11.dtd">
<svg version="1.1" id="图层_1" xmlns="http://www.w3.org/2000/svg" xmlns:xlink="http://www.w3.org/1999/xlink" x="0px" y="0px"
	 width="20.998px" height="21px" viewBox="0 0 20.998 21" enable-background="new 0 0 20.998 21" xml:space="preserve">
<path fill="#646464" d="M18.199,0h-15.4C1.254,0,0,1.254,0,2.8v15.399C0,19.746,1.254,21,2.799,21h15.4
	c1.547,0,2.799-1.254,2.799-2.801V2.8C20.998,1.254,19.746,0,18.199,0L18.199,0z M19.804,18.199c0,0.773-0.832,1.602-1.604,1.602
	h-15.4c-0.771,0-1.604-0.827-1.604-1.602V2.8c0-0.772,0.832-1.604,1.604-1.604h15.4c0.772,0,1.604,0.831,1.604,1.604V18.199
	L19.804,18.199z"/>
<g>
	<g>
		<path fill="#646464" d="M9.536,14.589c0,0.517-0.419,0.936-0.936,0.936l0,0c-0.517,0-0.936-0.419-0.936-0.936V6.41
			c0-0.517,0.419-0.936,0.936-0.936l0,0c0.517,0,0.936,0.419,0.936,0.936V14.589z"/>
	</g>
	<g>
		<path fill="#646464" d="M13.333,14.589c0,0.517-0.418,0.936-0.936,0.936l0,0c-0.518,0-0.936-0.419-0.936-0.936V6.41
			c0-0.517,0.418-0.936,0.936-0.936l0,0c0.518,0,0.936,0.419,0.936,0.936V14.589z"/>
	</g>
</g>
</svg>
