<?xml version="1.0" encoding="utf-8"?>
<!-- Generator: Adobe Illustrator 21.1.0, SVG Export Plug-In . SVG Version: 6.00 Build 0)  -->
<svg version="1.1" id="图层_1" xmlns="http://www.w3.org/2000/svg" xmlns:xlink="http://www.w3.org/1999/xlink" x="0px" y="0px"
	 viewBox="0 0 65.9 65.9" style="enable-background:new 0 0 65.9 65.9;" xml:space="preserve">
<style type="text/css">
	.st0{fill:#FFFFFF;}
</style>
<g>
	<path class="st0" d="M46.9,26.3c-0.3,1.5-1,2.9-2.1,4c-2.9,2.9-7.7,2.9-10.6,0s-2.9-7.7,0-10.6c0.8-0.8,1.6-1.3,2.6-1.7
		c-5.1-1.3-10.7,0-14.7,4c-6,6-6.1,15.8-0.1,21.8s15.8,6.1,21.8,0.1C48.6,39.2,49.6,32.1,46.9,26.3z"/>
	<path class="st0" d="M30.3,65.8L14.8,48.7l0,0C6.6,39.2,7,24.9,16,15.9c9.4-9.4,24.6-9.3,34,0.1c8.8,8.9,9.3,23,1.3,32.4l0,0
		L35.4,65.8c7.6-0.6,15-3.7,20.8-9.5c12.9-12.8,13-33.7,0.1-46.6S22.6-3.3,9.7,9.6c-12.9,12.8-13,33.7-0.1,46.6
		C15.3,62,22.7,65.2,30.3,65.8z"/>
	<g>
		<path class="st0" d="M22.8,54.7l10.1,11.2l10-11.1C36.5,57.7,29.1,57.7,22.8,54.7z"/>
	</g>
</g>
</svg>
