<?xml version="1.0" encoding="utf-8"?>
<!-- Generator: Adobe Illustrator 16.0.0, SVG Export Plug-In . SVG Version: 6.00 Build 0)  -->
<!DOCTYPE svg PUBLIC "-//W3C//DTD SVG 1.1//EN" "http://www.w3.org/Graphics/SVG/1.1/DTD/svg11.dtd">
<svg version="1.1" id="图层_1" xmlns="http://www.w3.org/2000/svg" xmlns:xlink="http://www.w3.org/1999/xlink" x="0px" y="0px"
	 width="25.052px" height="19.484px" viewBox="0 0 25.052 19.484" enable-background="new 0 0 25.052 19.484" xml:space="preserve">
<g>
	<path opacity="0.5" fill="#D6D6D6" d="M25.049,12.313c-0.011-0.071-0.111-0.109-0.279-0.109c-0.729,0-1.879-0.533-2.991-1.05
		c-1.252-0.58-2.437-1.13-3.376-1.13c-0.992,0-3.647,0.628-6.221,1.235c-1.965,0.464-3.999,0.944-4.506,0.944
		c-0.143,0-0.297,0.035-0.427,0.097c-0.084,0.041-0.156,0.092-0.221,0.156c-0.912,0.912-1.084,7.027,1.916,7.027
		c2.83,0,14.875-5.852,15.993-6.97C25.022,12.429,25.06,12.363,25.049,12.313L25.049,12.313z"/>
	<path fill="#FFAB2D" d="M17.878,4.714c-0.083-0.146-0.221-0.225-0.389-0.225c-0.729,0-2.413-1.1-4.041-2.162
		C11.615,1.132,9.883,0,8.942,0C7.95,0,5.923,1.292,3.957,2.543C2.455,3.499,0.902,4.489,0.396,4.489
		c-0.143,0-0.263,0.072-0.33,0.199C0.021,4.771,0,4.877,0,5.01c0,1.879,5.943,14.474,8.943,14.474
		c2.831,0,9.025-12.051,9.025-14.356c-0.001-0.175-0.03-0.311-0.091-0.416V4.714z"/>
	<g>
		<path fill="#FFFFFF" d="M10.328,13.931c0,0.373-0.132,0.689-0.393,0.951c-0.262,0.262-0.579,0.393-0.952,0.393
			c-0.371,0-0.688-0.131-0.949-0.393c-0.263-0.262-0.394-0.578-0.394-0.951c0-0.371,0.131-0.689,0.394-0.951
			c0.261-0.262,0.578-0.393,0.949-0.393c0.373,0,0.69,0.131,0.952,0.393C10.196,13.242,10.328,13.56,10.328,13.931L10.328,13.931z"
			/>
		<path fill="#FFFFFF" d="M10.131,5.19c0,0.222-0.05,0.75-0.15,1.584l-0.573,4.756H8.562L8.003,6.774
			C7.902,5.921,7.852,5.393,7.852,5.19c0-0.412,0.091-0.689,0.271-0.83c0.151-0.101,0.438-0.151,0.86-0.151
			c0.413,0,0.696,0.051,0.846,0.151C10.031,4.501,10.131,4.778,10.131,5.19L10.131,5.19z"/>
	</g>
</g>
</svg>
