<?xml version="1.0" encoding="utf-8"?>
<!-- Generator: Adobe Illustrator 21.1.0, SVG Export Plug-In . SVG Version: 6.00 Build 0)  -->
<svg version="1.1" id="图层_1" xmlns="http://www.w3.org/2000/svg" xmlns:xlink="http://www.w3.org/1999/xlink" x="0px" y="0px"
	 viewBox="0 0 200 200" style="enable-background:new 0 0 200 200;" xml:space="preserve">
<style type="text/css">
	.st0{fill:#DDDDDD;}
</style>
<path class="st0" d="M156.6,199h-118c-6.4,0.2-11.8-4.9-11.9-11.3c-0.2-6.4,4.9-11.8,11.3-11.9c0.2,0,0.5,0,0.7,0h117.8
	c6.5,0,11.8,5.1,11.8,11.6c0,3.1-1.2,6-3.3,8.2C162.9,197.7,159.8,199,156.6,199L156.6,199z M150.3,168.7H47.7v-61.5
	C47.9,79.2,70.7,56.8,98.6,57h0.7c27.9-0.2,50.7,22.2,51,50.1L150.3,168.7L150.3,168.7z M166.4,96.8c-4.5,0.1-8.2-3.6-8.3-8.1
	c0-1.8,0.6-3.6,1.7-5c1.3-1.7,3.2-2.9,5.4-3.2l24.2-3.6c4.5-0.7,8.6,2.4,9.3,6.8c0.7,4.5-2.4,8.6-6.8,9.3l-24.2,3.6
	C167.3,96.7,166.8,96.8,166.4,96.8z M31.3,93.6c-0.5,0-1.1-0.1-1.6-0.2l-24-4.7H5.5c-4.4-0.9-7.2-5.2-6.3-9.6
	c0.8-3.8,4.2-6.6,8.1-6.6c0.6,0,1.1,0.1,1.7,0.2l24,4.8c2.1,0.4,4,1.7,5.3,3.5c1.2,1.8,1.7,4,1.2,6.1C38.6,90.9,35.2,93.6,31.3,93.6
	z M143.9,56.2c-2,0-3.9-0.7-5.5-2l-0.1-0.1c-3.3-3-3.6-8.1-0.7-11.4c0,0,0,0,0,0l16.2-18.1c3.1-3.4,8.3-3.7,11.8-0.7h0.1l0.1,0.1
	c3.3,3,3.6,8.1,0.6,11.4l-16.2,18.1C148.6,55.2,146.3,56.2,143.9,56.2z M55.7,54.2c-2.5,0-4.9-1.1-6.5-3.1L34,32.3h-0.1v-0.1
	c-2.7-3.5-2.1-8.6,1.4-11.4c1.4-1.2,3.2-1.9,5.1-1.9c2.5,0,4.9,1.1,6.5,3.1l15.3,18.9l0.1,0.1v0.1c2.7,3.5,2.1,8.6-1.4,11.3
	C59.4,53.6,57.6,54.2,55.7,54.2z M100.3,39.4h-0.3c-2.2,0-4.3-0.9-5.8-2.5c-1.5-1.6-2.4-3.7-2.3-5.9V7c0.1-4.4,3.7-8,8.2-8h0.3
	c4.5,0.1,8.2,3.8,8.1,8.4l0.1,24.1C108.4,35.9,104.8,39.4,100.3,39.4L100.3,39.4z"/>
</svg>
