<?xml version="1.0" encoding="utf-8"?>
<!-- Generator: Adobe Illustrator 21.1.0, SVG Export Plug-In . SVG Version: 6.00 Build 0)  -->
<svg version="1.1" id="图层_1" xmlns="http://www.w3.org/2000/svg" xmlns:xlink="http://www.w3.org/1999/xlink" x="0px" y="0px"
	 viewBox="0 0 198 194.8" style="enable-background:new 0 0 198 194.8;" xml:space="preserve">
<style type="text/css">
	.st0{fill:#648DC8;}
</style>
<g>
	<path class="st0" d="M13.5,45.2l10.9,10.9C18.2,66.9,15,79,15,91.4c0,23.2,11.4,44.7,30.8,59.1c3.5,5.4,3.5,5.4,3,7.1
		c-0.1,0.7-0.2,1.3-0.4,2c-0.3,1.1-0.7,2.2-1.1,3.3c-0.5,1.3-2.6,7.1-3.1,8.4c-0.7,1.9-1.3,3.8-2,5.7c2.2-0.9,4.8-2.2,8.8-4
		c17.2-8.2,20-9.3,25.1-8c7.5,1.9,15.1,2.9,22.8,2.8c10.7,0,21.4-1.9,31.5-5.5l11.5,11.5c-13.5,6-28.2,9.1-43,9
		c-9,0-17.9-1.1-26.5-3.3c0.4,0.1-5.7,2.6-14.6,6.9c-18,8.6-21.3,9.8-26.9,7.3c-8.1-3.7-7.2-8.9-1.8-24.3l1.1-3l2.6-6.9
		C12.1,142.1,0,117.7,0,91.4C0,75,4.7,59,13.5,45.2z M46,14.2C62.1,4.9,80.4-0.1,99,0c54.5,0,99,40.8,99,91.4
		c0,20.1-7.1,39.5-19.9,55l-10.7-10.7c10-12.6,15.5-28.2,15.6-44.3c0-42-37.5-76.4-84-76.4c-14.7-0.1-29.1,3.4-42.1,10.2L46,14.2z
		 M9.7,20.2C7,17.1,7.3,12.4,10.5,9.7c2.8-2.4,6.9-2.4,9.7,0l164.6,164.6c2.9,2.9,2.9,7.7,0,10.6s-7.7,2.9-10.6,0l0,0L9.7,20.2z"/>
</g>
</svg>
