<?xml version="1.0" encoding="utf-8"?>
<!-- Generator: Adobe Illustrator 21.1.0, SVG Export Plug-In . SVG Version: 6.00 Build 0)  -->
<svg version="1.1" id="图层_1" xmlns="http://www.w3.org/2000/svg" xmlns:xlink="http://www.w3.org/1999/xlink" x="0px" y="0px"
	 viewBox="0 0 125.3 141.5" style="enable-background:new 0 0 125.3 141.5;" xml:space="preserve">
<style type="text/css">
	.st0{fill:#FFE55C;}
	.st1{fill:#4D4D4D;}
</style>
<g>
	<polygon class="st0" points="62.6,5.2 5,27.5 5,80.2 22.9,113.5 46.3,131.5 57.7,136.2 68.3,136.2 88.7,128.2 107,110.6 
		120.3,78.5 120.3,54.3 120.3,26.8 	"/>
	<path class="st0" d="M22.9,70.8c0,21.9,17.8,39.7,39.7,39.7s39.7-17.8,39.7-39.7S84.6,31.1,62.7,31.1S22.9,48.9,22.9,70.8z"/>
	<path class="st1" d="M62.9,141.5c-21.6,0-62.3-35.7-62.9-69.6v-42v-0.3c0.3-3.7,2.8-6.9,6.4-8c0.3-0.1,0.5-0.1,0.8-0.1
		c8.8-0.7,17.3-2.8,25.5-6.1c0.1,0,0.3-0.1,0.4-0.1c8.7-2.5,16.8-6.9,23.5-12.9L56.8,2c1.6-1.2,3.6-1.9,5.6-2c2.1-0.1,4.1,0.4,6,1.6
		c0.1,0,0.1,0.1,0.3,0.3c6.8,5.5,14.3,9.9,22.4,13.3c8.4,2.5,17.2,4.5,25.9,6h0.3c4,0.9,7.1,4.4,7.5,8.5V30c0.3,4.1,1.2,19.2,0,42.1
		v0.3C119.1,116.8,84.7,141.5,62.9,141.5L62.9,141.5z M8,30.2v41.7c0.5,30,38.5,61.6,54.9,61.6c16.5,0,48.5-20.7,53.7-62
		c1.2-22.4,0.3-36.9,0-40.9v-0.1c-0.1-0.7-0.5-1.2-1.2-1.5c-9.1-1.3-18.1-3.5-26.9-6.1c-0.1,0-0.3-0.1-0.4-0.1
		c-8.7-3.6-16.8-8.5-24.3-14.4c-0.1-0.1-0.4-0.1-0.5-0.1h-0.7c-0.3,0-0.7,0.1-0.9,0.3C54.3,15.1,45.2,20,35.5,22.8
		c-8.7,3.5-17.7,5.7-27.1,6.5C8.4,29.4,8,30.2,8,30.2z"/>
	<path class="st1" d="M54.3,94.6c-1.1,0-2-0.4-2.8-1.2L36.9,79c-1.6-1.6-1.6-4.1,0-5.6c1.6-1.6,4.1-1.6,5.6,0l11.7,11.7l29.6-29.6
		c1.6-1.6,4.1-1.6,5.6,0c1.6,1.6,1.6,4.1,0,5.6L57.2,93.5C56.4,94.3,55.3,94.6,54.3,94.6z"/>
</g>
</svg>
