<?xml version="1.0" encoding="utf-8"?>
<!-- Generator: Adobe Illustrator 16.0.0, SVG Export Plug-In . SVG Version: 6.00 Build 0)  -->
<!DOCTYPE svg PUBLIC "-//W3C//DTD SVG 1.1//EN" "http://www.w3.org/Graphics/SVG/1.1/DTD/svg11.dtd">
<svg version="1.1" id="图层_1" xmlns="http://www.w3.org/2000/svg" xmlns:xlink="http://www.w3.org/1999/xlink" x="0px" y="0px"
	 width="39.5px" height="39.5px" viewBox="0 0 39.5 39.5" enable-background="new 0 0 39.5 39.5" xml:space="preserve">
<g>
	<g>
		<path fill="#BFBFBF" d="M19.75,39.5C8.86,39.5,0,30.641,0,19.75S8.86,0,19.75,0C30.641,0,39.5,8.859,39.5,19.75
			S30.641,39.5,19.75,39.5z M19.75,2C9.962,2,2,9.963,2,19.75S9.962,37.5,19.75,37.5c9.787,0,17.75-7.963,17.75-17.75
			S29.537,2,19.75,2z"/>
	</g>
	<path fill="#BFBFBF" d="M17.169,10.155c1.879-0.265,3.431-0.255,5.149,0c1.176,0.248,2.367,0.443,3.522,0.764
		c0.855,0.237,1.475,0.818,1.78,1.705c0.485,1.401,0.995,2.794,1.53,4.176c0.091,0.231,0.388,0.571,0.554,0.554
		c1.126-0.127,1.655,0.499,2,1.425c0.082,0.283,0.036,0.567,0,0.755c-0.47,0.13-0.938,0.259-1.37,0.378
		c0.061,0.487,0.171,0.982,0.173,1.479c0.019,2.258,0.033,4.518-0.013,6.776c-0.008,0.402-0.24,1.029-0.402,1.131
		c-0.154,0.265-3.572,0.252-3.838,0.069c-0.888-0.577-0.342-1.545-0.627-2.33H14.014c-0.225,0.831-0.358,2.225-0.629,2.33
		c-0.591,0.227-3.76,0.235-3.937,0c-0.24-0.171-0.403-0.855-0.435-1.295c-0.065-0.951-0.028-1.91-0.018-2.866
		c0.018-1.773,0.044-3.548,0.067-5.334c-0.333-0.087-0.807-0.213-1.28-0.339c-0.026-0.17-0.06-0.377,0-0.604
		c0.329-0.978,0.811-1.732,2.044-1.574c0.149,0.019,0.424-0.301,0.505-0.514c0.421-1.104,0.874-2.206,1.175-3.346
		c0.504-1.915,1.888-2.687,3.655-3.026C15.826,10.341,16.5,10.258,17.169,10.155L17.169,10.155z M11.866,17.721
		c5.338,1.104,10.454,1.131,15.702,0c-0.44-1.358-0.883-2.564-1.216-3.799c-0.287-1.06-0.973-1.581-1.994-1.627
		c-2.489-0.111-4.979-0.2-7.469-0.22c-0.82-0.007-1.652,0.188-2.457,0.379c-0.332,0.08-0.768,0.333-0.881,0.617
		C12.958,14.555,12.452,16.075,11.866,17.721L11.866,17.721z M12.891,23.494C12.893,23.464,12.89,23.522,12.891,23.494
		c0.427,0,0.876-0.016,1.282-0.11c0.295-0.069,0.669-0.309,0.762-0.563c0.066-0.179-0.217-0.641-0.452-0.749
		c-0.975-0.452-1.977-0.862-2.999-1.197c-0.509-0.168-1.076-0.136-1.241,0.59c-0.239,1.062-0.016,1.653,0.778,1.818
		C11.633,23.41,12.267,23.428,12.891,23.494L12.891,23.494z M26.722,23.49c0.552-0.066,1.235-0.091,1.89-0.243
		c0.895-0.205,0.705-0.96,0.685-1.599c-0.018-0.548-0.357-0.959-0.85-0.806c-1.232,0.382-2.455,0.833-3.614,1.396
		c-0.532,0.259-0.342,0.972,0.264,1.104C25.581,23.449,26.093,23.438,26.722,23.49L26.722,23.49z"/>
</g>
</svg>
