<?xml version="1.0" encoding="utf-8"?>
<!-- Generator: Adobe Illustrator 16.0.0, SVG Export Plug-In . SVG Version: 6.00 Build 0)  -->
<!DOCTYPE svg PUBLIC "-//W3C//DTD SVG 1.1//EN" "http://www.w3.org/Graphics/SVG/1.1/DTD/svg11.dtd">
<svg version="1.1" id="图层_1" xmlns="http://www.w3.org/2000/svg" xmlns:xlink="http://www.w3.org/1999/xlink" x="0px" y="0px"
	 width="104.354px" height="43.354px" viewBox="0 0 104.354 43.354" enable-background="new 0 0 104.354 43.354"
	 xml:space="preserve">
<g>
	<path fill="rgba(40,40,46,0.8)" d="M90.677,5.677h-77c-4.418,0-8,3.697-8,8.258v15.484c0,4.561,3.582,8.258,8,8.258h77
		c4.418,0,8-3.697,8-8.258V13.935C98.677,9.374,95.095,5.677,90.677,5.677z"/>
	<path fill="rgba(40,40,46,0.8)" d="M11.354,0.618C6.065-0.203,1.596-0.23,0.682,0.683C-0.23,1.595-0.203,6.065,0.618,11.354
		c0.977-2.336,2.405-4.528,4.307-6.429C6.825,3.025,9.018,1.595,11.354,0.618z"/>
</g>
</svg>
