<?xml version="1.0" encoding="utf-8"?>
<!-- Generator: Adobe Illustrator 16.0.0, SVG Export Plug-In . SVG Version: 6.00 Build 0)  -->
<!DOCTYPE svg PUBLIC "-//W3C//DTD SVG 1.1//EN" "http://www.w3.org/Graphics/SVG/1.1/DTD/svg11.dtd">
<svg version="1.1" id="图层_1" xmlns="http://www.w3.org/2000/svg" xmlns:xlink="http://www.w3.org/1999/xlink" x="0px" y="0px"
	 width="104.354px" height="43.354px" viewBox="0 0 104.354 43.354" enable-background="new 0 0 104.354 43.354"
	 xml:space="preserve">
<g>
	<path fill="rgba(40,40,46,0.8)" d="M90.678,5.677h-77c-4.418,0-8,3.697-8,8.258v15.484c0,4.561,3.582,8.258,8,8.258h77
		c4.418,0,8-3.697,8-8.258V13.935C98.678,9.374,95.096,5.677,90.678,5.677z"/>
	<path fill="rgba(40,40,46,0.8)" d="M4.926,38.429c-1.9-1.9-3.33-4.093-4.307-6.429c-0.821,5.288-0.85,9.759,0.063,10.671
		c0.914,0.913,5.383,0.886,10.672,0.063C9.018,41.759,6.826,40.328,4.926,38.429z"/>
</g>
</svg>
