<?xml version="1.0" encoding="utf-8"?>
<!-- Generator: Adobe Illustrator 21.1.0, SVG Export Plug-In . SVG Version: 6.00 Build 0)  -->
<svg version="1.1" id="图层_1" xmlns="http://www.w3.org/2000/svg" xmlns:xlink="http://www.w3.org/1999/xlink" x="0px" y="0px"
	 viewBox="0 0 185.9 185.7" style="enable-background:new 0 0 185.9 185.7;" xml:space="preserve">
<style type="text/css">
	.st0{fill:#5D5F63;}
</style>
<path class="st0" d="M80.1,172.8c-0.3-0.3-0.6-0.5-1-0.8L80.1,172.8z M91.5,164.9c3.5-1.8,7.8-0.3,9.6,3.2s0.3,7.8-3.2,9.6l0,0
	l-13.5,6.7c-2.4,1.1-1.7,0.8-2.6,1c-1.1,0.3-1.6,0.3-3.2,0.3c-1.4,0-2.1,0-3.1-0.2c-1.8-0.2-3.5-0.9-4.9-2.1
	c-3.8-2.8-6.3-7.6-6.3-12v-59.9l-61.7-89c-3-4.4-3.7-9.9-1.2-15L2,6.7C4.8,2.5,9.2,0,14.4,0h157.1c5.2,0,9.6,2.5,12.4,6.8
	c3.2,4.7,2.3,10.5-0.8,15.2l-61.6,89.6v33c0,3.9-3.2,7.1-7.1,7.1c-3.9,0-7.1-3.2-7.1-7.1l0,0v-37.4l1.3-1.8L171,14.3H14.4l0.1,0.2
	L78.6,107v64.3L91.5,164.9z"/>
</svg>
