<?xml version="1.0" encoding="utf-8"?>
<!-- Generator: Adobe Illustrator 21.1.0, SVG Export Plug-In . SVG Version: 6.00 Build 0)  -->
<svg version="1.1" id="图层_1" xmlns="http://www.w3.org/2000/svg" xmlns:xlink="http://www.w3.org/1999/xlink" x="0px" y="0px"
	 viewBox="0 0 20 20" style="enable-background:new 0 0 20 20;" xml:space="preserve">
<style type="text/css">
	.st0{fill:#2399EE;}
	.st1{fill:#87CDF2;}
</style>
<g>
	<path class="st0" d="M17.1,2.9C13.2-1,6.8-1,2.9,2.9s-3.9,10.2,0,14.1s10.2,3.9,14.1,0S21,6.8,17.1,2.9z"/>
	<path class="st1" d="M17.1,2.9C13.2-1,6.8-1,2.9,2.9s-3.9,10.2,0,14.1s10.2,3.9,14.1,0S21,6.8,17.1,2.9z M5.6,14.4
		C3.1,12,3.1,8,5.6,5.6s6.4-2.5,8.9,0s2.5,6.4,0,8.9S8,16.9,5.6,14.4z"/>
</g>
</svg>
