<?xml version="1.0" encoding="utf-8"?>
<!-- Generator: Adobe Illustrator 21.1.0, SVG Export Plug-In . SVG Version: 6.00 Build 0)  -->
<svg version="1.1" id="图层_1" xmlns="http://www.w3.org/2000/svg" xmlns:xlink="http://www.w3.org/1999/xlink" x="0px" y="0px"
	 viewBox="0 0 200 200" style="enable-background:new 0 0 200 200;" xml:space="preserve">
<style type="text/css">
	.st0{fill:#FFFFFF;}
</style>
<path class="st0" d="M100,0C44.8,0,0,44.8,0,100s44.8,100,100,100s100-44.8,100-100S155.2,0,100,0z M100,181.8
	c-45.2,0-81.8-36.6-81.8-81.8c0-45.2,36.6-81.8,81.8-81.8s81.8,36.6,81.8,81.8l0,0C181.8,145.2,145.2,181.8,100,181.8L100,181.8z"/>
<path class="st0" d="M158.2,76l-61.5,61.5c-3.5,3.6-9.3,3.6-12.9,0.1c0,0,0,0-0.1-0.1l-33.6-33.7c-3.3-3.8-2.8-9.6,1-12.8
	c3.4-2.9,8.4-2.9,11.8,0l27.3,27.3l55.2-54.5c3.5-3.5,9.2-3.5,12.7,0C161.4,67.1,161.4,72.5,158.2,76z"/>
</svg>
