<?xml version="1.0" encoding="utf-8"?>
<!-- Generator: Adobe Illustrator 16.0.0, SVG Export Plug-In . SVG Version: 6.00 Build 0)  -->
<!DOCTYPE svg PUBLIC "-//W3C//DTD SVG 1.1//EN" "http://www.w3.org/Graphics/SVG/1.1/DTD/svg11.dtd">
<svg version="1.1" id="图层_1" xmlns="http://www.w3.org/2000/svg" xmlns:xlink="http://www.w3.org/1999/xlink" x="0px" y="0px"
	 width="158.254px" height="158.19px" viewBox="0 0 158.254 158.19" enable-background="new 0 0 158.254 158.19"
	 xml:space="preserve">
<path fill="#999999" d="M156.197,41.214l-39.221-39.22c-2.617-2.617-7.134-2.667-9.717-0.1L1.951,107.186
	c-2.634,2.65-2.601,7.018,0.1,9.734l39.204,39.203c1.333,1.334,3.1,2.067,4.967,2.067c1.8,0,3.5-0.7,4.767-1.968L156.297,50.932
	C158.947,48.282,158.896,43.915,156.197,41.214z M26.519,117.236c1.65-1.65,1.634-4.35-0.05-6.05l-8.167-8.151l3.083-3.083
	l17.501,17.484c1.617,1.617,4.451,1.634,6.034,0.05c0.8-0.783,1.233-1.85,1.233-2.967c0-1.166-0.45-2.25-1.284-3.066L27.386,93.952
	l3.084-3.083l8.15,8.15c1.634,1.633,4.451,1.65,6.051,0.05c1.65-1.633,1.617-4.35-0.05-6.033l-8.15-8.15l3.083-3.084l17.485,17.484
	c1.617,1.617,4.45,1.667,6.034,0.051c1.65-1.65,1.633-4.367-0.05-6.051L45.538,75.8l3.083-3.083l8.15,8.151
	c1.634,1.633,4.451,1.65,6.051,0.05c0.8-0.8,1.233-1.85,1.233-2.983c0-1.15-0.467-2.233-1.284-3.05l-8.15-8.167l3.1-3.083
	l17.485,17.485c1.617,1.633,4.434,1.667,6.034,0.033c1.65-1.65,1.617-4.367-0.05-6.034L63.706,57.649l3.083-3.083l8.167,8.151
	c1.633,1.633,4.434,1.65,6.034,0.05c1.634-1.65,1.617-4.351-0.066-6.034l-8.151-8.167l3.101-3.101l17.484,17.485
	c1.635,1.634,4.435,1.667,6.035,0.067c1.649-1.65,1.616-4.351-0.051-6.034L81.857,39.481l3.084-3.084l8.15,8.167
	c1.633,1.617,4.45,1.633,6.033,0.05c0.801-0.784,1.234-1.833,1.234-2.967c0-1.15-0.451-2.25-1.284-3.083l-8.151-8.15l3.084-3.084
	l17.485,17.468c1.616,1.65,4.45,1.667,6.05,0.05c1.65-1.65,1.617-4.367-0.049-6.034l-17.485-17.485l3.101-3.083l8.15,8.167
	c1.617,1.617,4.434,1.633,6.033,0.05c1.65-1.65,1.634-4.367-0.05-6.05l-8.15-8.151l0.634-0.65c1.3-1.317,3.633-1.283,5,0.1
	l31.736,31.736c0.699,0.7,1.066,1.6,1.083,2.55c0,0.933-0.351,1.8-1,2.45l-98.042,98.024c-1.317,1.334-3.65,1.25-5-0.1
	L11.785,114.67c-1.4-1.417-1.45-3.667-0.117-5.018l0.65-0.649l8.151,8.15C22.085,118.804,24.902,118.837,26.519,117.236z"/>
</svg>
