<?xml version="1.0" encoding="utf-8"?>
<!-- Generator: Adobe Illustrator 21.1.0, SVG Export Plug-In . SVG Version: 6.00 Build 0)  -->
<svg version="1.1" id="图层_1" xmlns="http://www.w3.org/2000/svg" xmlns:xlink="http://www.w3.org/1999/xlink" x="0px" y="0px"
	 viewBox="0 0 46 46" style="enable-background:new 0 0 46 46;" xml:space="preserve">
<style type="text/css">
	.st0{fill-rule:evenodd;clip-rule:evenodd;fill:none;stroke:#6FC6EA;stroke-width:2;stroke-miterlimit:10;}
	.st1{fill:#040000;}
</style>
<g>
	<path class="st0" d="M23,1c12.2,0,22,9.8,22,22s-9.8,22-22,22S1,35.2,1,23S10.8,1,23,1z"/>
	<path class="st1" d="M12.7,18.6c0,0,20.5,0,20.5,0v-5.9c0,0-20.5,0-20.5,0S12.7,18.6,12.7,18.6z M11.5,26.7
		c-0.1-0.2-0.2-0.5-0.2-0.7v-5.9c0-0.3,0.1-0.5,0.2-0.7c-0.1-0.2-0.2-0.5-0.2-0.7v-5.9c0-0.8,0.7-1.5,1.5-1.5h20.5
		c0.8,0,1.5,0.6,1.5,1.5v5.9c0,0.3-0.1,0.5-0.2,0.7c0.1,0.2,0.2,0.5,0.2,0.7v5.9c0,0.3-0.1,0.5-0.2,0.7c0.1,0.2,0.2,0.5,0.2,0.7v5.9
		c0,0.8-0.7,1.5-1.5,1.5H12.7c-0.8,0-1.5-0.6-1.5-1.5v-5.9C11.3,27.1,11.3,26.9,11.5,26.7L11.5,26.7z M12.7,33.3c0,0,20.5,0,20.5,0
		v-5.9c0,0-20.5,0-20.5,0L12.7,33.3L12.7,33.3z M12.7,25.9c0,0,20.5,0,20.5,0v-5.9c0,0-20.5,0-20.5,0L12.7,25.9L12.7,25.9z"/>
	<path class="st1" d="M14.9,16.4c0.4,0,0.7-0.3,0.7-0.7c0-0.4-0.3-0.7-0.7-0.7c0,0,0,0,0,0c-0.4,0-0.7,0.3-0.7,0.7
		C14.2,16.1,14.5,16.4,14.9,16.4z M17.9,16.4c0.4,0,0.7-0.3,0.7-0.7c0-0.4-0.3-0.7-0.7-0.7c0,0,0,0,0,0c-0.4,0-0.7,0.3-0.7,0.7
		C17.1,16.1,17.5,16.4,17.9,16.4z M23,15.7c0-0.4,0.3-0.7,0.7-0.7h7.4c0.4,0,0.7,0.3,0.7,0.7c0,0.4-0.3,0.7-0.7,0.7h-7.4
		C23.3,16.4,23,16.1,23,15.7z M14.9,23.7c0.4,0,0.7-0.3,0.7-0.7c0-0.4-0.3-0.7-0.7-0.7c-0.4,0-0.7,0.3-0.7,0.7
		C14.2,23.4,14.5,23.7,14.9,23.7z M17.9,23.7c0.4,0,0.7-0.3,0.7-0.7c0-0.4-0.3-0.7-0.7-0.7c-0.4,0-0.7,0.3-0.7,0.7
		C17.1,23.4,17.5,23.7,17.9,23.7z M23,23c0-0.4,0.3-0.7,0.7-0.7h7.4c0.4,0,0.7,0.3,0.7,0.7c0,0.4-0.3,0.7-0.7,0.7h-7.4
		C23.3,23.7,23,23.4,23,23z M14.9,31.1c0.4,0,0.7-0.3,0.7-0.7s-0.3-0.7-0.7-0.7c-0.4,0-0.7,0.3-0.7,0.7S14.5,31.1,14.9,31.1z
		 M17.9,31.1c0.4,0,0.7-0.3,0.7-0.7s-0.3-0.7-0.7-0.7c-0.4,0-0.7,0.3-0.7,0.7S17.5,31.1,17.9,31.1z M23,30.3c0-0.4,0.3-0.7,0.7-0.7
		h7.4c0.4,0,0.7,0.3,0.7,0.7c0,0.4-0.3,0.7-0.7,0.7h-7.4C23.3,31.1,23,30.7,23,30.3z"/>
</g>
</svg>
