<?xml version="1.0" encoding="utf-8"?>
<!-- Generator: Adobe Illustrator 21.1.0, SVG Export Plug-In . SVG Version: 6.00 Build 0)  -->
<svg version="1.1" id="图层_1" xmlns="http://www.w3.org/2000/svg" xmlns:xlink="http://www.w3.org/1999/xlink" x="0px" y="0px"
	 viewBox="0 0 226 200" style="enable-background:new 0 0 226 200;" xml:space="preserve">
<style type="text/css">
	.st0{fill:#DDDDDD;}
</style>
<path class="st0" d="M206.1,72.5L191,28.9l-0.3-0.4c-0.2-0.4-0.4-0.8-0.7-1.2C184.9,17.6,175.5,0,151.7,0H74.1
	C50,0.1,40.6,18,35.8,27.5L34.5,30V31c0,0.2-0.2,0.4-0.2,0.5L20.1,72.3C7.4,80.9,0,93.4,0,106.5v57.8c0,8.1,2.8,15.9,7.9,22.1v1.3
	h1.1c5.8,6.5,13.8,10.7,22.5,11.8c1.6,0.2,3.2,0.3,4.7,0.4c13.4,0.1,25.7-7.3,31.8-19.2l89.3-0.4c7,13.6,21.9,21.4,37.1,19.4
	c18-2,31.5-17.2,31.5-35.3v-57.8C225.8,93.9,218.5,81.3,206.1,72.5L206.1,72.5z M51.6,138.4c-8.8,0-15.9-7.1-15.9-15.9
	s7.1-15.9,15.9-15.9s15.9,7.1,15.9,15.9S60.4,138.4,51.6,138.4L51.6,138.4z M175,138.4c-8.8,0-15.9-7.1-15.9-15.9
	s7.1-15.9,15.9-15.9s15.9,7.1,15.9,15.9S183.8,138.4,175,138.4L175,138.4z M35.7,84.3l17.1-48.8v-0.2c5.1-9.9,9.9-16.7,21.3-16.7
	H152c11.6,0,16.4,7.2,21.7,17.4l0.4,0.7c0,0.4,0.4,0.7,0.5,1.2l16.3,46.4H35.7z"/>
</svg>
