<?xml version="1.0" encoding="utf-8"?>
<!-- Generator: Adobe Illustrator 16.0.0, SVG Export Plug-In . SVG Version: 6.00 Build 0)  -->
<!DOCTYPE svg PUBLIC "-//W3C//DTD SVG 1.1//EN" "http://www.w3.org/Graphics/SVG/1.1/DTD/svg11.dtd">
<svg version="1.1" id="图层_1" xmlns="http://www.w3.org/2000/svg" xmlns:xlink="http://www.w3.org/1999/xlink" x="0px" y="0px"
	 width="13px" height="13px" viewBox="0 0 13 13" enable-background="new 0 0 13 13" xml:space="preserve">
<g>
	<path fill="#FFFFFF" d="M6.5,11.556c-3.59,0-6.139-3.25-6.5-5.056c0.361-1.806,2.91-5.056,6.5-5.056c3.592,0,6.14,3.25,6.5,5.056
		C12.639,8.306,10.091,11.556,6.5,11.556z M6.5,2.528c-2.834,0-4.943,2.506-5.383,3.972c0.439,1.466,2.549,3.973,5.383,3.973
		s4.945-2.507,5.385-3.973C11.445,5.034,9.334,2.528,6.5,2.528z M6.5,8.667c-1.196,0-2.166-0.971-2.166-2.167
		c0-1.197,0.97-2.167,2.166-2.167c1.197,0,2.168,0.969,2.168,2.167C8.668,7.696,7.697,8.667,6.5,8.667z M6.5,5.416
		c-0.596,0-1.082,0.485-1.082,1.083c0,0.597,0.486,1.083,1.082,1.083c0.599,0,1.084-0.486,1.084-1.083
		C7.584,5.903,7.098,5.416,6.5,5.416z"/>
</g>
</svg>
