<?xml version="1.0" encoding="utf-8"?>
<!-- Generator: Adobe Illustrator 16.0.0, SVG Export Plug-In . SVG Version: 6.00 Build 0)  -->
<!DOCTYPE svg PUBLIC "-//W3C//DTD SVG 1.1//EN" "http://www.w3.org/Graphics/SVG/1.1/DTD/svg11.dtd">
<svg version="1.1" id="图层_1" xmlns="http://www.w3.org/2000/svg" xmlns:xlink="http://www.w3.org/1999/xlink" x="0px" y="0px"
	 width="187.5px" height="200px" viewBox="0 0 187.5 200" enable-background="new 0 0 187.5 200" xml:space="preserve">
<path fill="#FFFFFF" d="M150,125c-16.25,0-28.75,10-35,23.75L83.75,137.5l0,0c2.5-5,3.75-12.5,3.75-18.75c0-8.75-2.5-17.5-7.5-25
	l42.5-32.5l5-3.75c5,3.75,10,5,16.25,5c17.5,0,31.25-13.75,31.25-31.25S161.25,0,143.75,0S112.5,13.75,112.5,31.25
	c0,6.25,2.5,12.5,5,17.5l-2.5,2.5L72.5,85l0,0c-8.75-6.25-18.75-10-28.75-10C20,75,0,95,0,118.75s20,43.75,43.75,43.75
	c12.5,0,23.75-5,32.5-13.75l2.5,1.25l33.75,11.25v1.25c0,21.25,16.25,37.5,37.5,37.5s37.5-16.25,37.5-37.5S171.25,125,150,125z
	 M143.75,12.5c10,0,18.75,8.75,18.75,18.75S153.75,50,143.75,50S125,41.25,125,31.25S133.75,12.5,143.75,12.5z M43.75,150
	c-17.5,0-31.25-13.75-31.25-31.25S26.25,87.5,43.75,87.5S75,101.25,75,118.75S61.25,150,43.75,150z M150,187.5
	c-13.75,0-25-11.25-25-25s11.25-25,25-25s25,11.25,25,25S163.75,187.5,150,187.5z"/>
</svg>
