<?xml version="1.0" encoding="utf-8"?>
<!-- Generator: Adobe Illustrator 21.1.0, SVG Export Plug-In . SVG Version: 6.00 Build 0)  -->
<svg version="1.1" id="图层_1" xmlns="http://www.w3.org/2000/svg" xmlns:xlink="http://www.w3.org/1999/xlink" x="0px" y="0px"
	 viewBox="0 0 175.1 174.9" style="enable-background:new 0 0 175.1 174.9;" xml:space="preserve">
<style type="text/css">
	.st0{fill:#797979;}
</style>
<g>
	<path class="st0" d="M82.2,116c4,4,7.7,4,11.7,0c0,0,49.9-43.6,49.9-52.6c0-4.1-3-9.8-8.3-9.8h-25.8V11.5c0-6.3-5.1-11.5-11.5-11.5
		H77c-6.3,0-11.5,5.1-11.5,11.5v42.1h-26c-5.4,0-8.2,6-8.2,9.8C31.4,71.6,82.2,116,82.2,116z"/>
	<path class="st0" d="M165.4,112.5h-44.7c-6.5,11.3-18.7,19-32.7,19s-26.2-7.6-32.7-19H9.7c-5.4,0-9.7,4.8-9.7,10.8v40.8
		c0,6,4.4,10.8,9.7,10.8h155.7c5.4,0,9.7-4.8,9.7-10.8v-40.8C175.1,117.4,170.8,112.5,165.4,112.5z M123,162.5
		c-3.5,0-6.2-2.8-6.2-6.2c0-3.5,2.8-6.2,6.2-6.2c3.5,0,6.2,2.8,6.2,6.2C129.3,159.7,126.5,162.5,123,162.5z M148.1,162.5
		c-3.5,0-6.2-2.8-6.2-6.2c0-3.5,2.8-6.2,6.2-6.2c3.5,0,6.2,2.8,6.2,6.2C154.3,159.7,151.5,162.5,148.1,162.5z"/>
</g>
</svg>
