<?xml version="1.0" encoding="utf-8"?>
<!-- Generator: Adobe Illustrator 21.1.0, SVG Export Plug-In . SVG Version: 6.00 Build 0)  -->
<svg version="1.1" id="图层_1" xmlns="http://www.w3.org/2000/svg" xmlns:xlink="http://www.w3.org/1999/xlink" x="0px" y="0px"
	 viewBox="0 0 167.6 187.6" style="enable-background:new 0 0 167.6 187.6;" xml:space="preserve">
<style type="text/css">
	.st0{fill:#66B100;}
	.st1{fill:#FFFFFF;}
</style>
<g>
	<path class="st0" d="M0,88.4C0,68,0,48.6,0,24.1C23.1,16.8,48.7,8,83.7,0c35.1,8,60.6,16.7,83.8,24.1c0,24.5,0,43.9,0,64.3
		c0,57.6-47,89.2-83.8,99.1C46.9,177.7,0,146,0,88.4L0,88.4z"/>
	<circle class="st1" cx="133.7" cy="153.7" r="33.9"/>
	<g>
		<ellipse class="st1" cx="134.6" cy="155.2" rx="19.8" ry="21.2"/>
		<g>
			<path class="st0" d="M133.7,127.2c-14.6,0-26.5,11.8-26.5,26.5c0,14.6,11.8,26.5,26.5,26.5c14.6,0,26.5-11.8,26.5-26.5
				C160.2,139.1,148.3,127.2,133.7,127.2L133.7,127.2z M149.2,165.1L149.2,165.1c0,3.9-7.6,4.9-14.7,4.9c-7.1,0-14.8-0.9-14.8-4.9
				V164c0-2.9,5.2-5.9,9.7-7.5c0.3-0.1,1.9-1,1-3.2c-2.2-2.3-3.9-5.9-3.9-9.5c0-5.5,3.6-8.4,7.9-8.4c4.3,0,7.9,2.9,7.9,8.4
				c0,3.6-1.7,7.2-3.9,9.5l0,0c-0.8,2.6,0.5,3.2,0.7,3.2c4.7,1.5,9.9,4.5,9.9,7.5v1.1H149.2z"/>
		</g>
	</g>
</g>
</svg>
