<?xml version="1.0" encoding="utf-8"?>
<!-- Generator: Adobe Illustrator 16.0.0, SVG Export Plug-In . SVG Version: 6.00 Build 0)  -->
<!DOCTYPE svg PUBLIC "-//W3C//DTD SVG 1.1//EN" "http://www.w3.org/Graphics/SVG/1.1/DTD/svg11.dtd">
<svg version="1.1" id="图层_1" xmlns="http://www.w3.org/2000/svg" xmlns:xlink="http://www.w3.org/1999/xlink" x="0px" y="0px"
	 width="34.613px" height="31.938px" viewBox="0 0 34.613 31.938" enable-background="new 0 0 34.613 31.938" xml:space="preserve">
<g>
	<path opacity="0.5" fill="#D6D6D6" enable-background="new    " d="M33.069,17.647c3.189-3.542,1.278-6.415-4.272-6.415
		c-5.549,0-12.635,2.872-15.824,6.415c-1.054,1.169-1.539,2.263-1.532,3.207H11.43l-1.379,11.021
		c-0.003,0.036,0.032,0.063,0.102,0.063s0.153-0.026,0.216-0.063L28.84,20.854h-0.013C30.536,19.91,32.014,18.817,33.069,17.647"/>
	<path fill="#D81E06" d="M20.098,9.893C20.098,4.43,15.599,0,10.049,0C4.5,0,0,4.43,0,9.893c0,1.805,0.499,3.49,1.355,4.948H1.344
		l8.545,16.997c0.029,0.059,0.089,0.1,0.159,0.1s0.13-0.041,0.159-0.1l8.548-16.997h-0.013
		C19.602,13.383,20.098,11.699,20.098,9.893"/>
	<g enable-background="new    ">
		<path fill="#FFFFFF" d="M15.205,5.373v1.641c-0.469,0.844-0.984,1.516-1.547,2.016c0.593,0.188,1.313,0.328,2.156,0.422
			c-0.219,0.563-0.391,1.125-0.516,1.688c-1.406-0.281-2.5-0.625-3.281-1.031c-0.5,0.25-1.078,0.469-1.734,0.656
			c1.25,0.188,2.656,0.422,4.219,0.703l-0.422,1.688c-0.157-0.031-0.391-0.078-0.703-0.141c-1.563-0.343-2.891-0.593-3.984-0.75
			l0.422-1.406c-0.344,0.094-0.734,0.188-1.172,0.281c-0.188-0.5-0.391-1.046-0.609-1.641c0.938-0.125,1.734-0.296,2.391-0.516
			c-0.25-0.281-0.516-0.625-0.797-1.031C9.502,8.107,9.299,8.311,9.018,8.56c0.218-0.188,0.188-0.171-0.094,0.047
			C8.893,8.389,8.83,8.185,8.736,7.998c-0.625,1.063-1.266,2.016-1.922,2.859c0.469-0.062,0.938-0.109,1.406-0.141
			c0,0.094-0.016,0.219-0.047,0.375c-0.031,0.5-0.047,0.891-0.047,1.172c-1.313,0.125-2.36,0.25-3.141,0.375l-0.469-1.453
			c0.344-0.25,0.64-0.546,0.891-0.891L6.064,9.31C5.658,9.342,5.221,9.389,4.752,9.451l-0.469-1.5
			C4.314,7.92,4.346,7.873,4.377,7.81c0.25-0.25,0.422-0.484,0.516-0.703c0.469-0.844,0.891-1.781,1.266-2.813l1.828,0.563
			C7.768,5.232,7.455,5.748,7.049,6.404C6.674,7.029,6.408,7.482,6.252,7.763c0.25,0,0.484,0,0.703,0
			c0.063-0.125,0.156-0.281,0.281-0.469C7.33,7.076,7.408,6.919,7.471,6.826l1.078,0.563c0-0.062-0.031-0.156-0.094-0.281
			C8.424,7.013,8.392,6.936,8.361,6.873C9.33,6.092,9.986,5.232,10.33,4.294l1.875,0.234c-0.031,0.094-0.11,0.234-0.234,0.422
			c-0.094,0.188-0.172,0.328-0.234,0.422H15.205z M4.564,15.169L4.33,13.435c0.531-0.031,1.437-0.125,2.719-0.281
			c0.563-0.062,0.984-0.109,1.266-0.141c0,0.063,0,0.141,0,0.234c-0.063,0.625-0.094,1.093-0.094,1.406
			C7.002,14.81,5.783,14.982,4.564,15.169z M8.924,12.826c0.375,0.063,0.968,0.157,1.781,0.281c1.844,0.313,3.25,0.563,4.219,0.75
			l-0.422,1.688c-1.625-0.344-3.641-0.719-6.047-1.125L8.924,12.826z M13.236,6.966h-2.344c0.312,0.5,0.703,0.922,1.172,1.266
			C12.533,7.889,12.924,7.467,13.236,6.966z"/>
	</g>
</g>
</svg>
