<?xml version="1.0" encoding="utf-8"?>
<!-- Generator: Adobe Illustrator 16.0.0, SVG Export Plug-In . SVG Version: 6.00 Build 0)  -->
<!DOCTYPE svg PUBLIC "-//W3C//DTD SVG 1.1//EN" "http://www.w3.org/Graphics/SVG/1.1/DTD/svg11.dtd">
<svg version="1.1" id="图层_1" xmlns="http://www.w3.org/2000/svg" xmlns:xlink="http://www.w3.org/1999/xlink" x="0px" y="0px"
	 width="13px" height="13px" viewBox="0 0 13 13" enable-background="new 0 0 13 13" xml:space="preserve">
<path fill="#FFFFFF" d="M6.899,11.801c-0.121,0-0.24-0.025-0.353-0.084c-0.359-0.172-0.584-0.59-0.584-1.088V8.828H5.571
	c-0.244,0-0.484,0.014-0.716,0.039c-0.062,0.008-0.118,0.02-0.18,0.029L4.438,8.938c-0.087,0.016-0.173,0.029-0.26,0.049
	C4.124,9,4.069,9.018,4.014,9.033L3.825,9.092c-0.093,0.029-0.186,0.055-0.278,0.09C3.5,9.197,3.459,9.221,3.415,9.24L3.319,9.285
	C3.194,9.34,3.073,9.395,2.954,9.459C2.924,9.475,2.898,9.49,2.87,9.51L2.78,9.568c-0.129,0.08-0.257,0.156-0.375,0.25L2.29,9.92
	c-0.133,0.107-0.264,0.217-0.424,0.387c-0.299,0.314-0.563,0.678-0.791,1.082c-0.23,0.375-0.496,0.404-0.612,0.385
	C0.237,11.758,0,11.572,0,11.199C0.04,8.217,2.442,4.541,5.597,4.095c0.119-0.02,0.239-0.032,0.358-0.039V2.384
	c0-0.762,0.373-1.104,0.709-1.172c0.045-0.01,0.084-0.01,0.109-0.01H6.79C6.827,1.2,6.883,1.197,6.948,1.206
	C7.137,1.231,7.326,1.322,7.51,1.468l4.961,3.992C12.52,5.5,12.555,5.538,12.586,5.58c0.049,0.049,0.098,0.1,0.139,0.154
	c0.041,0.051,0.074,0.104,0.104,0.154c0.045,0.076,0.076,0.154,0.105,0.236l0.031,0.098c0.014,0.045,0.02,0.09,0.021,0.135
	l0.01,0.09C13,6.495,13,6.542,12.996,6.608l-0.01,0.086L12.971,6.81c-0.014,0.054-0.031,0.104-0.064,0.183
	c-0.02,0.048-0.039,0.097-0.061,0.138c-0.039,0.078-0.086,0.15-0.154,0.234c-0.055,0.07-0.121,0.156-0.221,0.234l-4.928,3.953
	C7.34,11.717,7.113,11.801,6.899,11.801z M12.158,6.894c0.023-0.029,0.045-0.067,0.088-0.151l0.031-0.08l0.006-0.081L12.287,6.5
	l-0.006-0.074L12.26,6.347c-0.016-0.036-0.029-0.071-0.051-0.105c-0.016-0.029-0.029-0.055-0.051-0.077
	c-0.02-0.028-0.047-0.055-0.068-0.077L7.057,2.022C6.952,1.935,6.877,1.916,6.807,1.91c-0.051,0.01-0.145,0.16-0.145,0.475v2.375
	H6.223c-0.18,0-0.355,0.014-0.533,0.039C3.312,5.132,1.097,7.779,0.75,10.547c0.181-0.264,0.375-0.508,0.588-0.729l0.048-0.055
	c0.142-0.146,0.292-0.273,0.481-0.43c0.031-0.029,0.063-0.061,0.096-0.082c0.138-0.105,0.285-0.197,0.439-0.291L2.47,8.92
	c0.042-0.029,0.083-0.057,0.128-0.08c0.135-0.074,0.279-0.141,0.424-0.203l0.083-0.039c0.062-0.025,0.119-0.055,0.181-0.076
	c0.108-0.043,0.222-0.078,0.332-0.109l0.178-0.055C3.87,8.336,3.94,8.313,4.013,8.297c0.101-0.025,0.205-0.043,0.308-0.059
	L4.54,8.199c0.076-0.014,0.154-0.025,0.233-0.035C5.03,8.137,5.293,8.119,5.565,8.119h1.104v2.514c0,0.232,0.091,0.404,0.181,0.445
	c0.08,0.035,0.188-0.035,0.249-0.084l4.928-3.953c0.035-0.025,0.068-0.067,0.115-0.128L12.158,6.894L12.158,6.894L12.158,6.894z"/>
</svg>
