<?xml version="1.0" encoding="utf-8"?>
<!-- Generator: Adobe Illustrator 16.0.0, SVG Export Plug-In . SVG Version: 6.00 Build 0)  -->
<!DOCTYPE svg PUBLIC "-//W3C//DTD SVG 1.1//EN" "http://www.w3.org/Graphics/SVG/1.1/DTD/svg11.dtd">
<svg version="1.1" id="图层_1" xmlns="http://www.w3.org/2000/svg" xmlns:xlink="http://www.w3.org/1999/xlink" x="0px" y="0px"
	 width="15px" height="15px" viewBox="36.568 36.569 15 15" enable-background="new 36.568 36.569 15 15" xml:space="preserve">
<g>
	<g>
		<path fill="#FFFFFF" d="M51.569,44.069c0-4.135-3.364-7.5-7.5-7.5c-4.136,0-7.5,3.365-7.5,7.5c0,4.136,3.365,7.501,7.5,7.501
			C48.204,51.57,51.569,48.204,51.569,44.069 M44.068,50.415c-3.5,0-6.346-2.847-6.346-6.347c0-3.499,2.847-6.346,6.346-6.346
			c3.5,0,6.346,2.847,6.346,6.346C50.414,47.568,47.568,50.415,44.068,50.415"/>
	</g>
	<circle fill="#FFFFFF" cx="44.068" cy="44.069" r="1.041"/>
	<circle fill="#FFFFFF" cx="47.634" cy="44.069" r="1.041"/>
	<circle fill="#FFFFFF" cx="40.502" cy="44.069" r="1.041"/>
</g>
</svg>
