<?xml version="1.0" encoding="utf-8"?>
<!-- Generator: Adobe Illustrator 16.0.0, SVG Export Plug-In . SVG Version: 6.00 Build 0)  -->
<!DOCTYPE svg PUBLIC "-//W3C//DTD SVG 1.1//EN" "http://www.w3.org/Graphics/SVG/1.1/DTD/svg11.dtd">
<svg version="1.1" id="图层_1" xmlns="http://www.w3.org/2000/svg" xmlns:xlink="http://www.w3.org/1999/xlink" x="0px" y="0px"
	 width="228.5px" height="228.5px" viewBox="0 0 228.5 228.5" enable-background="new 0 0 228.5 228.5" xml:space="preserve">
<g>
	<g>
		<path fill="#FFFFFF" d="M114.25,228.5C51.252,228.5,0,177.248,0,114.25C0,51.252,51.252,0,114.25,0S228.5,51.252,228.5,114.25
			C228.5,177.248,177.248,228.5,114.25,228.5z M114.25,4C53.458,4,4,53.458,4,114.25S53.458,224.5,114.25,224.5
			S224.5,175.042,224.5,114.25S175.042,4,114.25,4z"/>
	</g>
	<path fill="#FFFFFF" d="M170.007,121.569c0.301-2.401,0.526-4.842,0.526-7.318c0-2.479-0.226-4.917-0.526-7.319l15.877-12.424
		c1.427-1.126,1.841-3.153,0.901-4.804l-15.013-26.012c-0.939-1.614-2.892-2.29-4.58-1.614L148.5,69.621
		c-3.865-2.965-8.107-5.479-12.688-7.394l-2.815-19.894c-0.337-1.764-1.876-3.152-3.753-3.152H99.217
		c-1.877,0-3.416,1.389-3.716,3.152l-2.814,19.894c-4.58,1.915-8.821,4.391-12.688,7.394l-18.691-7.544
		c-1.689-0.638-3.641,0-4.58,1.614L41.714,89.703c-0.938,1.614-0.524,3.64,0.902,4.804l15.838,12.424
		c-0.301,2.402-0.525,4.84-0.525,7.319c0,2.477,0.225,4.917,0.525,7.318l-15.838,12.425c-1.427,1.126-1.841,3.151-0.902,4.804
		l15.014,26.012c0.939,1.614,2.891,2.289,4.58,1.614L80,158.879c3.865,2.966,8.106,5.48,12.687,7.394l2.814,19.895
		c0.3,1.764,1.84,3.152,3.716,3.152h30.027c1.878,0,3.416-1.389,3.717-3.152l2.815-19.895c4.578-1.913,8.819-4.39,12.688-7.394
		l18.69,7.545c1.688,0.637,3.642,0,4.58-1.614l15.015-26.012c0.937-1.615,0.524-3.641-0.902-4.804L170.007,121.569z M114.23,140.524
		c-14.525,0-26.273-11.748-26.273-26.273c0-14.527,11.748-26.275,26.273-26.275c14.526,0,26.274,11.748,26.274,26.275
		C140.505,128.776,128.757,140.524,114.23,140.524z"/>
</g>
</svg>
