<?xml version="1.0" encoding="utf-8"?>
<!-- Generator: Adobe Illustrator 16.0.0, SVG Export Plug-In . SVG Version: 6.00 Build 0)  -->
<!DOCTYPE svg PUBLIC "-//W3C//DTD SVG 1.1//EN" "http://www.w3.org/Graphics/SVG/1.1/DTD/svg11.dtd">
<svg version="1.1" id="图层_1" xmlns="http://www.w3.org/2000/svg" xmlns:xlink="http://www.w3.org/1999/xlink" x="0px" y="0px"
	 width="15.464px" height="13.167px" viewBox="0 0 15.464 13.167" enable-background="new 0 0 15.464 13.167" xml:space="preserve">
<g>
	
		<linearGradient id="SVGID_1_" gradientUnits="userSpaceOnUse" x1="348.6914" y1="-222.7974" x2="348.6914" y2="-210.2935" gradientTransform="matrix(1 0 0 -1 -340.96 -209.9502)">
		<stop  offset="0" style="stop-color:#D7A866"/>
		<stop  offset="0.1281" style="stop-color:#B38748"/>
		<stop  offset="0.2315" style="stop-color:#AD8639"/>
		<stop  offset="0.3941" style="stop-color:#C39C63"/>
		<stop  offset="0.532" style="stop-color:#CAA670"/>
		<stop  offset="0.6798" style="stop-color:#BE965E"/>
		<stop  offset="0.8276" style="stop-color:#E7C693"/>
		<stop  offset="1" style="stop-color:#FFFDC9"/>
	</linearGradient>
	<path fill="url(#SVGID_1_)" d="M11.09,12.847v-1.409H9.476v1.409H5.998v-1.409H4.374v1.409h-3.48v-1.409H0.33V9.931h0.563V4.394
		H0.33V2.885h0.563v-0.62l1.372-1.922h0.724l1.385,2.214v0.328h1.624V2.557l1.383-2.214h0.711l1.386,2.214v0.328h1.614V2.573
		l1.139-2.229h0.698l1.358,2.217v0.325h0.845v1.509h-0.845v5.537h0.845v1.507h-0.845v1.409H11.09z M11.09,9.931V4.392H9.476v5.539
		H11.09z M5.997,9.931V4.392H4.372v5.539H5.997z"/>
	<path fill="#BD7B45" d="M12.743,0.673l1.213,1.979v0.563h0.846v0.849h-0.846v6.198h0.846v0.846h-0.846v1.41H11.42v-1.41H9.146v1.41
		H6.327v-1.41H4.044v1.41H1.223v-1.41H0.66v-0.846h0.563V4.064H0.66V3.215h0.563V2.372l1.212-1.698h0.371l1.238,1.979v0.563h2.283
		V2.653l1.235-1.979h0.347l1.236,1.979v0.563h2.274V2.653l1.013-1.979H12.743 M9.146,10.261h2.274V4.063H9.146V10.261 M4.044,10.261
		h2.283V4.063H4.044V10.261 M13.112,0.013h-0.369h-0.311h-0.404l-0.185,0.36l-1.011,1.979l-0.072,0.142v0.062H9.809V2.462
		L9.707,2.303L8.47,0.324L8.275,0.013H7.909H7.563H7.198L7.003,0.324L5.769,2.303L5.667,2.464v0.091H4.704V2.462L4.604,2.303
		L3.366,0.324L3.172,0.013H2.806H2.435h-0.34L1.896,0.291L0.684,1.988L0.562,2.159V2.37v0.184H0v0.66v0.85v0.661h0.562v4.877H0
		v0.661v0.846v0.66h0.562v0.751v0.66h0.661h2.821h0.66v-0.66v-0.751h0.963v0.751v0.66h0.661h2.818h0.662v-0.66v-0.751h0.952v0.751
		v0.66h0.661h2.536h0.66v-0.66v-0.751h0.185h0.661v-0.66v-0.846V9.601h-0.661h-0.185V4.724h0.185h0.661V4.063v-0.85v-0.66h-0.661
		h-0.185V2.464l-0.098-0.158l-1.214-1.979L13.112,0.013L13.112,0.013z M9.806,4.724h0.954v4.877H9.806V4.724L9.806,4.724z
		 M4.702,4.724h0.965v4.877H4.702V4.724L4.702,4.724z"/>
</g>
</svg>
