<?xml version="1.0" encoding="utf-8"?>
<!-- Generator: Adobe Illustrator 16.0.0, SVG Export Plug-In . SVG Version: 6.00 Build 0)  -->
<!DOCTYPE svg PUBLIC "-//W3C//DTD SVG 1.1//EN" "http://www.w3.org/Graphics/SVG/1.1/DTD/svg11.dtd">
<svg version="1.1" id="图层_1" xmlns="http://www.w3.org/2000/svg" xmlns:xlink="http://www.w3.org/1999/xlink" x="0px" y="0px"
	 width="31px" height="36.167px" viewBox="84.5 151.333 31 36.167" enable-background="new 84.5 151.333 31 36.167"
	 xml:space="preserve">
<g>
	<path fill="#FFFFFF" d="M114.208,159.083H85.792c-0.713,0-1.292-0.578-1.292-1.291c0-0.714,0.578-1.292,1.292-1.292h28.417
		c0.714,0,1.292,0.578,1.292,1.292C115.5,158.505,114.922,159.083,114.208,159.083z M103.875,153.917h-7.75
		c-0.714,0-1.292-0.578-1.292-1.292s0.578-1.292,1.292-1.292h7.75c0.714,0,1.292,0.578,1.292,1.292S104.589,153.917,103.875,153.917
		z M88.375,161.667c0.714,0,1.292,0.578,1.292,1.291v19.375c0,1.427,1.157,2.584,2.583,2.584h2.583v-21.959
		c0-0.713,0.578-1.291,1.292-1.291s1.292,0.578,1.292,1.291v21.959h5.167v-21.959c0-0.713,0.578-1.291,1.292-1.291
		s1.292,0.578,1.292,1.291v21.959h2.583c1.427,0,2.583-1.157,2.583-2.584v-19.375c0-0.713,0.578-1.291,1.292-1.291
		s1.292,0.578,1.292,1.291v19.375c0,2.854-2.313,5.167-5.167,5.167h-15.5c-2.854,0-5.167-2.313-5.167-5.167v-19.375
		C87.083,162.245,87.661,161.667,88.375,161.667z"/>
</g>
</svg>
