<?xml version="1.0" encoding="utf-8"?>
<!-- Generator: Adobe Illustrator 16.0.0, SVG Export Plug-In . SVG Version: 6.00 Build 0)  -->
<!DOCTYPE svg PUBLIC "-//W3C//DTD SVG 1.1//EN" "http://www.w3.org/Graphics/SVG/1.1/DTD/svg11.dtd">
<svg version="1.1" id="图层_1" xmlns="http://www.w3.org/2000/svg" xmlns:xlink="http://www.w3.org/1999/xlink" x="0px" y="0px"
	 width="20px" height="23.128px" viewBox="0 1.966 20 23.128" enable-background="new 0 1.966 20 23.128" xml:space="preserve">
<g>
	<path fill="#8D8D8D" d="M19.402,7.265l-1.455-1.434l-3.146-3.168c-0.598-0.558-1.057-0.697-1.773-0.697H1.414
		C0.637,1.966,0,2.604,0,3.381v20.317c0,0.777,0.637,1.395,1.414,1.395h17.172c0.775,0,1.414-0.617,1.414-1.395V8.68
		C20,8.062,19.801,7.763,19.402,7.265L19.402,7.265L19.402,7.265L19.402,7.265z M18.188,7.803h-4.045V3.759L18.188,7.803z
		 M18.863,23.698c0,0.141-0.119,0.279-0.277,0.279H1.414c-0.159,0-0.279-0.139-0.279-0.279V3.381c0-0.159,0.12-0.279,0.279-0.279
		h11.613v5.259c0,0.319,0.26,0.578,0.559,0.578h5.277V23.698L18.863,23.698z"/>
	<g>
		<path fill="#8D8D8D" d="M9.9,19.923c-2.702,0-4.9-2.199-4.9-4.896c0-2.696,2.198-4.895,4.9-4.895c2.703,0,4.9,2.199,4.9,4.895
			C14.8,17.725,12.603,19.923,9.9,19.923z M9.9,10.507c-2.495,0-4.525,2.03-4.525,4.519c0,2.492,2.03,4.521,4.525,4.521
			c2.496,0,4.526-2.029,4.526-4.521C14.427,12.537,12.396,10.507,9.9,10.507z"/>
		<path fill="#8D8D8D" d="M9.9,13.669c-0.723,0-1.311-0.588-1.311-1.312c0-0.723,0.589-1.311,1.311-1.311
			c0.723,0,1.313,0.588,1.313,1.312S10.623,13.669,9.9,13.669z M9.9,11.422c-0.516,0-0.936,0.42-0.936,0.937
			c0,0.518,0.42,0.937,0.936,0.937c0.517,0,0.937-0.419,0.937-0.937C10.837,11.842,10.417,11.422,9.9,11.422z M9.9,19.018
			c-0.723,0-1.311-0.588-1.311-1.311s0.589-1.311,1.311-1.311c0.723,0,1.313,0.588,1.313,1.311S10.623,19.018,9.9,19.018z
			 M9.9,16.77c-0.516,0-0.936,0.42-0.936,0.938c0,0.516,0.42,0.936,0.936,0.936c0.517,0,0.937-0.42,0.937-0.936
			C10.837,17.19,10.417,16.77,9.9,16.77z M7.247,16.333c-0.724,0-1.312-0.588-1.312-1.307s0.588-1.306,1.312-1.306
			c0.723,0,1.31,0.587,1.31,1.306S7.968,16.333,7.247,16.333z M7.247,14.094c-0.517,0-0.937,0.418-0.937,0.932
			s0.419,0.934,0.937,0.934c0.516,0,0.936-0.42,0.936-0.934S7.762,14.094,7.247,14.094z M12.644,16.333
			c-0.723,0-1.311-0.588-1.311-1.307s0.588-1.306,1.311-1.306c0.724,0,1.312,0.587,1.312,1.306S13.367,16.333,12.644,16.333z
			 M12.644,14.094c-0.517,0-0.937,0.418-0.937,0.932s0.42,0.934,0.937,0.934c0.516,0,0.936-0.42,0.936-0.934
			S13.159,14.094,12.644,14.094z M14.813,19.921H9.881c-0.104,0-0.188-0.084-0.188-0.188c0-0.105,0.084-0.188,0.188-0.188h4.931
			c0.104,0,0.188,0.082,0.188,0.188C15,19.837,14.917,19.921,14.813,19.921z"/>
	</g>
</g>
</svg>
