<?xml version="1.0" encoding="utf-8"?>
<!-- Generator: Adobe Illustrator 16.0.0, SVG Export Plug-In . SVG Version: 6.00 Build 0)  -->
<!DOCTYPE svg PUBLIC "-//W3C//DTD SVG 1.1//EN" "http://www.w3.org/Graphics/SVG/1.1/DTD/svg11.dtd">
<svg version="1.1" id="图层_1" xmlns="http://www.w3.org/2000/svg" xmlns:xlink="http://www.w3.org/1999/xlink" x="0px" y="0px"
	 width="32px" height="32px" viewBox="84 155.426 32 32" enable-background="new 84 155.426 32 32" xml:space="preserve">
<g>
	<path fill="#FFFFFF" d="M100.006,175.254l4.972-4.971l1.514,1.514l-6.198,6.199l-0.288,0.287v-0.001v0.001l-6.486-6.486
		l1.515-1.514L100.006,175.254z"/>
	<path fill="#FFFFFF" d="M98.857,155.426h2.285v20.571h-2.285V155.426z"/>
	<path fill="#FFFFFF" d="M86.286,170.283v13.715c0,0.63,0.511,1.142,1.139,1.142h25.15c0.623,0,1.14-0.516,1.14-1.142v-13.715h1.143
		H116v13.715c0,1.893-1.543,3.428-3.425,3.428h-25.15c-1.891,0-3.425-1.536-3.425-3.428v-13.715h1.143H86.286z"/>
</g>
</svg>
