<?xml version="1.0" encoding="utf-8"?>
<!-- Generator: Adobe Illustrator 21.1.0, SVG Export Plug-In . SVG Version: 6.00 Build 0)  -->
<svg version="1.1" id="图层_1" xmlns="http://www.w3.org/2000/svg" xmlns:xlink="http://www.w3.org/1999/xlink" x="0px" y="0px"
	 viewBox="0 0 200 200" style="enable-background:new 0 0 200 200;" xml:space="preserve">
<style type="text/css">
	.st0{fill:#339eff;}
</style>
<path class="st0" d="M158,50.7l-39.2,39.1c-2.7,2.7-7.2,2.7-9.9,0c-2.7-2.7-2.7-7.2,0-9.9l38-38H117c-3.9,0-7-3.1-7-7s3.1-7,7-7h46
	c0.3,0,0.7,0,1,0.1c3.8-0.6,7.4,2.1,7.9,5.9c0,0.3,0.1,0.7,0.1,1v46c0,3.9-3.1,7-7,7c-3.9,0-7-3.1-7-7c0,0,0,0,0,0V50.7z
	 M30.1,169.9c-1.3-1.3-2.1-3.1-2.1-4.9v-46c0-3.9,3.1-7,7-7s7,3.1,7,7v27.9l38-38c2.7-2.7,7.2-2.7,9.9,0c2.7,2.7,2.7,7.2,0,9.9
	L50.7,158H81c3.9,0,7,3.1,7,7c0,3.9-3.1,7-7,7c0,0,0,0,0,0H35C33.1,172,31.3,171.2,30.1,169.9z M26,0h148c14.4,0,26,11.6,26,26v148
	c0,14.4-11.6,26-26,26H26c-14.4,0-26-11.6-26-26V26C0,11.6,11.6,0,26,0z M26,14c-6.6,0-12,5.4-12,12v148c0,6.6,5.4,12,12,12l0,0h148
	c6.6,0,12-5.4,12-12l0,0V26c0-6.6-5.4-12-12-12l0,0C174,14,26,14,26,14z"/>
</svg>
