<?xml version="1.0" encoding="utf-8"?>
<!-- Generator: Adobe Illustrator 21.1.0, SVG Export Plug-In . SVG Version: 6.00 Build 0)  -->
<svg version="1.1" id="图层_1" xmlns="http://www.w3.org/2000/svg" xmlns:xlink="http://www.w3.org/1999/xlink" x="0px" y="0px"
	 viewBox="0 0 35.3 27.4" style="enable-background:new 0 0 35.3 27.4;" xml:space="preserve">
<style type="text/css">
	.st0{fill:#FFFFFF;}
</style>
<g>
	<g>
		<path class="st0" d="M35,25.3l-5.6-7.3c2-1.9,3.2-4.6,3.2-7.5C32.6,4.7,28,0,22.2,0c-5.8,0-10.4,4.7-10.4,10.4s4.7,10.4,10.4,10.4
			c1.9,0,3.6-0.5,5.1-1.3l5.6,7.4c0.3,0.3,0.6,0.5,1,0.5c0.3,0,0.6-0.1,0.8-0.3C35.3,26.7,35.5,25.8,35,25.3L35,25.3z M14.2,10.4
			c0-4.4,3.6-8,8-8s8,3.6,8,8s-3.6,8-8,8S14.2,14.8,14.2,10.4L14.2,10.4z M9.1,5.2H1.3C0.6,5.2,0,4.6,0,3.9c0-0.7,0.6-1.3,1.3-1.3
			h7.8c0.7,0,1.3,0.6,1.3,1.3C10.4,4.6,9.8,5.2,9.1,5.2L9.1,5.2z M8.8,18H1.3C0.6,18,0,17.5,0,16.7s0.6-1.3,1.3-1.3h7.5
			c0.7,0,1.3,0.6,1.3,1.3S9.5,18,8.8,18L8.8,18z M7.3,11.6h-6C0.6,11.6,0,11,0,10.3C0,9.6,0.6,9,1.3,9h6C8,9,8.6,9.6,8.6,10.3
			C8.6,11,8,11.6,7.3,11.6L7.3,11.6z M15.7,24.7H1.3c-0.7,0-1.3-0.6-1.3-1.3c0-0.7,0.6-1.3,1.3-1.3h14.4c0.7,0,1.3,0.6,1.3,1.3
			C17,24.1,16.4,24.7,15.7,24.7L15.7,24.7z M15.7,24.7"/>
	</g>
</g>
</svg>
