<?xml version="1.0" encoding="utf-8"?>
<!-- Generator: Adobe Illustrator 21.1.0, SVG Export Plug-In . SVG Version: 6.00 Build 0)  -->
<svg version="1.1" id="图层_1" xmlns="http://www.w3.org/2000/svg" xmlns:xlink="http://www.w3.org/1999/xlink" x="0px" y="0px"
	 viewBox="0 0 25.7 17.3" style="enable-background:new 0 0 25.7 17.3;" xml:space="preserve">
<style type="text/css">
	.st0{fill:#6DCFF6;}
</style>
<g>
	<g>
		<path class="st0" d="M19.5,9.2h4.7c0-0.1,0-0.1,0-0.2c0-0.1,0-0.1-0.1-0.2c0-0.1-0.1-0.1-0.1-0.2c0-0.1-0.1-0.1-0.1-0.2L22,5.8
			l-0.1-0.1c0,0-0.1-0.1-0.1-0.1c0,0-0.1-0.1-0.2-0.1h-2.2V9.2L19.5,9.2z M25,7.4L25,7.4c0.1,0.1,0.1,0.2,0.1,0.2
			c0,0.1,0.1,0.1,0.1,0.2c0.1,0.1,0.1,0.2,0.2,0.3l0.1,0.4c0.1,0.1,0.1,0.2,0.1,0.4c0,0.1,0,0.3,0,0.4v4.6c0,0.2-0.1,0.5-0.3,0.6
			c-0.2,0.2-0.4,0.3-0.6,0.3h-0.9c-0.1-0.8-0.5-1.5-1-2c-0.6-0.5-1.3-0.8-2.1-0.8c-0.5,0-1,0.1-1.4,0.4c-0.4,0.3-0.8,0.6-1.1,1
			c-0.3,0.4-0.5,0.9-0.5,1.4c-0.2,0-0.5-0.1-0.6-0.3c-0.2-0.2-0.3-0.4-0.3-0.6V4.6c0-0.2,0.1-0.5,0.3-0.6c0.2-0.2,0.4-0.3,0.6-0.3h4
			c0.1,0,0.3,0,0.4,0.1c0.1,0,0.2,0.1,0.3,0.2c0.1,0.1,0.2,0.2,0.2,0.2L23,4.5c0,0,0.1,0.1,0.1,0.1L25,7.4L25,7.4z M22.9,15.2
			c0-0.4-0.1-0.7-0.3-1.1c-0.4-0.7-1-1.1-1.8-1.1c-0.5,0-1.1,0.2-1.4,0.6c-0.4,0.4-0.6,0.9-0.6,1.5c0,0.2,0,0.3,0.1,0.5
			c0,0.2,0.1,0.3,0.2,0.4c0.1,0.1,0.1,0.3,0.2,0.4c0.1,0.1,0.2,0.2,0.3,0.3s0.2,0.2,0.4,0.3c0.1,0.1,0.3,0.1,0.4,0.2
			c0.2,0,0.3,0.1,0.5,0.1c0.6,0,1-0.2,1.5-0.6C22.7,16.3,22.9,15.8,22.9,15.2L22.9,15.2z M9.9,15.2c0-0.6-0.2-1.1-0.6-1.5
			c-0.4-0.4-0.9-0.6-1.5-0.6c-0.3,0-0.5,0.1-0.8,0.2c-0.3,0.1-0.5,0.3-0.7,0.5c-0.2,0.2-0.3,0.4-0.4,0.7c-0.1,0.3-0.2,0.5-0.2,0.8
			c0,0.6,0.2,1.1,0.6,1.5c0.4,0.4,0.9,0.6,1.5,0.6s1-0.2,1.5-0.6C9.7,16.3,9.9,15.8,9.9,15.2L9.9,15.2z"/>
	</g>
	<path class="st0" d="M15.9,0.6c-0.1-0.1-0.1-0.2-0.2-0.3c-0.1-0.1-0.2-0.2-0.3-0.2C15.3,0,15.1,0,15,0H0.9C0.6,0,0.4,0.1,0.3,0.3
		C0.1,0.4,0,0.7,0,0.9v12.9c0,0.3,0.1,0.5,0.3,0.6c0.2,0.2,0.4,0.3,0.6,0.3h3.9c0.1-0.8,0.5-1.5,1.1-2c0.6-0.5,1.3-0.8,2.1-0.8
		c0.8,0,1.5,0.3,2.1,0.8c0.6,0.5,0.9,1.2,1.1,2H15c0.1,0,0.2,0,0.3-0.1c0.1,0,0.2-0.1,0.3-0.2c0.1-0.1,0.1-0.2,0.2-0.3
		c0.1-0.1,0.1-0.2,0.1-0.3V0.9C15.9,0.8,15.9,0.7,15.9,0.6z M11.9,8.2c0,0.6-0.5,1-1,1H4.3c-0.6,0-1-0.5-1-1V7.8c0-0.6,0.5-1,1-1
		h6.6c0.6,0,1,0.5,1,1V8.2z M11.9,4c0,0.6-0.5,1-1,1H4.3c-0.6,0-1-0.5-1-1V3.6c0-0.6,0.5-1,1-1h6.6c0.6,0,1,0.5,1,1V4z"/>
</g>
</svg>
