<?xml version="1.0" encoding="utf-8"?>
<!-- Generator: Adobe Illustrator 16.0.0, SVG Export Plug-In . SVG Version: 6.00 Build 0)  -->
<!DOCTYPE svg PUBLIC "-//W3C//DTD SVG 1.1//EN" "http://www.w3.org/Graphics/SVG/1.1/DTD/svg11.dtd">
<svg version="1.1" id="图层_1" xmlns="http://www.w3.org/2000/svg" xmlns:xlink="http://www.w3.org/1999/xlink" x="0px" y="0px"
	 width="33px" height="33px" viewBox="0 0 33 33" enable-background="new 0 0 33 33" xml:space="preserve">
<g>
	<path fill="#6DCFF6" d="M16.5,0C7.398,0,0,7.373,0,16.5C0,25.602,7.374,33,16.5,33C25.602,33,33,25.627,33,16.5
		C33,7.398,25.627,0,16.5,0z M26.039,26.014c-2.553,2.553-5.93,3.944-9.514,3.944c-3.608,0-6.986-1.394-9.512-3.944
		c-2.578-2.527-3.972-5.904-3.972-9.514s1.394-6.986,3.944-9.514c2.553-2.553,5.931-3.944,9.514-3.944
		c3.609,0,6.986,1.394,9.514,3.944c2.553,2.553,3.944,5.93,3.944,9.514S28.564,23.486,26.039,26.014z"/>
	<path fill="#6DCFF6" d="M16.5,24.879c-0.928,0-1.702-0.773-1.702-1.753c0-0.954,0.772-1.753,1.702-1.753s1.701,0.773,1.701,1.753
		S17.454,24.879,16.5,24.879z M21.244,13.896c-0.232,0.463-0.516,0.851-0.825,1.16c-0.335,0.334-0.901,0.875-1.728,1.648
		c-0.232,0.206-0.412,0.413-0.567,0.566c-0.129,0.154-0.231,0.311-0.31,0.465c-0.078,0.129-0.129,0.283-0.154,0.412
		s-0.104,0.388-0.182,0.723c-0.129,0.722-0.541,1.107-1.211,1.107c-0.36,0-0.645-0.129-0.901-0.36
		c-0.232-0.231-0.361-0.593-0.361-1.058c0-0.593,0.077-1.107,0.259-1.547c0.18-0.438,0.411-0.824,0.695-1.135
		c0.284-0.335,0.695-0.722,1.186-1.16c0.438-0.387,0.748-0.695,0.955-0.902c0.205-0.205,0.359-0.411,0.488-0.67
		c0.129-0.258,0.207-0.516,0.207-0.799c0-0.566-0.207-1.031-0.619-1.418s-0.928-0.594-1.572-0.594c-0.748,0-1.289,0.207-1.65,0.594
		s-0.645,0.953-0.902,1.728c-0.232,0.8-0.67,1.187-1.314,1.187c-0.387,0-0.696-0.129-0.954-0.412
		c-0.259-0.283-0.388-0.594-0.388-0.902c0-0.67,0.207-1.34,0.619-2.036c0.414-0.696,1.031-1.265,1.805-1.702
		c0.8-0.464,1.728-0.67,2.785-0.67c0.979,0,1.855,0.182,2.604,0.566c0.748,0.387,1.341,0.902,1.753,1.547
		c0.413,0.646,0.619,1.367,0.619,2.115C21.604,12.916,21.502,13.458,21.244,13.896L21.244,13.896z"/>
</g>
</svg>
