<?xml version="1.0" encoding="utf-8"?>
<!-- Generator: Adobe Illustrator 21.1.0, SVG Export Plug-In . SVG Version: 6.00 Build 0)  -->
<svg version="1.1" id="图层_1" xmlns="http://www.w3.org/2000/svg" xmlns:xlink="http://www.w3.org/1999/xlink" x="0px" y="0px"
	 viewBox="0 0 21 16.1" style="enable-background:new 0 0 21 16.1;" xml:space="preserve">
<style type="text/css">
	.st0{fill:#CBCBCB;}
</style>
<g>
	<path class="st0" d="M19,0H2C0.9,0,0,0.8,0,1.7v12.7c0,1,0.9,1.7,2,1.7H19c1.1,0,2-0.8,2-1.7V1.7C21,0.8,20.1,0,19,0z M4.8,3.1
		c1.3,0,2.3,1,2.3,2.3c0,1.3-1,2.3-2.3,2.3c-1.3,0-2.3-1-2.3-2.3C2.5,4.1,3.5,3.1,4.8,3.1z M19.7,14.4c0,0.3-0.3,0.6-0.7,0.6H2
		c-0.4,0-0.7-0.3-0.7-0.6v-2.7c0.8,0.5,1.9,1,3.2,1c1.5,0,3.2-1.1,4.9-2.3c1.8-1.2,3.6-2.5,5.2-2.5c2.8,0,5.1,2.2,5.1,2.2l0,0V14.4z
		"/>
</g>
</svg>
