<?xml version="1.0" encoding="utf-8"?>
<!-- Generator: Adobe Illustrator 21.1.0, SVG Export Plug-In . SVG Version: 6.00 Build 0)  -->
<svg version="1.1" id="图层_1" xmlns="http://www.w3.org/2000/svg" xmlns:xlink="http://www.w3.org/1999/xlink" x="0px" y="0px"
	 viewBox="0 0 96 164" style="enable-background:new 0 0 96 164;" xml:space="preserve">
<style type="text/css">
	.st0{fill:#AEAEAE;}
</style>
<g>
	<path class="st0" d="M12,45v107h72V45H12z M8,33h79c4.4,0,9,3.6,9,8v1v114c0,4.4-5.6,8-10,8h1H8c-4.4,0-8-3.6-8-8l0,0V41
		C0,36.6,3.6,33,8,33z M29,64v18h38V64H29z M27,54h42c4.4,0,8,3.6,8,8l0,0v22c0,4.4-3.6,8-8,8l0,0H27c-4.4,0-8-3.6-8-8l0,0V62
		C19,57.6,22.6,54,27,54z M24,107h48c2.8,0,5,2.2,5,5s-2.2,5-5,5H24c-2.8,0-5-2.2-5-5S21.2,107,24,107z M24,127h48c2.8,0,5,2.2,5,5
		s-2.2,5-5,5H24c-2.8,0-5-2.2-5-5S21.2,127,24,127z M29,0c4.4,0,7,3.6,7,8v24c0,4.4-2.6,8-7,8s-7-3.6-7-8V8C22,3.6,24.6,0,29,0L29,0
		z M68,20c4.4,0,6,3.6,6,8v4c0,4.4-1.6,8-6,8s-6-3.6-6-8l0,0v-4C62,23.6,63.6,20,68,20L68,20z"/>
</g>
</svg>
