<?xml version="1.0" encoding="utf-8"?>
<!-- Generator: Adobe Illustrator 21.1.0, SVG Export Plug-In . SVG Version: 6.00 Build 0)  -->
<svg version="1.1" id="图层_1" xmlns="http://www.w3.org/2000/svg" xmlns:xlink="http://www.w3.org/1999/xlink" x="0px" y="0px"
	 viewBox="0 0 193.8 200.1" style="enable-background:new 0 0 193.8 200.1;" xml:space="preserve">
<style type="text/css">
	.st0{fill:#648DC8;}
</style>
<g>
	<path class="st0" d="M134.8,132.8c1,0.5,2.2,0.8,3.3,0.7c4.7,0,5.4-3.2,5.7-5.7v-0.7c0.1-2-0.7-3.9-2-5.3l-0.7-0.7
		c-0.7-1.3-2-2-3.3-2.6c-4.7-3.3-10-6-15.3-8.6c16.6-11.1,26.6-29.7,26.6-49.7C149.2,27.2,121.9,0,87.2,0
		C54.6,0.7,26.6,27.8,26.6,60.9c0,20,10,38.6,26.6,49.7c-28,11.9-48,37.1-52.6,66.9c0,0.7-0.7,2-0.7,2.7v0.7
		c0.5,3.1,1.1,5.7,5.7,5.7c4.7-0.1,8.6-3.9,8.7-8.6c4-33.1,34.9-58.3,68.9-60.3h8c13.3,0.7,28.9,5.3,38.9,11.9
		C131.5,130.9,133.1,132,134.8,132.8L134.8,132.8z M89.6,108.9C62.8,108.9,41,87.2,40.9,60.4s21.6-48.6,48.5-48.7
		c26.8-0.1,48.6,21.6,48.7,48.5c0,0,0,0.1,0,0.1C138,87,116.3,108.7,89.6,108.9L89.6,108.9z"/>
	<path class="st0" d="M185.1,155.7h-17.3v-17.2c0-4.8-3.9-8.7-8.7-8.7c-4.8,0-8.7,3.9-8.7,8.7v17.9h-18c-4.6-0.2-8.5,3.5-8.7,8.1
		c0,0.2,0,0.4,0,0.5c0.1,4.7,3.9,8.5,8.7,8.6h18v17.9c0,4.8,3.9,8.7,8.7,8.7c4.8,0,8.7-3.9,8.7-8.7v-17.9h17.3
		c4.7-0.1,8.6-3.9,8.7-8.6C193.8,159.6,189.8,155.7,185.1,155.7z"/>
</g>
</svg>
