<?xml version="1.0" standalone="no"?><!DOCTYPE svg PUBLIC "-//W3C//DTD SVG 1.1//EN" "http://www.w3.org/Graphics/SVG/1.1/DTD/svg11.dtd"><svg t="1571314232483" class="icon" viewBox="0 0 1024 1024" version="1.1" xmlns="http://www.w3.org/2000/svg" p-id="3183" width="32" height="32" xmlns:xlink="http://www.w3.org/1999/xlink"><defs><style type="text/css"></style></defs><path d="M763.2896 224h-127.0528V173.184H814.08a25.3952 25.3952 0 0 1 25.4208 25.3952v177.8944h-50.7904V249.4208a25.4208 25.4208 0 0 0-25.4208-25.4208z m25.4208 412.16h50.816V814.08a25.3952 25.3952 0 0 1-25.4208 25.4208h-177.8688v-50.7904h152.4736zM224 788.7104h152.4736v50.816H198.5792a25.3952 25.3952 0 0 1-25.3952-25.4464v-177.8432H224v152.4736z m0-565.0944v152.8576H173.184V198.4a25.2928 25.2928 0 0 1 25.3952-25.216h177.8944v50.432zM128 478.1056h203.2896v56.4736H128z m564.7104 0H896v56.4736h-203.2896zM478.1056 128h56.4736v203.2896h-56.4736z m0 564.7104h56.4736V896h-56.4736zM512 591.0528A79.0528 79.0528 0 1 1 591.0528 512 79.0272 79.0272 0 0 1 512 591.0528z" p-id="3184" fill="#339eff"></path></svg>