<?xml version="1.0" encoding="utf-8"?>
<!-- Generator: Adobe Illustrator 21.1.0, SVG Export Plug-In . SVG Version: 6.00 Build 0)  -->
<svg version="1.1" id="图层_1" xmlns="http://www.w3.org/2000/svg" xmlns:xlink="http://www.w3.org/1999/xlink" x="0px" y="0px"
	 viewBox="0 0 72 73.4" style="enable-background:new 0 0 72 73.4;" xml:space="preserve">
<style type="text/css">
	.st0{fill:#FFFFFF;}
</style>
<g>
	<path class="st0" d="M56.4,73.4H15.6C7,73.4,0,66.4,0,57.8v-9.4h8v9.4c0,4.2,3.4,7.6,7.6,7.6h40.8c4.2,0,7.6-3.4,7.6-7.6v-9.4h8
		v9.4C72,66.4,65,73.4,56.4,73.4L56.4,73.4z M31.8,44c-12.2,0-22-9.8-22-22s9.8-22,22-22s22,9.8,22,22S43.8,44,31.8,44z M31.8,8
		c-7.8,0-14,6.2-14,14s6.2,14,14,14s14-6.2,14-14S39.4,8,31.8,8z"/>
	<path class="st0" d="M59.8,48.8l-0.4,0.4c-1.4,1.4-3.8,1.4-5.2,0L42.4,37.4c-1.4-1.4-1.4-3.8,0-5.2l0.4-0.4c1.4-1.4,3.8-1.4,5.2,0
		l11.8,11.8C61.2,45,61.2,47.4,59.8,48.8z"/>
</g>
</svg>
