<?xml version="1.0" encoding="utf-8"?>
<!-- Generator: Adobe Illustrator 16.0.0, SVG Export Plug-In . SVG Version: 6.00 Build 0)  -->
<!DOCTYPE svg PUBLIC "-//W3C//DTD SVG 1.1//EN" "http://www.w3.org/Graphics/SVG/1.1/DTD/svg11.dtd">
<svg version="1.1" id="图层_1" xmlns="http://www.w3.org/2000/svg" xmlns:xlink="http://www.w3.org/1999/xlink" x="0px" y="0px"
	 width="174.883px" height="174.883px" viewBox="0 0 174.883 174.883" enable-background="new 0 0 174.883 174.883"
	 xml:space="preserve">
<g>
	<path fill="#999999" d="M119.238,79.489H95.39V55.641c0-4.392-3.561-7.946-7.953-7.946s-7.952,3.554-7.952,7.946v23.849H55.637
		c-4.385,0-7.939,3.554-7.939,7.952c0,4.385,3.554,7.943,7.939,7.943h23.849v23.852c0,4.383,3.56,7.951,7.952,7.951
		c4.392,0,7.953-3.568,7.953-7.951V95.384h23.848c4.385,0,7.945-3.559,7.945-7.943C127.184,83.043,123.623,79.489,119.238,79.489z"
		/>
	<path fill="#999999" d="M170.906,143.088c-2.193,0-3.977,1.775-3.977,3.969v19.879h-19.873c-2.199,0-3.969,1.771-3.969,3.971
		s1.77,3.977,3.969,3.977h23.85c2.191,0,3.975-1.777,3.975-3.977v-23.85C174.881,144.863,173.098,143.088,170.906,143.088z"/>
	<path fill="#999999" d="M170.906,95.388c-2.193,0-3.977,1.777-3.977,3.977v23.848c0,2.193,1.783,3.977,3.977,3.977
		c2.191,0,3.975-1.783,3.975-3.977V99.365C174.881,97.166,173.098,95.388,170.906,95.388z"/>
	<path fill="#999999" d="M170.906,47.698c-2.193,0-3.977,1.777-3.977,3.976v23.842c0,2.199,1.783,3.977,3.977,3.977
		c2.191,0,3.975-1.777,3.975-3.977V51.674C174.881,49.475,173.098,47.698,170.906,47.698z"/>
	<path fill="#999999" d="M170.906,0h-23.85c-2.199,0-3.969,1.777-3.969,3.976c0,2.193,1.77,3.976,3.969,3.976h19.873v19.867
		c0,2.199,1.783,3.976,3.977,3.976s3.977-1.777,3.977-3.976V3.976C174.881,1.777,173.098,0,170.906,0z"/>
	<path fill="#999999" d="M123.209,166.936H99.365c-2.199,0-3.975,1.771-3.975,3.971s1.775,3.977,3.975,3.977h23.842
		c2.193,0,3.977-1.777,3.977-3.977S125.4,166.936,123.209,166.936z"/>
	<path fill="#999999" d="M123.209,0H99.365c-2.199,0-3.975,1.777-3.975,3.976c0,2.193,1.775,3.976,3.975,3.976h23.842
		c2.193,0,3.977-1.783,3.977-3.976C127.184,1.777,125.4,0,123.209,0z"/>
	<path fill="#999999" d="M51.667,7.952h23.849c2.192,0,3.976-1.783,3.976-3.976C79.492,1.777,77.709,0,75.517,0H51.667
		c-2.193,0-3.976,1.777-3.976,3.976C47.691,6.168,49.475,7.952,51.667,7.952z"/>
	<path fill="#999999" d="M27.825,166.936H7.945v-19.879c0-2.193-1.777-3.969-3.976-3.969c-2.193,0-3.97,1.775-3.97,3.969v23.85
		c0,2.199,1.777,3.977,3.97,3.977h23.855c2.193,0,3.969-1.777,3.969-3.977C31.794,168.707,30.018,166.936,27.825,166.936z"/>
	<path fill="#999999" d="M27.825,0H3.97C1.777,0,0,1.777,0,3.976v23.843c0,2.199,1.777,3.976,3.97,3.976
		c2.199,0,3.976-1.777,3.976-3.976V7.952h19.879c2.193,0,3.97-1.783,3.97-3.976C31.794,1.777,30.018,0,27.825,0z"/>
	<path fill="#999999" d="M3.97,79.493c2.199,0,3.976-1.777,3.976-3.977V51.674c0-2.199-1.777-3.976-3.976-3.976
		c-2.193,0-3.97,1.777-3.97,3.976v23.842C0,77.715,1.777,79.493,3.97,79.493z"/>
	<path fill="#999999" d="M3.97,127.189c2.199,0,3.976-1.783,3.976-3.977V99.365c0-2.199-1.777-3.977-3.976-3.977
		c-2.193,0-3.97,1.777-3.97,3.977v23.848C0,125.406,1.777,127.189,3.97,127.189z"/>
	<path fill="#999999" d="M75.517,166.936H51.667c-2.193,0-3.976,1.771-3.976,3.971s1.783,3.977,3.976,3.977h23.849
		c2.192,0,3.976-1.777,3.976-3.977S77.709,166.936,75.517,166.936z"/>
</g>
</svg>
