<?xml version="1.0" encoding="utf-8"?>
<!-- Generator: Adobe Illustrator 21.1.0, SVG Export Plug-In . SVG Version: 6.00 Build 0)  -->
<svg version="1.1" id="图层_1" xmlns="http://www.w3.org/2000/svg" xmlns:xlink="http://www.w3.org/1999/xlink" x="0px" y="0px"
	 viewBox="0 0 116.8 187" style="enable-background:new 0 0 116.8 187;" xml:space="preserve">
<style type="text/css">
	.st0{fill:#FFFFFF;}
</style>
<g>
	<path class="st0" d="M58.4,121.6c19.4,0,35.1-16.1,35.1-35.9V35.9C93.5,16.1,77.8,0,58.4,0S23.4,16.1,23.4,35.9v49.8
		C23.4,105.5,39.1,121.6,58.4,121.6L58.4,121.6z"/>
	<path class="st0" d="M109.4,71.5c-4.1,0-7.4,3.2-7.4,7.1v9.7c0,23.2-19.6,42.1-43.6,42.1s-43.6-18.9-43.6-42.1v-9.7
		c0-3.9-3.3-7.1-7.4-7.1S0,74.7,0,78.6v9.7c0,28.9,22.3,53.4,51.4,56.6v32.7H32.7c-4.2,0-9.4,0.5-9.4,4.7s5.2,4.7,9.4,4.7h51.4
		c4.2,0,9.4-0.5,9.4-4.7s-5.2-4.7-9.4-4.7H65.4V145c28.2-4,51.4-28.3,51.4-56.6v-9.7C116.8,74.7,113.5,71.5,109.4,71.5L109.4,71.5z"
		/>
</g>
</svg>
