<?xml version="1.0" encoding="utf-8"?>
<!-- Generator: Adobe Illustrator 21.1.0, SVG Export Plug-In . SVG Version: 6.00 Build 0)  -->
<svg version="1.1" id="图层_1" xmlns="http://www.w3.org/2000/svg" xmlns:xlink="http://www.w3.org/1999/xlink" x="0px" y="0px"
	 viewBox="0 0 142.6 199.6" style="enable-background:new 0 0 142.6 199.6;" xml:space="preserve">
<style type="text/css">
	.st0{fill:#648DC8;}
</style>
<g>
	<path class="st0" d="M135.8,92.8c-4.4-0.7-8.5,2.3-9.1,6.5c-4.2,26.2-28,46-55.4,46s-51.2-19.8-55.4-46c-0.7-4.2-4.8-7.1-9.1-6.5
		c-4.3,0.7-7.4,4.6-6.7,8.9c5,31.7,31,55.3,63.2,58.7v23.8h-24c-4.4,0-8,3.5-8,7.8c0,4.3,3.6,7.8,8,7.8h64c4.4,0,8-3.5,8-7.8
		c0-4.3-3.6-7.8-8-7.8h-24v-23.8c32.2-3.4,58.1-27,63.2-58.7C143.1,97.4,140.2,93.5,135.8,92.8z"/>
	<path class="st0" d="M71.3,128.3c21.6,0,39.2-18,39.2-40.1V40.1C110.5,18,92.9,0,71.3,0C49.7,0,32.1,18,32.1,40.1v48.1
		C32.1,110.3,49.7,128.3,71.3,128.3z M48.1,39.2C48.1,26.4,58.5,16,71.3,16c12.8,0,23.2,10.4,23.2,23.2v49.9
		c0,12.8-10.4,23.2-23.2,23.2c-12.8,0-23.2-10.4-23.2-23.2V39.2z"/>
</g>
</svg>
