<?xml version="1.0" encoding="utf-8"?>
<!-- Generator: Adobe Illustrator 16.0.0, SVG Export Plug-In . SVG Version: 6.00 Build 0)  -->
<!DOCTYPE svg PUBLIC "-//W3C//DTD SVG 1.1//EN" "http://www.w3.org/Graphics/SVG/1.1/DTD/svg11.dtd">
<svg version="1.1" id="图层_1" xmlns="http://www.w3.org/2000/svg" xmlns:xlink="http://www.w3.org/1999/xlink" x="0px" y="0px"
	 width="200px" height="200px" viewBox="0 0 200 200" enable-background="new 0 0 200 200" xml:space="preserve">
<rect fill="#3CC150" width="200" height="200"/>
<path fill="#FCFCFC" d="M113.672,142.383c0,1.51-1.225,2.735-2.734,2.735H89.063c-1.51,0-2.734-1.226-2.734-2.735
	c0-1.509,1.225-2.733,2.734-2.733h21.875C112.447,139.649,113.672,140.874,113.672,142.383z M110.938,146.485H89.063
	c-1.799,0-3.192,1.737-2.594,3.625c0.361,1.14,1.514,1.845,2.709,1.845h0.041c1.579,0,3.023,0.892,3.729,2.304l0.028,0.058
	c0.953,1.904,2.899,3.105,5.028,3.105h3.991c2.129,0,4.074-1.202,5.025-3.105l0.029-0.058c0.705-1.412,2.15-2.304,3.729-2.304h0.041
	c1.195,0,2.35-0.705,2.709-1.845C114.131,148.223,112.736,146.485,110.938,146.485L110.938,146.485z M100,58.984
	c1.51,0,2.734-1.225,2.734-2.734V45.313c0-1.51-1.225-2.734-2.734-2.734c-1.509,0-2.734,1.225-2.734,2.734V56.25
	C97.266,57.76,98.491,58.984,100,58.984z M70.998,69.396c0.512,0.515,1.208,0.803,1.933,0.802c0.7,0,1.4-0.267,1.934-0.802
	c1.068-1.067,1.068-2.798,0-3.866l-7.734-7.734c-1.066-1.067-2.8-1.067-3.866,0c-1.067,1.067-1.067,2.799,0,3.867L70.998,69.396z
	 M64.453,94.532c0-1.51-1.225-2.735-2.734-2.735H50.781c-1.51,0-2.734,1.226-2.734,2.735c0,1.509,1.225,2.733,2.734,2.733h10.938
	C63.229,97.266,64.453,96.041,64.453,94.532z M70.998,119.667l-7.734,7.735c-1.067,1.067-1.067,2.799,0,3.866
	c0.533,0.533,1.233,0.801,1.934,0.801s1.399-0.268,1.933-0.801l7.734-7.734c1.068-1.068,1.068-2.8,0-3.867
	C73.798,118.6,72.064,118.6,70.998,119.667z M129.002,119.667c-1.068-1.067-2.799-1.067-3.867,0c-1.066,1.067-1.066,2.799,0,3.867
	l7.734,7.734c0.514,0.513,1.209,0.802,1.934,0.801c0.701,0,1.398-0.268,1.934-0.801c1.068-1.067,1.068-2.799,0-3.866
	L129.002,119.667z M149.221,91.797h-10.939c-1.508,0-2.734,1.226-2.734,2.735c0,1.509,1.227,2.733,2.734,2.733h10.939
	c1.508,0,2.732-1.225,2.732-2.733C151.953,93.022,150.729,91.797,149.221,91.797z M127.068,70.197c0.701,0,1.398-0.267,1.934-0.802
	l7.734-7.733c1.068-1.068,1.068-2.8,0-3.867c-1.066-1.067-2.799-1.067-3.865,0l-7.736,7.734c-1.066,1.068-1.066,2.799,0,3.866
	C125.648,69.91,126.344,70.198,127.068,70.197z M113.672,135.548c0,1.51-1.225,2.733-2.734,2.733H89.063
	c-1.51,0-2.734-1.224-2.734-2.733c0-1.456,1.142-2.637,2.577-2.719c-1.702-15.387-17.616-18.813-17.616-36.93
	c0-15.856,12.854-28.711,28.711-28.711c15.857,0,28.711,12.854,28.711,28.711c0,18.116-15.914,21.543-17.615,36.93
	C112.531,132.911,113.672,134.092,113.672,135.548z M93.699,74.857c-0.426-1.048-1.619-1.553-2.672-1.13
	c-6.988,2.831-12.285,8.884-14.171,16.189c-0.283,1.098,0.377,2.215,1.473,2.498c0.001,0,0.001,0,0.001,0
	c0.172,0.045,0.344,0.065,0.513,0.065c0.935-0.001,1.751-0.633,1.985-1.537c1.562-6.055,5.95-11.069,11.739-13.414
	C93.617,77.104,94.123,75.909,93.699,74.857z"/>
</svg>
