<?xml version="1.0" encoding="utf-8"?>
<!-- Generator: Adobe Illustrator 21.1.0, SVG Export Plug-In . SVG Version: 6.00 Build 0)  -->
<svg version="1.1" id="图层_1" xmlns="http://www.w3.org/2000/svg" xmlns:xlink="http://www.w3.org/1999/xlink" x="0px" y="0px"
	 viewBox="0 0 161.2 161" style="enable-background:new 0 0 161.2 161;" xml:space="preserve">
<style type="text/css">
	.st0{fill:#339eff;}
</style>
<path class="st0" d="M159.5,77.5l-26-26c-1-1-3-2-4-1c-2,1-3,2-3,4v16h-36v-36h16c2,0,3-1,4-3c0-1,0-3-1-4l-26-26c-2-2-4-2-6,0
	l-26,26c-1,1-2,3-1,4s2,3,4,3h16v36h-36v-15c0-2-1-3-3-4c-1-1-3-1-4,1l-26,26c-2,2-2,4,0,6l26,26c1,0,3,1,4,0c1-1,3-2,3-4v-16h36v36
	h-15c-2,0-3,1-4,3c-1,1-1,3,1,4l26,26c2,2,4,2,6,0l26-26c1-1,2-3,1-5s-2-3-4-3h-17v-35h36v15c0,2,1,3,3,4c2,1,3,0,5-1l26-26
	C161.5,81.5,161.5,78.5,159.5,77.5z"/>
</svg>
