<?xml version="1.0" encoding="utf-8"?>
<!-- Generator: Adobe Illustrator 21.1.0, SVG Export Plug-In . SVG Version: 6.00 Build 0)  -->
<svg version="1.1" id="图层_1" xmlns="http://www.w3.org/2000/svg" xmlns:xlink="http://www.w3.org/1999/xlink" x="0px" y="0px"
	 viewBox="0 0 15 14.3" style="enable-background:new 0 0 15 14.3;" xml:space="preserve">
<style type="text/css">
	.st0{fill:#797979;}
</style>
<path class="st0" d="M2.9,11.7C1.2,10.5,0,8.6,0,6.5C0,2.9,3.4,0,7.5,0C11.6,0,15,2.9,15,6.5c0,3.6-3.4,6.5-7.5,6.5
	c-0.7,0-1.4-0.1-2.1-0.3l-1.9,1.5c-0.3,0.2-0.5,0.1-0.5-0.3L2.9,11.7L2.9,11.7z M12.1,7.5c0.5,0,1-0.4,1-1c0-0.5-0.4-1-1-1
	s-1,0.4-1,1C11.1,7.1,11.5,7.5,12.1,7.5z M7.5,7.5c0.5,0,1-0.4,1-1c0-0.5-0.4-1-1-1s-1,0.4-1,1C6.5,7.1,7,7.5,7.5,7.5z M2.9,7.5
	c0.5,0,1-0.4,1-1c0-0.5-0.4-1-1-1S2,6,2,6.5C2,7.1,2.4,7.5,2.9,7.5z"/>
</svg>
