<?xml version="1.0" encoding="utf-8"?>
<!-- Generator: Adobe Illustrator 21.1.0, SVG Export Plug-In . SVG Version: 6.00 Build 0)  -->
<svg version="1.1" id="图层_1" xmlns="http://www.w3.org/2000/svg" xmlns:xlink="http://www.w3.org/1999/xlink" x="0px" y="0px"
	 viewBox="0 0 187.5 187.5" style="enable-background:new 0 0 187.5 187.5;" xml:space="preserve">
<style type="text/css">
	.st0{fill:#A5A5A5;}
</style>
<g>
	<g>
		<path class="st0" d="M49.4,146.9c-4.9,0-8.9-4-8.9-8.9c0-2.4,0.9-4.6,2.6-6.3l88.6-88.6c3.5-3.4,9.1-3.4,12.5,0.1
			c3.4,3.5,3.4,9,0,12.5l-88.6,88.6C54,146,51.8,146.9,49.4,146.9z"/>
		<path class="st0" d="M138.1,146.9c-2.4,0-4.6-0.9-6.3-2.6L43.2,55.7c-3.4-3.5-3.4-9.1,0.1-12.5c3.5-3.4,9-3.4,12.5,0l88.6,88.6
			c3.5,3.5,3.5,9.1,0,12.5C142.7,146,140.4,146.9,138.1,146.9z"/>
	</g>
	<path class="st0" d="M168.8,187.5h-150C8.4,187.5,0,179.1,0,168.8v-150C0,8.4,8.4,0,18.8,0h150c10.4,0,18.7,8.4,18.8,18.8v150
		C187.5,179.1,179.1,187.5,168.8,187.5z M18.8,12.5c-3.5,0-6.2,2.8-6.2,6.2v150c0,3.5,2.8,6.2,6.2,6.2h150c3.5,0,6.2-2.8,6.2-6.2
		v-150c0-3.5-2.8-6.2-6.2-6.2H18.8z"/>
</g>
</svg>
