<?xml version="1.0" encoding="utf-8"?>
<!-- Generator: Adobe Illustrator 21.1.0, SVG Export Plug-In . SVG Version: 6.00 Build 0)  -->
<svg version="1.1" id="图层_1" xmlns="http://www.w3.org/2000/svg" xmlns:xlink="http://www.w3.org/1999/xlink" x="0px" y="0px"
	 viewBox="0 0 177.8 142.3" style="enable-background:new 0 0 177.8 142.3;" xml:space="preserve">
<style type="text/css">
	.st0{fill:#CDCDCD;}
</style>
<g>
	<path class="st0" d="M44.4,57.8c-9.8,0-17.8-8-17.8-17.8s8-17.8,17.8-17.8s17.8,8,17.8,17.8S54.2,57.8,44.4,57.8L44.4,57.8z
		 M44.4,31.1c-4.9,0-8.9,4-8.9,8.9s4,8.9,8.9,8.9s8.9-4,8.9-8.9S49.3,31.1,44.4,31.1L44.4,31.1z"/>
	<path class="st0" d="M22.2,142.3C9.7,142.3,0,130.6,0,120.5V22.2C0,2.7,10.7,0,22.2,0h133.4c12.3,0,22.2,10,22.2,22.2v97.4
		c0,12.3-10,22.2-22.2,22.2L22.2,142.3C22.2,142.3,22.2,142.3,22.2,142.3L22.2,142.3z M22.2,8.9c-8.8,0-13.3,0.6-13.3,13.3v98.3
		c0,5.8,6.2,12.9,13.3,12.9l133.3-0.4c7.4,0,13.3-6,13.3-13.3V22.2c0-7.4-6-13.3-13.3-13.3C155.6,8.9,22.2,8.9,22.2,8.9z"/>
	<path class="st0" d="M27.1,124.2c-0.5,0-1-0.1-1.4-0.2c-2.3-0.8-3.6-3.3-2.8-5.6c0.5-1.6,13.6-38.8,37.7-38.3
		c7.2,0.2,13.3,2.3,19.2,4.4c7.4,2.6,14.4,5,23.3,3.6c5.9-0.9,8.4-7,12-16.9c4.8-13.2,11.5-31.2,36.1-31.2c2.5,0,4.4,2,4.4,4.4
		c0,2.5-2,4.4-4.4,4.4c-18.5,0-23,12.3-27.8,25.4c-3.8,10.2-7.6,20.8-19,22.6c-11.2,1.8-20-1.3-27.7-4c-5.5-1.9-10.7-3.7-16.5-3.9
		c-0.1,0-0.2,0-0.3,0c-14.4,0-25.6,23.3-28.8,32.3C30.7,123.1,29,124.2,27.1,124.2L27.1,124.2z"/>
</g>
</svg>
