<?xml version="1.0" encoding="utf-8"?>
<!-- Generator: Adobe Illustrator 21.1.0, SVG Export Plug-In . SVG Version: 6.00 Build 0)  -->
<svg version="1.1" id="图层_1" xmlns="http://www.w3.org/2000/svg" xmlns:xlink="http://www.w3.org/1999/xlink" x="0px" y="0px"
	 viewBox="0 0 17.2 15" style="enable-background:new 0 0 17.2 15;" xml:space="preserve">
<style type="text/css">
	.st0{fill:#fff;}
</style>
<path class="st0" d="M9.3,0.1C9.1-0.1,8.7,0,8.5,0.2L4.2,3.8l-3.4,0C0.6,3.7,0.4,3.8,0.2,4C0.1,4.1,0,4.3,0,4.5l0,6
	c0,0.2,0.1,0.4,0.2,0.5c0.1,0.1,0.3,0.2,0.5,0.2h3.5l4.3,3.6C8.7,14.9,8.8,15,9,15c0.1,0,0.2,0,0.3-0.1c0.3-0.1,0.4-0.4,0.4-0.7V0.7
	C9.7,0.5,9.6,0.2,9.3,0.1L9.3,0.1L9.3,0.1z M12.2,3.8c-0.4-0.2-0.8,0-1,0.4c-0.2,0.4,0,0.8,0.3,1c0,0,1.2,0.6,1.2,2.3
	c0,1.8-1.1,2.4-1.1,2.4c-0.4,0.2-0.5,0.6-0.3,1c0.1,0.3,0.4,0.4,0.7,0.4c0.1,0,0.2,0,0.3-0.1c0.1,0,1.9-1,1.9-3.7
	C14.2,4.8,12.3,3.9,12.2,3.8L12.2,3.8L12.2,3.8z M14.6,1.6c-0.3-0.2-0.8-0.1-1,0.2c-0.2,0.3-0.1,0.8,0.2,1c0.1,0.1,2,1.4,2,4.6
	c0,3.3-1.8,4.6-1.9,4.6c-0.3,0.2-0.4,0.7-0.2,1c0.1,0.2,0.4,0.3,0.6,0.3c0.1,0,0.3,0,0.4-0.1c0.1-0.1,2.6-1.8,2.6-5.9
	C17.2,3.4,14.7,1.7,14.6,1.6L14.6,1.6L14.6,1.6z"/>
</svg>
