<?xml version="1.0" encoding="utf-8"?>
<!-- Generator: Adobe Illustrator 21.1.0, SVG Export Plug-In . SVG Version: 6.00 Build 0)  -->
<svg version="1.1" id="图层_1" xmlns="http://www.w3.org/2000/svg" xmlns:xlink="http://www.w3.org/1999/xlink" x="0px" y="0px"
	 viewBox="0 0 26 22" style="enable-background:new 0 0 26 22;" xml:space="preserve">
<style type="text/css">
	.st0{fill:#797979;}
</style>
<path class="st0" d="M24,0.6C23.4,0.2,22.7,0,22,0H4C3.3,0,2.6,0.2,2,0.6l11,11L24,0.6z M25.4,2L13.8,13.7c-0.2,0.2-0.5,0.3-0.8,0.3
	c-0.3,0-0.6-0.1-0.8-0.3L0.6,2C0.2,2.6,0,3.3,0,4v14c0,2.2,1.8,4,4,4h18c2.2,0,4-1.8,4-4V4C26,3.3,25.8,2.6,25.4,2z"/>
</svg>
