<?xml version="1.0" encoding="utf-8"?>
<!-- Generator: Adobe Illustrator 16.0.0, SVG Export Plug-In . SVG Version: 6.00 Build 0)  -->
<!DOCTYPE svg PUBLIC "-//W3C//DTD SVG 1.1//EN" "http://www.w3.org/Graphics/SVG/1.1/DTD/svg11.dtd">
<svg version="1.1" id="图层_1" xmlns="http://www.w3.org/2000/svg" xmlns:xlink="http://www.w3.org/1999/xlink" x="0px" y="0px"
	 width="13px" height="13px" viewBox="0 0 13 13" enable-background="new 0 0 13 13" xml:space="preserve">
<g>
	<path fill="#B6B6B6" d="M7.162,3.908h4.046v1.39H7.162V3.908z"/>
	<path fill="#B6B6B6" d="M8.584,1.35c-0.051-0.229,0.119-0.271,0.26-0.15c0.473,0.451,2.626,2.457,3.814,3.562
		c0.533,0.467,0.341,0.537-0.102,0.537c-0.439,0-3.395,0-3.395,0S8.66,1.791,8.584,1.35L8.584,1.35z"/>
	<path fill="#B6B6B6" d="M0,3.908h5.773v1.39H0V3.908z"/>
	<path fill="#B6B6B6" d="M5.773,9.091H2.021v-1.39h3.752V9.091L5.773,9.091z"/>
	<path fill="#B6B6B6" d="M4.414,11.65c0.051,0.229-0.117,0.271-0.26,0.15C3.684,11.349,1.529,9.344,0.34,8.238
		c-0.532-0.467-0.338-0.537,0.102-0.537c0.441,0,3.396,0,3.396,0S4.34,11.209,4.414,11.65L4.414,11.65z"/>
	<path fill="#B6B6B6" d="M13,9.091H7.162v-1.39H13V9.091z"/>
</g>
</svg>
