<?xml version="1.0" encoding="utf-8"?>
<!-- Generator: Adobe Illustrator 21.1.0, SVG Export Plug-In . SVG Version: 6.00 Build 0)  -->
<svg version="1.1" id="图层_1" xmlns="http://www.w3.org/2000/svg" xmlns:xlink="http://www.w3.org/1999/xlink" x="0px" y="0px"
	 viewBox="0 0 187.5 187.5" style="enable-background:new 0 0 187.5 187.5;" xml:space="preserve">
<style type="text/css">
	.st0{fill:#777777;}
</style>
<g>
	<g>
		<path class="st0" d="M30.1,162.8c-2.9,0-5.3-2.4-5.3-5.3c0-0.4,0.1-0.9,0.2-1.3l10.6-42.5c0.2-0.9,0.7-1.8,1.4-2.5l84.9-84.9
			c2.1-2.1,5.4-2.1,7.5,0l31.8,31.8c2.1,2.1,2.1,5.4,0,7.5l-84.9,84.9c-0.7,0.7-1.5,1.2-2.5,1.4l-42.5,10.6
			C30.9,162.7,30.5,162.7,30.1,162.8L30.1,162.8z M45.5,117.7l-8.1,32.5l32.5-8.1l80.1-80.1l-24.3-24.3L45.5,117.7z"/>
		<path class="st0" d="M141.5,83.1c-1.4,0-2.8-0.6-3.8-1.6l-31.8-31.8c-2.1-2.1-2.1-5.4,0-7.5c2.1-2.1,5.4-2.1,7.5,0l31.8,31.8
			c2.1,2.1,2.1,5.4,0,7.5C144.3,82.6,142.9,83.1,141.5,83.1z M72.5,152.1c-1.4,0-2.8-0.6-3.8-1.6l-31.8-31.8c-2.1-2.1-2.1-5.4,0-7.5
			c2.1-2.1,5.4-2.1,7.5,0l0,0l31.8,31.8c2.1,2.1,2.1,5.4,0,7.5C75.3,151.6,73.9,152.1,72.5,152.1z"/>
	</g>
	<path class="st0" d="M168.8,187.5h-150C8.4,187.5,0,179.1,0,168.8v-150C0,8.4,8.4,0,18.8,0h150c10.4,0,18.7,8.4,18.8,18.8v150
		C187.5,179.1,179.1,187.5,168.8,187.5z M18.8,12.5c-3.5,0-6.2,2.8-6.2,6.2v150c0,3.5,2.8,6.2,6.2,6.2h150c3.5,0,6.2-2.8,6.2-6.2
		v-150c0-3.5-2.8-6.2-6.2-6.2H18.8z"/>
</g>
</svg>
