<?xml version="1.0" encoding="utf-8"?>
<!-- Generator: Adobe Illustrator 16.0.0, SVG Export Plug-In . SVG Version: 6.00 Build 0)  -->
<!DOCTYPE svg PUBLIC "-//W3C//DTD SVG 1.1//EN" "http://www.w3.org/Graphics/SVG/1.1/DTD/svg11.dtd">
<svg version="1.1" id="图层_1" xmlns="http://www.w3.org/2000/svg" xmlns:xlink="http://www.w3.org/1999/xlink" x="0px" y="0px"
	 width="10.732px" height="10.732px" viewBox="0 0 10.732 10.732" enable-background="new 0 0 10.732 10.732" xml:space="preserve">
<g>
	<path fill="#754801" d="M7.88,0.747C7.183,0.251,6.294-0.001,5.245-0.001c-0.802,0-1.49,0.179-2.041,0.529
		c-0.879,0.55-1.354,1.494-1.411,2.804L1.79,3.428h2.17V3.337c0-0.355,0.105-0.702,0.317-1.035c0.206-0.322,0.552-0.48,1.054-0.48
		c0.508,0,0.858,0.13,1.043,0.387c0.189,0.266,0.287,0.563,0.287,0.887c0,0.229-0.098,0.467-0.318,0.767
		C6.24,4.005,6.115,4.133,5.97,4.236C5.927,4.264,4.877,4.932,4.4,5.482C4.098,5.832,4.079,6.257,4.053,6.98L4.047,7.155H6.15
		l0.002-0.087c0.006-0.345,0.029-0.389,0.086-0.561c0.068-0.214,0.25-0.43,0.553-0.664l0.553-0.376
		c0.5-0.384,0.898-0.697,1.078-0.95v0.002c0.35-0.469,0.521-0.984,0.521-1.535C8.947,2.002,8.587,1.249,7.88,0.747z"/>
	<path fill="#754801" d="M5.207,8.349H5.166c-0.665,0-1.158,0.489-1.181,1.165c-0.02,0.687,0.466,1.198,1.152,1.22h0.045
		c0.68,0,1.167-0.474,1.188-1.149C6.392,8.879,5.913,8.371,5.207,8.349z"/>
</g>
</svg>
