<?xml version="1.0" encoding="utf-8"?>
<!-- Generator: Adobe Illustrator 16.0.0, SVG Export Plug-In . SVG Version: 6.00 Build 0)  -->
<!DOCTYPE svg PUBLIC "-//W3C//DTD SVG 1.1//EN" "http://www.w3.org/Graphics/SVG/1.1/DTD/svg11.dtd">
<svg version="1.1" id="图层_1" xmlns="http://www.w3.org/2000/svg" xmlns:xlink="http://www.w3.org/1999/xlink" x="0px" y="0px"
	 width="161.574px" height="201.876px" viewBox="0 0 161.574 201.876" enable-background="new 0 0 161.574 201.876"
	 xml:space="preserve">
<path fill="#848484" d="M136.72,75.706h-6.219V51.621C130.501,22.67,109.871,0,80.558,0c-29.43,0-49.486,23.154-49.486,51.621
	v24.085h-6.217C11.148,75.706,0,87.022,0,100.941v75.697c0,13.921,11.148,25.237,24.855,25.237H136.72
	c13.704,0,24.854-11.316,24.854-25.237v-75.697C161.574,87.022,150.424,75.706,136.72,75.706z M43.497,51.621
	c0-21.498,14.48-39.006,37.062-39.006c22.342,0,37.514,17.135,37.514,39.006v24.085H43.497V51.621z M149.145,176.639
	c0,6.962-5.576,12.621-12.425,12.621H24.855c-6.851,0-12.43-5.659-12.43-12.621v-75.697c0-6.96,5.58-12.618,12.43-12.618H136.72
	c6.849,0,12.425,5.658,12.425,12.618V176.639z M80.786,113.55c-6.863,0-12.425,5.656-12.425,12.627c0,4.67,2.5,8.746,6.211,10.929
	v20.618c0,3.479,2.782,6.296,6.213,6.296c3.433,0,6.216-2.816,6.216-6.296v-20.618c3.715-2.185,6.212-6.259,6.212-10.929
	C93.214,119.206,87.652,113.55,80.786,113.55z"/>
</svg>
