<?xml version="1.0" encoding="utf-8"?>
<!-- Generator: Adobe Illustrator 21.1.0, SVG Export Plug-In . SVG Version: 6.00 Build 0)  -->
<svg version="1.1" id="图层_1" xmlns="http://www.w3.org/2000/svg" xmlns:xlink="http://www.w3.org/1999/xlink" x="0px" y="0px"
	 viewBox="0 0 173 173" style="enable-background:new 0 0 173 173;" xml:space="preserve">
<style type="text/css">
	.st0{fill:#999999;}
</style>
<path class="st0" d="M151.4,37.8h-10.8V0H32.4v37.8H21.6C9.7,37.8,0,47.5,0,59.4v70.3h32.4V173h108.1v-43.2H173V59.4
	C173,47.5,163.3,37.8,151.4,37.8L151.4,37.8z M43.2,10.8h86.5v27H43.2V10.8z M129.7,162.2H43.2v-48.6h86.5V162.2z M162.2,118.9
	h-21.6v-16.2H32.4v16.2H10.8V59.4c0-6,4.8-10.8,10.8-10.8h129.7c6,0,10.8,4.8,10.8,10.8L162.2,118.9L162.2,118.9z"/>
</svg>
