<?xml version="1.0" standalone="no"?><!DOCTYPE svg PUBLIC "-//W3C//DTD SVG 1.1//EN" "http://www.w3.org/Graphics/SVG/1.1/DTD/svg11.dtd"><svg t="1490946200910" class="icon" style="" viewBox="0 0 1024 1024" version="1.1" xmlns="http://www.w3.org/2000/svg" p-id="6363" xmlns:xlink="http://www.w3.org/1999/xlink" width="200" height="200"><defs><style type="text/css"></style></defs><path d="M716.012975 707.672518c-2.724041-36.449143-26.241664-68.638263-59.941184-83.660398l-30.263258-142.315286c-11.084453-52.043307-63.355957-94.374414-116.561739-94.374414L270.751982 387.322419c-53.210899 0-105.496729 42.330084-116.560716 94.374414L123.908566 624.01212c-33.697473 15.030321-57.202816 47.211255-59.926858 83.660398l-6.852058 91.292216c-2.943029 39.225373 19.370163 74.592882 54.382585 88.902796 8.05342 31.524994 36.482913 54.516638 70.143547 54.516638 31.280424 0 57.907874-19.522636 68.038606-47.700395L530.29825 894.683772c10.131755 28.177759 36.757159 47.700395 68.023256 47.700395 33.665751 0 62.127989-22.99369 70.177316-54.516638 35.014468-14.309914 57.30924-49.663096 54.360072-88.902796L716.012975 707.672518zM645.731282 852.486718c-8.862855 2.064009-15.277962 9.737782-15.739473 18.834974-0.835018 16.998139-14.740726 30.331819-31.670304 30.331819-16.497743 0-30.05655-12.518105-31.528064-29.129434-0.916882-10.508331-9.730619-18.552541-20.287045-18.552541L233.470891 853.971535c-10.556427 0-19.35686 8.04421-20.289092 18.552541-1.469468 16.609283-15.011902 29.129434-31.520901 29.129434-16.911158 0-30.819936-13.311167-31.662117-30.331819-0.447185-9.099239-6.869455-16.773012-15.715937-18.834974-23.349801-5.418406-38.360679-26.171056-36.539194-50.467415l6.852058-91.286076c1.775436-23.718191 19.667945-45.242414 43.522236-52.335972 7.770987-2.328022 13.433964-9.024537 14.410198-17.10968 0.124843-1.163499 0.215918-2.342348 0.308015-3.482311 0.048095-0.600681 0.048095-1.215688 0.157589-1.76725l31.028691-145.866159c7.164167-33.675984 42.299385-62.107523 76.728522-62.107523l238.493789 0c34.414811 0 69.545936 28.432563 76.727499 62.107523l31.018457 145.860019c0.115634 0.600681 0.115634 1.200338 0.161682 1.792832 0.077771 1.144056 0.173962 2.269693 0.310062 3.418866 0.951675 8.077979 6.620791 14.823614 14.432711 17.153682 23.840988 7.093559 41.733497 28.617781 43.50484 52.335972l6.842849 91.286076C684.077635 826.308499 669.047314 847.068312 645.731282 852.486718zM233.11171 643.23595l313.762053 0c7.562233 0 14.063297-2.802836 18.060331-7.619538 4.311189-4.978385 6.056949-11.788487 4.922103-19.172665-0.091074-0.490164-0.182149-0.989537-0.287549-1.471514L544.915156 507.8464c-3.091408-16.889669-19.801998-30.996968-37.006845-30.996968L272.099676 476.849432c-17.201777 0-33.939997 14.107299-37.032428 30.996968l-24.641213 107.125833c-0.115634 0.484024-0.208754 0.981351-0.288572 1.471514-1.146103 7.386224 0.604774 14.19428 4.669346 18.879999C219.060693 640.433114 225.546408 643.23595 233.11171 643.23595zM274.621103 517.589298l230.752478 0 19.523659 84.908832-269.815145 0L274.621103 517.589298zM208.577944 713.003943c-25.414833 0-46.029336 20.608364-46.029336 46.026266 0 25.433252 20.615527 46.033429 46.029336 46.033429 25.420973 0 46.013987-20.6012 46.013987-46.033429C254.590907 733.611284 233.997893 713.003943 208.577944 713.003943zM571.416739 713.003943c-25.413809 0-46.029336 20.608364-46.029336 46.026266 0 25.433252 20.615527 46.033429 46.029336 46.033429 25.435299 0 46.032406-20.6012 46.032406-46.033429C617.450169 733.611284 596.854085 713.003943 571.416739 713.003943zM889.259738 523.664667c6.033413 1.351787 10.598382 4.768607 13.807471 9.911744 22.12081 35.438117 44.283576 70.861908 66.23861 106.405425 6.485715 10.501168 3.139503 23.793916-7.001461 30.230512-10.17064 6.461155-23.717168 3.845585-30.278607-6.573719-22.428825-35.609009-44.662199-71.351048-66.759473-107.164718-5.069459-8.205892-4.459568-16.790408 1.289366-24.530696C872.188944 524.335956 880.01212 521.798157 889.259738 523.664667zM514.95275 361.503381c0 0-7.92653-28.909423-9.749038-44.267203C490.922451 196.899462 576.891428 87.778182 697.225073 73.497944c120.325459-14.281261 229.459019 71.686692 243.74028 192.021362 14.278191 120.31011-71.698972 229.460042-192.023408 243.74028-34.038234 4.03899-67.115584-0.057305-97.43103-10.637268-1.441838-0.503467-0.75827 21.957081 0.700965 22.411429 31.207769 9.756201 64.85203 13.337773 99.462293 9.230222 132.881426-15.769149 227.813542-136.26857 212.042347-269.15102C947.946348 128.231523 827.448974 33.299407 694.566524 49.070602S466.751958 185.339172 482.52213 318.221622c2.009773 16.929578 11.086499 48.726771 11.086499 48.726771L514.95275 361.503381z" p-id="6364" fill="#6dcff6"></path></svg>