<?xml version="1.0" encoding="utf-8"?>
<!-- Generator: Adobe Illustrator 16.0.0, SVG Export Plug-In . SVG Version: 6.00 Build 0)  -->
<!DOCTYPE svg PUBLIC "-//W3C//DTD SVG 1.1//EN" "http://www.w3.org/Graphics/SVG/1.1/DTD/svg11.dtd">
<svg version="1.1" id="图层_1" xmlns="http://www.w3.org/2000/svg" xmlns:xlink="http://www.w3.org/1999/xlink" x="0px" y="0px"
	 width="228.5px" height="228.5px" viewBox="0 0 228.5 228.5" enable-background="new 0 0 228.5 228.5" xml:space="preserve">
<g>
	<g>
		<path fill="#FFFFFF" d="M114.25,228.5C51.252,228.5,0,177.248,0,114.25C0,51.252,51.252,0,114.25,0S228.5,51.252,228.5,114.25
			C228.5,177.248,177.248,228.5,114.25,228.5z M114.25,4C53.458,4,4,53.458,4,114.25S53.458,224.5,114.25,224.5
			S224.5,175.042,224.5,114.25S175.042,4,114.25,4z"/>
	</g>
	<path fill="#FFFFFF" d="M135.117,164.928c13.117,4.769,21.463,13.714,21.463,23.848H70.131c0-10.134,8.941-19.079,22.654-23.848
		c-25.041-8.943-42.926-32.792-42.926-60.813c0-35.772,28.619-64.39,64.391-64.39s64.391,28.617,64.391,64.39
		C178.641,132.136,160.754,155.984,135.117,164.928z M115.441,84.439c-18.482,0-33.982,15.501-33.982,33.982
		c0,18.484,15.5,33.986,33.982,33.986c19.08,0,33.984-15.502,33.984-33.986C149.426,99.94,134.52,84.439,115.441,84.439z
		 M115.441,136.906c-8.943,0-16.691-7.157-16.691-16.693c0-8.944,7.75-16.694,16.691-16.694c8.943,0,16.695,7.154,16.695,16.694
		C132.137,129.155,124.982,136.906,115.441,136.906z"/>
</g>
</svg>
