<?xml version="1.0" encoding="utf-8"?>
<!-- Generator: Adobe Illustrator 16.0.0, SVG Export Plug-In . SVG Version: 6.00 Build 0)  -->
<!DOCTYPE svg PUBLIC "-//W3C//DTD SVG 1.1//EN" "http://www.w3.org/Graphics/SVG/1.1/DTD/svg11.dtd">
<svg version="1.1" id="图层_1" xmlns="http://www.w3.org/2000/svg" xmlns:xlink="http://www.w3.org/1999/xlink" x="0px" y="0px"
	 width="200px" height="200px" viewBox="0 0 200 200" enable-background="new 0 0 200 200" xml:space="preserve">
<g>
	<path fill="#6dcff6" d="M164.373,31.842c-21.525-0.009-43.05-0.002-64.575-0.002s-43.05-0.005-64.575,0.001
		c-11.792,0.003-19.935,7.714-19.975,19.415c-0.111,32.391-0.119,64.782,0.006,97.174c0.044,11.477,8.315,19.361,19.816,19.366
		c43.05,0.018,86.1,0.015,129.15,0.001c11.637-0.004,19.774-8.11,19.779-19.678c0.01-32.185,0.009-64.369,0-96.553
		C183.997,39.85,176.031,31.848,164.373,31.842z M173.942,148.636c-0.001,4.222-4.853,9.107-9.157,9.108
		c-46.146,0.008-84.967,0.008-131.114-0.001c-4.27-0.001-8.403-3.843-8.404-8.096c-0.01-35.282-0.01-63.66,0-98.943
		c0.001-4.207,5.525-8.888,9.82-8.888c23.074-0.004,41.465-0.002,64.539-0.002s42.693-0.002,65.766,0.002
		c4.264,0.001,8.549,5.455,8.551,9.697C173.952,86.797,173.953,113.354,173.942,148.636z"/>
	<path fill="#6dcff6" d="M129.707,96.035c-7.85-5.736-15.727-11.434-23.59-17.151c-7.11-5.17-21.374-15.451-21.374-15.451
		s-6.688-1.955-6.688,4.309c0,6.265,0.016,57.169,0.016,63.955c0,6.787,7.186,4.109,7.186,4.109s29.626-21.523,44.424-32.305
		C133.354,100.826,133.367,98.712,129.707,96.035z M119.062,102.482c-0.025,0.02-0.032,0.033-0.059,0.053
		c-9.604,7.008-28.874,20.937-28.874,20.937l-0.322,0.181l-5.036,3.645V71.995l38.209,27.651L119.062,102.482z"/>
</g>
</svg>
