<?xml version="1.0" standalone="no"?><!DOCTYPE svg PUBLIC "-//W3C//DTD SVG 1.1//EN" "http://www.w3.org/Graphics/SVG/1.1/DTD/svg11.dtd"><svg t="1504245678893" class="icon" style="" viewBox="0 0 1024 1024" version="1.1" xmlns="http://www.w3.org/2000/svg" p-id="4409" xmlns:xlink="http://www.w3.org/1999/xlink" width="16" height="16"><defs><style type="text/css"></style></defs><path d="M512 644.776c82.614 0 149.609-66.994 149.609-149.609L661.609 214.624C661.609 131.995 594.614 65 512 65s-149.608 66.995-149.608 149.624l0 280.543C362.392 577.782 429.386 644.776 512 644.776zM392.316 214.624c0-66.001 53.683-119.699 119.684-119.699s119.685 53.698 119.685 119.699l0 280.543c0 66.001-53.684 119.685-119.685 119.685s-119.684-53.684-119.684-119.685L392.316 214.624z" p-id="4410" fill="#ffffff"></path><path d="M777.567 364.846l0 130.321c0 146.438-119.129 265.567-265.567 265.567-146.438 0-265.566-119.129-265.566-265.567L246.434 364.846l-29.939 0 0 130.321c0 155.498 121.686 284.869 277.037 294.542l3.507 0.22 0 139.146L388.561 929.075 388.561 959l246.879 0 0-29.925L526.963 929.075 526.963 789.929l3.507-0.22c155.351-9.673 277.036-139.044 277.036-294.542L807.506 364.846 777.567 364.846z" p-id="4411" fill="#ffffff"></path></svg>