<?xml version="1.0" encoding="utf-8"?>
<!-- Generator: Adobe Illustrator 16.0.0, SVG Export Plug-In . SVG Version: 6.00 Build 0)  -->
<!DOCTYPE svg PUBLIC "-//W3C//DTD SVG 1.1//EN" "http://www.w3.org/Graphics/SVG/1.1/DTD/svg11.dtd">
<svg version="1.1" id="图层_1" xmlns="http://www.w3.org/2000/svg" xmlns:xlink="http://www.w3.org/1999/xlink" x="0px" y="0px"
	 width="66.199px" height="28.2px" viewBox="81.297 100.15 66.199 28.2" enable-background="new 81.297 100.15 66.199 28.2"
	 xml:space="preserve">
<g>
	<g>
		<path fill="#6CCFF7" d="M144.047,102.101c0.992,0,1.8,0.808,1.8,1.8v21c0,0.992-0.808,1.8-1.8,1.8h-59c-0.993,0-1.8-0.808-1.8-1.8
			v-21c0-0.992,0.807-1.8,1.8-1.8H144.047 M144.047,100.9h-59c-1.657,0-3,1.342-3,3v21c0,1.656,1.343,3,3,3h59c1.658,0,3-1.344,3-3
			v-21C147.047,102.242,145.705,100.9,144.047,100.9L144.047,100.9z"/>
	</g>
	<text transform="matrix(1 0 0 1 110.9502 118.6143)" fill="#6CCFF7" font-family="'MicrosoftYaHei'" font-size="14">查询</text>
	<path fill="#6CCFF7" d="M105.221,121.9c-0.222,0.002-0.435-0.086-0.592-0.242l-4-4c-0.354-0.295-0.398-0.822-0.102-1.174
		c0.296-0.352,0.822-0.396,1.174-0.102c0.037,0.031,0.07,0.064,0.102,0.102l4,4c0.233,0.238,0.303,0.594,0.176,0.9
		C105.852,121.693,105.553,121.896,105.221,121.9L105.221,121.9z M97.304,119.4c-3.452,0-6.251-2.799-6.251-6.25
		s2.799-6.25,6.251-6.25c3.451,0,6.25,2.799,6.25,6.25C103.549,116.6,100.753,119.396,97.304,119.4z M97.304,108.566
		c-2.531,0-4.585,2.053-4.585,4.584s2.054,4.582,4.585,4.582s4.583-2.051,4.583-4.582
		C101.883,110.621,99.833,108.571,97.304,108.566z"/>
</g>
</svg>
