<?xml version="1.0" standalone="no"?><!DOCTYPE svg PUBLIC "-//W3C//DTD SVG 1.1//EN" "http://www.w3.org/Graphics/SVG/1.1/DTD/svg11.dtd"><svg t="1554274666393" class="icon" style="" viewBox="0 0 1024 1024" version="1.1" xmlns="http://www.w3.org/2000/svg" p-id="1396" data-spm-anchor-id="a313x.7781069.0.i8" xmlns:xlink="http://www.w3.org/1999/xlink" width="32" height="32"><defs><style type="text/css"></style></defs><path d="M775.107647 925.241111 189.537263 925.241111c-29.926936 0-54.367267-20.948855-54.367267-46.386751L135.169995 177.067706c0-25.437896 24.440331-46.386751 54.367267-46.386751l46.885533 0c8.479299 0 14.963468 6.48417 14.963468 14.963468s-6.48417 14.963468-14.963468 14.963468L189.537263 160.607891c-12.968339 0-24.440331 7.481734-24.440331 16.459815l0 701.786654c0 8.978081 11.471992 16.459815 24.440331 16.459815l585.570385 0c8.479299 0 14.963468 6.48417 14.963468 14.963468S783.586946 925.241111 775.107647 925.241111z" p-id="1397" fill="currentColor"></path><path d="M832.467608 387.055041c-8.479299 0-14.963468-6.48417-14.963468-14.963468L817.50414 177.067706c0-8.978081-11.471992-16.459815-24.440331-16.459815l-34.914759 0c-8.479299 0-14.963468-6.48417-14.963468-14.963468s6.48417-14.963468 14.963468-14.963468l34.914759 0c29.926936 0 54.367267 20.948855 54.367267 46.386751l0 195.023868C847.431076 380.570872 840.946907 387.055041 832.467608 387.055041z" p-id="1398" fill="#5D5F63"></path><path d="M754.158792 353.137847 231.434973 353.137847c-8.479299 0-14.963468-6.48417-14.963468-14.963468s6.48417-14.963468 14.963468-14.963468l522.723819 0c8.479299 0 14.963468 6.48417 14.963468 14.963468S762.638091 353.137847 754.158792 353.137847z" p-id="1399" fill="#5D5F63"></path><path d="M374.086702 564.621529 231.434973 564.621529c-8.479299 0-14.963468-6.48417-14.963468-14.963468s6.48417-14.963468 14.963468-14.963468L374.086702 534.694593c8.479299 0 14.963468 6.48417 14.963468 14.963468S382.566001 564.621529 374.086702 564.621529z" p-id="1400" fill="#5D5F63"></path><path d="M381.069654 775.60643l-149.634681 0c-8.479299 0-14.963468-6.48417-14.963468-14.963468s6.48417-14.963468 14.963468-14.963468l149.634681 0c8.479299 0 14.963468 6.48417 14.963468 14.963468S389.548953 775.60643 381.069654 775.60643z" p-id="1401" fill="#5D5F63"></path><path d="M687.82075 98.758889l-384.062348 0c-24.939113 0-45.389187 20.450073-45.389187 45.389187l0 3.491476c0 24.939113 20.450073 45.389187 45.389187 45.389187l384.062348 0c24.939113 0 45.389187-20.450073 45.389187-45.389187l0-3.491476C732.711154 119.208962 712.261081 98.758889 687.82075 98.758889zM683.33171 160.607891 308.247443 160.607891c-8.479299 0-14.963468-6.48417-14.963468-14.963468s6.48417-14.963468 14.963468-14.963468L683.33171 130.680955c8.479299 0 14.963468 6.48417 14.963468 14.963468S691.312226 160.607891 683.33171 160.607891z" p-id="1402" fill="#5D5F63"></path><path d="M668.867024 827.978568c-112.226011 0-203.503166-91.277155-203.503166-203.503166s91.277155-203.503166 203.503166-203.503166 203.503166 91.277155 203.503166 203.503166S781.093035 827.978568 668.867024 827.978568zM668.867024 450.40039c-95.766196 0-173.57623 77.810034-173.57623 173.57623s77.810034 173.57623 173.57623 173.57623 173.57623-77.810034 173.57623-173.57623S764.63322 450.40039 668.867024 450.40039z" p-id="1403" fill="#5D5F63"></path><path d="M956.165611 925.241111c-3.990258 0-7.481734-1.496347-10.474428-4.48904l-120.705309-120.705309c-5.985387-5.985387-5.985387-15.46225 0-20.948855 5.985387-5.985387 15.46225-5.985387 20.948855 0l120.705309 120.705309c5.985387 5.985387 5.985387 15.46225 0 20.948855C963.647345 923.744764 960.155869 925.241111 956.165611 925.241111z" p-id="1404" fill="#5D5F63"></path></svg>