<?xml version="1.0" encoding="utf-8"?>
<!-- Generator: Adobe Illustrator 16.0.0, SVG Export Plug-In . SVG Version: 6.00 Build 0)  -->
<!DOCTYPE svg PUBLIC "-//W3C//DTD SVG 1.1//EN" "http://www.w3.org/Graphics/SVG/1.1/DTD/svg11.dtd">
<svg version="1.1" id="图层_1" xmlns="http://www.w3.org/2000/svg" xmlns:xlink="http://www.w3.org/1999/xlink" x="0px" y="0px"
	 width="13px" height="13px" viewBox="0 0 13 13" enable-background="new 0 0 13 13" xml:space="preserve">
<g>
	<path fill="#FFFFFF" d="M5.293,10.587C2.375,10.587,0,8.212,0,5.294s2.375-5.293,5.293-5.293s5.293,2.375,5.293,5.293
		S8.211,10.587,5.293,10.587z M5.293,0.945c-2.396,0-4.347,1.95-4.347,4.347S2.896,9.64,5.293,9.64c2.397,0,4.348-1.949,4.348-4.348
		C9.641,2.895,7.69,0.945,5.293,0.945z"/>
	<path fill="#FFFFFF" d="M12.526,12.999c-0.121,0-0.241-0.046-0.334-0.139L8.367,9.036c-0.185-0.185-0.185-0.484,0-0.669
		c0.186-0.186,0.484-0.186,0.67,0l3.824,3.824c0.186,0.185,0.186,0.483,0,0.669C12.769,12.953,12.648,12.999,12.526,12.999z"/>
</g>
</svg>
