<?xml version="1.0" encoding="utf-8"?>
<!-- Generator: Adobe Illustrator 16.0.0, SVG Export Plug-In . SVG Version: 6.00 Build 0)  -->
<!DOCTYPE svg PUBLIC "-//W3C//DTD SVG 1.1//EN" "http://www.w3.org/Graphics/SVG/1.1/DTD/svg11.dtd">
<svg version="1.1" id="图层_1" xmlns="http://www.w3.org/2000/svg" xmlns:xlink="http://www.w3.org/1999/xlink" x="0px" y="0px"
	 width="22px" height="13.454px" viewBox="103.949 139.038 22 13.454" enable-background="new 103.949 139.038 22 13.454"
	 xml:space="preserve">
<g>
	<path fill="#FFFFFF" d="M117.634,139.038h-11.721c0,0-1.963,0-1.963,1.905v9.644c0,1.905,1.963,1.905,1.963,1.905h11.721
		c0,0,1.964,0,1.964-1.905v-9.586C119.598,139.038,117.634,139.038,117.634,139.038z M125.66,140.02
		c-0.173-0.058-0.346-0.058-0.462,0.058l-3.868,3.003c-0.116,0.115-0.174,0.23-0.174,0.347v4.792c0,0.115,0.058,0.289,0.174,0.347
		l3.868,3.003c0.059,0.058,0.174,0.115,0.289,0.115c0.058,0,0.115,0,0.23-0.058c0.174-0.058,0.231-0.231,0.231-0.404v-10.798
		C125.949,140.25,125.833,140.077,125.66,140.02L125.66,140.02z"/>
</g>
</svg>
