<?xml version="1.0" encoding="utf-8"?>
<!-- Generator: Adobe Illustrator 16.0.0, SVG Export Plug-In . SVG Version: 6.00 Build 0)  -->
<!DOCTYPE svg PUBLIC "-//W3C//DTD SVG 1.1//EN" "http://www.w3.org/Graphics/SVG/1.1/DTD/svg11.dtd">
<svg version="1.1" id="图层_1" xmlns="http://www.w3.org/2000/svg" xmlns:xlink="http://www.w3.org/1999/xlink" x="0px" y="0px"
	 width="21px" height="22.85px" viewBox="119.77 160.726 21 22.85" enable-background="new 119.77 160.726 21 22.85"
	 xml:space="preserve">
<g>
	<path fill="#FFFFFF" d="M132.32,173.554v10.021l3.332-4.283l5.117-0.728L132.32,173.554L132.32,173.554z M132.98,162.983
		c-3.022-3.011-7.921-3.011-10.944,0c-3.022,3.011-3.022,7.893,0,10.904l5.473,7.513l3.601-4.944v-5.064l2.672,1.521
		C135.95,169.9,135.699,165.691,132.98,162.983z M127.531,170.537c-1.833,0-3.318-1.462-3.318-3.266
		c0-1.803,1.485-3.265,3.318-3.265c1.832,0,3.317,1.462,3.317,3.265C130.849,169.075,129.363,170.537,127.531,170.537z"/>
</g>
</svg>
