<?xml version="1.0" encoding="utf-8"?>
<!-- Generator: Adobe Illustrator 16.0.0, SVG Export Plug-In . SVG Version: 6.00 Build 0)  -->
<!DOCTYPE svg PUBLIC "-//W3C//DTD SVG 1.1//EN" "http://www.w3.org/Graphics/SVG/1.1/DTD/svg11.dtd">
<svg version="1.1" id="图层_1" xmlns="http://www.w3.org/2000/svg" xmlns:xlink="http://www.w3.org/1999/xlink" x="0px" y="0px"
	 width="174.883px" height="174.881px" viewBox="0 0 174.883 174.881" enable-background="new 0 0 174.883 174.881"
	 xml:space="preserve">
<g>
	<path fill="#999999" d="M27.825,0H3.976C1.777,0,0,1.777,0,3.976v23.843c0,2.199,1.777,3.976,3.976,3.976
		c2.193,0,3.97-1.776,3.97-3.976V7.952h19.879c2.193,0,3.97-1.783,3.97-3.976C31.794,1.777,30.018,0,27.825,0z"/>
	<path fill="#999999" d="M51.668,7.952h23.849c2.193,0,3.976-1.783,3.976-3.976C79.493,1.777,77.709,0,75.517,0H51.668
		c-2.193,0-3.976,1.777-3.976,3.976C47.692,6.169,49.475,7.952,51.668,7.952z"/>
	<path fill="#999999" d="M99.365,7.952h23.85c2.191,0,3.969-1.783,3.969-3.976c0-2.199-1.777-3.976-3.969-3.976h-23.85
		c-2.199,0-3.975,1.777-3.975,3.976C95.39,6.169,97.166,7.952,99.365,7.952z"/>
	<path fill="#999999" d="M170.906,0h-23.85c-2.191,0-3.969,1.777-3.969,3.976c0,2.193,1.777,3.976,3.969,3.976h19.873v19.867
		c0,2.199,1.783,3.976,3.977,3.976s3.977-1.776,3.977-3.976V3.976C174.881,1.777,173.098,0,170.906,0z"/>
	<path fill="#999999" d="M170.906,47.698c-2.193,0-3.977,1.777-3.977,3.976v23.842c0,2.199,1.783,3.976,3.977,3.976
		c2.191,0,3.975-1.777,3.975-3.976V51.674C174.881,49.475,173.098,47.698,170.906,47.698z"/>
	<path fill="#999999" d="M170.906,95.388c-2.193,0-3.977,1.778-3.977,3.977v23.848c0,2.193,1.783,3.977,3.977,3.977
		c2.191,0,3.975-1.783,3.975-3.977V99.365C174.881,97.167,173.098,95.388,170.906,95.388z"/>
	<path fill="#999999" d="M170.906,143.088c-2.193,0-3.977,1.775-3.977,3.969v19.881h-19.873c-2.193,0-3.969,1.77-3.969,3.969
		s1.777,3.975,3.969,3.975h23.85c2.191,0,3.975-1.775,3.975-3.975v-23.85C174.881,144.863,173.098,143.088,170.906,143.088z"/>
	<path fill="#999999" d="M123.215,166.938h-23.85c-2.199,0-3.975,1.77-3.975,3.969s1.775,3.975,3.975,3.975h23.85
		c2.191,0,3.969-1.775,3.969-3.975S125.406,166.938,123.215,166.938z"/>
	<path fill="#999999" d="M75.517,166.938H51.668c-2.193,0-3.976,1.77-3.976,3.969s1.783,3.975,3.976,3.975h23.849
		c2.193,0,3.976-1.775,3.976-3.975C79.492,168.707,77.709,166.938,75.517,166.938z"/>
	<path fill="#999999" d="M27.825,166.938H7.946v-19.881c0-2.193-1.777-3.969-3.97-3.969c-2.199,0-3.976,1.775-3.976,3.969v23.85
		c0,2.199,1.777,3.975,3.976,3.975h23.849c2.192,0,3.969-1.775,3.969-3.975S30.018,166.938,27.825,166.938z"/>
	<path fill="#999999" d="M3.976,127.189c2.193,0,3.97-1.781,3.97-3.977V99.365c0-2.198-1.777-3.977-3.97-3.977
		C1.777,95.388,0,97.167,0,99.365v23.848C0,125.408,1.777,127.189,3.976,127.189z"/>
	<path fill="#999999" d="M3.976,79.493c2.193,0,3.97-1.777,3.97-3.976V51.674c0-2.199-1.777-3.976-3.97-3.976
		C1.777,47.698,0,49.475,0,51.674v23.842C0,77.715,1.777,79.493,3.976,79.493z"/>
	<path fill="#999999" d="M119.238,79.493H55.644c-4.392,0-7.946,3.554-7.946,7.952c0,4.386,3.554,7.943,7.946,7.943h63.595
		c4.393,0,7.945-3.558,7.945-7.943C127.184,83.047,123.631,79.493,119.238,79.493z"/>
</g>
</svg>
