<?xml version="1.0" encoding="utf-8"?>
<!-- Generator: Adobe Illustrator 16.0.0, SVG Export Plug-In . SVG Version: 6.00 Build 0)  -->
<!DOCTYPE svg PUBLIC "-//W3C//DTD SVG 1.1//EN" "http://www.w3.org/Graphics/SVG/1.1/DTD/svg11.dtd">
<svg version="1.1" id="图层_1" xmlns="http://www.w3.org/2000/svg" xmlns:xlink="http://www.w3.org/1999/xlink" x="0px" y="0px"
	 width="100.673px" height="7px" viewBox="-12.841 -2.501 100.673 7" enable-background="new -12.841 -2.501 100.673 7"
	 xml:space="preserve">
<g>
	
		<linearGradient id="SVGID_1_" gradientUnits="userSpaceOnUse" x1="917.0762" y1="-906.2271" x2="917.0762" y2="-903.8926" gradientTransform="matrix(1 0 0 -1 -879.5801 -904.0605)">
		<stop  offset="0.6355" style="stop-color:#8E8E8E"/>
		<stop  offset="1" style="stop-color:#242424"/>
	</linearGradient>
	<path fill="url(#SVGID_1_)" d="M83.497-0.168H-8.505v2.334h92.002V-0.168z"/>
	
		<linearGradient id="SVGID_2_" gradientUnits="userSpaceOnUse" x1="893.9043" y1="-909.7778" x2="893.4097" y2="-900.3396" gradientTransform="matrix(1 0 0 -1 -879.5801 -904.0605)">
		<stop  offset="0.8177" style="stop-color:#8E8E8E"/>
		<stop  offset="1" style="stop-color:#242424"/>
	</linearGradient>
	<path fill="url(#SVGID_2_)" d="M37.495-2.501c-1.933,0-3.5,1.568-3.5,3.5c0,1.934,1.567,3.5,3.5,3.5c1.933,0,3.501-1.567,3.501-3.5
		C40.995-0.932,39.428-2.501,37.495-2.501z M-9.339-2.501c-1.935,0-3.501,1.568-3.501,3.5c0,1.934,1.566,3.5,3.501,3.5
		c1.933,0,3.5-1.567,3.5-3.5C-5.838-0.932-7.407-2.501-9.339-2.501z"/>
	
		<linearGradient id="SVGID_3_" gradientUnits="userSpaceOnUse" x1="917.2588" y1="-908.5542" x2="916.8925" y2="-901.5638" gradientTransform="matrix(1 0 0 -1 -879.5801 -904.0605)">
		<stop  offset="0.6798" style="stop-color:#8E8E8E"/>
		<stop  offset="1" style="stop-color:#242424"/>
	</linearGradient>
	<path fill="url(#SVGID_3_)" d="M37.495-2.501c1.933,0,3.501,1.568,3.501,3.5c0,1.934-1.568,3.5-3.501,3.5
		c-1.933,0-3.5-1.567-3.5-3.5C33.994-0.932,35.563-2.501,37.495-2.501z"/>
	
		<linearGradient id="SVGID_4_" gradientUnits="userSpaceOnUse" x1="964.0938" y1="-908.5547" x2="963.7273" y2="-901.5643" gradientTransform="matrix(1 0 0 -1 -879.5801 -904.0605)">
		<stop  offset="0.6798" style="stop-color:#8E8E8E"/>
		<stop  offset="1" style="stop-color:#242424"/>
	</linearGradient>
	<path fill="url(#SVGID_4_)" d="M84.332-2.501c-1.933,0-3.503,1.568-3.503,3.5c0,1.934,1.57,3.5,3.503,3.5
		c1.929,0,3.5-1.567,3.5-3.5C87.832-0.932,86.259-2.501,84.332-2.501z"/>
</g>
</svg>
