<?xml version="1.0" encoding="utf-8"?>
<!-- Generator: Adobe Illustrator 16.0.0, SVG Export Plug-In . SVG Version: 6.00 Build 0)  -->
<!DOCTYPE svg PUBLIC "-//W3C//DTD SVG 1.1//EN" "http://www.w3.org/Graphics/SVG/1.1/DTD/svg11.dtd">
<svg version="1.1" id="图层_1" xmlns="http://www.w3.org/2000/svg" xmlns:xlink="http://www.w3.org/1999/xlink" x="0px" y="0px"
	 width="34.612px" height="31.938px" viewBox="0 0 34.612 31.938" enable-background="new 0 0 34.612 31.938" xml:space="preserve">
<g>
	<path opacity="0.5" fill="#D6D6D6" enable-background="new    " d="M33.068,17.647c3.189-3.542,1.278-6.415-4.272-6.415
		c-5.549,0-12.634,2.872-15.824,6.415c-1.054,1.17-1.539,2.263-1.532,3.207h-0.012l-1.379,11.021
		c-0.005,0.036,0.03,0.063,0.101,0.063c0.071,0,0.155-0.025,0.217-0.063l18.471-11.021h-0.013
		C30.536,19.91,32.014,18.817,33.068,17.647"/>
	<path fill="#4196FC" d="M20.098,9.894C20.098,4.43,15.601,0,10.05,0C4.5,0,0,4.43,0,9.894c0,1.804,0.499,3.49,1.355,4.948H1.345
		l8.544,16.997c0.03,0.059,0.09,0.099,0.158,0.099c0.069,0,0.13-0.04,0.16-0.099l8.548-16.997h-0.013
		C19.602,13.383,20.098,11.698,20.098,9.894"/>
	<g enable-background="new    ">
		<path fill="#FFFFFF" d="M4.893,10.154l1.594,0.141c0.03,0.844,0,1.563-0.094,2.156c0.188,0.313,0.438,0.579,0.75,0.797V9.732
			H4.424V8.186h2.063V7.154H4.752V5.607h1.734V4.342h1.781v1.266h1.547v1.547H8.268v1.031h1.875v1.547H8.83v1.219h1.219v1.547H8.83
			v1.313c0.094,0,0.234,0,0.422,0c0.188,0.031,0.344,0.047,0.469,0.047c1.313,0.031,3.328,0.016,6.047-0.047
			c-0.157,0.5-0.313,1.031-0.469,1.593c-2.25,0-4.109-0.016-5.578-0.047c-1.906,0.031-3.11-0.344-3.609-1.125
			c-0.125,0.438-0.313,0.921-0.563,1.453c-0.251-0.281-0.641-0.672-1.172-1.171c0.405,0.375,0.375,0.359-0.094-0.047
			C4.721,13.623,4.923,12.186,4.893,10.154z M14.08,9.92c0.687,0.219,1.234,0.375,1.641,0.469c-0.094,0.594-0.188,1.125-0.281,1.594
			c-0.157,1.031-0.781,1.516-1.875,1.453h-1.313c-1.219,0.031-1.813-0.578-1.781-1.828V7.904h2.859V6.639h-3V4.904h4.734v4.688
			h-2.859v1.547c-0.031,0.438,0.171,0.641,0.609,0.609h0.469c0.375,0.031,0.578-0.141,0.609-0.516
			C13.986,10.827,14.049,10.389,14.08,9.92z"/>
	</g>
</g>
</svg>
