<?xml version="1.0" encoding="utf-8"?>
<!-- Generator: Adobe Illustrator 16.0.0, SVG Export Plug-In . SVG Version: 6.00 Build 0)  -->
<!DOCTYPE svg PUBLIC "-//W3C//DTD SVG 1.1//EN" "http://www.w3.org/Graphics/SVG/1.1/DTD/svg11.dtd">
<svg version="1.1" id="图层_1" xmlns="http://www.w3.org/2000/svg" xmlns:xlink="http://www.w3.org/1999/xlink" x="0px" y="0px"
	 width="66.199px" height="28.2px" viewBox="0 0 66.199 28.2" enable-background="new 0 0 66.199 28.2" xml:space="preserve">
<g enable-background="new    ">
	<path fill="#6CCFF7" d="M29.571,15.295c1.035-1.667,1.789-3.563,2.263-5.687h-1.825v-0.93h4.895v0.93h-2.099
		c-0.223,0.989-0.501,1.937-0.834,2.844h2.345v6.261h-2.297v1.039h-0.902V14.49c-0.26,0.538-0.542,1.058-0.848,1.558
		C30.086,15.829,29.854,15.579,29.571,15.295z M33.413,17.811v-4.456h-1.395v4.456H33.413z M34.042,11.441
		c1.285-1.285,2.292-2.675,3.021-4.17l1.039,0.191c-0.219,0.41-0.446,0.812-0.684,1.203h3.979v0.861l-1.155,1.449h2.522v8.134
		c0,0.984-0.429,1.477-1.285,1.477c-0.483,0-0.897-0.008-1.244-0.027c-0.055-0.318-0.123-0.65-0.205-0.998
		c0.501,0.047,0.88,0.068,1.135,0.068c0.419,0,0.629-0.223,0.629-0.67v-1.572h-2.256v3.049h-0.971v-3.049h-2.256
		c-0.246,1.455-0.733,2.635-1.463,3.541c-0.228-0.264-0.492-0.537-0.793-0.82c0.984-1.166,1.477-2.879,1.477-5.14v-3.644
		c-0.232,0.278-0.47,0.549-0.711,0.813C34.603,11.928,34.343,11.696,34.042,11.441z M40.167,9.541h-3.302
		c-0.332,0.497-0.684,0.976-1.053,1.436h3.281L40.167,9.541z M36.428,16.512h2.14V14.64h-2.064
		C36.503,14.859,36.479,15.483,36.428,16.512z M36.503,13.765h2.064v-1.859h-2.064V13.765z M41.794,11.906h-2.256v1.859h2.256
		V11.906z M39.538,16.512h2.256V14.64h-2.256V16.512z"/>
	<path fill="#6CCFF7" d="M43.681,19.834c1.513-1.303,2.388-3.217,2.625-5.741l1.148,0.178c-0.109,0.843-0.276,1.628-0.499,2.358
		c0.707,1.504,1.803,2.367,3.288,2.59v-6.015h-6.248v-1.025h12.988v1.025h-5.605v2.214h4.758v1.012h-4.758v2.865
		c1.813,0.045,3.787,0.029,5.92-0.049c-0.155,0.355-0.287,0.734-0.396,1.135c-2.233,0.027-4.184,0.014-5.852-0.041
		c-2.056,0-3.565-0.834-4.532-2.502c-0.52,1.209-1.224,2.229-2.112,3.063C44.195,20.545,43.954,20.19,43.681,19.834z M44.487,9.007
		h5.831c-0.27-0.392-0.554-0.774-0.854-1.148l1.039-0.561c0.355,0.41,0.743,0.87,1.162,1.381L51.05,9.007h5.537v2.598h-1.08v-1.572
		h-9.939v1.559h-1.08V9.007z"/>
</g>
<g>
	<g>
		<path fill="#6CCFF7" d="M17.206,21.792c-2.055,0-3.986-0.801-5.438-2.254S9.515,16.154,9.515,14.1c0-2.055,0.8-3.985,2.253-5.438
			s3.384-2.252,5.438-2.252c2.054,0,3.985,0.799,5.438,2.252c3,3,3,7.879,0,10.877C21.191,20.993,19.261,21.792,17.206,21.792z
			 M17.206,7.789c-1.687,0-3.271,0.656-4.463,1.85c-1.192,1.191-1.85,2.775-1.85,4.463c0,1.686,0.657,3.27,1.85,4.463
			c1.191,1.191,2.776,1.848,4.463,1.848c1.686,0,3.271-0.654,4.463-1.848c2.461-2.461,2.461-6.465,0-8.926
			C20.477,8.445,18.892,7.789,17.206,7.789z"/>
	</g>
	<path fill="#6CCFF7" d="M20.723,11.745c-0.128-0.13-0.297-0.194-0.466-0.201c-0.187-0.007-0.376,0.057-0.521,0.201l-3.229,3.228
		l-1.832-1.831c-0.145-0.145-0.336-0.208-0.524-0.201c-0.169,0.006-0.335,0.069-0.465,0.201c-0.128,0.127-0.192,0.294-0.199,0.463
		c-0.007,0.189,0.057,0.379,0.199,0.523l2.329,2.326c0.134,0.137,0.314,0.205,0.493,0.205c0.179,0,0.357-0.068,0.493-0.205
		l3.723-3.724c0.144-0.142,0.208-0.332,0.199-0.521C20.915,12.04,20.853,11.874,20.723,11.745z"/>
</g>
<g>
	<path fill="#6CCFF7" d="M62.6,1.799c0.992,0,1.799,0.809,1.799,1.801v21c0,0.992-0.807,1.799-1.799,1.799h-59
		c-0.994,0-1.801-0.807-1.801-1.799v-21c0-0.992,0.807-1.801,1.801-1.801H62.6 M62.6,0.6h-59c-1.658,0-3,1.342-3,3v21
		c0,1.656,1.342,3,3,3h59c1.658,0,3-1.344,3-3v-21C65.6,1.942,64.258,0.6,62.6,0.6L62.6,0.6z"/>
</g>
</svg>
