<?xml version="1.0" encoding="utf-8"?>
<!-- Generator: Adobe Illustrator 16.0.0, SVG Export Plug-In . SVG Version: 6.00 Build 0)  -->
<!DOCTYPE svg PUBLIC "-//W3C//DTD SVG 1.1//EN" "http://www.w3.org/Graphics/SVG/1.1/DTD/svg11.dtd">
<svg version="1.1" id="图层_1" xmlns="http://www.w3.org/2000/svg" xmlns:xlink="http://www.w3.org/1999/xlink" x="0px" y="0px"
	 width="200px" height="200px" viewBox="0 0 200 200" enable-background="new 0 0 200 200" xml:space="preserve">
<path fill="#6DCFF6" d="M12.739,99.781c0,48.173,39.051,87.228,87.228,87.228c48.172,0,87.227-39.055,87.227-87.228
	c0-48.172-39.055-87.227-87.227-87.227C51.79,12.555,12.739,51.609,12.739,99.781z M119.469,52.651v77.545l24.113-20.026
	c2.364-1.965,5.887-1.638,7.853,0.729c0.835,1.006,1.293,2.271,1.293,3.563c0.003,1.661-0.738,3.235-2.021,4.292l-40.82,33.896
	c-0.287,0.238-0.686,0.289-1.021,0.13c-0.338-0.158-0.553-0.497-0.553-0.869V52.651c0-3.079,2.504-5.583,5.583-5.583
	C116.969,47.068,119.469,49.572,119.469,52.651L119.469,52.651z M91.059,46.785c0.337,0.158,0.553,0.496,0.553,0.869v99.167
	c0.004,0.033,0.006,0.066,0.005,0.1c0,3.077-2.502,5.58-5.579,5.58c-3.077,0-5.58-2.503-5.58-5.58V69.373l-24.117,20.02
	c-2.362,1.965-5.884,1.642-7.852-0.721c-0.829-1.003-1.283-2.263-1.285-3.564c0-1.668,0.734-3.232,2.015-4.295l40.817-33.897
	C90.324,46.678,90.722,46.627,91.059,46.785L91.059,46.785z"/>
</svg>
