<?xml version="1.0" encoding="utf-8"?>
<!-- Generator: Adobe Illustrator 16.0.0, SVG Export Plug-In . SVG Version: 6.00 Build 0)  -->
<!DOCTYPE svg PUBLIC "-//W3C//DTD SVG 1.1//EN" "http://www.w3.org/Graphics/SVG/1.1/DTD/svg11.dtd">
<svg version="1.1" id="图层_1" xmlns="http://www.w3.org/2000/svg" xmlns:xlink="http://www.w3.org/1999/xlink" x="0px" y="0px"
	 width="66.199px" height="28.2px" viewBox="81.297 100.15 66.199 28.2" enable-background="new 81.297 100.15 66.199 28.2"
	 xml:space="preserve">
<g>
	<g>
		<path fill="#6CCFF7" d="M98.502,121.941c-2.054,0-3.986-0.801-5.438-2.253c-1.453-1.453-2.253-3.385-2.253-5.438
			c0-2.055,0.8-3.986,2.253-5.439c1.453-1.452,3.384-2.252,5.438-2.252s3.986,0.799,5.439,2.252c2.998,3,2.998,7.879,0,10.877
			C102.488,121.141,100.557,121.941,98.502,121.941z M98.502,107.938c-1.686,0-3.271,0.657-4.463,1.85
			c-1.192,1.191-1.849,2.776-1.849,4.463c0,1.686,0.657,3.27,1.849,4.463c1.192,1.191,2.777,1.848,4.463,1.848
			c1.686,0,3.271-0.656,4.462-1.848c2.461-2.461,2.461-6.465,0-8.926C101.773,108.595,100.188,107.938,98.502,107.938z"/>
		<path fill="#6CCFF7" d="M98.511,115.24c-0.381,0-0.69-0.309-0.69-0.689v-3.842c0-0.381,0.309-0.689,0.69-0.689
			c0.381,0,0.69,0.309,0.69,0.689v3.842C99.201,114.932,98.892,115.24,98.511,115.24z"/>
		<path fill="#6CCFF7" d="M96.465,117.437c-0.177,0-0.353-0.067-0.488-0.202c-0.27-0.27-0.27-0.706,0-0.976l2.046-2.046
			c0.269-0.27,0.706-0.27,0.976,0s0.27,0.706,0,0.976l-2.046,2.046C96.818,117.369,96.642,117.437,96.465,117.437z"/>
	</g>
	<g>
		<path fill="#6CCFF7" d="M143.896,101.95c0.992,0,1.8,0.808,1.8,1.8v21c0,0.992-0.808,1.8-1.8,1.8h-59c-0.993,0-1.8-0.808-1.8-1.8
			v-21c0-0.992,0.807-1.8,1.8-1.8H143.896 M143.896,100.75h-59c-1.657,0-3,1.343-3,3v21c0,1.657,1.343,3,3,3h59c1.658,0,3-1.343,3-3
			v-21C146.896,102.093,145.555,100.75,143.896,100.75L143.896,100.75z"/>
	</g>
	<text transform="matrix(1 0 0 1 110.7998 118.4639)" fill="#6CCFF7" font-family="'MicrosoftYaHei'" font-size="14">时间</text>
</g>
</svg>
