<?xml version="1.0" encoding="utf-8"?>
<!-- Generator: Adobe Illustrator 16.0.0, SVG Export Plug-In . SVG Version: 6.00 Build 0)  -->
<!DOCTYPE svg PUBLIC "-//W3C//DTD SVG 1.1//EN" "http://www.w3.org/Graphics/SVG/1.1/DTD/svg11.dtd">
<svg version="1.1" id="图层_1" xmlns="http://www.w3.org/2000/svg" xmlns:xlink="http://www.w3.org/1999/xlink" x="0px" y="0px"
	 width="25px" height="24.455px" viewBox="38.168 73.857 25 24.455" enable-background="new 38.168 73.857 25 24.455"
	 xml:space="preserve">
<path fill="#83ccf0" d="M60.036,81.418l-0.304-0.162H44.134c-1.116-0.774-1.493-1.394-1.465-1.729
	c0.034-0.428,0.698-1.007,1.365-1.358h2.969v0.241c0,1.013,0.823,1.837,1.836,1.837s1.836-0.824,1.836-1.837v-0.241h8.153v-2.711
	H50.66c-0.116-0.902-0.887-1.6-1.819-1.6c-0.931,0-1.705,0.697-1.82,1.6h-3.367l-0.398,0.082l-0.069,0.028
	c-0.309,0.134-3.032,1.386-3.222,3.738c-0.133,1.583,0.888,3.08,3.028,4.447l0.335,0.216h15.688
	c0.617,0.411,1.412,1.154,1.436,1.805c0.021,0.54-0.501,1.201-1.466,1.877h-2.583c-0.167-0.847-0.912-1.485-1.802-1.485
	c-0.896,0-1.641,0.641-1.806,1.485H40.963l-0.307,0.167c-0.22,0.121-2.165,1.248-2.453,3.428c-0.211,1.591,0.52,3.197,2.171,4.774
	l0.394,0.374h5.119v0.083c-0.002,1.012,0.821,1.836,1.834,1.836c1.014,0,1.836-0.824,1.836-1.837v-0.083h10.555l-0.003-2.713H49.557
	c-0.041-0.978-0.85-1.76-1.835-1.76c-0.986,0-1.792,0.782-1.834,1.76h-4.011c-0.541-0.588-1.075-1.366-0.984-2.075
	c0.073-0.571,0.541-1.018,0.83-1.24h11.039v0.355c0,1.013,0.823,1.839,1.838,1.839c1.011,0,1.834-0.826,1.834-1.839v-0.355h3.356
	l0.334-0.215c2.079-1.326,3.102-2.834,3.041-4.477C63.066,83.123,60.347,81.586,60.036,81.418z"/>
</svg>
