<?xml version="1.0" encoding="utf-8"?>
<!-- Generator: Adobe Illustrator 16.0.0, SVG Export Plug-In . SVG Version: 6.00 Build 0)  -->
<!DOCTYPE svg PUBLIC "-//W3C//DTD SVG 1.1//EN" "http://www.w3.org/Graphics/SVG/1.1/DTD/svg11.dtd">
<svg version="1.1" id="图层_1" xmlns="http://www.w3.org/2000/svg" xmlns:xlink="http://www.w3.org/1999/xlink" x="0px" y="0px"
	 width="174.283px" height="174.258px" viewBox="0 0 174.283 174.258" enable-background="new 0 0 174.283 174.258"
	 xml:space="preserve">
<path fill="#999999" d="M150.244,28.45h-19.607V13.112C130.637,5.883,124.756,0,117.525,0H56.759
	c-7.229,0-13.112,5.883-13.112,13.112V28.45H24.039C10.784,28.45,0,39.234,0,52.489v97.729c0,13.254,10.784,24.039,24.039,24.039
	h126.205c13.256,0,24.039-10.785,24.039-24.039V52.49C174.283,39.234,163.5,28.45,150.244,28.45z M53.481,13.112
	c0-1.808,1.471-3.278,3.278-3.278h60.767c1.807,0,3.277,1.471,3.277,3.278v15.179H53.481V13.112z M9.834,77.961V67.417V52.49
	c0-7.833,6.372-14.205,14.205-14.205h126.205c7.834,0,14.205,6.373,14.205,14.205v14.928v10.543v9.834H136.65V74.061
	c0-4.218-3.43-7.649-7.648-7.649h-20.668c-4.217,0-7.648,3.431-7.648,7.649v13.734H71.729V74.061c0-4.218-3.431-7.649-7.649-7.649
	H43.413c-4.218,0-7.649,3.431-7.649,7.649v13.734H9.834V77.961z M126.816,76.246v32.932H110.52V76.246H126.816z M61.895,76.246
	v32.932H45.598V76.246H61.895z M150.244,164.424H24.039c-7.833,0-14.205-6.373-14.205-14.205v-52.59h25.93v13.734
	c0,4.218,3.431,7.649,7.649,7.649h20.668c4.218,0,7.648-3.432,7.648-7.649V97.629h28.957v13.734c0,4.218,3.432,7.649,7.648,7.649
	h20.668c4.219,0,7.648-3.432,7.648-7.649V97.629h27.801v52.59C164.449,158.051,158.078,164.424,150.244,164.424z"/>
</svg>
