<?xml version="1.0" encoding="utf-8"?>
<!-- Generator: Adobe Illustrator 16.0.0, SVG Export Plug-In . SVG Version: 6.00 Build 0)  -->
<!DOCTYPE svg PUBLIC "-//W3C//DTD SVG 1.1//EN" "http://www.w3.org/Graphics/SVG/1.1/DTD/svg11.dtd">
<svg version="1.1" id="图层_1" xmlns="http://www.w3.org/2000/svg" xmlns:xlink="http://www.w3.org/1999/xlink" x="0px" y="0px"
	 width="180.234px" height="199.146px" viewBox="0 0 180.234 199.146" enable-background="new 0 0 180.234 199.146"
	 xml:space="preserve">
<path fill="#848484" d="M180.234,190.866c0,4.496-3.645,8.142-8.141,8.142c-4.497,0-8.146-3.646-8.146-8.142l-0.072-0.758
	c0-0.323,0.058-0.633,0.091-0.95c-5.086-35.746-35.732-62.016-73.048-62.43c-0.299,0.009-0.586,0.049-0.889,0.049
	c-0.295,0-0.579-0.04-0.874-0.049c-36.894,0.411-67.249,26.099-72.845,61.225c0.186,0.692,0.317,1.402,0.317,2.152l0.076,0.765
	c0,4.569-3.699,8.275-8.269,8.275c-4.566,0-8.272-3.706-8.272-8.275l-0.007-0.073H0c0.022-0.24,0.069-0.47,0.095-0.706
	c0-0.685,0.109-1.329,0.262-1.966c4.242-32.957,26.324-59.602,56.38-71.077c-17.502-11.213-28.909-31.025-28.909-53.659
	C27.828,28.38,55.029,0,90.037,0c35.004,0,62.209,28.38,62.209,63.389c0,22.626-11.399,42.434-28.891,53.648
	c29.849,11.386,51.833,37.718,56.308,70.349c0.306,0.852,0.506,1.762,0.506,2.723L180.234,190.866z M137.945,63.406
	c0-26.469-21.457-47.924-47.926-47.924c-26.47,0-47.922,21.458-47.922,47.924c0,26.467,21.456,47.922,47.922,47.922
	S137.945,89.874,137.945,63.406z"/>
</svg>
