<?xml version="1.0" encoding="utf-8"?>
<!-- Generator: Adobe Illustrator 16.0.0, SVG Export Plug-In . SVG Version: 6.00 Build 0)  -->
<!DOCTYPE svg PUBLIC "-//W3C//DTD SVG 1.1//EN" "http://www.w3.org/Graphics/SVG/1.1/DTD/svg11.dtd">
<svg version="1.1" id="图层_1" xmlns="http://www.w3.org/2000/svg" xmlns:xlink="http://www.w3.org/1999/xlink" x="0px" y="0px"
	 width="13px" height="10.832px" viewBox="0 0 13 10.832" enable-background="new 0 0 13 10.832" xml:space="preserve">
<g>
	<g>
		<g>
			<path fill="#77AE3B" d="M12.659,3.66c-1.191-1.113-3.343-3.138-3.814-3.594c-0.143-0.121-0.311-0.078-0.26,0.152
				c0.043,0.256,0.229,1.541,0.379,2.583H0v1.399h12.558C12.998,4.203,13.191,4.132,12.659,3.66z M13,6.628H0.442
				c-0.441,0-0.635,0.07-0.102,0.543c1.19,1.115,3.344,3.138,3.814,3.594c0.143,0.122,0.311,0.079,0.26-0.152
				c-0.044-0.256-0.229-1.539-0.379-2.582h8.963L13,6.628L13,6.628z"/>
		</g>
	</g>
</g>
</svg>
