<?xml version="1.0" encoding="utf-8"?>
<!-- Generator: Adobe Illustrator 21.1.0, SVG Export Plug-In . SVG Version: 6.00 Build 0)  -->
<svg version="1.1" id="图层_1" xmlns="http://www.w3.org/2000/svg" xmlns:xlink="http://www.w3.org/1999/xlink" x="0px" y="0px"
	 viewBox="0 0 37.5 37.8" style="enable-background:new 0 0 37.5 37.8;" xml:space="preserve">
<style type="text/css">
	.st0{fill-rule:evenodd;clip-rule:evenodd;fill:#BFBFBF;}
	.st1{fill:#FFFFFF;}
</style>
<g>
	<path class="st0" d="M18.8,0c10.4,0,18.8,8.5,18.8,18.9c0,10.4-8.4,18.9-18.8,18.9S0,29.3,0,18.9C0,8.5,8.4,0,18.8,0z"/>
	<path class="st1" d="M25.4,16.4l2.1-2.7c0.2-0.3,0.7-0.4,1.1-0.3c0.4,0.1,0.6,0.5,0.6,0.9v9.3c0,0.4-0.3,0.8-0.6,0.9
		c-0.4,0.1-0.8,0-1.1-0.3l-2.1-2.7v2.2c0,1-0.9,1.9-1.9,1.9H12.2c-1,0-1.9-0.8-1.9-1.9v-9.3c0-1,0.9-1.9,1.9-1.9h11.4
		c1,0,1.9,0.8,1.9,1.9L25.4,16.4L25.4,16.4z"/>
</g>
</svg>
