<?xml version="1.0" encoding="utf-8"?>
<!-- Generator: Adobe Illustrator 21.1.0, SVG Export Plug-In . SVG Version: 6.00 Build 0)  -->
<svg version="1.1" id="图层_1" xmlns="http://www.w3.org/2000/svg" xmlns:xlink="http://www.w3.org/1999/xlink" x="0px" y="0px"
	 viewBox="0 0 177.8 142.3" style="enable-background:new 0 0 177.8 142.3;" xml:space="preserve">
<style type="text/css">
	.st0{fill:#CDCDCD;}
</style>
<g>
	<path class="st0" d="M22.2,142.3C9.7,142.3,0,130.6,0,120.5V22.2C0,2.7,10.7,0,22.2,0h133.4c12.3,0,22.2,10,22.2,22.2v97.4
		c0,12.3-10,22.2-22.2,22.2L22.2,142.3C22.2,142.3,22.2,142.3,22.2,142.3L22.2,142.3z M22.2,8.9c-8.8,0-13.3,0.6-13.3,13.3v98.3
		c0,5.8,6.2,12.9,13.3,12.9l133.3-0.4c7.4,0,13.3-6,13.3-13.3V22.2c0-7.4-6-13.3-13.3-13.3C155.6,8.9,22.2,8.9,22.2,8.9z"/>
	<path class="st0" d="M119.2,66.9C110.1,60.2,101,53.6,91.9,47c-8.2-6-24.8-17.9-24.8-17.9s-7.7-2.3-7.7,5c0,7.3,0,66.2,0,74.1
		c0,7.9,8.3,4.8,8.3,4.8s34.3-24.9,51.5-37.4C123.5,72.4,123.5,70,119.2,66.9z M106.9,74.3C106.9,74.3,106.9,74.4,106.9,74.3
		c-11.2,8.2-33.5,24.3-33.5,24.3L73,98.8l-5.8,4.2l0-64.1l44.3,32L106.9,74.3z"/>
</g>
</svg>
