<?xml version="1.0" encoding="utf-8"?>
<!-- Generator: Adobe Illustrator 21.1.0, SVG Export Plug-In . SVG Version: 6.00 Build 0)  -->
<svg version="1.1" id="图层_1" xmlns="http://www.w3.org/2000/svg" xmlns:xlink="http://www.w3.org/1999/xlink" x="0px" y="0px"
	 viewBox="0 0 25.7 16.2" style="enable-background:new 0 0 25.7 16.2;" xml:space="preserve">
<style type="text/css">
	.st0{fill:#6DCFF6;}
</style>
<g>
	<path class="st0" d="M15.9,16.2H2.5C1.1,16.2,0,15,0,13.6v-11C0,1.2,1.1,0,2.5,0H16c1.4,0,2.5,1.1,2.5,2.6v11.1
		C18.4,15,17.3,16.2,15.9,16.2z M5.1,3.5C4.2,3.7,3.5,4.4,3.3,5.3C2.9,7,4.3,8.4,5.9,8.1c0.9-0.2,1.5-0.9,1.8-1.9
		C8.2,4.5,6.8,3.1,5.1,3.5z"/>
	<path class="st0" d="M24.5,13.7L21,11.6c-0.7-0.4-1.2-0.8-1.2-1.5V5.4c0-0.7,0.5-1,1.2-1.4L24.5,2c0.7-0.4,1.2-0.1,1.2,0.6v10.6
		C25.6,13.8,25.1,14.1,24.5,13.7z"/>
</g>
</svg>
