<?xml version="1.0" encoding="utf-8"?>
<!-- Generator: Adobe Illustrator 21.1.0, SVG Export Plug-In . SVG Version: 6.00 Build 0)  -->
<svg version="1.1" id="图层_1" xmlns="http://www.w3.org/2000/svg" xmlns:xlink="http://www.w3.org/1999/xlink" x="0px" y="0px"
	 viewBox="0 0 37.5 37.8" style="enable-background:new 0 0 37.5 37.8;" xml:space="preserve">
<style type="text/css">
	.st0{fill-rule:evenodd;clip-rule:evenodd;fill:#BFBFBF;}
	.st1{fill:#FFFFFF;}
</style>
<g>
	<path class="st0" d="M18.8,0c10.4,0,18.8,8.5,18.8,18.9c0,10.4-8.4,18.9-18.8,18.9S0,29.3,0,18.9C0,8.5,8.4,0,18.8,0z"/>
	<g>
		<path class="st1" d="M18.8,22.1c2.2,0,4-1.9,4-4.1v-5.7c0-2.3-1.8-4.1-4-4.1s-4,1.8-4,4.1V18C14.7,20.3,16.5,22.1,18.8,22.1
			L18.8,22.1z"/>
		<path class="st1" d="M24.6,16.4c-0.5,0-0.8,0.4-0.8,0.8v1.1c0,2.7-2.3,4.8-5,4.8s-5-2.2-5-4.8v-1.1c0-0.5-0.4-0.8-0.8-0.8
			S12,16.7,12,17.2v1.1c0,3.3,2.6,6.1,5.9,6.5v3.8h-2.2c-0.5,0-1.1,0.1-1.1,0.5c0,0.5,0.6,0.5,1.1,0.5h5.9c0.5,0,1.1-0.1,1.1-0.5
			s-0.6-0.5-1.1-0.5h-2.2v-3.8c3.2-0.5,5.9-3.3,5.9-6.5v-1.1C25.5,16.7,25.1,16.4,24.6,16.4L24.6,16.4z"/>
	</g>
</g>
</svg>
