<?xml version="1.0" encoding="utf-8"?>
<!-- Generator: Adobe Illustrator 16.0.0, SVG Export Plug-In . SVG Version: 6.00 Build 0)  -->
<!DOCTYPE svg PUBLIC "-//W3C//DTD SVG 1.1//EN" "http://www.w3.org/Graphics/SVG/1.1/DTD/svg11.dtd">
<svg version="1.1" id="图层_1" xmlns="http://www.w3.org/2000/svg" xmlns:xlink="http://www.w3.org/1999/xlink" x="0px" y="0px"
	 width="10.74px" height="10.74px" viewBox="0 0 10.74 10.74" enable-background="new 0 0 10.74 10.74" xml:space="preserve">
<path fill="#FFAB2D" d="M4.274,0.004C4.145,0.003,4.04,0.106,4.038,0.235c0,0.004,0,0.008,0,0.013l0.271,7.34
	c0.002,0.064,0.06,0.12,0.126,0.12h1.872c0.065,0,0.122-0.056,0.126-0.12l0.27-7.34c0.004-0.129-0.094-0.237-0.224-0.244
	c-0.004,0-0.008,0-0.012,0H4.274z M5.367,10.736c0.544,0,0.984-0.44,0.984-0.985S5.913,8.764,5.367,8.764
	c-0.545,0-0.988,0.442-0.988,0.987S4.823,10.736,5.367,10.736L5.367,10.736z"/>
</svg>
