<?xml version="1.0" encoding="utf-8"?>
<!-- Generator: Adobe Illustrator 21.1.0, SVG Export Plug-In . SVG Version: 6.00 Build 0)  -->
<svg version="1.1" id="图层_1" xmlns="http://www.w3.org/2000/svg" xmlns:xlink="http://www.w3.org/1999/xlink" x="0px" y="0px"
	 viewBox="0 0 173.8 158.7" style="enable-background:new 0 0 173.8 158.7;" xml:space="preserve">
<style type="text/css">
	.st0{fill:#9ECE69;}
</style>
<g>
	<path class="st0" d="M173.6,146.4l-19.9-99.5c-1-4.8-5.2-8.3-10.1-8.3H92.1v-4.4h25.7c3.8,0,6.9-3.1,6.9-6.9V6.9
		c0-3.8-3.1-6.9-6.9-6.9H56c-3.8,0-6.9,3.1-6.9,6.9v20.6c0,3.8,3.1,6.9,6.9,6.9h25.7v4.4H30.2c-4.9,0-9.1,3.5-10.1,8.3L0.2,146.4
		c-1.3,6.4,3.6,12.3,10.1,12.3h153.2C170,158.7,174.9,152.8,173.6,146.4L173.6,146.4z M59.5,10.3h54.9V24H59.5V10.3z M10.3,148.4
		l19.9-99.5h55.4c0.4,0.1,0.8,0.2,1.3,0.2H87c0.4,0,0.9-0.1,1.3-0.2h55.4l19.9,99.5H10.3z"/>
	<path class="st0" d="M114.3,125.7c-5.8,4.3-13.2,9.1-18.7,7.9c-2.7-0.6-5.1-2.7-7.3-6.4c-3.7-6.4-3.9-23-2.7-39.6h22.3
		c2.8,0,5.1-2.3,5.1-5.1c0-2.8-2.3-5.1-5.1-5.1H86.5c0.7-6.6,1.5-12.9,2.4-18.1c0.4-2.8-1.4-5.4-4.2-5.9c-2.8-0.5-5.4,1.4-5.9,4.2
		c-0.3,2.1-1.6,9.8-2.6,19.8H56.5c-2.8,0-5.1,2.3-5.1,5.1c0,2.8,2.3,5.1,5.1,5.1h18.8c-1.2,16.7-1.1,35.8,4.1,44.8
		c3.7,6.3,8.4,10.1,14.1,11.3c1.3,0.3,2.6,0.4,3.8,0.4c8.2,0,16.2-5,23.1-10.1c2.3-1.7,2.8-4.9,1.1-7.2
		C119.8,124.5,116.6,124,114.3,125.7L114.3,125.7z"/>
</g>
</svg>
