<?xml version="1.0" encoding="utf-8"?>
<!-- Generator: Adobe Illustrator 16.0.0, SVG Export Plug-In . SVG Version: 6.00 Build 0)  -->
<!DOCTYPE svg PUBLIC "-//W3C//DTD SVG 1.1//EN" "http://www.w3.org/Graphics/SVG/1.1/DTD/svg11.dtd">
<svg version="1.1" id="图层_1" xmlns="http://www.w3.org/2000/svg" xmlns:xlink="http://www.w3.org/1999/xlink" x="0px" y="0px"
	 width="160px" height="156.777px" viewBox="0 0 160 156.777" enable-background="new 0 0 160 156.777" xml:space="preserve">
<path fill="#6CCFF7" d="M57.263,93.904H34.388V71.028h22.875V93.904L57.263,93.904z M91.826,71.028H68.951v22.876h22.875V71.028z
	 M126.389,71.028h-22.875v22.876h22.875V71.028z M57.263,104.426H34.388v22.877h22.875V104.426L57.263,104.426z M91.826,104.426
	H68.951v22.877h22.875V104.426z M126.389,104.426h-22.875v22.877h22.875V104.426z M134.908,24.847c0,3.897-3.159,7.057-7.057,7.057
	c-3.896,0-7.057-3.16-7.057-7.057V7.089c0-3.897,3.16-7.057,7.057-7.057c3.897,0,7.057,3.16,7.057,7.057V24.847z M39.568,7.057
	C39.568,3.16,36.409,0,32.512,0c-3.897,0-7.057,3.16-7.057,7.057v17.758c0,3.897,3.159,7.057,7.057,7.057
	c3.896,0,7.057-3.16,7.057-7.057L39.568,7.057z M143.438,17.36v7.229c0,8.594-6.992,15.586-15.586,15.586
	s-15.586-6.992-15.586-15.586V17.36H48.098v7.197c0,8.594-6.992,15.586-15.585,15.586c-8.594,0-15.586-6.992-15.586-15.586V17.36H0
	v139.417h160V17.36H143.438L143.438,17.36z M144.466,141.244H15.534V54.847h128.932V141.244z"/>
</svg>
