<?xml version="1.0" encoding="utf-8"?>
<!-- Generator: Adobe Illustrator 16.0.0, SVG Export Plug-In . SVG Version: 6.00 Build 0)  -->
<!DOCTYPE svg PUBLIC "-//W3C//DTD SVG 1.1//EN" "http://www.w3.org/Graphics/SVG/1.1/DTD/svg11.dtd">
<svg version="1.1" id="图层_1" xmlns="http://www.w3.org/2000/svg" xmlns:xlink="http://www.w3.org/1999/xlink" x="0px" y="0px"
	 width="228.5px" height="228.5px" viewBox="0 0 228.5 228.5" enable-background="new 0 0 228.5 228.5" xml:space="preserve">
<g>
	<g>
		<g>
			<path fill="#FFFFFF" d="M114.242,228.491c-62.998,0-114.25-51.252-114.25-114.25c0-62.987,51.252-114.239,114.25-114.239
				s114.25,51.252,114.25,114.239C228.492,177.239,177.24,228.491,114.242,228.491z M114.242,4.002
				C53.45,4.002,3.992,53.46,3.992,114.241c0,60.792,49.458,110.25,110.25,110.25s110.25-49.458,110.25-110.25
				C224.492,53.46,175.034,4.002,114.242,4.002z"/>
		</g>
	</g>
	<path fill="#FFFFFF" d="M141.737,127.547v56.028l18.628-23.946l28.609-4.071L141.737,127.547L141.737,127.547z M145.43,68.448
		c-16.9-16.832-44.291-16.832-61.193,0c-16.897,16.834-16.897,44.128,0,60.963l30.597,42.004l20.132-27.642v-28.318l14.938,8.501
		C162.03,107.119,160.625,83.589,145.43,68.448z M114.962,110.678c-10.247,0-18.555-8.171-18.555-18.255
		c0-10.081,8.308-18.255,18.555-18.255c10.243,0,18.544,8.174,18.544,18.255C133.506,102.507,125.205,110.678,114.962,110.678z"/>
</g>
</svg>
