<?xml version="1.0" encoding="utf-8"?>
<!-- Generator: Adobe Illustrator 16.0.0, SVG Export Plug-In . SVG Version: 6.00 Build 0)  -->
<!DOCTYPE svg PUBLIC "-//W3C//DTD SVG 1.1//EN" "http://www.w3.org/Graphics/SVG/1.1/DTD/svg11.dtd">
<svg version="1.1" id="图层_1" xmlns="http://www.w3.org/2000/svg" xmlns:xlink="http://www.w3.org/1999/xlink" x="0px" y="0px"
	 width="228.5px" height="228.5px" viewBox="0 0 228.5 228.5" enable-background="new 0 0 228.5 228.5" xml:space="preserve">
<g>
	<g>
		<g>
			<path fill="#FFFFFF" d="M114.25,228.494C51.252,228.494,0,177.242,0,114.244C0,51.258,51.252,0.006,114.25,0.006
				S228.5,51.258,228.5,114.244C228.5,177.242,177.248,228.494,114.25,228.494z M114.25,4.006C53.458,4.006,4,53.464,4,114.244
				c0,60.793,49.458,110.25,110.25,110.25s110.25-49.457,110.25-110.25C224.5,53.464,175.042,4.006,114.25,4.006z"/>
		</g>
	</g>
	<path fill="#FFFFFF" d="M157.264,161.314H67.277l-0.91-0.863c-7.236-6.92-10.461-13.791-9.586-20.418
		c1.215-9.156,9.883-13.986,10.25-14.189l0.705-0.383h88.594c6.553-4.336,9.791-8.654,9.645-12.848
		c-0.195-5.511-6.439-10.389-9.547-12.255H79.473l-0.773-0.495c-9.32-5.95-13.787-12.204-13.262-18.579
		c0.797-9.768,13.189-15.188,13.715-15.416l1.236-0.253h70.598v6.275H81.072c-2.936,1.409-9.01,5.252-9.381,9.914
		c-0.293,3.683,3.033,7.918,9.625,12.276h76.738l0.693,0.375c0.537,0.288,13.094,7.164,13.5,17.908
		c0.252,6.733-4.225,13.081-13.297,18.874l-0.775,0.498H69.428c-1.596,1.063-5.807,4.303-6.428,9.162
		c-0.551,4.275,1.74,9.031,6.814,14.143h87.447v6.271h0.002V161.314z M110.982,76.599c0,3.032-2.457,5.489-5.492,5.489
		c-3.033,0-5.49-2.457-5.49-5.489V63.262c0-3.032,2.459-5.491,5.49-5.491c3.035,0,5.492,2.457,5.492,5.491V76.599L110.982,76.599z
		 M139.223,136.998c0,3.037-2.457,5.494-5.492,5.494c-3.037,0-5.49-2.457-5.49-5.494v-13.334c0-3.033,2.453-5.49,5.49-5.49
		c3.035,0,5.492,2.457,5.492,5.49V136.998z M105.492,165.238c0,3.035-2.459,5.492-5.492,5.492c-3.035,0-5.492-2.457-5.492-5.492
		v-13.334c0-3.033,2.457-5.492,5.492-5.492c3.033,0,5.492,2.459,5.492,5.492V165.238z"/>
</g>
</svg>
