<?xml version="1.0" encoding="utf-8"?>
<!-- Generator: Adobe Illustrator 16.0.0, SVG Export Plug-In . SVG Version: 6.00 Build 0)  -->
<!DOCTYPE svg PUBLIC "-//W3C//DTD SVG 1.1//EN" "http://www.w3.org/Graphics/SVG/1.1/DTD/svg11.dtd">
<svg version="1.1" id="图层_1" xmlns="http://www.w3.org/2000/svg" xmlns:xlink="http://www.w3.org/1999/xlink" x="0px" y="0px"
	 width="240px" height="80px" viewBox="0 0 240 80" enable-background="new 0 0 240 80" xml:space="preserve">
<g>
	<path fill="#542411" d="M58.007,33.363c-0.259,1.464-0.95,2.867-2.084,3.996c-2.93,2.912-7.669,2.896-10.582-0.033
		c-2.909-2.93-2.897-7.667,0.036-10.58c0.755-0.754,1.637-1.306,2.573-1.666c-5.095-1.31-10.726,0.003-14.728,3.979
		c-6.043,6.007-6.074,15.771-0.065,21.813c6.004,6.045,15.771,6.072,21.813,0.065C59.746,46.193,60.75,39.109,58.007,33.363z"/>
	<path fill="#EB5B2B" d="M41.417,72.853L25.958,55.735l0.01-0.023c-8.209-9.457-7.815-23.781,1.197-32.746
		c9.41-9.352,24.614-9.301,33.967,0.104c8.839,8.895,9.267,22.959,1.343,32.373l0.008,0.025L46.575,72.87
		c7.562-0.568,14.969-3.724,20.766-9.486c12.917-12.838,12.979-33.711,0.143-46.627S33.772,3.777,20.854,16.615
		C7.94,29.453,7.874,50.326,20.71,63.244C26.473,69.044,33.86,72.241,41.417,72.853z"/>
	<g>
		<path fill="#F5C01C" d="M33.915,61.727l10.08,11.245l10.043-11.133C47.651,64.739,40.272,64.699,33.915,61.727z"/>
	</g>
	<g>
		<g>
			<path fill="#EB5B2B" d="M104.007,34.809v-3.604h3.165v3.604h8.096c1.715,0,3.035,0.341,3.955,1.026
				c1.188,0.9,1.785,2.119,1.785,3.672l-0.017,11.358c0,1.509-0.301,2.655-0.909,3.453c-0.941,1.247-2.339,1.866-4.191,1.866h-8.719
				l0.018,3.572l-3.183-0.02v-3.554h-7.998c-1.614,0-2.813-0.226-3.599-0.687c-1.422-0.834-2.137-2.408-2.137-4.731v-10.62
				c0-1.729,0.436-3.026,1.311-3.891c0.975-0.967,2.295-1.447,3.958-1.447L104.007,34.809L104.007,34.809z M104.007,53.021v-15.05
				h-8.569c-0.797,0-1.352,0.216-1.664,0.64c-0.229,0.315-0.338,0.81-0.338,1.483v10.424c0,0.764,0.024,1.217,0.082,1.357
				c0.283,0.775,0.901,1.164,1.854,1.164L104.007,53.021z M107.171,53.021l8.147,0.021c1.685,0.01,2.522-0.697,2.522-2.121V40.33
				c0-0.964-0.188-1.598-0.571-1.905c-0.358-0.279-0.961-0.426-1.817-0.438l-8.281-0.031V53.021L107.171,53.021z"/>
			<path fill="#EB5B2B" d="M126.022,44.388v-4.039c0.939-0.605,1.674-1.273,2.19-2.004c0.831-1.178,1.497-2.547,2.003-4.107
				c0.189-0.593,0.448-1.604,0.773-3.032h3.535c-0.461,2.458-1.141,4.636-2.035,6.532l0.031,21.984h-3.232V42.3
				C128.392,43.104,127.302,43.806,126.022,44.388z M135.015,36.763v-3.113h9.391v-2.34h3.149l0.016,2.34h9.404
				c0,0-0.325,3.113-3.936,3.113C149.428,36.763,135.015,36.763,135.015,36.763z M135.015,59.568v-3.163h21.96
				c0,0-0.111,3.163-4.043,3.163C149.003,59.568,135.015,59.568,135.015,59.568z M136.428,39.188h3.115v14.979
				c-0.89-0.045-0.781-0.227-1.269-0.539c-1.233-0.811-1.847-2.043-1.847-3.703V39.188L136.428,39.188z M152.163,54.183V39.188h3.12
				v10.771c0,1.482-0.489,2.623-1.468,3.418C153.222,53.871,153.199,54.138,152.163,54.183z"/>
			<path fill="#EB5B2B" d="M162.718,59.688V41.743h2.827v14.074C165.538,57.408,164.592,59.496,162.718,59.688z M162.11,39.891
				v-3.06h4.65v-2.392h-4.6v-2.843h11.884c0,0,0.024,2.843-3.001,2.843h-1.173v2.392h4.21c0,0-0.33,3.06-3.036,3.06h-1.174v19.915
				h-3.11V39.891H162.11z M175.998,54.302v-3.213h11.634V31.175h3.115v19.916h2.15v3.211h-2.15v5.555h-3.115v-5.555H175.998
				L175.998,54.302z M176.051,37.134v-3.265h9.292c0,0-0.546,3.265-3.094,3.265C179.702,37.134,176.051,37.134,176.051,37.134z
				 M176.051,45.951v-3.264h9.292c0,0,0.094,3.264-3.2,3.264C178.853,45.951,176.051,45.951,176.051,45.951z"/>
			<path fill="#EB5B2B" d="M202.141,37.352h-4.177v-3.28h4.177v-2.85h3.113v2.85h3.702c0,0,0.059,3.28-2.913,3.28h-0.789v17.843
				c0,1.716-0.585,3.001-1.751,3.854c-0.754,0.539-1.828,0.809-3.232,0.809c-0.337,0-0.822-0.02-1.462-0.051v-3.1
				c0.357-0.02,0.624-0.031,0.807-0.031c1-0.012,1.672-0.189,2.02-0.539c0.337-0.336,0.507-0.896,0.507-1.683L202.141,37.352
				L202.141,37.352z M210.54,59.806v-3.229c1.773-0.586,3.877-1.591,6.316-3.016c-2.159-1.984-3.655-3.552-4.499-4.695
				c-0.396-0.517-0.884-1.26-1.481-2.222h3.589c0.952,1.199,1.836,2.189,2.655,2.962c0.52,0.481,1.31,1.171,2.374,2.069
				c1.886-1.448,3.483-2.916,4.798-4.41c0.853-0.975,1.278-1.631,1.278-1.969c0-0.211-0.099-0.371-0.304-0.471
				c-0.123-0.066-0.573-0.101-1.362-0.101H210.54v-3.169h7.609v-4.643h-7.609v-3.115h7.609v-2.643h3.109v2.643h7.612
				c0,0,0.219,3.115-2.753,3.115c-2.977,0-4.859,0-4.859,0v4.643c2.225,0,3.604,0.037,4.127,0.104
				c1.133,0.124,2.017,0.624,2.645,1.497c0.438,0.604,0.659,1.279,0.659,2.023c0,1.121-0.594,2.363-1.772,3.729
				c-1.196,1.386-2.813,2.933-4.848,4.649c1.372,0.875,2.46,1.505,3.268,1.887c0.905,0.436,2.086,0.848,3.535,1.227l-0.084,3.133
				c-2.089-0.584-3.816-1.219-5.188-1.902c-1.043-0.514-2.414-1.327-4.107-2.443c-1.693,1.149-3.162,2.025-4.411,2.646
				C213.818,58.722,212.3,59.288,210.54,59.806z"/>
		</g>
		<path fill="#EB5B2B" d="M162.718,59.688V41.743h2.827v14.074C165.538,57.408,164.592,59.496,162.718,59.688z"/>
		<path fill="#EB5B2B" d="M171.045,59.688V41.743h2.825v14.074C173.859,57.408,172.918,59.496,171.045,59.688z"/>
		<polygon fill="#EB5B2B" points="197.965,47.906 197.965,51.41 208.957,44.61 208.957,41.105 		"/>
	</g>
	<g>
		<path fill="#EB5B2B" d="M218.688,16.287c-0.338-0.647-0.609-1.128-0.816-1.44l-0.352,1.051c0.39,0.804,0.623,1.258,0.7,1.361
			C218.377,17.052,218.533,16.729,218.688,16.287z"/>
		<rect x="203.472" y="15.003" fill="#EB5B2B" width="1.012" height="1.051"/>
		<rect x="203.472" y="13.02" fill="#EB5B2B" width="1.012" height="1.05"/>
		<path fill="#EB5B2B" d="M203.472,18.154c0.337-0.024,0.687-0.078,1.051-0.155v-1.013h-1.051V18.154z"/>
		<path fill="#EB5B2B" d="M215.422,17.843c0.336-0.414,0.674-1.023,1.011-1.827c-0.389-0.675-0.727-1.231-1.011-1.673V17.843z"/>
		<path fill="#EB5B2B" d="M226.053,9.714h-40.354c-1.559,0-2.82,1.263-2.82,2.822v7.523c0,1.557,1.263,2.82,2.82,2.82h34.803
			c1.618,2.543,3.401,5.01,3.401,5.01l2.394-5.032c1.443-0.127,2.574-1.324,2.574-2.798v-7.522
			C228.872,10.977,227.613,9.714,226.053,9.714z M207.401,11.542l0.622,1.478l-1.051,0.506l-0.623-1.556L207.401,11.542z
			 M198.369,17.57c-0.025,0.622-0.053,1.22-0.078,1.789c-0.025,0.44-0.168,0.726-0.427,0.856c-0.234,0.129-0.779,0.181-1.636,0.154
			c-0.076-0.492-0.181-0.881-0.312-1.167c0.935,0.208,1.349-0.194,1.245-1.206c0.078-1.037,0.143-2.256,0.195-3.656h-0.273
			c-0.025,2.904-1.024,4.94-2.994,6.107c-0.39-0.389-0.727-0.662-1.013-0.816c1.893-0.856,2.879-2.619,2.957-5.291h-0.312
			c-0.131,1.945-0.843,3.463-2.141,4.552c-0.285-0.233-0.582-0.429-0.895-0.583v2.373h-1.128v-2.995
			c-0.232,0.104-0.479,0.208-0.738,0.312c-0.233,0.077-0.468,0.168-0.7,0.271c-0.026-0.051-0.053-0.13-0.077-0.233
			c-0.131-0.415-0.234-0.778-0.313-1.089l1.828-0.389v-2.022h-0.545c-0.078,0.519-0.169,1.011-0.271,1.479
			c-0.363-0.078-0.728-0.169-1.09-0.272c0.233-0.906,0.4-2.035,0.507-3.384c0.726,0.078,1.127,0.13,1.204,0.155
			c0,0.027-0.014,0.064-0.038,0.117c-0.077,0.207-0.145,0.504-0.194,0.895h0.39V11.58c0.621,0,0.972,0.015,1.05,0.039
			c0.13,0,0.193,0.013,0.193,0.039s-0.013,0.065-0.038,0.116c-0.025,0.052-0.04,0.325-0.04,0.816v0.896h0.818v0.7
			c0.439-1.219,0.698-2.102,0.776-2.645c0.467,0.129,0.908,0.221,1.322,0.271c0.024,0.025,0.038,0.052,0.038,0.078
			c-0.104,0.232-0.22,0.519-0.35,0.854c-0.104,0.259-0.169,0.441-0.194,0.546h3.462C198.511,14.744,198.447,16.169,198.369,17.57z
			 M210.551,19.71c-0.231,0.26-0.453,0.57-0.661,0.934c-0.647-0.544-1.258-1.271-1.827-2.178c-0.44,0.83-1.051,1.556-1.827,2.178
			c-0.131-0.182-0.325-0.402-0.584-0.661v0.622h-1.167v-1.557c-0.777,0.183-1.674,0.39-2.685,0.623l-0.312-1.207l0.895-0.117V13.02
			h-0.7v-1.052h4.279v1.052h-0.313v4.745c0.078,0,0.272-0.038,0.585-0.116v1.011c-0.078,0.026-0.272,0.078-0.585,0.156v0.777
			c1.037-0.674,1.608-1.569,1.713-2.685h-1.439v-1.051h1.518v-1.245h-1.439v-1.011h2.179c0.233-0.752,0.414-1.439,0.545-2.062
			c0.935,0.182,1.413,0.284,1.438,0.311c-0.025,0.052-0.064,0.104-0.116,0.154c-0.232,0.363-0.492,0.896-0.777,1.596h1.052v1.011
			h-1.713v1.245h1.944v1.05h-1.866c0.232,1.167,0.934,2.036,2.101,2.606C210.732,19.567,210.654,19.632,210.551,19.71z
			 M219.816,20.565c-0.025-0.544-0.144-0.947-0.351-1.206c0.984,0.053,1.399-0.09,1.244-0.429v-6.067h-5.251v1.207
			c0.233-0.155,0.441-0.312,0.623-0.466c0.024,0.076,0.09,0.193,0.193,0.35c0.337,0.521,0.52,0.766,0.545,0.739
			c0.077-0.363,0.17-0.83,0.271-1.399l1.167,0.311l-0.232,0.699l0.466-0.311c0.025,0.078,0.104,0.208,0.233,0.389
			c0.183,0.287,0.323,0.494,0.429,0.623c0.154-0.52,0.271-1.09,0.35-1.711l1.128,0.35c-0.104,0.52-0.375,1.4-0.815,2.646
			c0.44,0.907,0.713,1.529,0.815,1.866c-0.363,0.13-0.713,0.298-1.05,0.505c-0.052-0.129-0.116-0.311-0.193-0.545
			c-0.078-0.232-0.131-0.427-0.155-0.583c-0.025,0-0.117,0.13-0.272,0.39c-0.26,0.494-0.545,0.946-0.854,1.361
			c-0.286-0.207-0.609-0.375-0.974-0.505c0.26-0.285,0.545-0.647,0.855-1.089c-0.233,0.078-0.453,0.193-0.661,0.352
			c-0.026-0.026-0.078-0.131-0.155-0.313c-0.104-0.286-0.169-0.48-0.194-0.583c-0.312,0.623-0.688,1.206-1.128,1.75
			c-0.077-0.156-0.222-0.351-0.428-0.583v2.14h-1.167v-8.636h7.74v7.468C222.176,20.189,221.45,20.617,219.816,20.565z"/>
		<path fill="#EB5B2B" d="M193.856,15.937c-0.39-0.207-0.727-0.375-1.012-0.506c0.232-0.336,0.401-0.647,0.506-0.935h-0.661v1.712
			l0.739-0.233c0,0.052,0,0.116,0,0.194c0.052,0.389,0.104,0.635,0.154,0.739l-0.895,0.312v0.934
			c1.141-0.751,1.827-2.023,2.062-3.813h-0.077C194.414,14.886,194.141,15.419,193.856,15.937z"/>
	</g>
</g>
</svg>
